<svg xmlns="http://www.w3.org/2000/svg" xmlns:xlink="http://www.w3.org/1999/xlink" viewBox="0 0 109.417 113.386"><path fill="#FFF" d="M95.906-6.988v84.472H-7.842"/><path fill-rule="evenodd" clip-rule="evenodd" fill="#FFF" d="M3.119 87.046h103.749V18.873H36a1.416 1.416 0 0 1-1.417-1.417V2.574H8.504v14.882a1.414 1.414 0 0 1-1.417 1.417H3.119v68.173z"/><path fill-rule="evenodd" clip-rule="evenodd" fill="#FFF" d="M3.119 87.046h103.749V18.873H36a1.416 1.416 0 0 1-1.417-1.417V2.574H8.504v14.882a1.414 1.414 0 0 1-1.417 1.417H3.119v68.173z"/><path fill="none" stroke="#000" stroke-width=".567" stroke-linecap="round" stroke-miterlimit="10" d="M3.119 87.046h103.749V18.873H36a1.416 1.416 0 0 1-1.417-1.417V2.574H8.504v14.882a1.414 1.414 0 0 1-1.417 1.417H3.119v68.173z"/><path fill-rule="evenodd" clip-rule="evenodd" fill="#FFF" d="M11.056 44.526a2.834 2.834 0 1 0 0-5.668 2.834 2.834 0 0 0 0 5.668z"/><path fill="none" stroke="#000" stroke-width=".283" stroke-linecap="round" stroke-miterlimit="10" d="M11.056 44.526a2.834 2.834 0 1 0 0-5.668 2.834 2.834 0 0 0 0 5.668z"/><path fill-rule="evenodd" clip-rule="evenodd" fill="#FFF" d="M98.93 44.526a2.835 2.835 0 1 0-.002-5.67 2.835 2.835 0 0 0 .002 5.67z"/><path fill="none" stroke="#000" stroke-width=".283" stroke-linecap="round" stroke-miterlimit="10" d="M98.93 44.526a2.835 2.835 0 1 0-.002-5.67 2.835 2.835 0 0 0 .002 5.67z"/><defs><path id="z" d="M3.119 87.046h103.749V18.873H36a1.416 1.416 0 0 1-1.417-1.417V2.574H8.504v14.882a1.414 1.414 0 0 1-1.417 1.417H3.119v68.173z"/></defs><clipPath id="A"><use xlink:href="#z" overflow="visible"/></clipPath><path clip-path="url(#A)" fill="none" stroke="#000" stroke-width=".425" stroke-linecap="round" stroke-miterlimit="10" d="M6.614 22.038l.472-.473M7.086 21.565v-.944M7.086 20.621l-.472-.472M6.614 20.149H4.725M4.725 20.149l-.473.472M4.252 20.621v.944M4.252 21.565l.473.473M4.725 22.038h.944M5.669 22.038v-.945M4.252 22.982h2.834M7.086 22.982v1.417M7.086 24.399l-.472.473M6.614 24.872h-.945M5.669 24.872l-.472-.473M5.197 24.399v-1.417M6.614 27.705l.472-.472M7.086 27.233v-.944M7.086 26.289l-.472-.473M6.614 25.816h-.472M6.142 25.816l-.473.473M5.669 26.289v.944M5.669 27.233l-.472.472M5.197 27.705h-.472M4.725 27.705l-.473-.472M4.252 27.233v-.944M4.252 26.289l.473-.473"/><path clip-path="url(#A)" fill="none" stroke="#000" stroke-width=".567" stroke-linecap="round" stroke-miterlimit="10" d="M17.859 61.677h2.833M19.275 60.26v2.834M10.489 61.677h2.833"/><path clip-path="url(#A)" fill="none" stroke="#000" stroke-width=".425" stroke-linecap="round" stroke-miterlimit="10" d="M6.237 63.803v2.834M6.237 66.637h1.416M7.653 66.637l.473-.472M8.126 66.165v-.473M8.126 65.692v-.472M8.126 65.22l-.473-.472M7.653 64.748H6.237M9.542 64.748h.945M10.487 64.748l.472.472M10.959 65.22v1.417M10.959 66.637H9.542M9.542 66.637l-.472-.472M9.07 66.165l.472-.473M9.542 65.692h1.417M12.376 64.276v.472M12.376 64.748h-.472M11.904 64.748h.945M12.849 64.748h-.473M12.376 64.748v1.417M12.376 66.165l.473.472M14.738 64.276v.472M14.738 64.748h-.472M14.266 64.748h.944M15.21 64.748h-.472M14.738 64.748v1.417M14.738 66.165l.472.472M18.044 66.637h-.945M17.099 66.637l-.472-.472M16.627 66.165v-.945M16.627 65.22l.472-.472M17.099 64.748h.945M18.044 64.748l.472.472M18.516 65.22v.472M18.516 65.692h-1.889M19.461 64.748v1.889M19.461 66.637v-.945M19.461 65.692l.472-.472M19.933 65.22l.472-.472M20.405 64.748h.472M22.294 64.748v1.417M22.294 66.165l.473.472M22.767 66.637h1.417M24.184 66.637v.472M24.184 67.109l-.473.473M23.711 67.582h-.472M24.184 66.637v-1.889M6.237 67.772v2.833M6.237 70.605h1.416M7.653 70.605l.473-.472M8.126 70.133v-.472M8.126 69.661v-.472M8.126 69.189l-.473-.473M7.653 68.716H6.237M9.542 68.716h.945M10.487 68.716l.472.473M10.959 69.189v1.416M10.959 70.605H9.542M9.542 70.605l-.472-.472M9.07 70.133l.472-.472M9.542 69.661h1.417M13.793 68.716h-1.417M12.376 68.716l-.472.473M11.904 69.189v.944M11.904 70.133l.472.472M12.376 70.605h1.417M14.738 70.605v-2.833M14.738 69.661l1.417-.945M14.738 69.661l1.417.944M17.572 68.716v1.417M17.572 70.133l.472.472M18.044 70.605h1.417M19.461 70.605v-1.889M20.405 71.55v-2.834M20.405 68.716h1.417M21.822 68.716l.472.473M22.294 69.189v.944M22.294 70.133l-.472.472M21.822 70.605h-1.417M23.812 81.472l.377-.378M24.189 81.094h.756M24.945 81.094l.378.378M25.323 81.472v.378M25.323 81.85l-.378.378M24.945 82.228h-.378M24.567 82.228h.378M24.945 82.228l.378.378M25.323 82.606v.378M25.323 82.984l-.378.377M24.945 83.361h-.756M24.189 83.361l-.377-.377M26.079 81.094v2.267M26.079 83.361h1.133M27.212 83.361l.378-.377M27.59 82.984v-1.512M27.59 81.472l-.378-.378M27.212 81.094h-1.133M32.124 81.094h-1.512M30.612 81.094v1.134M30.612 82.228h.756M31.368 82.228h-.756M30.612 82.228v1.133M32.879 83.361h.756M33.635 83.361h-.378M33.257 83.361V81.85M33.257 81.85h-.378M34.769 81.85l1.511 1.511M36.28 83.361l-.756-.755M35.524 82.606l.756-.756M36.28 81.85l-1.511 1.511"/><circle fill-rule="evenodd" clip-rule="evenodd" fill="#FFF" cx="38.693" cy="35.739" r=".708"/><path fill-rule="evenodd" clip-rule="evenodd" fill="#FFF" d="M32.315 32.337H77.67 32.315zM77.67 33.401v-1.063 1.063zM32.315 33.401v-1.063 1.063zM32.315 77.692H77.67 32.315zM77.67 77.692v-1.063 1.063zM32.315 77.692v-1.063 1.063z"/><path fill-rule="evenodd" clip-rule="evenodd" fill="#B6D7A8" d="M35.15 37.297v-2.832l-.002-.001h-5.666l-.001.001v2.832l.001.001h5.666z"/><path fill="none" stroke="#B6D7A8" stroke-width=".283" stroke-linecap="round" stroke-miterlimit="10" d="M35.15 37.297v-2.832l-.002-.001h-5.666l-.001.001v2.832l.001.001h5.666z"/><path fill-rule="evenodd" clip-rule="evenodd" fill="#B6D7A8" d="M35.15 41.549v-2.832l-.002-.001h-5.666l-.001.001v2.832l.001.001h5.666z"/><path fill="none" stroke="#B6D7A8" stroke-width=".283" stroke-linecap="round" stroke-miterlimit="10" d="M35.15 41.549v-2.832l-.002-.001h-5.666l-.001.001v2.832l.001.001h5.666z"/><path fill-rule="evenodd" clip-rule="evenodd" fill="#B6D7A8" d="M35.15 45.8v-2.831l-.002-.001h-5.666l-.001.001V45.8l.001.002h5.666z"/><path fill="none" stroke="#B6D7A8" stroke-width=".283" stroke-linecap="round" stroke-miterlimit="10" d="M35.15 45.8v-2.831l-.002-.001h-5.666l-.001.001V45.8l.001.002h5.666z"/><path fill-rule="evenodd" clip-rule="evenodd" fill="#B6D7A8" d="M35.15 50.052v-2.831l-.002-.001h-5.666l-.001.001v2.831l.001.002h5.666z"/><path fill="none" stroke="#B6D7A8" stroke-width=".283" stroke-linecap="round" stroke-miterlimit="10" d="M35.15 50.052v-2.831l-.002-.001h-5.666l-.001.001v2.831l.001.002h5.666z"/><path fill-rule="evenodd" clip-rule="evenodd" fill="#B6D7A8" d="M35.15 54.304v-2.831l-.002-.001h-5.666l-.001.001v2.831l.001.002h5.666z"/><path fill="none" stroke="#B6D7A8" stroke-width=".283" stroke-linecap="round" stroke-miterlimit="10" d="M35.15 54.304v-2.831l-.002-.001h-5.666l-.001.001v2.831l.001.002h5.666z"/><path fill-rule="evenodd" clip-rule="evenodd" fill="#B6D7A8" d="M35.15 58.557v-2.832l-.002-.001h-5.666l-.001.001v2.832l.001.001h5.666z"/><path fill="none" stroke="#B6D7A8" stroke-width=".283" stroke-linecap="round" stroke-miterlimit="10" d="M35.15 58.557v-2.832l-.002-.001h-5.666l-.001.001v2.832l.001.001h5.666z"/><path fill-rule="evenodd" clip-rule="evenodd" fill="#B6D7A8" d="M35.15 62.809v-2.832l-.002-.002h-5.666l-.001.002v2.832l.001.001h5.666z"/><path fill="none" stroke="#B6D7A8" stroke-width=".283" stroke-linecap="round" stroke-miterlimit="10" d="M35.15 62.809v-2.832l-.002-.002h-5.666l-.001.002v2.832l.001.001h5.666z"/><path fill-rule="evenodd" clip-rule="evenodd" fill="#B6D7A8" d="M35.15 67.061v-2.832l-.002-.002h-5.666l-.001.002v2.832l.001.001h5.666z"/><path fill="none" stroke="#B6D7A8" stroke-width=".283" stroke-linecap="round" stroke-miterlimit="10" d="M35.15 67.061v-2.832l-.002-.002h-5.666l-.001.002v2.832l.001.001h5.666z"/><path fill-rule="evenodd" clip-rule="evenodd" fill="#B6D7A8" d="M35.15 71.313v-2.832l-.002-.002h-5.666l-.001.002v2.832l.001.001h5.666z"/><path fill="none" stroke="#B6D7A8" stroke-width=".283" stroke-linecap="round" stroke-miterlimit="10" d="M35.15 71.313v-2.832l-.002-.002h-5.666l-.001.002v2.832l.001.001h5.666z"/><path fill-rule="evenodd" clip-rule="evenodd" fill="#B6D7A8" d="M35.15 75.565v-2.832l-.002-.002h-5.666l-.001.002v2.832l.001.001h5.666z"/><path fill="none" stroke="#B6D7A8" stroke-width=".283" stroke-linecap="round" stroke-miterlimit="10" d="M35.15 75.565v-2.832l-.002-.002h-5.666l-.001.002v2.832l.001.001h5.666z"/><path fill-rule="evenodd" clip-rule="evenodd" fill="#B6D7A8" d="M80.504 75.565v-2.832l-.002-.002h-5.666V75.566h5.666z"/><path fill="none" stroke="#B6D7A8" stroke-width=".283" stroke-linecap="round" stroke-miterlimit="10" d="M80.504 75.565v-2.832l-.002-.002h-5.666V75.566h5.666z"/><path fill-rule="evenodd" clip-rule="evenodd" fill="#B6D7A8" d="M80.504 71.313v-2.832l-.002-.002h-5.666V71.314h5.666z"/><path fill="none" stroke="#B6D7A8" stroke-width=".283" stroke-linecap="round" stroke-miterlimit="10" d="M80.504 71.313v-2.832l-.002-.002h-5.666V71.314h5.666z"/><path fill-rule="evenodd" clip-rule="evenodd" fill="#B6D7A8" d="M80.504 67.061v-2.832l-.002-.002h-5.666V67.062h5.666z"/><path fill="none" stroke="#B6D7A8" stroke-width=".283" stroke-linecap="round" stroke-miterlimit="10" d="M80.504 67.061v-2.832l-.002-.002h-5.666V67.062h5.666z"/><path fill-rule="evenodd" clip-rule="evenodd" fill="#B6D7A8" d="M80.504 62.809v-2.832l-.002-.002h-5.666V62.81h5.666z"/><path fill="none" stroke="#B6D7A8" stroke-width=".283" stroke-linecap="round" stroke-miterlimit="10" d="M80.504 62.809v-2.832l-.002-.002h-5.666V62.81h5.666z"/><path fill-rule="evenodd" clip-rule="evenodd" fill="#B6D7A8" d="M80.504 58.557v-2.832l-.002-.001h-5.666V58.558h5.666z"/><path fill="none" stroke="#B6D7A8" stroke-width=".283" stroke-linecap="round" stroke-miterlimit="10" d="M80.504 58.557v-2.832l-.002-.001h-5.666V58.558h5.666z"/><path fill-rule="evenodd" clip-rule="evenodd" fill="#B6D7A8" d="M80.504 54.304v-2.831l-.002-.001h-5.666V54.306h5.666z"/><path fill="none" stroke="#B6D7A8" stroke-width=".283" stroke-linecap="round" stroke-miterlimit="10" d="M80.504 54.304v-2.831l-.002-.001h-5.666V54.306h5.666z"/><path fill-rule="evenodd" clip-rule="evenodd" fill="#B6D7A8" d="M80.504 50.052v-2.831l-.002-.001h-5.666V50.054h5.666z"/><path fill="none" stroke="#B6D7A8" stroke-width=".283" stroke-linecap="round" stroke-miterlimit="10" d="M80.504 50.052v-2.831l-.002-.001h-5.666V50.054h5.666z"/><path fill-rule="evenodd" clip-rule="evenodd" fill="#B6D7A8" d="M80.504 45.8v-2.831l-.002-.001h-5.666V45.802h5.666z"/><path fill="none" stroke="#B6D7A8" stroke-width=".283" stroke-linecap="round" stroke-miterlimit="10" d="M80.504 45.8v-2.831l-.002-.001h-5.666V45.802h5.666z"/><path fill-rule="evenodd" clip-rule="evenodd" fill="#B6D7A8" d="M80.504 41.549v-2.832l-.002-.001h-5.666V41.55h5.666z"/><path fill="none" stroke="#B6D7A8" stroke-width=".283" stroke-linecap="round" stroke-miterlimit="10" d="M80.504 41.549v-2.832l-.002-.001h-5.666V41.55h5.666z"/><path fill-rule="evenodd" clip-rule="evenodd" fill="#B6D7A8" d="M80.504 37.297v-2.832l-.002-.001h-5.666V37.298h5.666z"/><path fill="none" stroke="#B6D7A8" stroke-width=".283" stroke-linecap="round" stroke-miterlimit="10" d="M80.504 37.297v-2.832l-.002-.001h-5.666V37.298h5.666z"/><circle fill="none" stroke="#000" stroke-width=".283" stroke-linecap="round" stroke-miterlimit="10" cx="38.693" cy="35.739" r=".708"/><path fill="none" stroke="#000" stroke-width=".283" stroke-linecap="round" stroke-miterlimit="10" d="M32.315 32.337H77.67 32.315zM77.67 33.401v-1.063 1.063zM32.315 33.401v-1.063 1.063zM32.315 77.692H77.67 32.315zM77.67 77.692v-1.063 1.063zM32.315 77.692v-1.063 1.063z"/><path fill-rule="evenodd" clip-rule="evenodd" fill="#FFF" d="M9.837 3.906h22.28v8.674H9.837z"/><path fill-rule="evenodd" clip-rule="evenodd" fill="#B6D7A8" d="M11.623 12.494V3.992h-.001v-.001h-1.7v8.504h1.7z"/><path fill="none" stroke="#B6D7A8" stroke-width=".283" stroke-linecap="round" stroke-miterlimit="10" d="M11.623 12.494V3.992h-.001v-.001h-1.7v8.504h1.7z"/><path fill-rule="evenodd" clip-rule="evenodd" fill="#B6D7A8" d="M13.89 12.494V6.26l-.001-.001H12.19l-.001.001v6.234l.001.001h1.699z"/><path fill="none" stroke="#B6D7A8" stroke-width=".283" stroke-linecap="round" stroke-miterlimit="10" d="M13.89 12.494V6.26l-.001-.001H12.19l-.001.001v6.234l.001.001h1.699z"/><path fill-rule="evenodd" clip-rule="evenodd" fill="#B6D7A8" d="M16.158 12.494V6.26l-.001-.001h-1.699l-.001.001v6.234l.001.001h1.699z"/><path fill="none" stroke="#B6D7A8" stroke-width=".283" stroke-linecap="round" stroke-miterlimit="10" d="M16.158 12.494V6.26l-.001-.001h-1.699l-.001.001v6.234l.001.001h1.699z"/><path fill-rule="evenodd" clip-rule="evenodd" fill="#B6D7A8" d="M18.426 12.494V6.26l-.001-.001h-1.699l-.001.001v6.234l.001.001h1.699z"/><path fill="none" stroke="#B6D7A8" stroke-width=".283" stroke-linecap="round" stroke-miterlimit="10" d="M18.426 12.494V6.26l-.001-.001h-1.699l-.001.001v6.234l.001.001h1.699z"/><path fill-rule="evenodd" clip-rule="evenodd" fill="#B6D7A8" d="M20.693 12.494V6.26l-.001-.001h-1.698l-.001.001v6.234l.001.001h1.698z"/><path fill="none" stroke="#B6D7A8" stroke-width=".283" stroke-linecap="round" stroke-miterlimit="10" d="M20.693 12.494V6.26l-.001-.001h-1.698l-.001.001v6.234l.001.001h1.698z"/><path fill-rule="evenodd" clip-rule="evenodd" fill="#B6D7A8" d="M22.961 12.494V6.26l-.001-.001h-1.699l-.001.001v6.234l.001.001h1.699z"/><path fill="none" stroke="#B6D7A8" stroke-width=".283" stroke-linecap="round" stroke-miterlimit="10" d="M22.961 12.494V6.26l-.001-.001h-1.699l-.001.001v6.234l.001.001h1.699z"/><path fill-rule="evenodd" clip-rule="evenodd" fill="#B6D7A8" d="M25.229 12.494V6.26l-.001-.001h-1.699l-.001.001v6.234l.001.001h1.699z"/><path fill="none" stroke="#B6D7A8" stroke-width=".283" stroke-linecap="round" stroke-miterlimit="10" d="M25.229 12.494V6.26l-.001-.001h-1.699l-.001.001v6.234l.001.001h1.699z"/><path fill-rule="evenodd" clip-rule="evenodd" fill="#B6D7A8" d="M27.497 12.494V6.26l-.001-.001h-1.7V12.495h1.7z"/><path fill="none" stroke="#B6D7A8" stroke-width=".283" stroke-linecap="round" stroke-miterlimit="10" d="M27.497 12.494V6.26l-.001-.001h-1.7V12.495h1.7z"/><path fill-rule="evenodd" clip-rule="evenodd" fill="#B6D7A8" d="M29.764 12.494V6.26l-.001-.001h-1.699l-.001.001v6.234l.001.001h1.699z"/><path fill="none" stroke="#B6D7A8" stroke-width=".283" stroke-linecap="round" stroke-miterlimit="10" d="M29.764 12.494V6.26l-.001-.001h-1.699l-.001.001v6.234l.001.001h1.699z"/><path fill-rule="evenodd" clip-rule="evenodd" fill="#B6D7A8" d="M32.032 12.494V6.26l-.001-.001h-1.699l-.001.001v6.234l.001.001h1.699z"/><path fill="none" stroke="#B6D7A8" stroke-width=".283" stroke-linecap="round" stroke-miterlimit="10" d="M32.032 12.494V6.26l-.001-.001h-1.699l-.001.001v6.234l.001.001h1.699z"/><path fill="none" stroke="#000" stroke-width=".283" stroke-linecap="round" stroke-miterlimit="10" d="M9.837 3.906h22.28v8.674H9.837z"/><path fill-rule="evenodd" clip-rule="evenodd" fill="#FFF" d="M3.969 80.527h5.669v5.669H3.969z"/><path fill-rule="evenodd" clip-rule="evenodd" fill="#B6D7A8" d="M5.388 84.779h2.831l.002-.002v-2.831l-.002-.002H5.388l-.002.002v2.831z"/><path fill="none" stroke="#B6D7A8" stroke-width=".283" stroke-linecap="round" stroke-miterlimit="10" d="M5.388 84.779h2.831l.002-.002v-2.831l-.002-.002H5.388l-.002.002v2.831z"/><path fill="none" stroke="#000" stroke-width=".283" stroke-linecap="round" stroke-miterlimit="10" d="M3.969 80.527h5.669v5.669H3.969z"/><path fill-rule="evenodd" clip-rule="evenodd" fill="#FFF" d="M100.348 80.527h5.668v5.669h-5.668z"/><path fill-rule="evenodd" clip-rule="evenodd" fill="#B6D7A8" d="M103.182 84.637a1.275 1.275 0 1 0 0-2.55 1.275 1.275 0 0 0 0 2.55z"/><path fill="none" stroke="#B6D7A8" stroke-width=".283" stroke-linecap="round" stroke-miterlimit="10" d="M103.182 84.637a1.275 1.275 0 1 0 0-2.55 1.275 1.275 0 0 0 0 2.55z"/><path fill="none" stroke="#000" stroke-width=".283" stroke-linecap="round" stroke-miterlimit="10" d="M100.348 80.527h5.668v5.669h-5.668z"/><path fill-rule="evenodd" clip-rule="evenodd" fill="#FFF" d="M100.348 49.062h5.668v5.67h-5.668z"/><path fill-rule="evenodd" clip-rule="evenodd" fill="#B6D7A8" d="M103.182 53.172a1.275 1.275 0 1 0 0-2.55 1.275 1.275 0 0 0 0 2.55z"/><path fill="none" stroke="#B6D7A8" stroke-width=".283" stroke-linecap="round" stroke-miterlimit="10" d="M103.182 53.172a1.275 1.275 0 1 0 0-2.55 1.275 1.275 0 0 0 0 2.55z"/><path fill="none" stroke="#000" stroke-width=".283" stroke-linecap="round" stroke-miterlimit="10" d="M100.348 49.062h5.668v5.67h-5.668z"/><path fill-rule="evenodd" clip-rule="evenodd" fill="#FFF" d="M22.876 58.615h-14.4 14.4zM22.876 51.416v7.199-7.199zM22.876 51.416h-14.4 14.4zM8.476 51.416v7.199-7.199z"/><path fill-rule="evenodd" clip-rule="evenodd" fill="#A4C2F4" d="M12.076 53.031a1.984 1.984 0 1 0 0 3.969 1.984 1.984 0 0 0 0-3.969z"/><path fill="none" stroke="#A4C2F4" stroke-width=".283" stroke-linecap="round" stroke-miterlimit="10" d="M12.076 53.031a1.984 1.984 0 1 0 0 3.969 1.984 1.984 0 0 0 0-3.969z"/><path fill-rule="evenodd" clip-rule="evenodd" fill="#A4C2F4" d="M21.4 52.888h-4.248l-.002.003v4.247l.002.002H21.4l.002-.002v-4.247z"/><path fill="none" stroke="#A4C2F4" stroke-width=".283" stroke-linecap="round" stroke-miterlimit="10" d="M21.4 52.888h-4.248l-.002.003v4.247l.002.002H21.4l.002-.002v-4.247z"/><path fill="none" stroke="#000" stroke-width=".283" stroke-linecap="round" stroke-miterlimit="10" d="M22.876 58.615h-14.4 14.4zM22.876 51.416v7.199-7.199zM22.876 51.416h-14.4 14.4zM8.476 51.416v7.199-7.199z"/><path fill-rule="evenodd" clip-rule="evenodd" fill="#FFF" d="M22.749 78.681h2.689v-4.815h-2.689v4.052zM25.438 78.681v-.763M22.749 77.918h2.689M22.749 78.681v-.763M22.749 78.681h2.689M22.749 77.918v-3.291M22.749 74.627h2.689M25.438 77.918v-3.291M22.749 77.918h2.689M22.749 74.627v-.761M22.749 73.866h2.689M25.438 74.627v-.761M22.749 74.627h2.689"/><path fill-rule="evenodd" clip-rule="evenodd" fill="#B6D7A8" d="M25.37 73.298h-2.55l-.001.001v1.983l.001.001h2.55l.001-.001v-1.983z"/><path fill="none" stroke="#B6D7A8" stroke-width=".283" stroke-linecap="round" stroke-miterlimit="10" d="M25.37 73.298h-2.55l-.001.001v1.983l.001.001h2.55l.001-.001v-1.983z"/><path fill-rule="evenodd" clip-rule="evenodd" fill="#B6D7A8" d="M25.37 77.267h-2.55l-.001.001v1.982l.001.001h2.55l.001-.001v-1.982z"/><path fill="none" stroke="#B6D7A8" stroke-width=".283" stroke-linecap="round" stroke-miterlimit="10" d="M25.37 77.267h-2.55l-.001.001v1.982l.001.001h2.55l.001-.001v-1.982z"/><path fill="none" stroke="#000" stroke-width=".283" stroke-linecap="round" stroke-miterlimit="10" d="M22.749 78.681h2.689v-4.815h-2.689v4.052zM25.438 78.681v-.763M22.749 77.918h2.689M22.749 78.681v-.763M22.749 78.681h2.689M22.749 77.918v-3.291M22.749 74.627h2.689M25.438 77.918v-3.291M22.749 77.918h2.689M22.749 74.627v-.761M22.749 73.866h2.689M25.438 74.627v-.761M22.749 74.627h2.689"/><path fill-rule="evenodd" clip-rule="evenodd" fill="#FFF" d="M16.158 81.661l.147.019.136.057.117.091.09.116.057.136.02.147-.02.148-.057.136-.09.119-.117.088-.136.057-.147.019v.568h4.535v-.568l-.147-.019-.136-.057-.119-.088-.088-.119-.057-.136-.02-.148.02-.147.057-.136.088-.116.119-.091.136-.057.147-.019v-.568h-4.535zM20.693 81.093h-.85M20.693 83.362v-.568M20.693 81.661l-.147.019M20.546 81.68l-.136.057M20.41 81.737l-.119.091M20.291 81.828l-.088.116M20.203 81.944l-.057.136M20.146 82.08l-.02.147M20.146 82.375l-.02-.148M20.203 82.511l-.057-.136M20.291 82.63l-.088-.119M20.41 82.718l-.119-.088M20.546 82.775l-.136-.057M20.693 82.794l-.147-.019M20.693 81.661v-.568M16.158 83.362v-.568M16.305 82.775l-.147.019M16.441 82.718l-.136.057M16.558 82.63l-.117.088M16.648 82.511l-.09.119M16.705 82.375l-.057.136M16.725 82.227l-.02.148M16.725 82.227l-.02-.147M16.705 82.08l-.057-.136M16.648 81.944l-.09-.116M16.558 81.828l-.117-.091M16.441 81.737l-.136-.057M16.305 81.68l-.147-.019M16.158 81.661v-.568M17.008 81.093h-.85M16.234 83.131l-.005-.053M16.254 83.18l-.02-.049M16.286 83.225l-.032-.045M16.328 83.259l-.042-.034M16.376 83.282l-.048-.023M16.427 83.291l-.051-.009M16.481 83.288l-.054.003M16.532 83.271l-.051.017M16.578 83.243l-.046.028M16.611 83.203l-.033.04M16.64 83.158l-.029.045M16.651 83.106l-.011.052M16.651 83.106v-.054M16.651 83.052l-.011-.051M16.64 83.001l-.029-.047M16.611 82.954l-.033-.04M16.578 82.914l-.046-.029M16.532 82.885l-.051-.014M16.481 82.871l-.054-.006M16.427 82.865l-.051.011M16.376 82.876l-.048.023M16.328 82.899l-.042.034M16.286 82.933l-.032.043M16.254 82.976l-.02.051M16.234 83.027l-.005.051M19.843 83.362v-2.269M19.843 81.093h-.142M19.843 83.362h-.142M20.693 83.362h-.85M17.008 83.362h-.85M19.701 81.093H17.15M19.701 83.362v-2.269M19.701 83.362H17.15M17.008 83.362v-2.269M17.15 81.093h-.142M17.15 83.362v-2.269M17.15 83.362h-.142"/><path fill-rule="evenodd" clip-rule="evenodd" fill="#B6D7A8" d="M21.685 81.235h-2.266l-.002.002v1.981l.002.001h2.266l.001-.001v-1.981z"/><path fill="none" stroke="#B6D7A8" stroke-width=".283" stroke-linecap="round" stroke-miterlimit="10" d="M21.685 81.235h-2.266l-.002.002v1.981l.002.001h2.266l.001-.001v-1.981z"/><path fill-rule="evenodd" clip-rule="evenodd" fill="#B6D7A8" d="M17.433 81.235h-2.266l-.001.002v1.981l.001.001h2.266l.001-.001v-1.981z"/><path fill="none" stroke="#B6D7A8" stroke-width=".283" stroke-linecap="round" stroke-miterlimit="10" d="M17.433 81.235h-2.266l-.001.002v1.981l.001.001h2.266l.001-.001v-1.981z"/><path fill="none" stroke="#000" stroke-width=".283" stroke-linecap="round" stroke-miterlimit="10" d="M16.158 81.661l.147.019.136.057.117.091.09.116.057.136.02.147-.02.148-.057.136-.09.119-.117.088-.136.057-.147.019v.568h4.535v-.568l-.147-.019-.136-.057-.119-.088-.088-.119-.057-.136-.02-.148.02-.147.057-.136.088-.116.119-.091.136-.057.147-.019v-.568h-4.535zM20.693 81.093h-.85M20.693 83.362v-.568M20.693 81.661l-.147.019M20.546 81.68l-.136.057M20.41 81.737l-.119.091M20.291 81.828l-.088.116M20.203 81.944l-.057.136M20.146 82.08l-.02.147M20.146 82.375l-.02-.148M20.203 82.511l-.057-.136M20.291 82.63l-.088-.119M20.41 82.718l-.119-.088M20.546 82.775l-.136-.057M20.693 82.794l-.147-.019M20.693 81.661v-.568M16.158 83.362v-.568M16.305 82.775l-.147.019M16.441 82.718l-.136.057M16.558 82.63l-.117.088M16.648 82.511l-.09.119M16.705 82.375l-.057.136M16.725 82.227l-.02.148M16.725 82.227l-.02-.147M16.705 82.08l-.057-.136M16.648 81.944l-.09-.116M16.558 81.828l-.117-.091M16.441 81.737l-.136-.057M16.305 81.68l-.147-.019M16.158 81.661v-.568M17.008 81.093h-.85M16.234 83.131l-.005-.053M16.254 83.18l-.02-.049M16.286 83.225l-.032-.045M16.328 83.259l-.042-.034M16.376 83.282l-.048-.023M16.427 83.291l-.051-.009M16.481 83.288l-.054.003M16.532 83.271l-.051.017M16.578 83.243l-.046.028M16.611 83.203l-.033.04M16.64 83.158l-.029.045M16.651 83.106l-.011.052M16.651 83.106v-.054M16.651 83.052l-.011-.051M16.64 83.001l-.029-.047M16.611 82.954l-.033-.04M16.578 82.914l-.046-.029M16.532 82.885l-.051-.014M16.481 82.871l-.054-.006M16.427 82.865l-.051.011M16.376 82.876l-.048.023M16.328 82.899l-.042.034M16.286 82.933l-.032.043M16.254 82.976l-.02.051M16.234 83.027l-.005.051M19.843 83.362v-2.269M19.843 81.093h-.142M19.843 83.362h-.142M20.693 83.362h-.85M17.008 83.362h-.85M19.701 81.093H17.15M19.701 83.362v-2.269M19.701 83.362H17.15M17.008 83.362v-2.269M17.15 81.093h-.142M17.15 83.362v-2.269M17.15 83.362h-.142"/><path fill-rule="evenodd" clip-rule="evenodd" fill="#FFF" d="M39.047 23.054h-2.693v4.961h2.693v-3.969zM39.047 27.023v.992M39.047 27.023h-2.693M36.354 27.023v.992M39.047 28.015h-2.693M39.047 23.054v.992M39.047 24.046h-2.693M36.354 23.054v.992M39.047 23.054h-2.693M39.047 24.046v2.977M39.047 24.046h-2.693M36.354 24.046v2.977M39.047 27.023h-2.693"/><path fill-rule="evenodd" clip-rule="evenodd" fill="#B6D7A8" d="M36.285 29.078h2.833l.001-.001v-2.549l-.001-.001h-2.834V29.078z"/><path fill="none" stroke="#B6D7A8" stroke-width=".283" stroke-linecap="round" stroke-miterlimit="10" d="M36.285 29.078h2.833l.001-.001v-2.549l-.001-.001h-2.834V29.078z"/><path fill-rule="evenodd" clip-rule="evenodd" fill="#B6D7A8" d="M36.285 24.542h2.833l.001-.001v-2.548l-.001-.001v-.001h-2.833l-.001.001v2.55z"/><path fill="none" stroke="#B6D7A8" stroke-width=".283" stroke-linecap="round" stroke-miterlimit="10" d="M36.285 24.542h2.833l.001-.001v-2.548l-.001-.001v-.001h-2.833l-.001.001v2.55z"/><path fill="none" stroke="#000" stroke-width=".283" stroke-linecap="round" stroke-miterlimit="10" d="M39.047 23.054h-2.693v4.961h2.693v-3.969zM39.047 27.023v.992M39.047 27.023h-2.693M36.354 27.023v.992M39.047 28.015h-2.693M39.047 23.054v.992M39.047 24.046h-2.693M36.354 23.054v.992M39.047 23.054h-2.693M39.047 24.046v2.977M39.047 24.046h-2.693M36.354 24.046v2.977M39.047 27.023h-2.693"/><path fill-rule="evenodd" clip-rule="evenodd" fill="#FFF" d="M25.583 52.959h2.693V48h-2.693v3.968zM25.583 48.992V48M25.583 48.992h2.693M28.276 48.992V48M25.583 48h2.693M25.583 52.959v-.991M25.583 51.968h2.693M28.276 52.959v-.991M25.583 52.959h2.693M25.583 51.968v-2.976M25.583 51.968h2.693M28.276 51.968v-2.976M25.583 48.992h2.693"/><path fill-rule="evenodd" clip-rule="evenodd" fill="#B6D7A8" d="M28.346 46.936h-2.832l-.001.001h-.001v2.549l.001.001.001.001h2.832l.001-.001v-2.55z"/><path fill="none" stroke="#B6D7A8" stroke-width=".283" stroke-linecap="round" stroke-miterlimit="10" d="M28.346 46.936h-2.832l-.001.001h-.001v2.549l.001.001.001.001h2.832l.001-.001v-2.55z"/><path fill-rule="evenodd" clip-rule="evenodd" fill="#B6D7A8" d="M28.346 51.472H25.512v2.549l.001.002H28.347V51.472z"/><path fill="none" stroke="#B6D7A8" stroke-width=".283" stroke-linecap="round" stroke-miterlimit="10" d="M28.346 51.472H25.512v2.549l.001.002H28.347V51.472z"/><path fill="none" stroke="#000" stroke-width=".283" stroke-linecap="round" stroke-miterlimit="10" d="M25.583 52.959h2.693V48h-2.693v3.968zM25.583 48.992V48M25.583 48.992h2.693M28.276 48.992V48M25.583 48h2.693M25.583 52.959v-.991M25.583 51.968h2.693M28.276 52.959v-.991M25.583 52.959h2.693M25.583 51.968v-2.976M25.583 51.968h2.693M28.276 51.968v-2.976M25.583 48.992h2.693"/><path fill-rule="evenodd" clip-rule="evenodd" fill="#FFF" d="M43.299 23.054h-2.693v4.961h2.693v-3.969zM43.299 24.046v2.977M43.299 24.046h-2.693M40.606 24.046v2.977M43.299 27.023h-2.693M43.299 23.054v.992M43.299 24.046h-2.693M40.606 23.054v.992M43.299 23.054h-2.693M43.299 27.023v.992M43.299 27.023h-2.693M40.606 27.023v.992M43.299 28.015h-2.693"/><path fill-rule="evenodd" clip-rule="evenodd" fill="#B6D7A8" d="M40.395 24.542h3.115l.002-.001v-3.115l-.002-.002h-3.115l-.001.002v3.115z"/><path fill="none" stroke="#B6D7A8" stroke-width=".283" stroke-linecap="round" stroke-miterlimit="10" d="M40.395 24.542h3.115l.002-.001v-3.115l-.002-.002h-3.115l-.001.002v3.115z"/><path fill-rule="evenodd" clip-rule="evenodd" fill="#B6D7A8" d="M40.395 29.645h3.115l.002-.002v-3.115l-.002-.002h-3.115l-.001.002v3.115z"/><path fill="none" stroke="#B6D7A8" stroke-width=".283" stroke-linecap="round" stroke-miterlimit="10" d="M40.395 29.645h3.115l.002-.002v-3.115l-.002-.002h-3.115l-.001.002v3.115z"/><path fill="none" stroke="#000" stroke-width=".283" stroke-linecap="round" stroke-miterlimit="10" d="M43.299 23.054h-2.693v4.961h2.693v-3.969zM43.299 24.046v2.977M43.299 24.046h-2.693M40.606 24.046v2.977M43.299 27.023h-2.693M43.299 23.054v.992M43.299 24.046h-2.693M40.606 23.054v.992M43.299 23.054h-2.693M43.299 27.023v.992M43.299 27.023h-2.693M40.606 27.023v.992M43.299 28.015h-2.693"/><path fill-rule="evenodd" clip-rule="evenodd" fill="#FFF" d="M31.749 22.983h2.834v5.103h-2.834zM31.749 22.983h2.834M34.583 28.086v-5.103M31.749 28.086h2.834M31.749 28.086v-5.103"/><path fill-rule="evenodd" clip-rule="evenodd" fill="#B6D7A8" d="M34.44 22.417h-2.55v2.549l.001.001.001.001h2.548l.001-.001v-2.55z"/><path fill="none" stroke="#B6D7A8" stroke-width=".283" stroke-linecap="round" stroke-miterlimit="10" d="M34.44 22.417h-2.55v2.549l.001.001.001.001h2.548l.001-.001v-2.55z"/><path fill-rule="evenodd" clip-rule="evenodd" fill="#B6D7A8" d="M34.44 26.102h-2.549l-.001.001v2.548l.001.001.001.001h2.548l.001-.001v-2.55z"/><path fill="none" stroke="#B6D7A8" stroke-width=".283" stroke-linecap="round" stroke-miterlimit="10" d="M34.44 26.102h-2.549l-.001.001v2.548l.001.001.001.001h2.548l.001-.001v-2.55z"/><path fill="none" stroke="#000" stroke-width=".283" stroke-linecap="round" stroke-miterlimit="10" d="M31.749 22.983h2.834v5.103h-2.834zM31.749 22.983h2.834M34.583 28.086v-5.103M31.749 28.086h2.834M31.749 28.086v-5.103"/><path fill-rule="evenodd" clip-rule="evenodd" fill="#FFF" d="M97.229 21.566H93.26v.921h-1.559v1.276h1.559v4.11h-1.559v1.275h1.559v.922h3.969v-3.614H98.787V25.18h-1.558zM93.1 27.873h-.162M92.938 27.873h-.149M92.789 27.873h-.121M92.668 27.873h-.088M92.58 27.873h-.043M92.475 27.873h-.012M92.463 27.873h-.022M92.441 27.873h-.029M92.412 27.873h-.039M92.373 27.873h-.039M92.373 29.148h-.039M92.412 29.148h-.039M92.441 29.148h-.029M92.463 29.148h-.022M92.475 29.148h-.012M92.58 29.148h-.043M92.668 29.148h-.088M92.789 29.148h-.121M92.938 29.148h-.149M93.1 29.148h-.162M91.701 27.873v1.275M92.334 27.873h-.633M92.334 29.148h-.633M92.537 27.873h-.062M92.537 29.148h-.062M93.26 29.148h-.16M93.26 27.873h-.16M92.373 23.763h-.039M92.412 23.763h-.039M92.441 23.763h-.029M92.463 23.763h-.022M92.475 23.763h-.012M92.58 23.763h-.043M92.668 23.763h-.088M92.789 23.763h-.121M92.938 23.763h-.149M93.1 23.763h-.162M93.1 22.487h-.162M92.938 22.487h-.149M92.789 22.487h-.121M92.668 22.487h-.088M92.58 22.487h-.043M92.475 22.487h-.012M92.463 22.487h-.022M92.441 22.487h-.029M92.412 22.487h-.039M92.373 22.487h-.039M92.537 22.487h-.062M92.537 23.763h-.062M92.334 22.487h-.633M92.334 23.763h-.633M91.701 22.487v1.276M93.26 23.763h-.16M93.26 22.487h-.16M98.025 26.456h-.011M98.049 26.456h-.024M98.08 26.456h-.031M98.115 26.456h-.035M98.156 26.456h-.041M97.553 26.456h-.162M97.699 26.456h-.146M97.82 26.456h-.121M97.908 26.456h-.088M97.951 26.456h-.043M98.156 25.18h-.041M98.115 25.18h-.035M98.08 25.18h-.031M98.049 25.18h-.024M98.025 25.18h-.011M97.951 25.18h-.043M97.908 25.18h-.088M97.82 25.18h-.121M97.699 25.18h-.146M97.553 25.18h-.162M98.787 25.18v1.276M98.787 26.456h-.631M98.787 25.18h-.631M98.014 26.456h-.063M98.014 25.18h-.063M97.391 25.18h-.162M97.391 26.456h-.162M93.396 21.702v8.232M93.26 29.148v.922M93.26 27.873v1.275M93.26 23.763v4.11M93.26 22.487v1.276M93.26 21.566v.921M97.092 21.702h-3.696M93.26 21.566l.136.136M97.229 21.566H93.26M97.092 21.702v8.232M97.229 21.566l-.137.136M97.229 21.566v3.614M97.229 25.18v1.276M97.229 26.456v3.614M93.396 29.934l-.136.136M97.092 29.934h-3.696M97.092 29.934l.137.136M97.229 30.07H93.26M92.334 27.873v1.275M92.475 27.873v1.275M92.537 27.873v1.275M93.1 27.873v1.275M92.475 22.487v1.276M92.537 22.487v1.276M92.334 22.487v1.276M93.1 22.487v1.276M98.156 25.18v1.276M98.014 25.18v1.276M97.951 25.18v1.276M97.391 25.18v1.276"/><path fill-rule="evenodd" clip-rule="evenodd" fill="#B6D7A8" d="M90.496 22.205v1.841h2.977V22.204h-2.977z"/><path fill="none" stroke="#B6D7A8" stroke-width=".283" stroke-linecap="round" stroke-miterlimit="10" d="M90.496 22.205v1.841h2.977V22.204h-2.977z"/><path fill-rule="evenodd" clip-rule="evenodd" fill="#B6D7A8" d="M90.496 27.591v1.841h2.977V27.589h-2.975l-.002.001z"/><path fill="none" stroke="#B6D7A8" stroke-width=".283" stroke-linecap="round" stroke-miterlimit="10" d="M90.496 27.591v1.841h2.977V27.589h-2.975l-.002.001z"/><path fill-rule="evenodd" clip-rule="evenodd" fill="#B6D7A8" d="M97.016 24.897V26.739h2.976V24.896h-2.974l-.002.001z"/><path fill="none" stroke="#B6D7A8" stroke-width=".283" stroke-linecap="round" stroke-miterlimit="10" d="M97.016 24.897V26.739h2.976V24.896h-2.974l-.002.001z"/><path fill="none" stroke="#000" stroke-width=".283" stroke-linecap="round" stroke-miterlimit="10" d="M97.229 21.566H93.26v.921h-1.559v1.276h1.559v4.11h-1.559v1.275h1.559v.922h3.969v-3.614H98.787V25.18h-1.558zM93.1 27.873h-.162M92.938 27.873h-.149M92.789 27.873h-.121M92.668 27.873h-.088M92.58 27.873h-.043M92.475 27.873h-.012M92.463 27.873h-.022M92.441 27.873h-.029M92.412 27.873h-.039M92.373 27.873h-.039M92.373 29.148h-.039M92.412 29.148h-.039M92.441 29.148h-.029M92.463 29.148h-.022M92.475 29.148h-.012M92.58 29.148h-.043M92.668 29.148h-.088M92.789 29.148h-.121M92.938 29.148h-.149M93.1 29.148h-.162M91.701 27.873v1.275M92.334 27.873h-.633M92.334 29.148h-.633M92.537 27.873h-.062M92.537 29.148h-.062M93.26 29.148h-.16M93.26 27.873h-.16M92.373 23.763h-.039M92.412 23.763h-.039M92.441 23.763h-.029M92.463 23.763h-.022M92.475 23.763h-.012M92.58 23.763h-.043M92.668 23.763h-.088M92.789 23.763h-.121M92.938 23.763h-.149M93.1 23.763h-.162M93.1 22.487h-.162M92.938 22.487h-.149M92.789 22.487h-.121M92.668 22.487h-.088M92.58 22.487h-.043M92.475 22.487h-.012M92.463 22.487h-.022M92.441 22.487h-.029M92.412 22.487h-.039M92.373 22.487h-.039M92.537 22.487h-.062M92.537 23.763h-.062M92.334 22.487h-.633M92.334 23.763h-.633M91.701 22.487v1.276M93.26 23.763h-.16M93.26 22.487h-.16M98.025 26.456h-.011M98.049 26.456h-.024M98.08 26.456h-.031M98.115 26.456h-.035M98.156 26.456h-.041M97.553 26.456h-.162M97.699 26.456h-.146M97.82 26.456h-.121M97.908 26.456h-.088M97.951 26.456h-.043M98.156 25.18h-.041M98.115 25.18h-.035M98.08 25.18h-.031M98.049 25.18h-.024M98.025 25.18h-.011M97.951 25.18h-.043M97.908 25.18h-.088M97.82 25.18h-.121M97.699 25.18h-.146M97.553 25.18h-.162M98.787 25.18v1.276M98.787 26.456h-.631M98.787 25.18h-.631M98.014 26.456h-.063M98.014 25.18h-.063M97.391 25.18h-.162M97.391 26.456h-.162M93.396 21.702v8.232M93.26 29.148v.922M93.26 27.873v1.275M93.26 23.763v4.11M93.26 22.487v1.276M93.26 21.566v.921M97.092 21.702h-3.696M93.26 21.566l.136.136M97.229 21.566H93.26M97.092 21.702v8.232M97.229 21.566l-.137.136M97.229 21.566v3.614M97.229 25.18v1.276M97.229 26.456v3.614M93.396 29.934l-.136.136M97.092 29.934h-3.696M97.092 29.934l.137.136M97.229 30.07H93.26M92.334 27.873v1.275M92.475 27.873v1.275M92.537 27.873v1.275M93.1 27.873v1.275M92.475 22.487v1.276M92.537 22.487v1.276M92.334 22.487v1.276M93.1 22.487v1.276M98.156 25.18v1.276M98.014 25.18v1.276M97.951 25.18v1.276M97.391 25.18v1.276"/><path fill-rule="evenodd" clip-rule="evenodd" fill="#FFF" d="M83.34 75v2.833h1.133v.568h5.103v-.568h1.133V75h.68v-1.702h-.68v-2.835h-1.133v-.566h-5.103v.566h-.284l-.849.851v1.984h-.682V75zM90.709 70.463v7.37M83.34 71.314v6.519M90.709 77.833H83.34M84.473 69.897v.566M89.576 69.897v.566M89.576 69.897h-5.103M91.389 75h-.68M91.389 73.298V75M91.389 73.298h-.68M82.658 73.298V75M83.34 75h-.682M83.34 73.298h-.682M84.473 77.833v.568M89.576 78.401h-5.103M89.576 77.833v.568M85.277 72.703l-.166.229M85.111 72.932l-.138.253M84.973 73.185l-.106.264M84.867 73.449l-.07.274M84.797 73.723l-.035.284M84.762 74.007v.284M84.762 74.291l.035.283M84.797 74.574l.07.275M84.867 74.849l.106.267M84.973 75.116l.138.249M85.111 75.365l.166.229M86.971 74.103l-.01.015M86.961 74.118l-.006.016M86.955 74.134l-.002.021M86.953 74.155l.002.016M86.955 74.171l.01.017M86.965 74.188l.012.012M90.709 70.463h-6.52M84.189 70.463l-.849.851M87.307 76.399l-.284.018M87.588 76.345l-.281.054M87.859 76.257l-.271.088M88.119 76.136l-.26.121M88.355 75.983l-.236.153M88.578 75.801l-.223.182M88.773 75.594l-.195.207M88.939 75.365l-.166.229M89.076 75.116l-.137.249M89.182 74.849l-.106.267M89.252 74.574l-.07.275M89.289 74.291l-.037.283M89.289 74.007v.284M89.252 73.723l.037.284M89.182 73.449l.07.274M89.076 73.185l.106.264M88.939 72.932l.137.253M88.773 72.703l.166.229M88.578 72.496l.195.207M88.355 72.315l.223.181M88.119 72.162l.236.153M87.859 72.04l.26.122M87.588 71.952l.271.088M87.307 71.898l.281.054M87.023 71.881l.284.017M87.023 71.881l-.283.017M86.74 71.898l-.281.054M86.459 71.952l-.268.088M86.191 72.04l-.257.122M85.934 72.162l-.243.153M85.691 72.315l-.218.181M85.473 72.496l-.196.207M85.277 72.703l-.166.229M85.111 72.932l-.138.253M84.973 73.185l-.106.264M84.867 73.449l-.07.274M84.797 73.723l-.035.284M84.762 74.007v.284M84.762 74.291l.035.283M84.797 74.574l.07.275M84.867 74.849l.106.267M84.973 75.116l.138.249M85.111 75.365l.166.229M85.277 75.594l.196.207M85.473 75.801l.218.182M85.691 75.983l.243.153M85.934 76.136l.257.121M86.191 76.257l.268.088M86.459 76.345l.281.054M86.74 76.399l.283.018M87.023 71.597l-.304.021M86.719 71.618l-.305.053M86.414 71.671l-.295.094M86.119 71.765l-.279.124M85.84 71.889l-.264.159M85.576 72.048l-.244.19M85.332 72.238l-.219.219M85.113 72.457l-.189.243M84.924 72.7l-.158.263M84.766 72.963l-.125.282M84.641 73.245l-.094.295M84.547 73.54l-.055.302M84.492 73.842l-.019.307M84.473 74.149l.019.309M84.492 74.458l.055.303M84.547 74.761l.094.292M84.641 75.053l.125.28M84.766 75.333l.158.264M84.924 75.597l.189.244M85.113 75.841l.219.218M85.332 76.059l.244.191M85.576 76.25l.264.158M85.84 76.408l.279.128M86.119 76.536l.295.09M86.414 76.626l.305.057M86.719 76.683l.304.017M87.334 76.683l-.311.017M87.637 76.626l-.303.057M87.928 76.536l-.291.09M88.209 76.408l-.281.128M88.473 76.25l-.264.158M88.717 76.059l-.244.191M88.936 75.841l-.219.218M89.125 75.597l-.189.244M89.283 75.333l-.158.264M89.41 75.053l-.127.28M89.502 74.761l-.092.292M89.559 74.458l-.057.303M89.576 74.149l-.017.309M89.559 73.842l.017.307M89.502 73.54l.057.302M89.41 73.245l.092.295M89.283 72.963l.127.282M89.125 72.7l.158.263M88.936 72.457l.189.243M88.717 72.238l.219.219M88.473 72.048l.244.19M88.209 71.889l.264.159M87.928 71.765l.281.124M87.637 71.671l.291.094M87.334 71.618l.303.053M87.023 71.597l.311.021M87.023 71.314l.319.018M87.342 71.332l.314.053M87.656 71.385l.303.088M87.959 71.473l.295.121M88.254 71.594l.277.154M88.531 71.748l.262.184M88.793 71.932l.234.213M89.027 72.145l.213.237M89.24 72.382l.186.259M89.426 72.641l.152.277M89.578 72.918l.121.295M89.699 73.213l.088.306M89.787 73.519l.055.313M89.842 73.832l.017.317M89.859 74.149l-.017.317M89.842 74.466l-.055.315M89.787 74.781l-.088.303M89.699 75.084l-.121.294M89.578 75.378l-.152.279M89.426 75.657l-.186.26M89.24 75.917l-.213.236M89.027 76.153l-.234.213M88.793 76.366l-.262.183M88.531 76.549l-.277.154M88.254 76.703l-.295.122M87.959 76.825l-.303.088M87.656 76.913l-.314.053M87.342 76.966l-.319.017M86.707 76.966l.316.017M86.395 76.913l.312.053M86.088 76.825l.307.088M85.793 76.703l.295.122M85.516 76.549l.277.154M85.258 76.366l.258.183M85.02 76.153l.238.213M84.807 75.917l.213.236M84.623 75.657l.184.26M84.471 75.378l.152.279M84.348 75.084l.123.294M84.26 74.781l.088.303M84.207 74.466l.053.315M84.189 74.149l.018.317M84.207 73.832l-.018.317M84.26 73.519l-.053.313M84.348 73.213l-.088.306M84.471 72.918l-.123.295M84.623 72.641l-.152.277M84.807 72.382l-.184.259M85.02 72.145l-.213.237M85.258 71.932l-.238.213M85.516 71.748l-.258.184M85.793 71.594l-.277.154M86.088 71.473l-.295.121M86.395 71.385l-.307.088M86.707 71.332l-.312.053M87.023 71.314l-.316.018M89.578 72.918l.121.295M89.699 73.213l.088.306M89.787 73.519l.055.313M89.842 73.832l.017.317M89.859 74.149l-.017.317M89.842 74.466l-.055.315M89.787 74.781l-.088.303M89.699 75.084l-.121.294M87.041 74.216l-.018.003M87.059 74.211l-.018.005M87.072 74.2l-.013.011M87.084 74.188l-.012.012M87.092 74.171l-.008.017M87.096 74.155l-.004.016M87.096 74.134v.021M87.09 74.118l.006.016M87.078 74.103l.012.015M87.066 74.092l.012.011M87.049 74.083l.017.009M87.033 74.078l.016.005M87.033 74.078h-.017M87.016 74.078l-.018.005M86.998 74.083l-.016.009M86.982 74.092l-.011.011M86.971 74.103l-.01.015M86.961 74.118l-.006.016M86.955 74.134l-.002.021M86.953 74.155l.002.016M86.955 74.171l.01.017M86.965 74.188l.012.012M86.977 74.2l.013.011M86.99 74.211l.018.005M87.008 74.216l.015.003M87.732 74.194l-.033.173M87.721 74.015l.011.179M86.848 74.834l.175.023M86.684 74.769l.164.065M86.539 74.665l.145.104M86.426 74.529l.113.136M86.35 74.367l.076.162M86.318 74.194l.032.173M86.33 74.015l-.012.179M86.383 73.848l-.053.167M86.48 73.698l-.097.15M86.607 73.576l-.127.122M86.764 73.491l-.157.085M86.936 73.446l-.172.045M87.111 73.446h-.175M87.111 73.446l.174.045M87.285 73.491l.156.085M87.441 73.576l.129.122M87.57 73.698l.094.15M87.664 73.848l.057.167M87.721 74.015l.011.179M87.732 74.194l-.033.173M87.699 74.367l-.076.162M87.623 74.529l-.115.136M87.508 74.665l-.141.104M87.367 74.769l-.168.065M87.199 74.834l-.176.023M87.023 71.314v.283M87.061 74.288l-.038.003M87.092 74.273l-.031.015M87.121 74.253l-.029.02M87.143 74.225l-.022.028M87.16 74.194l-.017.031M87.166 74.157l-.006.037M87.162 74.124l.004.033M87.152 74.089l.01.035M87.135 74.058l.017.031M87.109 74.036l.026.022M87.078 74.018l.031.018M87.041 74.01l.037.008M87.041 74.01h-.033M87.008 74.01l-.035.008M86.973 74.018l-.032.018M86.941 74.036l-.025.022M86.916 74.058l-.02.031M86.896 74.089l-.011.035M86.885 74.124l-.002.033M86.883 74.157l.008.037M86.891 74.194l.013.031M86.904 74.225l.024.028M86.928 74.253l.027.02M86.955 74.273l.035.015M86.99 74.288l.033.003M87.023 74.291v.116M87.023 74.407v.11M87.023 74.517v.113M87.023 74.63v.094M87.023 74.724v.073M87.023 74.797v.046M87.023 74.843v.014"/><path fill-rule="evenodd" clip-rule="evenodd" fill="#B6D7A8" d="M89.859 72.733V75.566h2.832l.002-.001v-2.832l-.002-.002h-2.832z"/><path fill="none" stroke="#B6D7A8" stroke-width=".283" stroke-linecap="round" stroke-miterlimit="10" d="M89.859 72.733V75.566h2.832l.002-.001v-2.832l-.002-.002h-2.832z"/><path fill-rule="evenodd" clip-rule="evenodd" fill="#B6D7A8" d="M81.355 72.733V75.566h2.833l.001-.001v-2.832l-.001-.002h-2.833z"/><path fill="none" stroke="#B6D7A8" stroke-width=".283" stroke-linecap="round" stroke-miterlimit="10" d="M81.355 72.733V75.566h2.833l.001-.001v-2.832l-.001-.002h-2.833z"/><path fill-rule="evenodd" clip-rule="evenodd" fill="#B6D7A8" d="M83.906 76.843v2.975H90.143v-2.976l-.002-.001h-6.233l-.002.001z"/><path fill="none" stroke="#B6D7A8" stroke-width=".283" stroke-linecap="round" stroke-miterlimit="10" d="M83.906 76.843v2.975H90.143v-2.976l-.002-.001h-6.233l-.002.001z"/><path fill-rule="evenodd" clip-rule="evenodd" fill="#B6D7A8" d="M83.906 68.481v2.975H90.143V68.48l-.002-.001h-6.233l-.002.001z"/><path fill="none" stroke="#B6D7A8" stroke-width=".283" stroke-linecap="round" stroke-miterlimit="10" d="M83.906 68.481v2.975H90.143V68.48l-.002-.001h-6.233l-.002.001z"/><path fill="none" stroke="#000" stroke-width=".283" stroke-linecap="round" stroke-miterlimit="10" d="M83.34 75v2.833h1.133v.568h5.103v-.568h1.133V75h.68v-1.702h-.68v-2.835h-1.133v-.566h-5.103v.566h-.284l-.849.851v1.984h-.682V75zM90.709 70.463v7.37M83.34 71.314v6.519M90.709 77.833H83.34M84.473 69.897v.566M89.576 69.897v.566M89.576 69.897h-5.103M91.389 75h-.68M91.389 73.298V75M91.389 73.298h-.68M82.658 73.298V75M83.34 75h-.682M83.34 73.298h-.682M84.473 77.833v.568M89.576 78.401h-5.103M89.576 77.833v.568M85.277 72.703l-.166.229M85.111 72.932l-.138.253M84.973 73.185l-.106.264M84.867 73.449l-.07.274M84.797 73.723l-.035.284M84.762 74.007v.284M84.762 74.291l.035.283M84.797 74.574l.07.275M84.867 74.849l.106.267M84.973 75.116l.138.249M85.111 75.365l.166.229M86.971 74.103l-.01.015M86.961 74.118l-.006.016M86.955 74.134l-.002.021M86.953 74.155l.002.016M86.955 74.171l.01.017M86.965 74.188l.012.012M90.709 70.463h-6.52M84.189 70.463l-.849.851M87.307 76.399l-.284.018M87.588 76.345l-.281.054M87.859 76.257l-.271.088M88.119 76.136l-.26.121M88.355 75.983l-.236.153M88.578 75.801l-.223.182M88.773 75.594l-.195.207M88.939 75.365l-.166.229M89.076 75.116l-.137.249M89.182 74.849l-.106.267M89.252 74.574l-.07.275M89.289 74.291l-.037.283M89.289 74.007v.284M89.252 73.723l.037.284M89.182 73.449l.07.274M89.076 73.185l.106.264M88.939 72.932l.137.253M88.773 72.703l.166.229M88.578 72.496l.195.207M88.355 72.315l.223.181M88.119 72.162l.236.153M87.859 72.04l.26.122M87.588 71.952l.271.088M87.307 71.898l.281.054M87.023 71.881l.284.017M87.023 71.881l-.283.017M86.74 71.898l-.281.054M86.459 71.952l-.268.088M86.191 72.04l-.257.122M85.934 72.162l-.243.153M85.691 72.315l-.218.181M85.473 72.496l-.196.207M85.277 72.703l-.166.229M85.111 72.932l-.138.253M84.973 73.185l-.106.264M84.867 73.449l-.07.274M84.797 73.723l-.035.284M84.762 74.007v.284M84.762 74.291l.035.283M84.797 74.574l.07.275M84.867 74.849l.106.267M84.973 75.116l.138.249M85.111 75.365l.166.229M85.277 75.594l.196.207M85.473 75.801l.218.182M85.691 75.983l.243.153M85.934 76.136l.257.121M86.191 76.257l.268.088M86.459 76.345l.281.054M86.74 76.399l.283.018M87.023 71.597l-.304.021M86.719 71.618l-.305.053M86.414 71.671l-.295.094M86.119 71.765l-.279.124M85.84 71.889l-.264.159M85.576 72.048l-.244.19M85.332 72.238l-.219.219M85.113 72.457l-.189.243M84.924 72.7l-.158.263M84.766 72.963l-.125.282M84.641 73.245l-.094.295M84.547 73.54l-.055.302M84.492 73.842l-.019.307M84.473 74.149l.019.309M84.492 74.458l.055.303M84.547 74.761l.094.292M84.641 75.053l.125.28M84.766 75.333l.158.264M84.924 75.597l.189.244M85.113 75.841l.219.218M85.332 76.059l.244.191M85.576 76.25l.264.158M85.84 76.408l.279.128M86.119 76.536l.295.09M86.414 76.626l.305.057M86.719 76.683l.304.017M87.334 76.683l-.311.017M87.637 76.626l-.303.057M87.928 76.536l-.291.09M88.209 76.408l-.281.128M88.473 76.25l-.264.158M88.717 76.059l-.244.191M88.936 75.841l-.219.218M89.125 75.597l-.189.244M89.283 75.333l-.158.264M89.41 75.053l-.127.28M89.502 74.761l-.092.292M89.559 74.458l-.057.303M89.576 74.149l-.017.309M89.559 73.842l.017.307M89.502 73.54l.057.302M89.41 73.245l.092.295M89.283 72.963l.127.282M89.125 72.7l.158.263M88.936 72.457l.189.243M88.717 72.238l.219.219M88.473 72.048l.244.19M88.209 71.889l.264.159M87.928 71.765l.281.124M87.637 71.671l.291.094M87.334 71.618l.303.053M87.023 71.597l.311.021M87.023 71.314l.319.018M87.342 71.332l.314.053M87.656 71.385l.303.088M87.959 71.473l.295.121M88.254 71.594l.277.154M88.531 71.748l.262.184M88.793 71.932l.234.213M89.027 72.145l.213.237M89.24 72.382l.186.259M89.426 72.641l.152.277M89.578 72.918l.121.295M89.699 73.213l.088.306M89.787 73.519l.055.313M89.842 73.832l.017.317M89.859 74.149l-.017.317M89.842 74.466l-.055.315M89.787 74.781l-.088.303M89.699 75.084l-.121.294M89.578 75.378l-.152.279M89.426 75.657l-.186.26M89.24 75.917l-.213.236M89.027 76.153l-.234.213M88.793 76.366l-.262.183M88.531 76.549l-.277.154M88.254 76.703l-.295.122M87.959 76.825l-.303.088M87.656 76.913l-.314.053M87.342 76.966l-.319.017M86.707 76.966l.316.017M86.395 76.913l.312.053M86.088 76.825l.307.088M85.793 76.703l.295.122M85.516 76.549l.277.154M85.258 76.366l.258.183M85.02 76.153l.238.213M84.807 75.917l.213.236M84.623 75.657l.184.26M84.471 75.378l.152.279M84.348 75.084l.123.294M84.26 74.781l.088.303M84.207 74.466l.053.315M84.189 74.149l.018.317M84.207 73.832l-.018.317M84.26 73.519l-.053.313M84.348 73.213l-.088.306M84.471 72.918l-.123.295M84.623 72.641l-.152.277M84.807 72.382l-.184.259M85.02 72.145l-.213.237M85.258 71.932l-.238.213M85.516 71.748l-.258.184M85.793 71.594l-.277.154M86.088 71.473l-.295.121M86.395 71.385l-.307.088M86.707 71.332l-.312.053M87.023 71.314l-.316.018M89.578 72.918l.121.295M89.699 73.213l.088.306M89.787 73.519l.055.313M89.842 73.832l.017.317M89.859 74.149l-.017.317M89.842 74.466l-.055.315M89.787 74.781l-.088.303M89.699 75.084l-.121.294M87.041 74.216l-.018.003M87.059 74.211l-.018.005M87.072 74.2l-.013.011M87.084 74.188l-.012.012M87.092 74.171l-.008.017M87.096 74.155l-.004.016M87.096 74.134v.021M87.09 74.118l.006.016M87.078 74.103l.012.015M87.066 74.092l.012.011M87.049 74.083l.017.009M87.033 74.078l.016.005M87.033 74.078h-.017M87.016 74.078l-.018.005M86.998 74.083l-.016.009M86.982 74.092l-.011.011M86.971 74.103l-.01.015M86.961 74.118l-.006.016M86.955 74.134l-.002.021M86.953 74.155l.002.016M86.955 74.171l.01.017M86.965 74.188l.012.012M86.977 74.2l.013.011M86.99 74.211l.018.005M87.008 74.216l.015.003M87.732 74.194l-.033.173M87.721 74.015l.011.179M86.848 74.834l.175.023M86.684 74.769l.164.065M86.539 74.665l.145.104M86.426 74.529l.113.136M86.35 74.367l.076.162M86.318 74.194l.032.173M86.33 74.015l-.012.179M86.383 73.848l-.053.167M86.48 73.698l-.097.15M86.607 73.576l-.127.122M86.764 73.491l-.157.085M86.936 73.446l-.172.045M87.111 73.446h-.175M87.111 73.446l.174.045M87.285 73.491l.156.085M87.441 73.576l.129.122M87.57 73.698l.094.15M87.664 73.848l.057.167M87.721 74.015l.011.179M87.732 74.194l-.033.173M87.699 74.367l-.076.162M87.623 74.529l-.115.136M87.508 74.665l-.141.104M87.367 74.769l-.168.065M87.199 74.834l-.176.023M87.023 71.314v.283M87.061 74.288l-.038.003M87.092 74.273l-.031.015M87.121 74.253l-.029.02M87.143 74.225l-.022.028M87.16 74.194l-.017.031M87.166 74.157l-.006.037M87.162 74.124l.004.033M87.152 74.089l.01.035M87.135 74.058l.017.031M87.109 74.036l.026.022M87.078 74.018l.031.018M87.041 74.01l.037.008M87.041 74.01h-.033M87.008 74.01l-.035.008M86.973 74.018l-.032.018M86.941 74.036l-.025.022M86.916 74.058l-.02.031M86.896 74.089l-.011.035M86.885 74.124l-.002.033M86.883 74.157l.008.037M86.891 74.194l.013.031M86.904 74.225l.024.028M86.928 74.253l.027.02M86.955 74.273l.035.015M86.99 74.288l.033.003M87.023 74.291v.116M87.023 74.407v.11M87.023 74.517v.113M87.023 74.63v.094M87.023 74.724v.073M87.023 74.797v.046M87.023 74.843v.014"/></svg>