<svg xmlns="http://www.w3.org/2000/svg" xmlns:xlink="http://www.w3.org/1999/xlink" viewBox="0 0 109.417 113.386"><path fill-rule="evenodd" clip-rule="evenodd" fill="#FFF" d="M3.114 87.046h103.748V18.873H35.996a1.416 1.416 0 0 1-1.417-1.417V2.574H8.5v14.882a1.414 1.414 0 0 1-1.417 1.417H3.114v68.173z"/><path fill-rule="evenodd" clip-rule="evenodd" fill="#FFF" d="M100.201 67.771h-2.835v1.134h-.567v5.102h.567v1.134h2.835v.68h1.7v-.68h2.835v-1.134h.567v-5.102h-.567v-.283l-.85-.851h-1.985v-.681h-1.7zM104.736 75.141h-7.37M103.886 67.771h-6.52M97.366 75.141v-7.37M105.303 68.905h-.567M105.303 74.007h-.567M105.303 74.007v-5.102M100.201 75.821v-.68M101.901 75.821h-1.7M101.901 75.821v-.68M101.901 67.09h-1.7M100.201 67.771v-.681M101.901 67.771v-.681M97.366 68.905h-.567M96.799 74.007v-5.102M97.366 74.007h-.567M102.497 69.709l-.229-.167M102.268 69.542l-.253-.138M102.015 69.404l-.264-.106M101.751 69.298l-.274-.07M101.477 69.228l-.285-.034M101.192 69.194h-.283M100.909 69.194l-.283.034M100.626 69.228l-.275.07M100.351 69.298l-.266.106M100.085 69.404l-.25.138M99.835 69.542l-.23.167M101.097 71.402l-.015-.009M101.082 71.393l-.017-.005M101.065 71.388l-.019-.003M101.046 71.385l-.018.003M101.028 71.388l-.016.008M101.012 71.396l-.012.012M104.736 75.141v-6.519M104.736 68.622l-.85-.851M98.801 71.74l-.018-.284M98.854 72.02l-.053-.28M98.942 72.292l-.088-.272M99.064 72.55l-.122-.258M99.217 72.788l-.153-.238M99.398 73.009l-.181-.221M99.605 73.205l-.207-.196M99.835 73.372l-.23-.167M100.085 73.508l-.25-.136M100.351 73.613l-.266-.105M100.626 73.684l-.275-.071M100.909 73.72l-.283-.036M101.192 73.72h-.283M101.477 73.684l-.285.036M101.751 73.613l-.274.071M102.015 73.508l-.264.105M102.268 73.372l-.253.136M102.497 73.205l-.229.167M102.704 73.009l-.207.196M102.885 72.788l-.181.221M103.038 72.55l-.153.238M103.16 72.292l-.122.258M103.248 72.02l-.088.272M103.302 71.74l-.054.28M103.318 71.456l-.016.284M103.318 71.456l-.016-.284M103.302 71.172l-.054-.28M103.248 70.892l-.088-.269M103.16 70.623l-.122-.258M103.038 70.365l-.153-.241M102.885 70.124l-.181-.219M102.704 69.905l-.207-.196M102.497 69.709l-.229-.167M102.268 69.542l-.253-.138M102.015 69.404l-.264-.106M101.751 69.298l-.274-.07M101.477 69.228l-.285-.034M101.192 69.194h-.283M100.909 69.194l-.283.034M100.626 69.228l-.275.07M100.351 69.298l-.266.106M100.085 69.404l-.25.138M99.835 69.542l-.23.167M99.605 69.709l-.207.196M99.398 69.905l-.181.219M99.217 70.124l-.153.241M99.064 70.365l-.122.258M98.942 70.623l-.088.269M98.854 70.892l-.053.28M98.801 71.172l-.018.284M103.603 71.456l-.021-.306M103.582 71.15l-.054-.304M103.528 70.846l-.093-.295M103.435 70.551l-.124-.28M103.311 70.271l-.16-.264M103.151 70.007l-.189-.244M102.962 69.763l-.219-.218M102.743 69.545l-.243-.19M102.5 69.355l-.264-.158M102.236 69.197l-.281-.125M101.955 69.072l-.295-.094M101.66 68.978l-.303-.054M101.357 68.924l-.306-.019M101.051 68.905l-.309.019M100.742 68.924l-.304.054M100.438 68.978l-.292.094M100.146 69.072l-.28.125M99.866 69.197l-.263.158M99.603 69.355l-.245.19M99.358 69.545l-.217.218M99.141 69.763l-.191.244M98.95 70.007l-.158.264M98.792 70.271l-.128.28M98.664 70.551l-.091.295M98.573 70.846l-.056.304M98.517 71.15l-.017.306M98.517 71.765l-.017-.309M98.573 72.068l-.056-.303M98.664 72.36l-.091-.292M98.792 72.641l-.128-.281M98.95 72.904l-.158-.263M99.141 73.148l-.191-.244M99.358 73.367l-.217-.219M99.603 73.556l-.245-.189M99.866 73.715l-.263-.159M100.146 73.842l-.28-.127M100.438 73.933l-.292-.091M100.742 73.99l-.304-.057M101.051 74.007l-.309-.017M101.357 73.99l-.306.017M101.66 73.933l-.303.057M101.955 73.842l-.295.091M102.236 73.715l-.281.127M102.5 73.556l-.264.159M102.743 73.367l-.243.189M102.962 73.148l-.219.219M103.151 72.904l-.189.244M103.311 72.641l-.16.263M103.435 72.36l-.124.281M103.528 72.068l-.093.292M103.582 71.765l-.054.303M103.603 71.456l-.021.309M103.886 71.456l-.017.317M103.869 71.773l-.054.314M103.815 72.087l-.088.304M103.727 72.391l-.122.295M103.605 72.686l-.153.277M103.452 72.963l-.184.261M103.268 73.224l-.212.235M103.056 73.459l-.239.213M102.817 73.672l-.257.185M102.56 73.857l-.279.153M102.281 74.01l-.295.121M101.986 74.131l-.305.088M101.681 74.219l-.313.054M101.368 74.273l-.317.018M101.051 74.291l-.318-.018M100.733 74.273l-.314-.054M100.419 74.219l-.303-.088M100.116 74.131l-.295-.121M99.821 74.01l-.278-.153M99.543 73.857l-.261-.185M99.282 73.672l-.235-.213M99.047 73.459l-.213-.235M98.834 73.224l-.184-.261M98.65 72.963l-.153-.277M98.497 72.686l-.122-.295M98.375 72.391l-.088-.304M98.287 72.087l-.054-.314M98.233 71.773l-.016-.317M98.233 71.138l-.016.318M98.287 70.827l-.054.311M98.375 70.52l-.088.307M98.497 70.225l-.122.295M98.65 69.948l-.153.277M98.834 69.69l-.184.258M99.047 69.452l-.213.238M99.282 69.239l-.235.213M99.543 69.055l-.261.184M99.821 68.902l-.278.153M100.116 68.78l-.295.122M100.419 68.692l-.303.088M100.733 68.638l-.314.054M101.051 68.622l-.318.016M101.368 68.638l-.317-.016M101.681 68.692l-.313-.054M101.986 68.78l-.305-.088M102.281 68.902l-.295-.122M102.56 69.055l-.279-.153M102.817 69.239l-.257-.184M103.056 69.452l-.239-.213M103.268 69.69l-.212-.238M103.452 69.948l-.184-.258M103.605 70.225l-.153-.277M103.727 70.52l-.122-.295M103.815 70.827l-.088-.307M103.869 71.138l-.054-.311M103.886 71.456l-.017-.318M102.281 74.01l-.295.121M101.986 74.131l-.305.088M101.681 74.219l-.313.054M101.368 74.273l-.317.018M101.051 74.291l-.318-.018M100.733 74.273l-.314-.054M100.419 74.219l-.303-.088M100.116 74.131l-.295-.121M100.983 71.473l-.003-.017M100.988 71.49l-.005-.017M101 71.504l-.012-.014M101.012 71.515l-.012-.011M101.028 71.524l-.016-.009M101.046 71.527l-.018-.003M101.065 71.527h-.019M101.082 71.521l-.017.006M101.097 71.509l-.015.012M101.107 71.499l-.01.01M101.116 71.481l-.009.018M101.122 71.464l-.006.017M101.122 71.464v-.016M101.122 71.448l-.006-.018M101.116 71.43l-.009-.016M101.107 71.414l-.01-.012M101.097 71.402l-.015-.009M101.082 71.393l-.017-.005M101.065 71.388l-.019-.003M101.046 71.385l-.018.003M101.028 71.388l-.016.008M101.012 71.396l-.012.012M101 71.408l-.012.013M100.988 71.421l-.005.018M100.983 71.439l-.003.017M101.006 72.165l-.173-.035M101.185 72.153l-.179.012M100.365 71.28l-.022.176M100.431 71.116l-.066.164M100.535 70.971l-.104.145M100.671 70.858l-.136.113M100.833 70.781l-.162.077M101.006 70.75l-.173.031M101.185 70.761l-.179-.011M101.352 70.815l-.167-.054M101.502 70.912l-.15-.097M101.624 71.04l-.122-.128M101.709 71.195l-.085-.155M101.754 71.368l-.045-.173M101.754 71.543v-.175M101.754 71.543l-.045.173M101.709 71.716l-.085.157M101.624 71.873l-.122.129M101.502 72.002l-.15.094M101.352 72.096l-.167.057M101.185 72.153l-.179.012M101.006 72.165l-.173-.035M100.833 72.13l-.162-.076M100.671 72.054l-.136-.113M100.535 71.941l-.104-.143M100.431 71.798l-.066-.167M100.365 71.631l-.022-.175M103.886 71.456h-.283M100.912 71.493l-.003-.037M100.927 71.524l-.015-.031M100.946 71.552l-.019-.028M100.975 71.575l-.029-.023M101.006 71.592l-.031-.017M101.043 71.597l-.037-.005M101.076 71.594l-.033.003M101.11 71.583l-.034.011M101.142 71.566l-.032.017M101.164 71.541l-.022.025M101.182 71.509l-.018.032M101.19 71.473l-.008.036M101.19 71.473v-.034M101.19 71.439l-.008-.034M101.182 71.405l-.018-.031M101.164 71.374l-.022-.026M101.142 71.348l-.032-.019M101.11 71.329l-.034-.012M101.076 71.317l-.033-.003M101.043 71.314l-.037.009M101.006 71.323l-.031.013M100.975 71.336l-.029.024M100.946 71.36l-.019.028M100.927 71.388l-.015.033M100.912 71.421l-.003.035M100.909 71.456h-.116M100.793 71.456h-.11M100.683 71.456h-.114M100.569 71.456h-.093M100.476 71.456h-.074M100.402 71.456h-.046M100.356 71.456h-.013"/><path fill-rule="evenodd" clip-rule="evenodd" fill="#D9EAD3" d="M102.467 74.291h-2.832l-.001.001v2.832l.001.001h2.832l.002-.001v-2.832z"/><path fill="none" stroke="#D9EAD3" stroke-width=".283" stroke-linecap="round" stroke-miterlimit="10" d="M102.467 74.291h-2.832l-.001.001v2.832l.001.001h2.832l.002-.001v-2.832z"/><path fill-rule="evenodd" clip-rule="evenodd" fill="#D9EAD3" d="M102.467 65.787h-2.832l-.001.001v2.832l.001.002h2.832l.002-.002v-2.832z"/><path fill="none" stroke="#D9EAD3" stroke-width=".283" stroke-linecap="round" stroke-miterlimit="10" d="M102.467 65.787h-2.832l-.001.001v2.832l.001.002h2.832l.002-.002v-2.832z"/><path fill-rule="evenodd" clip-rule="evenodd" fill="#D9EAD3" d="M98.356 68.337h-2.972l-.002.001V74.574H98.357l.001-.001v-6.234l-.001-.001z"/><path fill="none" stroke="#D9EAD3" stroke-width=".283" stroke-linecap="round" stroke-miterlimit="10" d="M98.356 68.337h-2.972l-.002.001V74.574H98.357l.001-.001v-6.234l-.001-.001z"/><path fill-rule="evenodd" clip-rule="evenodd" fill="#D9EAD3" d="M106.719 68.337h-2.974l-.001.001V74.574h2.976l.001-.001v-6.234l-.001-.001z"/><path fill="none" stroke="#D9EAD3" stroke-width=".283" stroke-linecap="round" stroke-miterlimit="10" d="M106.719 68.337h-2.974l-.001.001V74.574h2.976l.001-.001v-6.234l-.001-.001z"/><path fill="none" stroke="#000" stroke-width=".283" stroke-linecap="round" stroke-miterlimit="10" d="M100.201 67.771h-2.835v1.134h-.567v5.102h.567v1.134h2.835v.68h1.7v-.68h2.835v-1.134h.567v-5.102h-.567v-.283l-.85-.851h-1.985v-.681h-1.7zM104.736 75.141h-7.37M103.886 67.771h-6.52M97.366 75.141v-7.37M105.303 68.905h-.567M105.303 74.007h-.567M105.303 74.007v-5.102M100.201 75.821v-.68M101.901 75.821h-1.7M101.901 75.821v-.68M101.901 67.09h-1.7M100.201 67.771v-.681M101.901 67.771v-.681M97.366 68.905h-.567M96.799 74.007v-5.102M97.366 74.007h-.567M102.497 69.709l-.229-.167M102.268 69.542l-.253-.138M102.015 69.404l-.264-.106M101.751 69.298l-.274-.07M101.477 69.228l-.285-.034M101.192 69.194h-.283M100.909 69.194l-.283.034M100.626 69.228l-.275.07M100.351 69.298l-.266.106M100.085 69.404l-.25.138M99.835 69.542l-.23.167M101.097 71.402l-.015-.009M101.082 71.393l-.017-.005M101.065 71.388l-.019-.003M101.046 71.385l-.018.003M101.028 71.388l-.016.008M101.012 71.396l-.012.012M104.736 75.141v-6.519M104.736 68.622l-.85-.851M98.801 71.74l-.018-.284M98.854 72.02l-.053-.28M98.942 72.292l-.088-.272M99.064 72.55l-.122-.258M99.217 72.788l-.153-.238M99.398 73.009l-.181-.221M99.605 73.205l-.207-.196M99.835 73.372l-.23-.167M100.085 73.508l-.25-.136M100.351 73.613l-.266-.105M100.626 73.684l-.275-.071M100.909 73.72l-.283-.036M101.192 73.72h-.283M101.477 73.684l-.285.036M101.751 73.613l-.274.071M102.015 73.508l-.264.105M102.268 73.372l-.253.136M102.497 73.205l-.229.167M102.704 73.009l-.207.196M102.885 72.788l-.181.221M103.038 72.55l-.153.238M103.16 72.292l-.122.258M103.248 72.02l-.088.272M103.302 71.74l-.054.28M103.318 71.456l-.016.284M103.318 71.456l-.016-.284M103.302 71.172l-.054-.28M103.248 70.892l-.088-.269M103.16 70.623l-.122-.258M103.038 70.365l-.153-.241M102.885 70.124l-.181-.219M102.704 69.905l-.207-.196M102.497 69.709l-.229-.167M102.268 69.542l-.253-.138M102.015 69.404l-.264-.106M101.751 69.298l-.274-.07M101.477 69.228l-.285-.034M101.192 69.194h-.283M100.909 69.194l-.283.034M100.626 69.228l-.275.07M100.351 69.298l-.266.106M100.085 69.404l-.25.138M99.835 69.542l-.23.167M99.605 69.709l-.207.196M99.398 69.905l-.181.219M99.217 70.124l-.153.241M99.064 70.365l-.122.258M98.942 70.623l-.088.269M98.854 70.892l-.053.28M98.801 71.172l-.018.284M103.603 71.456l-.021-.306M103.582 71.15l-.054-.304M103.528 70.846l-.093-.295M103.435 70.551l-.124-.28M103.311 70.271l-.16-.264M103.151 70.007l-.189-.244M102.962 69.763l-.219-.218M102.743 69.545l-.243-.19M102.5 69.355l-.264-.158M102.236 69.197l-.281-.125M101.955 69.072l-.295-.094M101.66 68.978l-.303-.054M101.357 68.924l-.306-.019M101.051 68.905l-.309.019M100.742 68.924l-.304.054M100.438 68.978l-.292.094M100.146 69.072l-.28.125M99.866 69.197l-.263.158M99.603 69.355l-.245.19M99.358 69.545l-.217.218M99.141 69.763l-.191.244M98.95 70.007l-.158.264M98.792 70.271l-.128.28M98.664 70.551l-.091.295M98.573 70.846l-.056.304M98.517 71.15l-.017.306M98.517 71.765l-.017-.309M98.573 72.068l-.056-.303M98.664 72.36l-.091-.292M98.792 72.641l-.128-.281M98.95 72.904l-.158-.263M99.141 73.148l-.191-.244M99.358 73.367l-.217-.219M99.603 73.556l-.245-.189M99.866 73.715l-.263-.159M100.146 73.842l-.28-.127M100.438 73.933l-.292-.091M100.742 73.99l-.304-.057M101.051 74.007l-.309-.017M101.357 73.99l-.306.017M101.66 73.933l-.303.057M101.955 73.842l-.295.091M102.236 73.715l-.281.127M102.5 73.556l-.264.159M102.743 73.367l-.243.189M102.962 73.148l-.219.219M103.151 72.904l-.189.244M103.311 72.641l-.16.263M103.435 72.36l-.124.281M103.528 72.068l-.093.292M103.582 71.765l-.054.303M103.603 71.456l-.021.309M103.886 71.456l-.017.317M103.869 71.773l-.054.314M103.815 72.087l-.088.304M103.727 72.391l-.122.295M103.605 72.686l-.153.277M103.452 72.963l-.184.261M103.268 73.224l-.212.235M103.056 73.459l-.239.213M102.817 73.672l-.257.185M102.56 73.857l-.279.153M102.281 74.01l-.295.121M101.986 74.131l-.305.088M101.681 74.219l-.313.054M101.368 74.273l-.317.018M101.051 74.291l-.318-.018M100.733 74.273l-.314-.054M100.419 74.219l-.303-.088M100.116 74.131l-.295-.121M99.821 74.01l-.278-.153M99.543 73.857l-.261-.185M99.282 73.672l-.235-.213M99.047 73.459l-.213-.235M98.834 73.224l-.184-.261M98.65 72.963l-.153-.277M98.497 72.686l-.122-.295M98.375 72.391l-.088-.304M98.287 72.087l-.054-.314M98.233 71.773l-.016-.317M98.233 71.138l-.016.318M98.287 70.827l-.054.311M98.375 70.52l-.088.307M98.497 70.225l-.122.295M98.65 69.948l-.153.277M98.834 69.69l-.184.258M99.047 69.452l-.213.238M99.282 69.239l-.235.213M99.543 69.055l-.261.184M99.821 68.902l-.278.153M100.116 68.78l-.295.122M100.419 68.692l-.303.088M100.733 68.638l-.314.054M101.051 68.622l-.318.016M101.368 68.638l-.317-.016M101.681 68.692l-.313-.054M101.986 68.78l-.305-.088M102.281 68.902l-.295-.122M102.56 69.055l-.279-.153M102.817 69.239l-.257-.184M103.056 69.452l-.239-.213M103.268 69.69l-.212-.238M103.452 69.948l-.184-.258M103.605 70.225l-.153-.277M103.727 70.52l-.122-.295M103.815 70.827l-.088-.307M103.869 71.138l-.054-.311M103.886 71.456l-.017-.318M102.281 74.01l-.295.121M101.986 74.131l-.305.088M101.681 74.219l-.313.054M101.368 74.273l-.317.018M101.051 74.291l-.318-.018M100.733 74.273l-.314-.054M100.419 74.219l-.303-.088M100.116 74.131l-.295-.121M100.983 71.473l-.003-.017M100.988 71.49l-.005-.017M101 71.504l-.012-.014M101.012 71.515l-.012-.011M101.028 71.524l-.016-.009M101.046 71.527l-.018-.003M101.065 71.527h-.019M101.082 71.521l-.017.006M101.097 71.509l-.015.012M101.107 71.499l-.01.01M101.116 71.481l-.009.018M101.122 71.464l-.006.017M101.122 71.464v-.016M101.122 71.448l-.006-.018M101.116 71.43l-.009-.016M101.107 71.414l-.01-.012M101.097 71.402l-.015-.009M101.082 71.393l-.017-.005M101.065 71.388l-.019-.003M101.046 71.385l-.018.003M101.028 71.388l-.016.008M101.012 71.396l-.012.012M101 71.408l-.012.013M100.988 71.421l-.005.018M100.983 71.439l-.003.017M101.006 72.165l-.173-.035M101.185 72.153l-.179.012M100.365 71.28l-.022.176M100.431 71.116l-.066.164M100.535 70.971l-.104.145M100.671 70.858l-.136.113M100.833 70.781l-.162.077M101.006 70.75l-.173.031M101.185 70.761l-.179-.011M101.352 70.815l-.167-.054M101.502 70.912l-.15-.097M101.624 71.04l-.122-.128M101.709 71.195l-.085-.155M101.754 71.368l-.045-.173M101.754 71.543v-.175M101.754 71.543l-.045.173M101.709 71.716l-.085.157M101.624 71.873l-.122.129M101.502 72.002l-.15.094M101.352 72.096l-.167.057M101.185 72.153l-.179.012M101.006 72.165l-.173-.035M100.833 72.13l-.162-.076M100.671 72.054l-.136-.113M100.535 71.941l-.104-.143M100.431 71.798l-.066-.167M100.365 71.631l-.022-.175M103.886 71.456h-.283M100.912 71.493l-.003-.037M100.927 71.524l-.015-.031M100.946 71.552l-.019-.028M100.975 71.575l-.029-.023M101.006 71.592l-.031-.017M101.043 71.597l-.037-.005M101.076 71.594l-.033.003M101.11 71.583l-.034.011M101.142 71.566l-.032.017M101.164 71.541l-.022.025M101.182 71.509l-.018.032M101.19 71.473l-.008.036M101.19 71.473v-.034M101.19 71.439l-.008-.034M101.182 71.405l-.018-.031M101.164 71.374l-.022-.026M101.142 71.348l-.032-.019M101.11 71.329l-.034-.012M101.076 71.317l-.033-.003M101.043 71.314l-.037.009M101.006 71.323l-.031.013M100.975 71.336l-.029.024M100.946 71.36l-.019.028M100.927 71.388l-.015.033M100.912 71.421l-.003.035M100.909 71.456h-.116M100.793 71.456h-.11M100.683 71.456h-.114M100.569 71.456h-.093M100.476 71.456h-.074M100.402 71.456h-.046M100.356 71.456h-.013"/><path fill-rule="evenodd" clip-rule="evenodd" fill="#FFF" d="M3.114 87.046h103.748V18.873H35.996a1.416 1.416 0 0 1-1.417-1.417V2.574H8.5v14.882a1.414 1.414 0 0 1-1.417 1.417H3.114v68.173z"/><path fill="none" stroke="#000" stroke-width=".567" stroke-linecap="round" stroke-miterlimit="10" d="M3.114 87.046h103.748V18.873H35.996a1.416 1.416 0 0 1-1.417-1.417V2.574H8.5v14.882a1.414 1.414 0 0 1-1.417 1.417H3.114v68.173z"/><path fill-rule="evenodd" clip-rule="evenodd" fill="#FFF" d="M98.925 44.526a2.835 2.835 0 1 0 0-5.67 2.835 2.835 0 0 0 0 5.67z"/><path fill="none" stroke="#000" stroke-width=".283" stroke-linecap="round" stroke-miterlimit="10" d="M98.925 44.526a2.835 2.835 0 1 0 0-5.67 2.835 2.835 0 0 0 0 5.67z"/><path fill-rule="evenodd" clip-rule="evenodd" fill="#FFF" d="M11.051 44.526a2.834 2.834 0 1 0 0-5.668 2.834 2.834 0 0 0 0 5.668z"/><path fill="none" stroke="#000" stroke-width=".283" stroke-linecap="round" stroke-miterlimit="10" d="M11.051 44.526a2.834 2.834 0 1 0 0-5.668 2.834 2.834 0 0 0 0 5.668z"/><defs><path id="I" d="M3.114 87.046h103.748V18.873H35.996a1.416 1.416 0 0 1-1.417-1.417V2.574H8.5v14.882a1.414 1.414 0 0 1-1.417 1.417H3.114v68.173z"/></defs><clipPath id="J"><use xlink:href="#I" overflow="visible"/></clipPath><path clip-path="url(#J)" fill="none" stroke="#000" stroke-width=".567" stroke-linecap="round" stroke-miterlimit="10" d="M98.074 64.936v-2.267M98.074 62.669l-1.133 1.133M96.941 63.802h1.511M99.208 63.047l.378-.378M99.586 62.669h.756M100.342 62.669l.378.378M100.72 63.047v.377M100.72 63.424l-.378.378M100.342 63.802h-.378M99.964 63.802h.378M100.342 63.802l.378.378M100.72 64.18v.378M100.72 64.558l-.378.378M100.342 64.936h-.756M99.586 64.936l-.378-.378M101.475 63.047l.378-.378M101.853 62.669h.755M102.608 62.669l.378.378M102.986 63.047v.377M102.986 63.424l-.378.378M102.608 63.802h-.378M102.23 63.802h.378M102.608 63.802l.378.378M102.986 64.18v.378M102.986 64.558l-.378.378M102.608 64.936h-.755M101.853 64.936l-.378-.378"/><path clip-path="url(#J)" fill="none" stroke="#000" stroke-width=".425" stroke-linecap="round" stroke-miterlimit="10" d="M5.949 22.984v2.267M5.949 25.251H7.46M8.594 25.251h.755M9.349 25.251l.378-.378M9.727 24.873v-.755M9.727 24.118l-.378-.378M9.349 23.74h-.755M8.594 23.74l-.378.378M8.216 24.118v.755M8.216 24.873l.378.378M10.483 25.251v-2.267M10.483 22.984h1.133M11.616 22.984l.378.378M11.994 23.362v.756M11.994 24.118l-.378.378M11.616 24.496h-1.133M11.238 24.496l.756.755M12.75 25.251V23.74M12.75 23.74l.755-.756M13.505 22.984l.756.756M14.261 23.74v1.511M14.261 25.251v-1.133M14.261 24.118H12.75"/><path clip-path="url(#J)" fill="none" stroke="#000" stroke-width=".567" stroke-linecap="round" stroke-miterlimit="10" d="M97.083 78.779l.378-.377M97.46 78.402h.756M98.216 78.402l.378.377M98.594 78.779v.378M98.594 79.157l-.378.378M98.216 79.535l.378.378M98.594 79.913v.378M98.594 80.291l-.378.377M98.216 80.668h-.756M97.461 80.668l-.378-.377M97.083 80.291v-.378M97.083 79.913l.378-.378M97.461 79.535l-.378-.378M97.083 79.157v-.378M97.46 79.535h.756M99.35 78.402h1.511M100.861 78.402v.377M100.861 78.779l-1.511 1.512M99.35 80.291v.377M101.616 78.779l.378-.377M101.994 78.402h.756M102.75 78.402l.378.377M103.128 78.779v.378M103.128 79.157l-.378.378M102.75 79.535l.378.378M103.128 79.913v.378M103.128 80.291l-.378.377M102.75 80.668h-.756M101.994 80.668l-.378-.377M101.616 80.291v-.378M101.616 79.913l.378-.378M101.994 79.535l-.378-.378M101.616 79.157v-.378M101.994 79.535h.756"/><path fill-rule="evenodd" clip-rule="evenodd" fill="#FFF" d="M85.035 21.85h5.67v5.669h-5.67z"/><path fill-rule="evenodd" clip-rule="evenodd" fill="#D9EAD3" d="M87.87 25.96a1.275 1.275 0 1 0 0-2.55 1.275 1.275 0 0 0 0 2.55z"/><path fill="none" stroke="#D9EAD3" stroke-width=".283" stroke-linecap="round" stroke-miterlimit="10" d="M87.87 25.96a1.275 1.275 0 1 0 0-2.55 1.275 1.275 0 0 0 0 2.55z"/><path fill="none" stroke="#000" stroke-width=".283" stroke-linecap="round" stroke-miterlimit="10" d="M85.035 21.85h5.67v5.669h-5.67z"/><path fill-rule="evenodd" clip-rule="evenodd" fill="#FFF" d="M100.909 81.093h5.67v5.67h-5.67z"/><path fill-rule="evenodd" clip-rule="evenodd" fill="#D9EAD3" d="M103.744 85.204a1.275 1.275 0 1 0 0-2.55 1.275 1.275 0 0 0 0 2.55z"/><path fill="none" stroke="#D9EAD3" stroke-width=".283" stroke-linecap="round" stroke-miterlimit="10" d="M103.744 85.204a1.275 1.275 0 1 0 0-2.55 1.275 1.275 0 0 0 0 2.55z"/><path fill="none" stroke="#000" stroke-width=".283" stroke-linecap="round" stroke-miterlimit="10" d="M100.909 81.093h5.67v5.67h-5.67z"/><path fill-rule="evenodd" clip-rule="evenodd" fill="#FFF" d="M3.964 80.527h5.669v5.669H3.964z"/><path fill-rule="evenodd" clip-rule="evenodd" fill="#D9EAD3" d="M5.383 84.779h2.832l.001-.002v-2.831l-.001-.002H5.383l-.001.002v2.831z"/><path fill="none" stroke="#D9EAD3" stroke-width=".283" stroke-linecap="round" stroke-miterlimit="10" d="M5.383 84.779h2.832l.001-.002v-2.831l-.001-.002H5.383l-.001.002v2.831z"/><path fill="none" stroke="#000" stroke-width=".283" stroke-linecap="round" stroke-miterlimit="10" d="M3.964 80.527h5.669v5.669H3.964z"/><path fill-rule="evenodd" clip-rule="evenodd" fill="#FFF" d="M9.833 3.906h22.28v8.674H9.833z"/><path fill-rule="evenodd" clip-rule="evenodd" fill="#D9EAD3" d="M11.618 12.494V3.992l-.001-.001H9.918l-.001.001v8.503H11.618z"/><path fill="none" stroke="#D9EAD3" stroke-width=".283" stroke-linecap="round" stroke-miterlimit="10" d="M11.618 12.494V3.992l-.001-.001H9.918l-.001.001v8.503H11.618z"/><path fill-rule="evenodd" clip-rule="evenodd" fill="#D9EAD3" d="M13.886 12.494V6.26l-.001-.001h-1.699l-.001.001v6.234l.001.001h1.699z"/><path fill="none" stroke="#D9EAD3" stroke-width=".283" stroke-linecap="round" stroke-miterlimit="10" d="M13.886 12.494V6.26l-.001-.001h-1.699l-.001.001v6.234l.001.001h1.699z"/><path fill-rule="evenodd" clip-rule="evenodd" fill="#D9EAD3" d="M16.153 12.494V6.259h-1.699l-.001.001v6.234l.001.001h1.699z"/><path fill="none" stroke="#D9EAD3" stroke-width=".283" stroke-linecap="round" stroke-miterlimit="10" d="M16.153 12.494V6.259h-1.699l-.001.001v6.234l.001.001h1.699z"/><path fill-rule="evenodd" clip-rule="evenodd" fill="#D9EAD3" d="M18.421 12.494V6.26l-.001-.001h-1.699l-.001.001v6.234l.001.001h1.699z"/><path fill="none" stroke="#D9EAD3" stroke-width=".283" stroke-linecap="round" stroke-miterlimit="10" d="M18.421 12.494V6.26l-.001-.001h-1.699l-.001.001v6.234l.001.001h1.699z"/><path fill-rule="evenodd" clip-rule="evenodd" fill="#D9EAD3" d="M20.689 12.494V6.26l-.001-.001h-1.699l-.001.001v6.234l.001.001h1.699z"/><path fill="none" stroke="#D9EAD3" stroke-width=".283" stroke-linecap="round" stroke-miterlimit="10" d="M20.689 12.494V6.26l-.001-.001h-1.699l-.001.001v6.234l.001.001h1.699z"/><path fill-rule="evenodd" clip-rule="evenodd" fill="#D9EAD3" d="M22.957 12.494V6.26l-.001-.001h-1.699l-.001.001v6.234l.001.001h1.699z"/><path fill="none" stroke="#D9EAD3" stroke-width=".283" stroke-linecap="round" stroke-miterlimit="10" d="M22.957 12.494V6.26l-.001-.001h-1.699l-.001.001v6.234l.001.001h1.699z"/><path fill-rule="evenodd" clip-rule="evenodd" fill="#D9EAD3" d="M25.225 12.494V6.26l-.001-.001h-1.7l-.001.001v6.234l.001.001h1.7z"/><path fill="none" stroke="#D9EAD3" stroke-width=".283" stroke-linecap="round" stroke-miterlimit="10" d="M25.225 12.494V6.26l-.001-.001h-1.7l-.001.001v6.234l.001.001h1.7z"/><path fill-rule="evenodd" clip-rule="evenodd" fill="#D9EAD3" d="M27.492 12.494V6.26l-.001-.001h-1.699V12.495h1.699z"/><path fill="none" stroke="#D9EAD3" stroke-width=".283" stroke-linecap="round" stroke-miterlimit="10" d="M27.492 12.494V6.26l-.001-.001h-1.699V12.495h1.699z"/><path fill-rule="evenodd" clip-rule="evenodd" fill="#D9EAD3" d="M29.76 12.494V6.26l-.001-.001H28.06l-.001.001v6.234l.001.001h1.699z"/><path fill="none" stroke="#D9EAD3" stroke-width=".283" stroke-linecap="round" stroke-miterlimit="10" d="M29.76 12.494V6.26l-.001-.001H28.06l-.001.001v6.234l.001.001h1.699z"/><path fill-rule="evenodd" clip-rule="evenodd" fill="#D9EAD3" d="M32.027 12.494V6.259h-1.699l-.001.001v6.234l.001.001h1.699z"/><path fill="none" stroke="#D9EAD3" stroke-width=".283" stroke-linecap="round" stroke-miterlimit="10" d="M32.027 12.494V6.259h-1.699l-.001.001v6.234l.001.001h1.699z"/><path fill="none" stroke="#000" stroke-width=".283" stroke-linecap="round" stroke-miterlimit="10" d="M9.833 3.906h22.28v8.674H9.833z"/><path fill-rule="evenodd" clip-rule="evenodd" fill="#D9EAD3" d="M94.771 68.054h-4.533l-.001.001v2.832l.001.002h4.533l.001-.002v-2.832z"/><path fill="none" stroke="#D9EAD3" stroke-width=".283" stroke-linecap="round" stroke-miterlimit="10" d="M94.771 68.054h-4.533l-.001.001v2.832l.001.002h4.533l.001-.002v-2.832z"/><path fill-rule="evenodd" clip-rule="evenodd" fill="#D9EAD3" d="M94.771 64.455h-4.533l-.001.001v2.832l.001.001h4.533l.001-.001v-2.832z"/><path fill="none" stroke="#D9EAD3" stroke-width=".283" stroke-linecap="round" stroke-miterlimit="10" d="M94.771 64.455h-4.533l-.001.001v2.832l.001.001h4.533l.001-.001v-2.832z"/><path fill-rule="evenodd" clip-rule="evenodd" fill="#D9EAD3" d="M94.771 60.854h-4.533l-.001.002v2.831l.001.002h4.533l.001-.002v-2.831z"/><path fill="none" stroke="#D9EAD3" stroke-width=".283" stroke-linecap="round" stroke-miterlimit="10" d="M94.771 60.854h-4.533l-.001.002v2.831l.001.002h4.533l.001-.002v-2.831z"/><path fill-rule="evenodd" clip-rule="evenodd" fill="#D9EAD3" d="M94.771 57.254h-4.533l-.001.001v2.832l.001.001h4.533l.001-.001v-2.832z"/><path fill="none" stroke="#D9EAD3" stroke-width=".283" stroke-linecap="round" stroke-miterlimit="10" d="M94.771 57.254h-4.533l-.001.001v2.832l.001.001h4.533l.001-.001v-2.832z"/><path fill-rule="evenodd" clip-rule="evenodd" fill="#D9EAD3" d="M94.771 53.654h-4.533l-.001.002v2.832l.001.001h4.533l.001-.001v-2.832z"/><path fill="none" stroke="#D9EAD3" stroke-width=".283" stroke-linecap="round" stroke-miterlimit="10" d="M94.771 53.654h-4.533l-.001.002v2.832l.001.001h4.533l.001-.001v-2.832z"/><path fill-rule="evenodd" clip-rule="evenodd" fill="#D9EAD3" d="M94.771 50.054h-4.533l-.001.002v2.831l.001.001h4.533l.001-.001v-2.831z"/><path fill="none" stroke="#D9EAD3" stroke-width=".283" stroke-linecap="round" stroke-miterlimit="10" d="M94.771 50.054h-4.533l-.001.002v2.831l.001.001h4.533l.001-.001v-2.831z"/><path fill-rule="evenodd" clip-rule="evenodd" fill="#D9EAD3" d="M93.354 46.454h-3.116l-.001.002v2.832l.001.001h3.116l.001-.001v-2.832z"/><path fill="none" stroke="#D9EAD3" stroke-width=".283" stroke-linecap="round" stroke-miterlimit="10" d="M93.354 46.454h-3.116l-.001.002v2.832l.001.001h3.116l.001-.001v-2.832z"/><path fill-rule="evenodd" clip-rule="evenodd" fill="#D9EAD3" d="M21.922 86.195v-4.533l-.002-.001h-2.831l-.002.001v4.533l.002.001h2.831z"/><path fill="none" stroke="#D9EAD3" stroke-width=".283" stroke-linecap="round" stroke-miterlimit="10" d="M21.922 86.195v-4.533l-.002-.001h-2.831l-.002.001v4.533l.002.001h2.831z"/><path fill-rule="evenodd" clip-rule="evenodd" fill="#D9EAD3" d="M25.522 86.195v-4.533l-.001-.001h-2.832l-.001.001v4.533l.001.001h2.832z"/><path fill="none" stroke="#D9EAD3" stroke-width=".283" stroke-linecap="round" stroke-miterlimit="10" d="M25.522 86.195v-4.533l-.001-.001h-2.832l-.001.001v4.533l.001.001h2.832z"/><path fill-rule="evenodd" clip-rule="evenodd" fill="#D9EAD3" d="M29.122 86.195v-4.533l-.001-.001h-2.832l-.001.001v4.533l.001.001h2.832z"/><path fill="none" stroke="#D9EAD3" stroke-width=".283" stroke-linecap="round" stroke-miterlimit="10" d="M29.122 86.195v-4.533l-.001-.001h-2.832l-.001.001v4.533l.001.001h2.832z"/><path fill-rule="evenodd" clip-rule="evenodd" fill="#D9EAD3" d="M32.722 86.195v-4.533l-.001-.001h-2.832l-.002.001v4.533l.002.001h2.832z"/><path fill="none" stroke="#D9EAD3" stroke-width=".283" stroke-linecap="round" stroke-miterlimit="10" d="M32.722 86.195v-4.533l-.001-.001h-2.832l-.002.001v4.533l.002.001h2.832z"/><path fill-rule="evenodd" clip-rule="evenodd" fill="#D9EAD3" d="M36.322 86.195v-4.533l-.001-.001h-2.832l-.002.001v4.533l.002.001h2.832z"/><path fill="none" stroke="#D9EAD3" stroke-width=".283" stroke-linecap="round" stroke-miterlimit="10" d="M36.322 86.195v-4.533l-.001-.001h-2.832l-.002.001v4.533l.002.001h2.832z"/><path fill-rule="evenodd" clip-rule="evenodd" fill="#D9EAD3" d="M39.922 86.195v-4.533l-.002-.001h-2.831l-.002.001v4.533l.002.001h2.831z"/><path fill="none" stroke="#D9EAD3" stroke-width=".283" stroke-linecap="round" stroke-miterlimit="10" d="M39.922 86.195v-4.533l-.002-.001h-2.831l-.002.001v4.533l.002.001h2.831z"/><path fill-rule="evenodd" clip-rule="evenodd" fill="#D9EAD3" d="M43.522 86.195v-4.533l-.001-.001h-2.832l-.001.001v4.533l.001.001h2.832z"/><path fill="none" stroke="#D9EAD3" stroke-width=".283" stroke-linecap="round" stroke-miterlimit="10" d="M43.522 86.195v-4.533l-.001-.001h-2.832l-.001.001v4.533l.001.001h2.832z"/><path fill-rule="evenodd" clip-rule="evenodd" fill="#D9EAD3" d="M47.122 86.195v-4.533l-.001-.001h-2.832l-.001.001v4.533l.001.001h2.832z"/><path fill="none" stroke="#D9EAD3" stroke-width=".283" stroke-linecap="round" stroke-miterlimit="10" d="M47.122 86.195v-4.533l-.001-.001h-2.832l-.001.001v4.533l.001.001h2.832z"/><path fill-rule="evenodd" clip-rule="evenodd" fill="#D9EAD3" d="M50.722 86.195v-4.533l-.001-.001h-2.832l-.002.001v4.533l.002.001h2.832z"/><path fill="none" stroke="#D9EAD3" stroke-width=".283" stroke-linecap="round" stroke-miterlimit="10" d="M50.722 86.195v-4.533l-.001-.001h-2.832l-.002.001v4.533l.002.001h2.832z"/><path fill-rule="evenodd" clip-rule="evenodd" fill="#D9EAD3" d="M54.322 86.195v-4.533l-.002-.001h-2.831l-.002.001v4.533l.002.001h2.831z"/><path fill="none" stroke="#D9EAD3" stroke-width=".283" stroke-linecap="round" stroke-miterlimit="10" d="M54.322 86.195v-4.533l-.002-.001h-2.831l-.002.001v4.533l.002.001h2.831z"/><path fill-rule="evenodd" clip-rule="evenodd" fill="#D9EAD3" d="M57.922 86.195v-4.533l-.001-.001h-2.832l-.001.001v4.533l.001.001h2.832z"/><path fill="none" stroke="#D9EAD3" stroke-width=".283" stroke-linecap="round" stroke-miterlimit="10" d="M57.922 86.195v-4.533l-.001-.001h-2.832l-.001.001v4.533l.001.001h2.832z"/><path fill-rule="evenodd" clip-rule="evenodd" fill="#D9EAD3" d="M61.522 86.195v-4.533l-.001-.001h-2.833V86.196h2.833z"/><path fill="none" stroke="#D9EAD3" stroke-width=".283" stroke-linecap="round" stroke-miterlimit="10" d="M61.522 86.195v-4.533l-.001-.001h-2.833V86.196h2.833z"/><path fill-rule="evenodd" clip-rule="evenodd" fill="#D9EAD3" d="M65.122 86.195v-4.533l-.002-.001h-2.831l-.002.001v4.533l.002.001h2.831z"/><path fill="none" stroke="#D9EAD3" stroke-width=".283" stroke-linecap="round" stroke-miterlimit="10" d="M65.122 86.195v-4.533l-.002-.001h-2.831l-.002.001v4.533l.002.001h2.831z"/><path fill-rule="evenodd" clip-rule="evenodd" fill="#D9EAD3" d="M68.722 86.195v-4.533l-.001-.001h-2.832l-.001.001v4.533l.001.001h2.832z"/><path fill="none" stroke="#D9EAD3" stroke-width=".283" stroke-linecap="round" stroke-miterlimit="10" d="M68.722 86.195v-4.533l-.001-.001h-2.832l-.001.001v4.533l.001.001h2.832z"/><path fill-rule="evenodd" clip-rule="evenodd" fill="#D9EAD3" d="M72.322 86.195v-4.533l-.002-.001h-2.831l-.002.001v4.533l.002.001h2.831z"/><path fill="none" stroke="#D9EAD3" stroke-width=".283" stroke-linecap="round" stroke-miterlimit="10" d="M72.322 86.195v-4.533l-.002-.001h-2.831l-.002.001v4.533l.002.001h2.831z"/><path fill-rule="evenodd" clip-rule="evenodd" fill="#D9EAD3" d="M75.922 86.195v-4.533l-.001-.001h-2.832l-.002.001v4.533l.002.001h2.832z"/><path fill="none" stroke="#D9EAD3" stroke-width=".283" stroke-linecap="round" stroke-miterlimit="10" d="M75.922 86.195v-4.533l-.001-.001h-2.832l-.002.001v4.533l.002.001h2.832z"/><path fill-rule="evenodd" clip-rule="evenodd" fill="#D9EAD3" d="M79.522 86.195v-4.533l-.001-.001h-2.833V86.196h2.833z"/><path fill="none" stroke="#D9EAD3" stroke-width=".283" stroke-linecap="round" stroke-miterlimit="10" d="M79.522 86.195v-4.533l-.001-.001h-2.833V86.196h2.833z"/><path fill-rule="evenodd" clip-rule="evenodd" fill="#D9EAD3" d="M83.122 86.195v-4.533l-.002-.001h-2.831l-.002.001v4.533l.002.001h2.831z"/><path fill="none" stroke="#D9EAD3" stroke-width=".283" stroke-linecap="round" stroke-miterlimit="10" d="M83.122 86.195v-4.533l-.002-.001h-2.831l-.002.001v4.533l.002.001h2.831z"/><path fill-rule="evenodd" clip-rule="evenodd" fill="#D9EAD3" d="M86.722 86.195v-4.533l-.001-.001h-2.832l-.001.001v4.533l.001.001h2.832z"/><path fill="none" stroke="#D9EAD3" stroke-width=".283" stroke-linecap="round" stroke-miterlimit="10" d="M86.722 86.195v-4.533l-.001-.001h-2.832l-.001.001v4.533l.001.001h2.832z"/><path fill-rule="evenodd" clip-rule="evenodd" fill="#D9EAD3" d="M90.322 86.195v-4.533l-.002-.001h-2.831l-.002.001v4.533l.002.001h2.831z"/><path fill="none" stroke="#D9EAD3" stroke-width=".283" stroke-linecap="round" stroke-miterlimit="10" d="M90.322 86.195v-4.533l-.002-.001h-2.831l-.002.001v4.533l.002.001h2.831z"/><path fill-rule="evenodd" clip-rule="evenodd" fill="#D9EAD3" d="M90.322 35.738v-4.533l-.002-.001h-2.831l-.002.001v4.533l.002.001h2.831z"/><path fill="none" stroke="#D9EAD3" stroke-width=".283" stroke-linecap="round" stroke-miterlimit="10" d="M90.322 35.738v-4.533l-.002-.001h-2.831l-.002.001v4.533l.002.001h2.831z"/><path fill-rule="evenodd" clip-rule="evenodd" fill="#D9EAD3" d="M86.722 35.738v-4.533l-.001-.001h-2.832l-.001.001v4.533l.001.001h2.832z"/><path fill="none" stroke="#D9EAD3" stroke-width=".283" stroke-linecap="round" stroke-miterlimit="10" d="M86.722 35.738v-4.533l-.001-.001h-2.832l-.001.001v4.533l.001.001h2.832z"/><path fill-rule="evenodd" clip-rule="evenodd" fill="#D9EAD3" d="M83.122 35.738v-4.533l-.002-.001h-2.831l-.002.001v4.533l.002.001h2.831z"/><path fill="none" stroke="#D9EAD3" stroke-width=".283" stroke-linecap="round" stroke-miterlimit="10" d="M83.122 35.738v-4.533l-.002-.001h-2.831l-.002.001v4.533l.002.001h2.831z"/><path fill-rule="evenodd" clip-rule="evenodd" fill="#D9EAD3" d="M79.522 35.738v-4.533l-.001-.001h-2.833V35.739h2.833z"/><path fill="none" stroke="#D9EAD3" stroke-width=".283" stroke-linecap="round" stroke-miterlimit="10" d="M79.522 35.738v-4.533l-.001-.001h-2.833V35.739h2.833z"/><path fill-rule="evenodd" clip-rule="evenodd" fill="#D9EAD3" d="M75.922 35.738v-4.533l-.001-.001h-2.832l-.002.001v4.533l.002.001h2.832z"/><path fill="none" stroke="#D9EAD3" stroke-width=".283" stroke-linecap="round" stroke-miterlimit="10" d="M75.922 35.738v-4.533l-.001-.001h-2.832l-.002.001v4.533l.002.001h2.832z"/><path fill-rule="evenodd" clip-rule="evenodd" fill="#D9EAD3" d="M72.322 35.738v-4.533l-.002-.001h-2.831l-.002.001v4.533l.002.001h2.831z"/><path fill="none" stroke="#D9EAD3" stroke-width=".283" stroke-linecap="round" stroke-miterlimit="10" d="M72.322 35.738v-4.533l-.002-.001h-2.831l-.002.001v4.533l.002.001h2.831z"/><path fill-rule="evenodd" clip-rule="evenodd" fill="#D9EAD3" d="M68.722 35.738v-4.533l-.001-.001h-2.832l-.001.001v4.533l.001.001h2.832z"/><path fill="none" stroke="#D9EAD3" stroke-width=".283" stroke-linecap="round" stroke-miterlimit="10" d="M68.722 35.738v-4.533l-.001-.001h-2.832l-.001.001v4.533l.001.001h2.832z"/><path fill-rule="evenodd" clip-rule="evenodd" fill="#D9EAD3" d="M65.122 35.738v-4.533l-.002-.001h-2.831l-.002.001v4.533l.002.001h2.831z"/><path fill="none" stroke="#D9EAD3" stroke-width=".283" stroke-linecap="round" stroke-miterlimit="10" d="M65.122 35.738v-4.533l-.002-.001h-2.831l-.002.001v4.533l.002.001h2.831z"/><path fill-rule="evenodd" clip-rule="evenodd" fill="#D9EAD3" d="M61.522 35.738v-4.533l-.001-.001h-2.833V35.739h2.833z"/><path fill="none" stroke="#D9EAD3" stroke-width=".283" stroke-linecap="round" stroke-miterlimit="10" d="M61.522 35.738v-4.533l-.001-.001h-2.833V35.739h2.833z"/><path fill-rule="evenodd" clip-rule="evenodd" fill="#D9EAD3" d="M57.922 35.738v-4.533l-.001-.001h-2.832l-.001.001v4.533l.001.001h2.832z"/><path fill="none" stroke="#D9EAD3" stroke-width=".283" stroke-linecap="round" stroke-miterlimit="10" d="M57.922 35.738v-4.533l-.001-.001h-2.832l-.001.001v4.533l.001.001h2.832z"/><path fill-rule="evenodd" clip-rule="evenodd" fill="#D9EAD3" d="M54.322 35.738v-4.533l-.002-.001h-2.831l-.002.001v4.533l.002.001h2.831z"/><path fill="none" stroke="#D9EAD3" stroke-width=".283" stroke-linecap="round" stroke-miterlimit="10" d="M54.322 35.738v-4.533l-.002-.001h-2.831l-.002.001v4.533l.002.001h2.831z"/><path fill-rule="evenodd" clip-rule="evenodd" fill="#D9EAD3" d="M50.722 35.738v-4.533l-.001-.001h-2.832l-.002.001v4.533l.002.001h2.832z"/><path fill="none" stroke="#D9EAD3" stroke-width=".283" stroke-linecap="round" stroke-miterlimit="10" d="M50.722 35.738v-4.533l-.001-.001h-2.832l-.002.001v4.533l.002.001h2.832z"/><path fill-rule="evenodd" clip-rule="evenodd" fill="#D9EAD3" d="M47.122 35.738v-4.533l-.001-.001h-2.832l-.001.001v4.533l.001.001h2.832z"/><path fill="none" stroke="#D9EAD3" stroke-width=".283" stroke-linecap="round" stroke-miterlimit="10" d="M47.122 35.738v-4.533l-.001-.001h-2.832l-.001.001v4.533l.001.001h2.832z"/><path fill-rule="evenodd" clip-rule="evenodd" fill="#D9EAD3" d="M43.522 35.738v-4.533l-.001-.001h-2.832l-.001.001v4.533l.001.001h2.832z"/><path fill="none" stroke="#D9EAD3" stroke-width=".283" stroke-linecap="round" stroke-miterlimit="10" d="M43.522 35.738v-4.533l-.001-.001h-2.832l-.001.001v4.533l.001.001h2.832z"/><path fill-rule="evenodd" clip-rule="evenodd" fill="#D9EAD3" d="M39.922 35.738v-4.533l-.002-.001h-2.831l-.002.001v4.533l.002.001h2.831z"/><path fill="none" stroke="#D9EAD3" stroke-width=".283" stroke-linecap="round" stroke-miterlimit="10" d="M39.922 35.738v-4.533l-.002-.001h-2.831l-.002.001v4.533l.002.001h2.831z"/><path fill-rule="evenodd" clip-rule="evenodd" fill="#D9EAD3" d="M36.322 35.738v-4.533l-.001-.001h-2.832l-.002.001v4.533l.002.001h2.832z"/><path fill="none" stroke="#D9EAD3" stroke-width=".283" stroke-linecap="round" stroke-miterlimit="10" d="M36.322 35.738v-4.533l-.001-.001h-2.832l-.002.001v4.533l.002.001h2.832z"/><path fill-rule="evenodd" clip-rule="evenodd" fill="#D9EAD3" d="M32.722 35.738v-4.533l-.001-.001h-2.832l-.002.001v4.533l.002.001h2.832z"/><path fill="none" stroke="#D9EAD3" stroke-width=".283" stroke-linecap="round" stroke-miterlimit="10" d="M32.722 35.738v-4.533l-.001-.001h-2.832l-.002.001v4.533l.002.001h2.832z"/><path fill-rule="evenodd" clip-rule="evenodd" fill="#D9EAD3" d="M29.122 35.738v-4.533l-.001-.001h-2.832l-.001.001v4.533l.001.001h2.832z"/><path fill="none" stroke="#D9EAD3" stroke-width=".283" stroke-linecap="round" stroke-miterlimit="10" d="M29.122 35.738v-4.533l-.001-.001h-2.832l-.001.001v4.533l.001.001h2.832z"/><path fill-rule="evenodd" clip-rule="evenodd" fill="#D9EAD3" d="M25.522 35.738v-4.533l-.001-.001h-2.832l-.001.001v4.533l.001.001h2.832z"/><path fill="none" stroke="#D9EAD3" stroke-width=".283" stroke-linecap="round" stroke-miterlimit="10" d="M25.522 35.738v-4.533l-.001-.001h-2.832l-.001.001v4.533l.001.001h2.832z"/><path fill-rule="evenodd" clip-rule="evenodd" fill="#D9EAD3" d="M21.922 35.738v-4.533l-.002-.001h-2.831l-.002.001v4.533l.002.001h2.831z"/><path fill="none" stroke="#D9EAD3" stroke-width=".283" stroke-linecap="round" stroke-miterlimit="10" d="M21.922 35.738v-4.533l-.002-.001h-2.831l-.002.001v4.533l.002.001h2.831z"/><path fill-rule="evenodd" clip-rule="evenodd" fill="#FFF" d="M10.838 57.705h2.691v-4.816h-2.691v4.054zM10.838 53.652v-.763M10.838 52.889h2.691M13.529 53.652v-.763M10.838 53.652h2.691M10.838 56.943v-3.291M10.838 53.652h2.691M13.529 56.943v-3.291M10.838 56.943h2.691M13.529 57.705v-.762M10.838 56.943h2.691M10.838 57.705v-.762M10.838 57.705h2.691"/><path fill-rule="evenodd" clip-rule="evenodd" fill="#D9EAD3" d="M13.459 56.291h-2.548l-.002.001v1.982l.002.001h2.548l.001-.001v-1.982z"/><path fill="none" stroke="#D9EAD3" stroke-width=".283" stroke-linecap="round" stroke-miterlimit="10" d="M13.459 56.291h-2.548l-.002.001v1.982l.002.001h2.548l.001-.001v-1.982z"/><path fill-rule="evenodd" clip-rule="evenodd" fill="#D9EAD3" d="M13.459 52.322h-2.548l-.002.001v1.982l.002.001h2.548l.001-.001v-1.982z"/><path fill="none" stroke="#D9EAD3" stroke-width=".283" stroke-linecap="round" stroke-miterlimit="10" d="M13.459 52.322h-2.548l-.002.001v1.982l.002.001h2.548l.001-.001v-1.982z"/><path fill="none" stroke="#000" stroke-width=".283" stroke-linecap="round" stroke-miterlimit="10" d="M10.838 57.705h2.691v-4.816h-2.691v4.054zM10.838 53.652v-.763M10.838 52.889h2.691M13.529 53.652v-.763M10.838 53.652h2.691M10.838 56.943v-3.291M10.838 53.652h2.691M13.529 56.943v-3.291M10.838 56.943h2.691M13.529 57.705v-.762M10.838 56.943h2.691M10.838 57.705v-.762M10.838 57.705h2.691"/><path fill-rule="evenodd" clip-rule="evenodd" fill="#FFF" d="M6.161 57.705h2.691v-4.816H6.161v4.054zM6.161 53.652v-.763M6.161 52.889h2.691M8.852 53.652v-.763M6.161 53.652h2.691M6.161 56.943v-3.291M6.161 53.652h2.691M8.852 56.943v-3.291M6.161 56.943h2.691M8.852 57.705v-.762M6.161 56.943h2.691M6.161 57.705v-.762M6.161 57.705h2.691"/><path fill-rule="evenodd" clip-rule="evenodd" fill="#D9EAD3" d="M8.782 56.291H6.233l-.001.001v1.982l.001.001h2.549l.001-.001v-1.982z"/><path fill="none" stroke="#D9EAD3" stroke-width=".283" stroke-linecap="round" stroke-miterlimit="10" d="M8.782 56.291H6.233l-.001.001v1.982l.001.001h2.549l.001-.001v-1.982z"/><path fill-rule="evenodd" clip-rule="evenodd" fill="#D9EAD3" d="M8.782 52.322H6.233l-.001.001v1.982l.001.001h2.549l.001-.001v-1.982z"/><path fill="none" stroke="#D9EAD3" stroke-width=".283" stroke-linecap="round" stroke-miterlimit="10" d="M8.782 52.322H6.233l-.001.001v1.982l.001.001h2.549l.001-.001v-1.982z"/><path fill="none" stroke="#000" stroke-width=".283" stroke-linecap="round" stroke-miterlimit="10" d="M6.161 57.705h2.691v-4.816H6.161v4.054zM6.161 53.652v-.763M6.161 52.889h2.691M8.852 53.652v-.763M6.161 53.652h2.691M6.161 56.943v-3.291M6.161 53.652h2.691M8.852 56.943v-3.291M6.161 56.943h2.691M8.852 57.705v-.762M6.161 56.943h2.691M6.161 57.705v-.762M6.161 57.705h2.691"/><path fill-rule="evenodd" clip-rule="evenodd" fill="#FFF" d="M11.618 75.424l.02-.147.057-.136.091-.116.116-.091.136-.057.147-.02.148.02.136.057.119.091.088.116.056.136.02.147h.567v-4.535h-.567l-.02.148-.056.135-.088.12-.119.087-.136.057-.148.02-.147-.02-.136-.057-.116-.087-.091-.12-.057-.135-.02-.148h-.567v4.535zM11.051 70.889v.85M13.319 70.889h-.567M11.618 70.889l.02.148M11.638 71.037l.057.135M11.695 71.172l.091.12M11.786 71.292l.116.087M11.902 71.379l.136.057M12.038 71.436l.147.02M12.333 71.436l-.148.02M12.469 71.379l-.136.057M12.588 71.292l-.119.087M12.676 71.172l-.088.12M12.732 71.037l-.056.135M12.752 70.889l-.02.148M11.618 70.889h-.567M13.319 75.424h-.567M12.732 75.277l.02.147M12.676 75.141l.056.136M12.588 75.025l.088.116M12.469 74.934l.119.091M12.333 74.877l.136.057M12.185 74.857l.148.02M12.185 74.857l-.147.02M12.038 74.877l-.136.057M11.902 74.934l-.116.091M11.786 75.025l-.091.116M11.695 75.141l-.057.136M11.638 75.277l-.02.147M11.618 75.424h-.567M11.051 74.574v.85M13.089 75.348l-.053.005M13.138 75.328l-.049.02M13.183 75.296l-.045.032M13.217 75.254l-.034.042M13.24 75.206l-.023.048M13.248 75.155l-.008.051M13.246 75.101l.002.054M13.228 75.05l.018.051M13.2 75.004l.028.046M13.16 74.97l.04.034M13.115 74.942l.045.028M13.064 74.931l.051.011M13.064 74.931h-.054M13.01 74.931l-.051.011M12.959 74.942l-.048.028M12.911 74.97l-.04.034M12.871 75.004l-.028.046M12.843 75.05l-.014.051M12.829 75.101l-.006.054M12.823 75.155l.011.051M12.834 75.206l.023.048M12.857 75.254l.034.042M12.891 75.296l.043.032M12.934 75.328l.05.02M12.984 75.348l.052.005M13.319 71.739h-2.268M11.051 71.739v.142M13.319 71.739v.142M13.319 70.889v.85M13.319 74.574v.85M11.051 71.881v2.551M13.319 71.881h-2.268M13.319 71.881v2.551M13.319 74.574h-2.268M11.051 74.432v.142M13.319 74.432h-2.268M13.319 74.432v.142"/><path fill-rule="evenodd" clip-rule="evenodd" fill="#D9EAD3" d="M11.193 74.15v2.266l.001.001h1.982l.001-.001V74.15l-.001-.001h-1.982z"/><path fill="none" stroke="#D9EAD3" stroke-width=".283" stroke-linecap="round" stroke-miterlimit="10" d="M11.193 74.15v2.266l.001.001h1.982l.001-.001V74.15l-.001-.001h-1.982z"/><path fill-rule="evenodd" clip-rule="evenodd" fill="#D9EAD3" d="M11.193 69.898v2.266l.001.001h1.982l.001-.001v-2.266l-.001-.001h-1.982z"/><path fill="none" stroke="#D9EAD3" stroke-width=".283" stroke-linecap="round" stroke-miterlimit="10" d="M11.193 69.898v2.266l.001.001h1.982l.001-.001v-2.266l-.001-.001h-1.982z"/><path fill="none" stroke="#000" stroke-width=".283" stroke-linecap="round" stroke-miterlimit="10" d="M11.618 75.424l.02-.147.057-.136.091-.116.116-.091.136-.057.147-.02.148.02.136.057.119.091.088.116.056.136.02.147h.567v-4.535h-.567l-.02.148-.056.135-.088.12-.119.087-.136.057-.148.02-.147-.02-.136-.057-.116-.087-.091-.12-.057-.135-.02-.148h-.567v4.535zM11.051 70.889v.85M13.319 70.889h-.567M11.618 70.889l.02.148M11.638 71.037l.057.135M11.695 71.172l.091.12M11.786 71.292l.116.087M11.902 71.379l.136.057M12.038 71.436l.147.02M12.333 71.436l-.148.02M12.469 71.379l-.136.057M12.588 71.292l-.119.087M12.676 71.172l-.088.12M12.732 71.037l-.056.135M12.752 70.889l-.02.148M11.618 70.889h-.567M13.319 75.424h-.567M12.732 75.277l.02.147M12.676 75.141l.056.136M12.588 75.025l.088.116M12.469 74.934l.119.091M12.333 74.877l.136.057M12.185 74.857l.148.02M12.185 74.857l-.147.02M12.038 74.877l-.136.057M11.902 74.934l-.116.091M11.786 75.025l-.091.116M11.695 75.141l-.057.136M11.638 75.277l-.02.147M11.618 75.424h-.567M11.051 74.574v.85M13.089 75.348l-.053.005M13.138 75.328l-.049.02M13.183 75.296l-.045.032M13.217 75.254l-.034.042M13.24 75.206l-.023.048M13.248 75.155l-.008.051M13.246 75.101l.002.054M13.228 75.05l.018.051M13.2 75.004l.028.046M13.16 74.97l.04.034M13.115 74.942l.045.028M13.064 74.931l.051.011M13.064 74.931h-.054M13.01 74.931l-.051.011M12.959 74.942l-.048.028M12.911 74.97l-.04.034M12.871 75.004l-.028.046M12.843 75.05l-.014.051M12.829 75.101l-.006.054M12.823 75.155l.011.051M12.834 75.206l.023.048M12.857 75.254l.034.042M12.891 75.296l.043.032M12.934 75.328l.05.02M12.984 75.348l.052.005M13.319 71.739h-2.268M11.051 71.739v.142M13.319 71.739v.142M13.319 70.889v.85M13.319 74.574v.85M11.051 71.881v2.551M13.319 71.881h-2.268M13.319 71.881v2.551M13.319 74.574h-2.268M11.051 74.432v.142M13.319 74.432h-2.268M13.319 74.432v.142"/><path fill-rule="evenodd" clip-rule="evenodd" fill="#FFF" d="M6.941 75.424l.02-.147.057-.136.09-.116.116-.091.136-.057.148-.02.147.02.137.057.118.091.088.116.057.136.02.147h.567v-4.535h-.567l-.02.148-.057.135-.088.12-.118.087-.137.057-.147.02-.148-.02-.136-.057-.116-.087-.09-.12-.057-.135-.02-.148h-.567v4.535zM6.374 70.889v.851M8.642 70.889h-.567M6.941 70.889l.02.148M6.961 71.037l.057.135M7.018 71.172l.09.12M7.108 71.292l.116.087M7.224 71.379l.136.057M7.36 71.436l.148.02M7.655 71.436l-.147.02M7.792 71.379l-.137.057M7.91 71.292l-.118.087M7.998 71.172l-.088.12M8.055 71.037l-.057.135M8.075 70.889l-.02.148M6.941 70.889h-.567M8.642 75.424h-.567M8.055 75.277l.02.147M7.998 75.141l.057.136M7.91 75.025l.088.116M7.792 74.934l.118.091M7.655 74.877l.137.057M7.508 74.857l.147.02M7.508 74.857l-.148.02M7.36 74.877l-.136.057M7.224 74.934l-.116.091M7.108 75.025l-.09.116M7.018 75.141l-.057.136M6.961 75.277l-.02.147M6.941 75.424h-.567M6.374 74.574v.85M8.412 75.348l-.054.005M8.46 75.328l-.048.02M8.506 75.296l-.046.032M8.54 75.254l-.034.042M8.563 75.206l-.023.048M8.571 75.155l-.008.051M8.568 75.101l.003.054M8.551 75.05l.017.051M8.522 75.004l.029.046M8.483 74.971l.039.033M8.438 74.943l.045.028M8.387 74.931l.051.012M8.387 74.931h-.054M8.333 74.931l-.051.012M8.282 74.943l-.049.028M8.233 74.971l-.039.033M8.194 75.004l-.028.046M8.166 75.05l-.015.051M8.151 75.101l-.005.054M8.146 75.155l.011.051M8.157 75.206l.023.048M8.18 75.254l.034.042M8.214 75.296l.042.032M8.256 75.328l.051.02M8.307 75.348l.051.005M8.642 71.74H6.374M6.374 71.74v.141M8.642 71.74v.141M8.642 70.889v.851M8.642 74.574v.85M6.374 71.881v2.551M8.642 71.881H6.374M8.642 71.881v2.551M8.642 74.574H6.374M6.374 74.432v.142M8.642 74.432H6.374M8.642 74.432v.142"/><path fill-rule="evenodd" clip-rule="evenodd" fill="#D9EAD3" d="M6.516 74.15v2.266l.001.001h1.982l.001-.001V74.15l-.001-.001H6.517z"/><path fill="none" stroke="#D9EAD3" stroke-width=".283" stroke-linecap="round" stroke-miterlimit="10" d="M6.516 74.15v2.266l.001.001h1.982l.001-.001V74.15l-.001-.001H6.517z"/><path fill-rule="evenodd" clip-rule="evenodd" fill="#D9EAD3" d="M6.516 69.898v2.266l.001.001h1.982l.001-.001v-2.266l-.001-.001H6.517z"/><path fill="none" stroke="#D9EAD3" stroke-width=".283" stroke-linecap="round" stroke-miterlimit="10" d="M6.516 69.898v2.266l.001.001h1.982l.001-.001v-2.266l-.001-.001H6.517z"/><path fill="none" stroke="#000" stroke-width=".283" stroke-linecap="round" stroke-miterlimit="10" d="M6.941 75.424l.02-.147.057-.136.09-.116.116-.091.136-.057.148-.02.147.02.137.057.118.091.088.116.057.136.02.147h.567v-4.535h-.567l-.02.148-.057.135-.088.12-.118.087-.137.057-.147.02-.148-.02-.136-.057-.116-.087-.09-.12-.057-.135-.02-.148h-.567v4.535zM6.374 70.889v.851M8.642 70.889h-.567M6.941 70.889l.02.148M6.961 71.037l.057.135M7.018 71.172l.09.12M7.108 71.292l.116.087M7.224 71.379l.136.057M7.36 71.436l.148.02M7.655 71.436l-.147.02M7.792 71.379l-.137.057M7.91 71.292l-.118.087M7.998 71.172l-.088.12M8.055 71.037l-.057.135M8.075 70.889l-.02.148M6.941 70.889h-.567M8.642 75.424h-.567M8.055 75.277l.02.147M7.998 75.141l.057.136M7.91 75.025l.088.116M7.792 74.934l.118.091M7.655 74.877l.137.057M7.508 74.857l.147.02M7.508 74.857l-.148.02M7.36 74.877l-.136.057M7.224 74.934l-.116.091M7.108 75.025l-.09.116M7.018 75.141l-.057.136M6.961 75.277l-.02.147M6.941 75.424h-.567M6.374 74.574v.85M8.412 75.348l-.054.005M8.46 75.328l-.048.02M8.506 75.296l-.046.032M8.54 75.254l-.034.042M8.563 75.206l-.023.048M8.571 75.155l-.008.051M8.568 75.101l.003.054M8.551 75.05l.017.051M8.522 75.004l.029.046M8.483 74.971l.039.033M8.438 74.943l.045.028M8.387 74.931l.051.012M8.387 74.931h-.054M8.333 74.931l-.051.012M8.282 74.943l-.049.028M8.233 74.971l-.039.033M8.194 75.004l-.028.046M8.166 75.05l-.015.051M8.151 75.101l-.005.054M8.146 75.155l.011.051M8.157 75.206l.023.048M8.18 75.254l.034.042M8.214 75.296l.042.032M8.256 75.328l.051.02M8.307 75.348l.051.005M8.642 71.74H6.374M6.374 71.74v.141M8.642 71.74v.141M8.642 70.889v.851M8.642 74.574v.85M6.374 71.881v2.551M8.642 71.881H6.374M8.642 71.881v2.551M8.642 74.574H6.374M6.374 74.432v.142M8.642 74.432H6.374M8.642 74.432v.142"/><path fill-rule="evenodd" clip-rule="evenodd" fill="#FFF" d="M79.012 29.574v-2.693h-4.961v2.693h3.969zM78.02 29.574h-2.977M78.02 29.574v-2.693M78.02 26.881h-2.977M75.043 29.574v-2.693M79.012 29.574h-.992M78.02 29.574v-2.693M79.012 26.881h-.992M79.012 29.574v-2.693M75.043 29.574h-.992M75.043 29.574v-2.693M75.043 26.881h-.992M74.051 29.574v-2.693"/><path fill-rule="evenodd" clip-rule="evenodd" fill="#D9EAD3" d="M77.523 26.812v2.832l.001.001h2.55l.001-.001v-2.832l-.001-.001-.001-.001h-2.549v.001z"/><path fill="none" stroke="#D9EAD3" stroke-width=".283" stroke-linecap="round" stroke-miterlimit="10" d="M77.523 26.812v2.832l.001.001h2.55l.001-.001v-2.832l-.001-.001-.001-.001h-2.549v.001z"/><path fill-rule="evenodd" clip-rule="evenodd" fill="#D9EAD3" d="M72.988 26.812V29.645H75.539V26.811l-.001-.001h-2.549l-.001.001z"/><path fill="none" stroke="#D9EAD3" stroke-width=".283" stroke-linecap="round" stroke-miterlimit="10" d="M72.988 26.812V29.645H75.539V26.811l-.001-.001h-2.549l-.001.001z"/><path fill="none" stroke="#000" stroke-width=".283" stroke-linecap="round" stroke-miterlimit="10" d="M79.012 29.574v-2.693h-4.961v2.693h3.969zM78.02 29.574h-2.977M78.02 29.574v-2.693M78.02 26.881h-2.977M75.043 29.574v-2.693M79.012 29.574h-.992M78.02 29.574v-2.693M79.012 26.881h-.992M79.012 29.574v-2.693M75.043 29.574h-.992M75.043 29.574v-2.693M75.043 26.881h-.992M74.051 29.574v-2.693"/><path fill-rule="evenodd" clip-rule="evenodd" fill="#FFF" d="M61.153 29.149h2.694v-4.961h-2.694v3.969zM61.153 28.157V25.18M61.153 28.157h2.694M63.847 28.157V25.18M61.153 25.18h2.694M61.153 29.149v-.992M61.153 28.157h2.694M63.847 29.149v-.992M61.153 29.149h2.694M61.153 25.18v-.992M61.153 25.18h2.694M63.847 25.18v-.992M61.153 24.188h2.694"/><path fill-rule="evenodd" clip-rule="evenodd" fill="#D9EAD3" d="M63.916 27.661H61.083v2.55l.001.001h2.832l.001-.001v-2.55z"/><path fill="none" stroke="#D9EAD3" stroke-width=".283" stroke-linecap="round" stroke-miterlimit="10" d="M63.916 27.661H61.083v2.55l.001.001h2.832l.001-.001v-2.55z"/><path fill-rule="evenodd" clip-rule="evenodd" fill="#D9EAD3" d="M63.916 23.125H61.083V25.676H63.917V23.125z"/><path fill="none" stroke="#D9EAD3" stroke-width=".283" stroke-linecap="round" stroke-miterlimit="10" d="M63.916 23.125H61.083V25.676H63.917V23.125z"/><path fill="none" stroke="#000" stroke-width=".283" stroke-linecap="round" stroke-miterlimit="10" d="M61.153 29.149h2.694v-4.961h-2.694v3.969zM61.153 28.157V25.18M61.153 28.157h2.694M63.847 28.157V25.18M61.153 25.18h2.694M61.153 29.149v-.992M61.153 28.157h2.694M63.847 29.149v-.992M61.153 29.149h2.694M61.153 25.18v-.992M61.153 25.18h2.694M63.847 25.18v-.992M61.153 24.188h2.694"/><path fill-rule="evenodd" clip-rule="evenodd" fill="#FFF" d="M55.626 29.149h2.693v-4.961h-2.693v3.969zM55.626 28.157V25.18M55.626 28.157h2.693M58.319 28.157V25.18M55.626 25.18h2.693M55.626 29.149v-.992M55.626 28.157h2.693M58.319 29.149v-.992M55.626 29.149h2.693M55.626 25.18v-.992M55.626 25.18h2.693M58.319 25.18v-.992M55.626 24.188h2.693"/><path fill-rule="evenodd" clip-rule="evenodd" fill="#D9EAD3" d="M58.389 27.661H55.556l-.001.001v2.548l.001.001.001.001h2.832l.001-.001v-2.55z"/><path fill="none" stroke="#D9EAD3" stroke-width=".283" stroke-linecap="round" stroke-miterlimit="10" d="M58.389 27.661H55.556l-.001.001v2.548l.001.001.001.001h2.832l.001-.001v-2.55z"/><path fill-rule="evenodd" clip-rule="evenodd" fill="#D9EAD3" d="M58.389 23.125H55.556l-.001.001v2.549l.001.001H58.39V23.125z"/><path fill="none" stroke="#D9EAD3" stroke-width=".283" stroke-linecap="round" stroke-miterlimit="10" d="M58.389 23.125H55.556l-.001.001v2.549l.001.001H58.39V23.125z"/><path fill="none" stroke="#000" stroke-width=".283" stroke-linecap="round" stroke-miterlimit="10" d="M55.626 29.149h2.693v-4.961h-2.693v3.969zM55.626 28.157V25.18M55.626 28.157h2.693M58.319 28.157V25.18M55.626 25.18h2.693M55.626 29.149v-.992M55.626 28.157h2.693M58.319 29.149v-.992M55.626 29.149h2.693M55.626 25.18v-.992M55.626 25.18h2.693M58.319 25.18v-.992M55.626 24.188h2.693"/><path fill-rule="evenodd" clip-rule="evenodd" fill="#FFF" d="M102.894 27.802v-3.969h-.921v-1.558h-1.276V23.833h-4.11v-1.558h-1.276V23.833h-.921v3.969h3.614V29.361h1.275V27.802zM96.587 23.672v-.161M96.587 23.511v-.148M96.587 23.363v-.122M96.587 23.241v-.088M96.587 23.153v-.042M96.587 23.049v-.012M96.587 23.037v-.022M96.587 23.015v-.029M96.587 22.986v-.04M96.587 22.946v-.039M95.311 22.946v-.039M95.311 22.986v-.04M95.311 23.015v-.029M95.311 23.037v-.022M95.311 23.049v-.012M95.311 23.153v-.042M95.311 23.241v-.088M95.311 23.363v-.122M95.311 23.511v-.148M95.311 23.672v-.161M96.587 22.275h-1.276M96.587 22.907v-.632M95.311 22.907v-.632M96.587 23.111v-.062M95.311 23.111v-.062M95.311 23.833v-.161M96.587 23.833v-.161M100.697 22.946v-.039M100.697 22.986v-.04M100.697 23.015v-.029M100.697 23.037v-.022M100.697 23.049v-.012M100.697 23.153v-.042M100.697 23.241v-.088M100.697 23.363v-.122M100.697 23.511v-.148M100.697 23.672v-.161M101.973 23.672v-.161M101.973 23.511v-.148M101.973 23.363v-.122M101.973 23.241v-.088M101.973 23.153v-.042M101.973 23.049v-.012M101.973 23.037v-.022M101.973 23.015v-.029M101.973 22.986v-.04M101.973 22.946v-.039M101.973 23.111v-.062M100.697 23.111v-.062M101.973 22.907v-.632M100.697 22.907v-.632M101.973 22.275h-1.276M100.697 23.833v-.161M101.973 23.833v-.161M98.004 28.599v-.012M98.004 28.622v-.023M98.004 28.653v-.031M98.004 28.689v-.036M98.004 28.729v-.04M98.004 28.125v-.161M98.004 28.273v-.148M98.004 28.395v-.122M98.004 28.482v-.087M98.004 28.525v-.043M99.279 28.729v-.04M99.279 28.689v-.036M99.279 28.653v-.031M99.279 28.622v-.023M99.279 28.599v-.012M99.279 28.525v-.043M99.279 28.482v-.087M99.279 28.395v-.122M99.279 28.273v-.148M99.279 28.125v-.161M99.279 29.361h-1.275M98.004 29.361v-.632M99.279 29.361v-.632M98.004 28.587v-.062M99.279 28.587v-.062M99.279 27.964v-.162M98.004 27.964v-.162M102.758 23.97h-8.233M95.311 23.833h-.921M96.587 23.833h-1.276M100.697 23.833h-4.11M101.973 23.833h-1.276M102.894 23.833h-.921M102.758 27.666V23.97M102.894 23.833l-.136.137M102.894 27.802v-3.969M102.758 27.666h-8.233M102.894 27.802l-.136-.136M102.894 27.802h-3.615M99.279 27.802h-1.275M98.004 27.802H94.39M94.525 23.97l-.135-.137M94.525 27.666V23.97M94.525 27.666l-.135.136M94.39 27.802v-3.969M96.587 22.907h-1.276M96.587 23.049h-1.276M96.587 23.111h-1.276M96.587 23.672h-1.276M101.973 23.049h-1.276M101.973 23.111h-1.276M101.973 22.907h-1.276M101.973 23.672h-1.276M99.279 28.729h-1.275M99.279 28.587h-1.275M99.279 28.525h-1.275M99.279 27.964h-1.275"/><path fill-rule="evenodd" clip-rule="evenodd" fill="#D9EAD3" d="M99.563 27.59H97.721v2.976H99.563V27.59z"/><path fill="none" stroke="#D9EAD3" stroke-width=".283" stroke-linecap="round" stroke-miterlimit="10" d="M99.563 27.59H97.721v2.976H99.563V27.59z"/><path fill-rule="evenodd" clip-rule="evenodd" fill="#D9EAD3" d="M96.869 21.07H95.027v2.976H96.87V21.07z"/><path fill="none" stroke="#D9EAD3" stroke-width=".283" stroke-linecap="round" stroke-miterlimit="10" d="M96.869 21.07H95.027v2.976H96.87V21.07z"/><path fill-rule="evenodd" clip-rule="evenodd" fill="#D9EAD3" d="M102.255 21.07h-1.841l-.001.001v2.974l.001.001H102.256V21.07z"/><path fill="none" stroke="#D9EAD3" stroke-width=".283" stroke-linecap="round" stroke-miterlimit="10" d="M102.255 21.07h-1.841l-.001.001v2.974l.001.001H102.256V21.07z"/><path fill="none" stroke="#000" stroke-width=".283" stroke-linecap="round" stroke-miterlimit="10" d="M102.894 27.802v-3.969h-.921v-1.558h-1.276V23.833h-4.11v-1.558h-1.276V23.833h-.921v3.969h3.614V29.361h1.275V27.802zM96.587 23.672v-.161M96.587 23.511v-.148M96.587 23.363v-.122M96.587 23.241v-.088M96.587 23.153v-.042M96.587 23.049v-.012M96.587 23.037v-.022M96.587 23.015v-.029M96.587 22.986v-.04M96.587 22.946v-.039M95.311 22.946v-.039M95.311 22.986v-.04M95.311 23.015v-.029M95.311 23.037v-.022M95.311 23.049v-.012M95.311 23.153v-.042M95.311 23.241v-.088M95.311 23.363v-.122M95.311 23.511v-.148M95.311 23.672v-.161M96.587 22.275h-1.276M96.587 22.907v-.632M95.311 22.907v-.632M96.587 23.111v-.062M95.311 23.111v-.062M95.311 23.833v-.161M96.587 23.833v-.161M100.697 22.946v-.039M100.697 22.986v-.04M100.697 23.015v-.029M100.697 23.037v-.022M100.697 23.049v-.012M100.697 23.153v-.042M100.697 23.241v-.088M100.697 23.363v-.122M100.697 23.511v-.148M100.697 23.672v-.161M101.973 23.672v-.161M101.973 23.511v-.148M101.973 23.363v-.122M101.973 23.241v-.088M101.973 23.153v-.042M101.973 23.049v-.012M101.973 23.037v-.022M101.973 23.015v-.029M101.973 22.986v-.04M101.973 22.946v-.039M101.973 23.111v-.062M100.697 23.111v-.062M101.973 22.907v-.632M100.697 22.907v-.632M101.973 22.275h-1.276M100.697 23.833v-.161M101.973 23.833v-.161M98.004 28.599v-.012M98.004 28.622v-.023M98.004 28.653v-.031M98.004 28.689v-.036M98.004 28.729v-.04M98.004 28.125v-.161M98.004 28.273v-.148M98.004 28.395v-.122M98.004 28.482v-.087M98.004 28.525v-.043M99.279 28.729v-.04M99.279 28.689v-.036M99.279 28.653v-.031M99.279 28.622v-.023M99.279 28.599v-.012M99.279 28.525v-.043M99.279 28.482v-.087M99.279 28.395v-.122M99.279 28.273v-.148M99.279 28.125v-.161M99.279 29.361h-1.275M98.004 29.361v-.632M99.279 29.361v-.632M98.004 28.587v-.062M99.279 28.587v-.062M99.279 27.964v-.162M98.004 27.964v-.162M102.758 23.97h-8.233M95.311 23.833h-.921M96.587 23.833h-1.276M100.697 23.833h-4.11M101.973 23.833h-1.276M102.894 23.833h-.921M102.758 27.666V23.97M102.894 23.833l-.136.137M102.894 27.802v-3.969M102.758 27.666h-8.233M102.894 27.802l-.136-.136M102.894 27.802h-3.615M99.279 27.802h-1.275M98.004 27.802H94.39M94.525 23.97l-.135-.137M94.525 27.666V23.97M94.525 27.666l-.135.136M94.39 27.802v-3.969M96.587 22.907h-1.276M96.587 23.049h-1.276M96.587 23.111h-1.276M96.587 23.672h-1.276M101.973 23.049h-1.276M101.973 23.111h-1.276M101.973 22.907h-1.276M101.973 23.672h-1.276M99.279 28.729h-1.275M99.279 28.587h-1.275M99.279 28.525h-1.275M99.279 27.964h-1.275"/><path fill-rule="evenodd" clip-rule="evenodd" fill="#FFF" d="M97.225 56.007v2.834h1.133v.568h5.103v-.568h1.134v-2.834h.679v-1.701h-.679v-2.834h-1.134v-.567h-5.103v.567h-.283l-.85.85v1.984h-.681v1.701zM104.595 51.472v7.369M97.225 52.322v6.519M104.595 58.841h-7.37M98.358 50.905v.567M103.461 50.905v.567M103.461 50.905h-5.103M105.274 56.007h-.679M105.274 54.306v1.701M105.274 54.306h-.679M96.544 54.306v1.701M97.225 56.007h-.681M97.225 54.306h-.681M98.358 58.841v.568M103.461 59.409h-5.103M103.461 58.841v.568M99.163 53.71l-.167.231M98.996 53.941l-.139.252M98.857 54.193l-.105.264M98.752 54.457l-.07.275M98.682 54.732l-.035.283M98.647 55.015v.283M98.647 55.298l.035.284M98.682 55.582l.07.275M98.752 55.857l.105.266M98.857 56.123l.139.25M98.996 56.373l.167.229M100.855 55.111l-.008.014M100.847 55.125l-.005.017M100.842 55.142l-.003.02M100.839 55.162l.003.017M100.842 55.179l.008.018M100.85 55.197l.011.011M104.595 51.472h-6.52M98.075 51.472l-.85.85M101.193 57.408l-.284.016M101.474 57.353l-.281.055M101.746 57.265l-.272.088M102.004 57.144l-.258.121M102.242 56.991l-.238.153M102.463 56.809l-.221.182M102.658 56.602l-.195.207M102.825 56.373l-.167.229M102.962 56.123l-.137.25M103.066 55.857l-.104.266M103.138 55.582l-.072.275M103.175 55.298l-.037.284M103.175 55.015v.283M103.138 54.732l.037.283M103.066 54.457l.072.275M102.962 54.193l.104.264M102.825 53.941l.137.252M102.658 53.71l.167.231M102.463 53.503l.195.207M102.242 53.323l.221.18M102.004 53.169l.238.154M101.746 53.047l.258.122M101.474 52.959l.272.088M101.193 52.906l.281.053M100.909 52.888l.284.018M100.909 52.888l-.283.018M100.626 52.906l-.28.053M100.346 52.959l-.27.088M100.076 53.047l-.258.122M99.818 53.169l-.241.154M99.577 53.323l-.219.18M99.358 53.503l-.195.207M99.163 53.71l-.167.231M98.996 53.941l-.139.252M98.857 54.193l-.105.264M98.752 54.457l-.07.275M98.682 54.732l-.035.283M98.647 55.015v.283M98.647 55.298l.035.284M98.682 55.582l.07.275M98.752 55.857l.105.266M98.857 56.123l.139.25M98.996 56.373l.167.229M99.163 56.602l.195.207M99.358 56.809l.219.182M99.577 56.991l.241.153M99.818 57.144l.258.121M100.076 57.265l.27.088M100.346 57.353l.28.055M100.626 57.408l.283.016M100.909 52.605l-.305.02M100.604 52.625l-.304.054M100.3 52.679l-.295.094M100.005 52.773l-.28.125M99.725 52.898l-.264.158M99.461 53.056l-.244.19M99.217 53.246l-.218.218M98.999 53.464l-.19.244M98.809 53.708l-.159.264M98.65 53.972l-.125.28M98.525 54.252l-.093.295M98.432 54.547l-.054.304M98.378 54.851l-.02.306M98.358 55.157l.02.309M98.378 55.466l.054.303M98.432 55.769l.093.292M98.525 56.061l.125.28M98.65 56.341l.159.264M98.809 56.605l.19.244M98.999 56.849l.218.219M99.217 57.068l.244.189M99.461 57.257l.264.159M99.725 57.416l.28.127M100.005 57.543l.295.091M100.3 57.634l.304.057M100.604 57.691l.305.017M101.219 57.691l-.31.017M101.521 57.634l-.302.057M101.813 57.543l-.292.091M102.095 57.416l-.282.127M102.358 57.257l-.263.159M102.602 57.068l-.244.189M102.82 56.849l-.218.219M103.01 56.605l-.19.244M103.169 56.341l-.159.264M103.296 56.061l-.127.28M103.387 55.769l-.091.292M103.443 55.466l-.056.303M103.461 55.157l-.018.309M103.443 54.851l.018.306M103.387 54.547l.056.304M103.296 54.252l.091.295M103.169 53.972l.127.28M103.01 53.708l.159.264M102.82 53.464l.19.244M102.602 53.246l.218.218M102.358 53.056l.244.19M102.095 52.898l.263.158M101.813 52.773l.282.125M101.521 52.679l.292.094M101.219 52.625l.302.054M100.909 52.605l.31.02M100.909 52.322l.318.017M101.227 52.339l.315.053M101.542 52.392l.303.088M101.845 52.48l.295.123M102.14 52.603l.277.152M102.417 52.755l.262.185M102.679 52.94l.234.212M102.913 53.152l.213.238M103.126 53.39l.185.258M103.311 53.648l.153.278M103.464 53.926l.121.295M103.585 54.221l.088.306M103.673 54.527l.054.312M103.727 54.839l.017.318M103.744 55.157l-.017.317M103.727 55.474l-.054.315M103.673 55.789l-.088.302M103.585 56.091l-.121.295M103.464 56.386l-.153.279M103.311 56.665l-.185.26M103.126 56.925l-.213.236M102.913 57.161l-.234.212M102.679 57.373l-.262.185M102.417 57.558l-.277.152M102.14 57.71l-.295.123M101.845 57.833l-.303.087M101.542 57.92l-.315.054M101.227 57.974l-.318.017M100.592 57.974l.317.017M100.28 57.92l.312.054M99.974 57.833l.306.087M99.68 57.71l.294.123M99.401 57.558l.279.152M99.144 57.373l.257.185M98.905 57.161l.239.212M98.692 56.925l.213.236M98.509 56.665l.183.26M98.355 56.386l.154.279M98.233 56.091l.122.295M98.146 55.789l.087.302M98.092 55.474l.054.315M98.075 55.157l.017.317M98.092 54.839l-.017.318M98.146 54.527l-.054.312M98.233 54.221l-.087.306M98.355 53.926l-.122.295M98.509 53.648l-.154.278M98.692 53.39l-.183.258M98.905 53.152l-.213.238M99.144 52.94l-.239.212M99.401 52.755l-.257.185M99.68 52.603l-.279.152M99.974 52.48l-.294.123M100.28 52.392l-.306.088M100.592 52.339l-.312.053M100.909 52.322l-.317.017M103.464 53.926l.121.295M103.585 54.221l.088.306M103.673 54.527l.054.312M103.727 54.839l.017.318M103.744 55.157l-.017.317M103.727 55.474l-.054.315M103.673 55.789l-.088.302M103.585 56.091l-.121.295M100.927 55.224l-.018.004M100.943 55.218l-.016.006M100.958 55.208l-.015.01M100.969 55.197l-.011.011M100.978 55.179l-.009.018M100.98 55.162l-.002.017M100.98 55.142v.02M100.975 55.125l.005.017M100.963 55.111l.012.014M100.952 55.1l.011.011M100.935 55.091l.017.009M100.918 55.085l.017.006M100.918 55.085h-.017M100.901 55.085l-.017.006M100.884 55.091l-.017.009M100.867 55.1l-.012.011M100.855 55.111l-.008.014M100.847 55.125l-.005.017M100.842 55.142l-.003.02M100.839 55.162l.003.017M100.842 55.179l.008.018M100.85 55.197l.011.011M100.861 55.208l.014.01M100.875 55.218l.018.006M100.893 55.224l.016.004M101.618 55.203l-.034.172M101.606 55.023l.012.18M100.733 55.843l.176.022M100.569 55.777l.164.066M100.425 55.672l.144.105M100.312 55.537l.113.135M100.234 55.375l.078.162M100.204 55.203l.03.172M100.215 55.023l-.011.18M100.269 54.856l-.054.167M100.365 54.707l-.096.149M100.493 54.583l-.128.124M100.648 54.5l-.155.083M100.821 54.454l-.173.046M100.997 54.454h-.176M100.997 54.454l.173.046M101.17 54.5l.156.083M101.326 54.583l.13.124M101.456 54.707l.094.149M101.55 54.856l.056.167M101.606 55.023l.012.18M101.618 55.203l-.034.172M101.584 55.375l-.076.162M101.508 55.537l-.113.135M101.395 55.672l-.143.105M101.252 55.777l-.167.066M101.085 55.843l-.176.022M100.909 52.322v.283M100.946 55.295l-.037.003M100.978 55.281l-.032.014M101.006 55.261l-.028.02M101.028 55.233l-.022.028M101.046 55.203l-.018.03M101.051 55.166l-.005.037M101.048 55.13l.003.036M101.037 55.097l.011.033M101.021 55.066l.016.031M100.994 55.042l.027.024M100.963 55.027l.031.015M100.927 55.017l.036.01M100.927 55.017h-.034M100.893 55.017l-.035.01M100.858 55.027l-.031.015M100.827 55.042l-.025.024M100.802 55.066l-.02.031M100.782 55.097l-.011.033M100.771 55.13l-.003.036M100.768 55.166l.008.037M100.776 55.203l.014.03M100.79 55.233l.023.028M100.813 55.261l.029.02M100.842 55.281l.033.014M100.875 55.295l.034.003M100.909 55.298v.117M100.909 55.415v.11M100.909 55.525v.113M100.909 55.638v.094M100.909 55.732v.074M100.909 55.806v.045M100.909 55.851v.014"/><path fill-rule="evenodd" clip-rule="evenodd" fill="#D9EAD3" d="M103.744 53.741v2.831l.001.002h2.832l.002-.002v-2.831l-.002-.001h-2.832z"/><path fill="none" stroke="#D9EAD3" stroke-width=".283" stroke-linecap="round" stroke-miterlimit="10" d="M103.744 53.741v2.831l.001.002h2.832l.002-.002v-2.831l-.002-.001h-2.832z"/><path fill-rule="evenodd" clip-rule="evenodd" fill="#D9EAD3" d="M95.24 53.741v2.831l.001.002h2.832l.002-.002v-2.831l-.002-.001h-2.832z"/><path fill="none" stroke="#D9EAD3" stroke-width=".283" stroke-linecap="round" stroke-miterlimit="10" d="M95.24 53.741v2.831l.001.002h2.832l.002-.002v-2.831l-.002-.001h-2.832z"/><path fill-rule="evenodd" clip-rule="evenodd" fill="#D9EAD3" d="M97.791 57.851v2.974l.001.001h6.235V57.85l-.001-.001h-6.233l-.001.001z"/><path fill="none" stroke="#D9EAD3" stroke-width=".283" stroke-linecap="round" stroke-miterlimit="10" d="M97.791 57.851v2.974l.001.001h6.235V57.85l-.001-.001h-6.233l-.001.001z"/><path fill-rule="evenodd" clip-rule="evenodd" fill="#D9EAD3" d="M97.791 49.489v2.973l.001.001.001.001h6.233l.001-.001V49.488l-.001-.001h-6.233l-.001.001z"/><path fill="none" stroke="#D9EAD3" stroke-width=".283" stroke-linecap="round" stroke-miterlimit="10" d="M97.791 49.489v2.973l.001.001.001.001h6.233l.001-.001V49.488l-.001-.001h-6.233l-.001.001z"/><path fill="none" stroke="#000" stroke-width=".283" stroke-linecap="round" stroke-miterlimit="10" d="M97.225 56.007v2.834h1.133v.568h5.103v-.568h1.134v-2.834h.679v-1.701h-.679v-2.834h-1.134v-.567h-5.103v.567h-.283l-.85.85v1.984h-.681v1.701zM104.595 51.472v7.369M97.225 52.322v6.519M104.595 58.841h-7.37M98.358 50.905v.567M103.461 50.905v.567M103.461 50.905h-5.103M105.274 56.007h-.679M105.274 54.306v1.701M105.274 54.306h-.679M96.544 54.306v1.701M97.225 56.007h-.681M97.225 54.306h-.681M98.358 58.841v.568M103.461 59.409h-5.103M103.461 58.841v.568M99.163 53.71l-.167.231M98.996 53.941l-.139.252M98.857 54.193l-.105.264M98.752 54.457l-.07.275M98.682 54.732l-.035.283M98.647 55.015v.283M98.647 55.298l.035.284M98.682 55.582l.07.275M98.752 55.857l.105.266M98.857 56.123l.139.25M98.996 56.373l.167.229M100.855 55.111l-.008.014M100.847 55.125l-.005.017M100.842 55.142l-.003.02M100.839 55.162l.003.017M100.842 55.179l.008.018M100.85 55.197l.011.011M104.595 51.472h-6.52M98.075 51.472l-.85.85M101.193 57.408l-.284.016M101.474 57.353l-.281.055M101.746 57.265l-.272.088M102.004 57.144l-.258.121M102.242 56.991l-.238.153M102.463 56.809l-.221.182M102.658 56.602l-.195.207M102.825 56.373l-.167.229M102.962 56.123l-.137.25M103.066 55.857l-.104.266M103.138 55.582l-.072.275M103.175 55.298l-.037.284M103.175 55.015v.283M103.138 54.732l.037.283M103.066 54.457l.072.275M102.962 54.193l.104.264M102.825 53.941l.137.252M102.658 53.71l.167.231M102.463 53.503l.195.207M102.242 53.323l.221.18M102.004 53.169l.238.154M101.746 53.047l.258.122M101.474 52.959l.272.088M101.193 52.906l.281.053M100.909 52.888l.284.018M100.909 52.888l-.283.018M100.626 52.906l-.28.053M100.346 52.959l-.27.088M100.076 53.047l-.258.122M99.818 53.169l-.241.154M99.577 53.323l-.219.18M99.358 53.503l-.195.207M99.163 53.71l-.167.231M98.996 53.941l-.139.252M98.857 54.193l-.105.264M98.752 54.457l-.07.275M98.682 54.732l-.035.283M98.647 55.015v.283M98.647 55.298l.035.284M98.682 55.582l.07.275M98.752 55.857l.105.266M98.857 56.123l.139.25M98.996 56.373l.167.229M99.163 56.602l.195.207M99.358 56.809l.219.182M99.577 56.991l.241.153M99.818 57.144l.258.121M100.076 57.265l.27.088M100.346 57.353l.28.055M100.626 57.408l.283.016M100.909 52.605l-.305.02M100.604 52.625l-.304.054M100.3 52.679l-.295.094M100.005 52.773l-.28.125M99.725 52.898l-.264.158M99.461 53.056l-.244.19M99.217 53.246l-.218.218M98.999 53.464l-.19.244M98.809 53.708l-.159.264M98.65 53.972l-.125.28M98.525 54.252l-.093.295M98.432 54.547l-.054.304M98.378 54.851l-.02.306M98.358 55.157l.02.309M98.378 55.466l.054.303M98.432 55.769l.093.292M98.525 56.061l.125.28M98.65 56.341l.159.264M98.809 56.605l.19.244M98.999 56.849l.218.219M99.217 57.068l.244.189M99.461 57.257l.264.159M99.725 57.416l.28.127M100.005 57.543l.295.091M100.3 57.634l.304.057M100.604 57.691l.305.017M101.219 57.691l-.31.017M101.521 57.634l-.302.057M101.813 57.543l-.292.091M102.095 57.416l-.282.127M102.358 57.257l-.263.159M102.602 57.068l-.244.189M102.82 56.849l-.218.219M103.01 56.605l-.19.244M103.169 56.341l-.159.264M103.296 56.061l-.127.28M103.387 55.769l-.091.292M103.443 55.466l-.056.303M103.461 55.157l-.018.309M103.443 54.851l.018.306M103.387 54.547l.056.304M103.296 54.252l.091.295M103.169 53.972l.127.28M103.01 53.708l.159.264M102.82 53.464l.19.244M102.602 53.246l.218.218M102.358 53.056l.244.19M102.095 52.898l.263.158M101.813 52.773l.282.125M101.521 52.679l.292.094M101.219 52.625l.302.054M100.909 52.605l.31.02M100.909 52.322l.318.017M101.227 52.339l.315.053M101.542 52.392l.303.088M101.845 52.48l.295.123M102.14 52.603l.277.152M102.417 52.755l.262.185M102.679 52.94l.234.212M102.913 53.152l.213.238M103.126 53.39l.185.258M103.311 53.648l.153.278M103.464 53.926l.121.295M103.585 54.221l.088.306M103.673 54.527l.054.312M103.727 54.839l.017.318M103.744 55.157l-.017.317M103.727 55.474l-.054.315M103.673 55.789l-.088.302M103.585 56.091l-.121.295M103.464 56.386l-.153.279M103.311 56.665l-.185.26M103.126 56.925l-.213.236M102.913 57.161l-.234.212M102.679 57.373l-.262.185M102.417 57.558l-.277.152M102.14 57.71l-.295.123M101.845 57.833l-.303.087M101.542 57.92l-.315.054M101.227 57.974l-.318.017M100.592 57.974l.317.017M100.28 57.92l.312.054M99.974 57.833l.306.087M99.68 57.71l.294.123M99.401 57.558l.279.152M99.144 57.373l.257.185M98.905 57.161l.239.212M98.692 56.925l.213.236M98.509 56.665l.183.26M98.355 56.386l.154.279M98.233 56.091l.122.295M98.146 55.789l.087.302M98.092 55.474l.054.315M98.075 55.157l.017.317M98.092 54.839l-.017.318M98.146 54.527l-.054.312M98.233 54.221l-.087.306M98.355 53.926l-.122.295M98.509 53.648l-.154.278M98.692 53.39l-.183.258M98.905 53.152l-.213.238M99.144 52.94l-.239.212M99.401 52.755l-.257.185M99.68 52.603l-.279.152M99.974 52.48l-.294.123M100.28 52.392l-.306.088M100.592 52.339l-.312.053M100.909 52.322l-.317.017M103.464 53.926l.121.295M103.585 54.221l.088.306M103.673 54.527l.054.312M103.727 54.839l.017.318M103.744 55.157l-.017.317M103.727 55.474l-.054.315M103.673 55.789l-.088.302M103.585 56.091l-.121.295M100.927 55.224l-.018.004M100.943 55.218l-.016.006M100.958 55.208l-.015.01M100.969 55.197l-.011.011M100.978 55.179l-.009.018M100.98 55.162l-.002.017M100.98 55.142v.02M100.975 55.125l.005.017M100.963 55.111l.012.014M100.952 55.1l.011.011M100.935 55.091l.017.009M100.918 55.085l.017.006M100.918 55.085h-.017M100.901 55.085l-.017.006M100.884 55.091l-.017.009M100.867 55.1l-.012.011M100.855 55.111l-.008.014M100.847 55.125l-.005.017M100.842 55.142l-.003.02M100.839 55.162l.003.017M100.842 55.179l.008.018M100.85 55.197l.011.011M100.861 55.208l.014.01M100.875 55.218l.018.006M100.893 55.224l.016.004M101.618 55.203l-.034.172M101.606 55.023l.012.18M100.733 55.843l.176.022M100.569 55.777l.164.066M100.425 55.672l.144.105M100.312 55.537l.113.135M100.234 55.375l.078.162M100.204 55.203l.03.172M100.215 55.023l-.011.18M100.269 54.856l-.054.167M100.365 54.707l-.096.149M100.493 54.583l-.128.124M100.648 54.5l-.155.083M100.821 54.454l-.173.046M100.997 54.454h-.176M100.997 54.454l.173.046M101.17 54.5l.156.083M101.326 54.583l.13.124M101.456 54.707l.094.149M101.55 54.856l.056.167M101.606 55.023l.012.18M101.618 55.203l-.034.172M101.584 55.375l-.076.162M101.508 55.537l-.113.135M101.395 55.672l-.143.105M101.252 55.777l-.167.066M101.085 55.843l-.176.022M100.909 52.322v.283M100.946 55.295l-.037.003M100.978 55.281l-.032.014M101.006 55.261l-.028.02M101.028 55.233l-.022.028M101.046 55.203l-.018.03M101.051 55.166l-.005.037M101.048 55.13l.003.036M101.037 55.097l.011.033M101.021 55.066l.016.031M100.994 55.042l.027.024M100.963 55.027l.031.015M100.927 55.017l.036.01M100.927 55.017h-.034M100.893 55.017l-.035.01M100.858 55.027l-.031.015M100.827 55.042l-.025.024M100.802 55.066l-.02.031M100.782 55.097l-.011.033M100.771 55.13l-.003.036M100.768 55.166l.008.037M100.776 55.203l.014.03M100.79 55.233l.023.028M100.813 55.261l.029.02M100.842 55.281l.033.014M100.875 55.295l.034.003M100.909 55.298v.117M100.909 55.415v.11M100.909 55.525v.113M100.909 55.638v.094M100.909 55.732v.074M100.909 55.806v.045M100.909 55.851v.014"/><path fill-rule="evenodd" clip-rule="evenodd" fill="#FFF" d="M100.201 67.771h-2.835v1.134h-.567v5.102h.567v1.134h2.835v.68h1.7v-.68h2.835v-1.134h.567v-5.102h-.567v-.283l-.85-.851h-1.985v-.681h-1.7zM104.736 75.141h-7.37M103.886 67.771h-6.52M97.366 75.141v-7.37M105.303 68.905h-.567M105.303 74.007h-.567M105.303 74.007v-5.102M100.201 75.821v-.68M101.901 75.821h-1.7M101.901 75.821v-.68M101.901 67.09h-1.7M100.201 67.771v-.681M101.901 67.771v-.681M97.366 68.905h-.567M96.799 74.007v-5.102M97.366 74.007h-.567M102.497 69.709l-.229-.167M102.268 69.542l-.253-.138M102.015 69.404l-.264-.106M101.751 69.298l-.274-.07M101.477 69.228l-.285-.034M101.192 69.194h-.283M100.909 69.194l-.283.034M100.626 69.228l-.275.07M100.351 69.298l-.266.106M100.085 69.404l-.25.138M99.835 69.542l-.23.167M101.097 71.402l-.015-.009M101.082 71.393l-.017-.005M101.065 71.388l-.019-.003M101.046 71.385l-.018.003M101.028 71.388l-.016.008M101.012 71.396l-.012.012M104.736 75.141v-6.519M104.736 68.622l-.85-.851M98.801 71.74l-.018-.284M98.854 72.02l-.053-.28M98.942 72.292l-.088-.272M99.064 72.55l-.122-.258M99.217 72.789l-.153-.239M99.398 73.009l-.181-.22M99.605 73.205l-.207-.196M99.835 73.372l-.23-.167M100.085 73.508l-.25-.136M100.351 73.613l-.266-.105M100.626 73.684l-.275-.071M100.909 73.721l-.283-.037M101.192 73.721h-.283M101.477 73.684l-.285.037M101.751 73.613l-.274.071M102.015 73.508l-.264.105M102.268 73.372l-.253.136M102.497 73.205l-.229.167M102.704 73.009l-.207.196M102.885 72.789l-.181.22M103.038 72.55l-.153.239M103.16 72.292l-.122.258M103.248 72.02l-.088.272M103.302 71.74l-.054.28M103.319 71.456l-.017.284M103.319 71.456l-.017-.284M103.302 71.172l-.054-.28M103.248 70.892l-.088-.269M103.16 70.623l-.122-.258M103.038 70.365l-.153-.241M102.885 70.124l-.181-.219M102.704 69.905l-.207-.196M102.497 69.709l-.229-.167M102.268 69.542l-.253-.138M102.015 69.404l-.264-.106M101.751 69.298l-.274-.07M101.477 69.228l-.285-.034M101.192 69.194h-.283M100.909 69.194l-.283.034M100.626 69.228l-.275.07M100.351 69.298l-.266.106M100.085 69.404l-.25.138M99.835 69.542l-.23.167M99.605 69.709l-.207.196M99.398 69.905l-.181.219M99.217 70.124l-.153.241M99.064 70.365l-.122.258M98.942 70.623l-.088.269M98.854 70.892l-.053.28M98.801 71.172l-.018.284M103.603 71.456l-.021-.306M103.582 71.15l-.054-.304M103.528 70.846l-.092-.295M103.436 70.551l-.125-.28M103.311 70.271l-.16-.264M103.151 70.007l-.189-.244M102.962 69.763l-.219-.218M102.743 69.545l-.243-.19M102.5 69.355l-.264-.158M102.236 69.197l-.281-.125M101.955 69.072l-.295-.094M101.66 68.978l-.303-.054M101.357 68.924l-.306-.019M101.051 68.905l-.309.019M100.742 68.924l-.304.054M100.438 68.978l-.292.094M100.146 69.072l-.28.125M99.866 69.197l-.263.158M99.603 69.355l-.245.19M99.358 69.545l-.217.218M99.141 69.763l-.191.244M98.95 70.007l-.158.264M98.792 70.271l-.128.28M98.664 70.551l-.091.295M98.573 70.846l-.056.304M98.517 71.15l-.017.306M98.517 71.765l-.017-.309M98.573 72.068l-.056-.303M98.664 72.36l-.091-.292M98.792 72.641l-.128-.281M98.95 72.905l-.158-.264M99.141 73.148l-.191-.243M99.358 73.367l-.217-.219M99.603 73.556l-.245-.189M99.866 73.715l-.263-.159M100.146 73.842l-.28-.127M100.438 73.933l-.292-.091M100.742 73.99l-.304-.057M101.051 74.007l-.309-.017M101.357 73.99l-.306.017M101.66 73.933l-.303.057M101.955 73.842l-.295.091M102.236 73.715l-.281.127M102.5 73.556l-.264.159M102.743 73.367l-.243.189M102.962 73.148l-.219.219M103.151 72.905l-.189.243M103.311 72.641l-.16.264M103.436 72.36l-.125.281M103.528 72.068l-.092.292M103.582 71.765l-.054.303M103.603 71.456l-.021.309M103.886 71.456l-.017.317M103.869 71.773l-.054.315M103.815 72.088l-.087.303M103.728 72.391l-.123.295M103.605 72.686l-.153.277M103.452 72.963l-.184.261M103.268 73.224l-.212.235M103.056 73.459l-.239.213M102.817 73.672l-.257.185M102.56 73.857l-.279.153M102.281 74.01l-.295.121M101.986 74.131l-.305.088M101.681 74.219l-.312.054M101.369 74.273l-.318.018M101.051 74.291l-.318-.018M100.733 74.273l-.314-.054M100.419 74.219l-.303-.088M100.116 74.131l-.295-.121M99.821 74.01l-.278-.153M99.543 73.857l-.261-.185M99.282 73.672l-.235-.213M99.047 73.459l-.213-.235M98.834 73.224l-.184-.261M98.65 72.963l-.153-.277M98.497 72.686l-.122-.295M98.375 72.391l-.088-.303M98.287 72.088l-.054-.315M98.233 71.773l-.016-.317M98.233 71.138l-.016.318M98.287 70.827l-.054.311M98.375 70.52l-.088.307M98.497 70.226l-.122.294M98.65 69.948l-.153.278M98.834 69.69l-.184.258M99.047 69.452l-.213.238M99.282 69.239l-.235.213M99.543 69.055l-.261.184M99.821 68.902l-.278.153M100.116 68.78l-.295.122M100.419 68.692l-.303.088M100.733 68.638l-.314.054M101.051 68.622l-.318.016M101.369 68.638l-.318-.016M101.681 68.692l-.312-.054M101.986 68.78l-.305-.088M102.281 68.902l-.295-.122M102.56 69.055l-.279-.153M102.817 69.239l-.257-.184M103.056 69.452l-.239-.213M103.268 69.69l-.212-.238M103.452 69.948l-.184-.258M103.605 70.226l-.153-.278M103.728 70.52l-.123-.294M103.815 70.827l-.087-.307M103.869 71.138l-.054-.311M103.886 71.456l-.017-.318M102.281 74.01l-.295.121M101.986 74.131l-.305.088M101.681 74.219l-.312.054M101.369 74.273l-.318.018M101.051 74.291l-.318-.018M100.733 74.273l-.314-.054M100.419 74.219l-.303-.088M100.116 74.131l-.295-.121M100.983 71.473l-.003-.017M100.989 71.49l-.006-.017M101 71.504l-.011-.014M101.012 71.515l-.012-.011M101.028 71.524l-.016-.009M101.046 71.527l-.018-.003M101.065 71.527h-.019M101.082 71.521l-.017.006M101.097 71.509l-.015.012M101.107 71.499l-.01.01M101.116 71.481l-.009.018M101.122 71.464l-.006.017M101.122 71.464v-.016M101.122 71.448l-.006-.018M101.116 71.43l-.009-.016M101.107 71.414l-.01-.012M101.097 71.402l-.015-.009M101.082 71.393l-.017-.005M101.065 71.388l-.019-.003M101.046 71.385l-.018.003M101.028 71.388l-.016.008M101.012 71.396l-.012.012M101 71.408l-.011.013M100.989 71.421l-.006.018M100.983 71.439l-.003.017M101.006 72.165l-.173-.035M101.185 72.153l-.179.012M100.365 71.28l-.022.176M100.431 71.116l-.066.164M100.535 70.971l-.104.145M100.671 70.858l-.136.113M100.833 70.781l-.162.077M101.006 70.75l-.173.031M101.185 70.761l-.179-.011M101.352 70.815l-.167-.054M101.502 70.912l-.15-.097M101.624 71.04l-.122-.128M101.709 71.195l-.085-.155M101.754 71.368l-.045-.173M101.754 71.543v-.175M101.754 71.543l-.045.173M101.709 71.716l-.085.157M101.624 71.873l-.122.129M101.502 72.002l-.15.094M101.352 72.096l-.167.057M101.185 72.153l-.179.012M101.006 72.165l-.173-.035M100.833 72.13l-.162-.076M100.671 72.054l-.136-.113M100.535 71.941l-.104-.143M100.431 71.798l-.066-.167M100.365 71.631l-.022-.175M103.886 71.456h-.283M100.912 71.493l-.003-.037M100.927 71.524l-.015-.031M100.946 71.552l-.019-.028M100.975 71.575l-.029-.023M101.006 71.592l-.031-.017M101.043 71.597l-.037-.005M101.077 71.594l-.034.003M101.11 71.583l-.033.011M101.142 71.567l-.032.016M101.165 71.541l-.023.026M101.182 71.509l-.017.032M101.19 71.473l-.008.036M101.19 71.473v-.034M101.19 71.439l-.008-.034M101.182 71.405l-.017-.031M101.165 71.374l-.023-.026M101.142 71.348l-.032-.019M101.11 71.329l-.033-.012M101.077 71.317l-.034-.003M101.043 71.314l-.037.009M101.006 71.323l-.031.013M100.975 71.336l-.029.024M100.946 71.36l-.019.028M100.927 71.388l-.015.033M100.912 71.421l-.003.035M100.909 71.456h-.116M100.793 71.456h-.11M100.683 71.456h-.114M100.569 71.456h-.093M100.476 71.456h-.074M100.402 71.456h-.046M100.356 71.456h-.013"/><path fill-rule="evenodd" clip-rule="evenodd" fill="#D9EAD3" d="M102.467 74.291h-2.831l-.002.001v2.832l.002.001h2.831l.002-.001v-2.832z"/><path fill="none" stroke="#D9EAD3" stroke-width=".283" stroke-linecap="round" stroke-miterlimit="10" d="M102.467 74.291h-2.831l-.002.001v2.832l.002.001h2.831l.002-.001v-2.832z"/><path fill-rule="evenodd" clip-rule="evenodd" fill="#D9EAD3" d="M102.467 65.787h-2.831l-.002.001v2.832l.002.002h2.831l.002-.002v-2.832z"/><path fill="none" stroke="#D9EAD3" stroke-width=".283" stroke-linecap="round" stroke-miterlimit="10" d="M102.467 65.787h-2.831l-.002.001v2.832l.002.002h2.831l.002-.002v-2.832z"/><path fill-rule="evenodd" clip-rule="evenodd" fill="#D9EAD3" d="M98.356 68.337h-2.972l-.002.001V74.574H98.357l.001-.001v-6.234l-.001-.001z"/><path fill="none" stroke="#D9EAD3" stroke-width=".283" stroke-linecap="round" stroke-miterlimit="10" d="M98.356 68.337h-2.972l-.002.001V74.574H98.357l.001-.001v-6.234l-.001-.001z"/><path fill-rule="evenodd" clip-rule="evenodd" fill="#D9EAD3" d="M106.719 68.337h-2.974l-.001.001V74.574h2.976l.001-.001v-6.234l-.001-.001z"/><path fill="none" stroke="#D9EAD3" stroke-width=".283" stroke-linecap="round" stroke-miterlimit="10" d="M106.719 68.337h-2.974l-.001.001V74.574h2.976l.001-.001v-6.234l-.001-.001z"/><path fill="none" stroke="#000" stroke-width=".283" stroke-linecap="round" stroke-miterlimit="10" d="M100.201 67.771h-2.835v1.134h-.567v5.102h.567v1.134h2.835v.68h1.7v-.68h2.835v-1.134h.567v-5.102h-.567v-.283l-.85-.851h-1.985v-.681h-1.7zM104.736 75.141h-7.37M103.886 67.771h-6.52M97.366 75.141v-7.37M105.303 68.905h-.567M105.303 74.007h-.567M105.303 74.007v-5.102M100.201 75.821v-.68M101.901 75.821h-1.7M101.901 75.821v-.68M101.901 67.09h-1.7M100.201 67.771v-.681M101.901 67.771v-.681M97.366 68.905h-.567M96.799 74.007v-5.102M97.366 74.007h-.567M102.497 69.709l-.229-.167M102.268 69.542l-.253-.138M102.015 69.404l-.264-.106M101.751 69.298l-.274-.07M101.477 69.228l-.285-.034M101.192 69.194h-.283M100.909 69.194l-.283.034M100.626 69.228l-.275.07M100.351 69.298l-.266.106M100.085 69.404l-.25.138M99.835 69.542l-.23.167M101.097 71.402l-.015-.009M101.082 71.393l-.017-.005M101.065 71.388l-.019-.003M101.046 71.385l-.018.003M101.028 71.388l-.016.008M101.012 71.396l-.012.012M104.736 75.141v-6.519M104.736 68.622l-.85-.851M98.801 71.74l-.018-.284M98.854 72.02l-.053-.28M98.942 72.292l-.088-.272M99.064 72.55l-.122-.258M99.217 72.789l-.153-.239M99.398 73.009l-.181-.22M99.605 73.205l-.207-.196M99.835 73.372l-.23-.167M100.085 73.508l-.25-.136M100.351 73.613l-.266-.105M100.626 73.684l-.275-.071M100.909 73.721l-.283-.037M101.192 73.721h-.283M101.477 73.684l-.285.037M101.751 73.613l-.274.071M102.015 73.508l-.264.105M102.268 73.372l-.253.136M102.497 73.205l-.229.167M102.704 73.009l-.207.196M102.885 72.789l-.181.22M103.038 72.55l-.153.239M103.16 72.292l-.122.258M103.248 72.02l-.088.272M103.302 71.74l-.054.28M103.319 71.456l-.017.284M103.319 71.456l-.017-.284M103.302 71.172l-.054-.28M103.248 70.892l-.088-.269M103.16 70.623l-.122-.258M103.038 70.365l-.153-.241M102.885 70.124l-.181-.219M102.704 69.905l-.207-.196M102.497 69.709l-.229-.167M102.268 69.542l-.253-.138M102.015 69.404l-.264-.106M101.751 69.298l-.274-.07M101.477 69.228l-.285-.034M101.192 69.194h-.283M100.909 69.194l-.283.034M100.626 69.228l-.275.07M100.351 69.298l-.266.106M100.085 69.404l-.25.138M99.835 69.542l-.23.167M99.605 69.709l-.207.196M99.398 69.905l-.181.219M99.217 70.124l-.153.241M99.064 70.365l-.122.258M98.942 70.623l-.088.269M98.854 70.892l-.053.28M98.801 71.172l-.018.284M103.603 71.456l-.021-.306M103.582 71.15l-.054-.304M103.528 70.846l-.093-.295M103.435 70.551l-.124-.28M103.311 70.271l-.16-.264M103.151 70.007l-.189-.244M102.962 69.763l-.219-.218M102.743 69.545l-.243-.19M102.5 69.355l-.264-.158M102.236 69.197l-.281-.125M101.955 69.072l-.295-.094M101.66 68.978l-.303-.054M101.357 68.924l-.306-.019M101.051 68.905l-.309.019M100.742 68.924l-.304.054M100.438 68.978l-.292.094M100.146 69.072l-.28.125M99.866 69.197l-.263.158M99.603 69.355l-.245.19M99.358 69.545l-.217.218M99.141 69.763l-.191.244M98.95 70.007l-.158.264M98.792 70.271l-.128.28M98.664 70.551l-.091.295M98.573 70.846l-.056.304M98.517 71.15l-.017.306M98.517 71.765l-.017-.309M98.573 72.068l-.056-.303M98.664 72.36l-.091-.292M98.792 72.641l-.128-.281M98.95 72.905l-.158-.264M99.141 73.148l-.191-.243M99.358 73.367l-.217-.219M99.603 73.556l-.245-.189M99.866 73.715l-.263-.159M100.146 73.842l-.28-.127M100.438 73.933l-.292-.091M100.742 73.99l-.304-.057M101.051 74.007l-.309-.017M101.357 73.99l-.306.017M101.66 73.933l-.303.057M101.955 73.842l-.295.091M102.236 73.715l-.281.127M102.5 73.556l-.264.159M102.743 73.367l-.243.189M102.962 73.148l-.219.219M103.151 72.905l-.189.243M103.311 72.641l-.16.264M103.435 72.36l-.124.281M103.528 72.068l-.093.292M103.582 71.765l-.054.303M103.603 71.456l-.021.309M103.886 71.456l-.017.317M103.869 71.773l-.054.315M103.815 72.088l-.087.303M103.728 72.391l-.123.295M103.605 72.686l-.153.277M103.452 72.963l-.184.262M103.268 73.225l-.212.234M103.056 73.459l-.239.213M102.817 73.672l-.257.185M102.56 73.857l-.279.153M102.281 74.01l-.295.121M101.986 74.131l-.305.088M101.681 74.219l-.312.054M101.369 74.273l-.318.018M101.051 74.291l-.318-.018M100.733 74.273l-.314-.054M100.419 74.219l-.303-.088M100.116 74.131l-.295-.121M99.821 74.01l-.278-.153M99.543 73.857l-.261-.185M99.282 73.672l-.235-.213M99.047 73.459l-.213-.234M98.834 73.225l-.184-.262M98.65 72.963l-.153-.277M98.497 72.686l-.122-.295M98.375 72.391l-.088-.303M98.287 72.088l-.054-.315M98.233 71.773l-.016-.317M98.233 71.138l-.016.318M98.287 70.827l-.054.311M98.375 70.52l-.088.307M98.497 70.226l-.122.294M98.65 69.948l-.153.278M98.834 69.69l-.184.258M99.047 69.452l-.213.238M99.282 69.239l-.235.213M99.543 69.055l-.261.184M99.821 68.902l-.278.153M100.116 68.78l-.295.122M100.419 68.692l-.303.088M100.733 68.638l-.314.054M101.051 68.622l-.318.016M101.369 68.638l-.318-.016M101.681 68.692l-.312-.054M101.986 68.78l-.305-.088M102.281 68.902l-.295-.122M102.56 69.055l-.279-.153M102.817 69.239l-.257-.184M103.056 69.452l-.239-.213M103.268 69.69l-.212-.238M103.452 69.948l-.184-.258M103.605 70.226l-.153-.278M103.728 70.52l-.123-.294M103.815 70.827l-.087-.307M103.869 71.138l-.054-.311M103.886 71.456l-.017-.318M102.281 74.01l-.295.121M101.986 74.131l-.305.088M101.681 74.219l-.312.054M101.369 74.273l-.318.018M101.051 74.291l-.318-.018M100.733 74.273l-.314-.054M100.419 74.219l-.303-.088M100.116 74.131l-.295-.121M100.983 71.473l-.003-.017M100.988 71.49l-.005-.017M101 71.504l-.012-.014M101.012 71.515l-.012-.011M101.028 71.524l-.016-.009M101.046 71.527l-.018-.003M101.065 71.527h-.019M101.082 71.521l-.017.006M101.097 71.509l-.015.012M101.107 71.499l-.01.01M101.116 71.481l-.009.018M101.122 71.464l-.006.017M101.122 71.464v-.016M101.122 71.448l-.006-.018M101.116 71.43l-.009-.016M101.107 71.414l-.01-.012M101.097 71.402l-.015-.009M101.082 71.393l-.017-.005M101.065 71.388l-.019-.003M101.046 71.385l-.018.003M101.028 71.388l-.016.008M101.012 71.396l-.012.012M101 71.408l-.012.013M100.988 71.421l-.005.018M100.983 71.439l-.003.017M101.006 72.165l-.173-.035M101.185 72.153l-.179.012M100.365 71.28l-.022.176M100.431 71.116l-.066.164M100.535 70.971l-.104.145M100.671 70.858l-.136.113M100.833 70.781l-.162.077M101.006 70.75l-.173.031M101.185 70.761l-.179-.011M101.352 70.815l-.167-.054M101.502 70.912l-.15-.097M101.624 71.04l-.122-.128M101.709 71.195l-.085-.155M101.754 71.368l-.045-.173M101.754 71.543v-.175M101.754 71.543l-.045.173M101.709 71.716l-.085.157M101.624 71.873l-.122.129M101.502 72.002l-.15.094M101.352 72.096l-.167.057M101.185 72.153l-.179.012M101.006 72.165l-.173-.035M100.833 72.13l-.162-.076M100.671 72.054l-.136-.113M100.535 71.941l-.104-.143M100.431 71.798l-.066-.167M100.365 71.631l-.022-.175M103.886 71.456h-.283M100.912 71.493l-.003-.037M100.927 71.524l-.015-.031M100.946 71.552l-.019-.028M100.975 71.575l-.029-.023M101.006 71.592l-.031-.017M101.043 71.597l-.037-.005M101.077 71.594l-.034.003M101.11 71.583l-.033.011M101.142 71.567l-.032.016M101.165 71.541l-.023.026M101.182 71.509l-.017.032M101.19 71.473l-.008.036M101.19 71.473v-.034M101.19 71.439l-.008-.034M101.182 71.405l-.017-.031M101.165 71.374l-.023-.026M101.142 71.348l-.032-.019M101.11 71.329l-.033-.012M101.077 71.317l-.034-.003M101.043 71.314l-.037.009M101.006 71.323l-.031.013M100.975 71.336l-.029.024M100.946 71.36l-.019.028M100.927 71.388l-.015.033M100.912 71.421l-.003.035M100.909 71.456h-.116M100.793 71.456h-.11M100.683 71.456h-.114M100.569 71.456h-.093M100.476 71.456h-.074M100.402 71.456h-.046M100.356 71.456h-.013"/></svg>