<svg xmlns="http://www.w3.org/2000/svg" xmlns:xlink="http://www.w3.org/1999/xlink" viewBox="0 0 109.417 113.386"><path fill-rule="evenodd" clip-rule="evenodd" fill="#FFF" d="M3.126 87.046h103.749V18.873H36.008a1.416 1.416 0 0 1-1.417-1.417V2.574H8.512v14.882a1.416 1.416 0 0 1-1.417 1.417H3.126v68.173z"/><path fill-rule="evenodd" clip-rule="evenodd" fill="#A4C2F4" d="M19.582 67.204a7.654 7.654 0 1 0 0-15.308 7.654 7.654 0 0 0 0 15.308z"/><path fill="none" stroke="#A4C2F4" stroke-width=".283" stroke-linecap="round" stroke-miterlimit="10" d="M19.582 67.204a7.654 7.654 0 1 0 0-15.308 7.654 7.654 0 0 0 0 15.308z"/><path fill-rule="evenodd" clip-rule="evenodd" fill="#A4C2F4" d="M90.42 67.204a7.653 7.653 0 0 0 0-15.306 7.653 7.653 0 1 0 0 15.306z"/><path fill="none" stroke="#A4C2F4" stroke-width=".283" stroke-linecap="round" stroke-miterlimit="10" d="M90.42 67.204a7.653 7.653 0 0 0 0-15.306 7.653 7.653 0 1 0 0 15.306z"/><path fill-rule="evenodd" clip-rule="evenodd" fill="#A4C2F4" d="M39.368 58.217a2.693 2.693 0 1 0 0-5.385 2.693 2.693 0 0 0 0 5.385z"/><path fill="none" stroke="#A4C2F4" stroke-width=".283" stroke-linecap="round" stroke-miterlimit="10" d="M39.368 58.217a2.693 2.693 0 1 0 0-5.385 2.693 2.693 0 0 0 0 5.385z"/><path fill-rule="evenodd" clip-rule="evenodd" fill="#A4C2F4" d="M47.219 58.217a2.692 2.692 0 1 0 .002-5.384 2.692 2.692 0 0 0-.002 5.384z"/><path fill="none" stroke="#A4C2F4" stroke-width=".283" stroke-linecap="round" stroke-miterlimit="10" d="M47.219 58.217a2.692 2.692 0 1 0 .002-5.384 2.692 2.692 0 0 0-.002 5.384z"/><path fill-rule="evenodd" clip-rule="evenodd" fill="#A4C2F4" d="M55.071 58.217a2.693 2.693 0 1 0 0-5.385 2.693 2.693 0 0 0 0 5.385z"/><path fill="none" stroke="#A4C2F4" stroke-width=".283" stroke-linecap="round" stroke-miterlimit="10" d="M55.071 58.217a2.693 2.693 0 1 0 0-5.385 2.693 2.693 0 0 0 0 5.385z"/><path fill-rule="evenodd" clip-rule="evenodd" fill="#A4C2F4" d="M62.924 58.217a2.692 2.692 0 1 0 0-5.383 2.692 2.692 0 0 0 0 5.383z"/><path fill="none" stroke="#A4C2F4" stroke-width=".283" stroke-linecap="round" stroke-miterlimit="10" d="M62.924 58.217a2.692 2.692 0 1 0 0-5.383 2.692 2.692 0 0 0 0 5.383z"/><path fill-rule="evenodd" clip-rule="evenodd" fill="#A4C2F4" d="M70.775 58.217a2.692 2.692 0 1 0 0-5.383 2.692 2.692 0 0 0 0 5.383z"/><path fill="none" stroke="#A4C2F4" stroke-width=".283" stroke-linecap="round" stroke-miterlimit="10" d="M70.775 58.217a2.692 2.692 0 1 0 0-5.383 2.692 2.692 0 0 0 0 5.383z"/><path fill-rule="evenodd" clip-rule="evenodd" fill="#A4C2F4" d="M43.293 66.268a2.693 2.693 0 1 0 0-5.387 2.693 2.693 0 0 0 0 5.387z"/><path fill="none" stroke="#A4C2F4" stroke-width=".283" stroke-linecap="round" stroke-miterlimit="10" d="M43.293 66.268a2.693 2.693 0 1 0 0-5.387 2.693 2.693 0 0 0 0 5.387z"/><path fill-rule="evenodd" clip-rule="evenodd" fill="#A4C2F4" d="M51.146 66.268a2.693 2.693 0 1 0-.001-5.385 2.693 2.693 0 0 0 .001 5.385z"/><path fill="none" stroke="#A4C2F4" stroke-width=".283" stroke-linecap="round" stroke-miterlimit="10" d="M51.146 66.268a2.693 2.693 0 1 0-.001-5.385 2.693 2.693 0 0 0 .001 5.385z"/><path fill-rule="evenodd" clip-rule="evenodd" fill="#A4C2F4" d="M58.997 66.268a2.693 2.693 0 1 0 0-5.387 2.693 2.693 0 0 0 0 5.387z"/><path fill="none" stroke="#A4C2F4" stroke-width=".283" stroke-linecap="round" stroke-miterlimit="10" d="M58.997 66.268a2.693 2.693 0 1 0 0-5.387 2.693 2.693 0 0 0 0 5.387z"/><path fill-rule="evenodd" clip-rule="evenodd" fill="#A4C2F4" d="M66.85 66.268a2.693 2.693 0 1 0-.001-5.385 2.693 2.693 0 0 0 .001 5.385z"/><path fill="none" stroke="#A4C2F4" stroke-width=".283" stroke-linecap="round" stroke-miterlimit="10" d="M66.85 66.268a2.693 2.693 0 1 0-.001-5.385 2.693 2.693 0 0 0 .001 5.385z"/><path fill-rule="evenodd" clip-rule="evenodd" fill="#FFF" d="M3.126 87.046h103.749V18.873H36.008a1.416 1.416 0 0 1-1.417-1.417V2.574H8.512v14.882a1.416 1.416 0 0 1-1.417 1.417H3.126v68.173z"/><path fill="none" stroke="#000" stroke-width=".567" stroke-linecap="round" stroke-miterlimit="10" d="M3.126 87.046h103.749V18.873H36.008a1.416 1.416 0 0 1-1.417-1.417V2.574H8.512v14.882a1.416 1.416 0 0 1-1.417 1.417H3.126v68.173z"/><path fill-rule="evenodd" clip-rule="evenodd" fill="#FFF" d="M11.063 44.526a2.834 2.834 0 1 0 0-5.668 2.834 2.834 0 0 0 0 5.668z"/><path fill="none" stroke="#000" stroke-width=".283" stroke-linecap="round" stroke-miterlimit="10" d="M11.063 44.526a2.834 2.834 0 1 0 0-5.668 2.834 2.834 0 0 0 0 5.668z"/><path fill-rule="evenodd" clip-rule="evenodd" fill="#FFF" d="M98.938 44.526a2.835 2.835 0 1 0 0-5.67 2.835 2.835 0 0 0 0 5.67z"/><path fill="none" stroke="#000" stroke-width=".283" stroke-linecap="round" stroke-miterlimit="10" d="M98.938 44.526a2.835 2.835 0 1 0 0-5.67 2.835 2.835 0 0 0 0 5.67z"/><path fill-rule="evenodd" clip-rule="evenodd" fill="#FFF" d="M19.582 63.916a4.366 4.366 0 1 0 0-8.732 4.366 4.366 0 0 0 0 8.732z"/><path fill="none" stroke="#000" stroke-width=".283" stroke-linecap="round" stroke-miterlimit="10" d="M19.582 63.916a4.366 4.366 0 1 0 0-8.732 4.366 4.366 0 0 0 0 8.732z"/><path fill-rule="evenodd" clip-rule="evenodd" fill="#FFF" d="M90.42 63.916a4.366 4.366 0 1 0-.002-8.732 4.366 4.366 0 0 0 .002 8.732z"/><path fill="none" stroke="#000" stroke-width=".283" stroke-linecap="round" stroke-miterlimit="10" d="M90.42 63.916a4.366 4.366 0 1 0-.002-8.732 4.366 4.366 0 0 0 .002 8.732z"/><defs><path id="Q" d="M3.126 87.046h103.749V18.873H36.008a1.416 1.416 0 0 1-1.417-1.417V2.574H8.512v14.882a1.416 1.416 0 0 1-1.417 1.417H3.126v68.173z"/></defs><clipPath id="R"><use xlink:href="#Q" overflow="visible"/></clipPath><path clip-path="url(#R)" fill="none" stroke="#000" stroke-width=".283" stroke-linecap="round" stroke-miterlimit="10" d="M68.338 71.172h2.266M70.604 71.172v1.133M70.604 72.305l-.377.378M70.227 72.683h-.756M69.471 72.683l-.378-.378M69.093 72.305v-1.133M69.093 71.927l-.755.756M70.604 73.439l-2.266 1.512M70.604 74.951l-2.266-1.512M63.234 71.172v1.511M63.234 72.683v-.756M63.234 71.927h-2.266M63.234 73.439l-2.266 1.512M63.234 74.951l-2.266-1.512M55.77 70.416l.377-.378M56.147 70.038v-.756M56.147 69.282l-.377-.378M55.77 68.904h-1.511M54.259 68.904l-.378.378M53.881 69.282v.756M53.881 70.038l.378.378M56.147 71.171v1.511M56.147 72.682v-.755M56.147 71.927h-2.266M55.77 74.95l.377-.378M56.147 74.572v-.756M56.147 73.816l-.377-.378M55.77 73.438h-.377M55.393 73.438l-.378.378M55.015 73.816v.756M55.015 74.572l-.378.378M54.637 74.95h-.378M54.259 74.95l-.378-.378M53.881 74.572v-.756M53.881 73.816l.378-.378M41.313 70.416l.378-.378M41.691 70.038v-.756M41.691 69.282l-.378-.378M41.313 68.904h-1.511M39.802 68.904l-.378.378M39.424 69.282v.756M39.424 70.038l.378.378M39.802 70.416h.756M40.558 70.416v-.756M39.424 71.171h2.267M41.691 71.171l-2.267 1.511M39.424 72.682h2.267M41.691 73.438h-2.267M39.424 73.438v1.134M39.424 74.572l.378.378M39.802 74.95h1.511M41.313 74.95l.378-.378M41.691 74.572v-1.134"/><path clip-path="url(#R)" fill="none" stroke="#000" stroke-width=".425" stroke-linecap="round" stroke-miterlimit="10" d="M5.111 24.684V21.85M5.111 21.85h1.416M6.527 21.85l.473.472M7 22.322v.945M7 23.267l-.473.472M6.527 23.739H5.111M6.055 23.739l.945.945M9.833 22.322l-.472-.472M9.361 21.85h-.944M8.417 21.85l-.473.472M7.944 22.322v.472M7.944 22.794l.473.473M8.417 23.267h.944M9.361 23.267l.472.472M9.833 23.739v.472M9.833 24.211l-.472.473M9.361 24.684h-.944M8.417 24.684l-.473-.473M10.778 23.267h1.889M15.501 24.684h-1.889M13.612 24.684l1.889-1.89M15.501 22.794v-.472M15.501 22.322l-.472-.472M15.029 21.85h-.945M14.084 21.85l-.472.472M16.446 22.322l.472-.472M16.918 21.85h.944M17.862 21.85l.473.472M18.335 22.322v.472M18.335 22.794l-.473.473M17.863 23.267h-.473M17.39 23.267h.473M17.862 23.267l.473.472M18.335 23.739v.472M18.335 24.211l-.473.473M17.862 24.684h-.944M16.918 24.684l-.472-.473M21.168 24.684h-1.889M19.279 24.684l1.889-1.89M21.168 22.794v-.472M21.168 22.322l-.472-.472M20.696 21.85h-.944M19.752 21.85l-.473.472"/><path clip-path="url(#R)" fill="none" stroke="#000" stroke-width=".283" stroke-linecap="round" stroke-miterlimit="10" d="M46.794 68.904h2.267M49.061 68.904v1.134M49.061 70.038l-.377.378M48.684 70.416h-.756M47.928 70.416l-.378-.378M47.55 70.038v-1.134M47.55 69.66l-.756.756M49.061 71.171v1.511M49.061 72.682v-.755M49.061 71.927h-2.267M48.684 74.95l.377-.378M49.061 74.572v-.756M49.061 73.816l-.377-.378M48.684 73.438h-.378M48.306 73.438l-.378.378M47.928 73.816v.756M47.928 74.572l-.378.378M47.55 74.95h-.378M47.172 74.95l-.378-.378M46.794 74.572v-.756M46.794 73.816l.378-.378"/><path fill-rule="evenodd" clip-rule="evenodd" fill="#FFF" d="M9.845 3.906h22.28v8.674H9.845z"/><path fill-rule="evenodd" clip-rule="evenodd" fill="#D9EAD3" d="M32.04 12.494V6.259H30.339v6.235l.001.001h1.699z"/><path fill="none" stroke="#D9EAD3" stroke-width=".283" stroke-linecap="round" stroke-miterlimit="10" d="M32.04 12.494V6.259H30.339v6.235l.001.001h1.699z"/><path fill-rule="evenodd" clip-rule="evenodd" fill="#D9EAD3" d="M29.772 12.494V6.259H28.071v6.235l.001.001h1.699z"/><path fill="none" stroke="#D9EAD3" stroke-width=".283" stroke-linecap="round" stroke-miterlimit="10" d="M29.772 12.494V6.259H28.071v6.235l.001.001h1.699z"/><path fill-rule="evenodd" clip-rule="evenodd" fill="#D9EAD3" d="M27.504 12.494V6.259H25.804v6.235l.001.001h1.698z"/><path fill="none" stroke="#D9EAD3" stroke-width=".283" stroke-linecap="round" stroke-miterlimit="10" d="M27.504 12.494V6.259H25.804v6.235l.001.001h1.698z"/><path fill-rule="evenodd" clip-rule="evenodd" fill="#D9EAD3" d="M25.237 12.494V6.259H23.536v6.235l.001.001h1.699z"/><path fill="none" stroke="#D9EAD3" stroke-width=".283" stroke-linecap="round" stroke-miterlimit="10" d="M25.237 12.494V6.259H23.536v6.235l.001.001h1.699z"/><path fill-rule="evenodd" clip-rule="evenodd" fill="#D9EAD3" d="M22.969 12.494V6.259H21.268v6.235l.001.001h1.699z"/><path fill="none" stroke="#D9EAD3" stroke-width=".283" stroke-linecap="round" stroke-miterlimit="10" d="M22.969 12.494V6.259H21.268v6.235l.001.001h1.699z"/><path fill-rule="evenodd" clip-rule="evenodd" fill="#D9EAD3" d="M20.701 12.494V6.259H19v6.235l.001.001H20.7z"/><path fill="none" stroke="#D9EAD3" stroke-width=".283" stroke-linecap="round" stroke-miterlimit="10" d="M20.701 12.494V6.259H19v6.235l.001.001H20.7z"/><path fill-rule="evenodd" clip-rule="evenodd" fill="#D9EAD3" d="M18.434 12.494V6.259H16.733v6.235l.001.001h1.699z"/><path fill="none" stroke="#D9EAD3" stroke-width=".283" stroke-linecap="round" stroke-miterlimit="10" d="M18.434 12.494V6.259H16.733v6.235l.001.001h1.699z"/><path fill-rule="evenodd" clip-rule="evenodd" fill="#D9EAD3" d="M16.166 12.494V6.259H14.465v6.235l.001.001h1.699z"/><path fill="none" stroke="#D9EAD3" stroke-width=".283" stroke-linecap="round" stroke-miterlimit="10" d="M16.166 12.494V6.259H14.465v6.235l.001.001h1.699z"/><path fill-rule="evenodd" clip-rule="evenodd" fill="#D9EAD3" d="M13.898 12.494V6.259H12.197v6.235l.001.001h1.699z"/><path fill="none" stroke="#D9EAD3" stroke-width=".283" stroke-linecap="round" stroke-miterlimit="10" d="M13.898 12.494V6.259H12.197v6.235l.001.001h1.699z"/><path fill-rule="evenodd" clip-rule="evenodd" fill="#D9EAD3" d="M11.63 12.494V3.991H9.93v8.504H11.63z"/><path fill="none" stroke="#D9EAD3" stroke-width=".283" stroke-linecap="round" stroke-miterlimit="10" d="M11.63 12.494V3.991H9.93v8.504H11.63z"/><path fill="none" stroke="#000" stroke-width=".283" stroke-linecap="round" stroke-miterlimit="10" d="M9.845 3.906h22.28v8.674H9.845z"/><path fill-rule="evenodd" clip-rule="evenodd" fill="#A4C2F4" d="M71.539 77.833h-4.248l-.002.002v4.248l.002.002h4.248l.002-.002v-4.248z"/><path fill="none" stroke="#A4C2F4" stroke-width=".283" stroke-linecap="round" stroke-miterlimit="10" d="M71.539 77.833h-4.248l-.002.002v4.248l.002.002h4.248l.002-.002v-4.248z"/><path fill-rule="evenodd" clip-rule="evenodd" fill="#A4C2F4" d="M62.215 77.975a1.984 1.984 0 1 0 0 3.969 1.984 1.984 0 0 0 0-3.969z"/><path fill="none" stroke="#A4C2F4" stroke-width=".283" stroke-linecap="round" stroke-miterlimit="10" d="M62.215 77.975a1.984 1.984 0 1 0 0 3.969 1.984 1.984 0 0 0 0-3.969z"/><path fill-rule="evenodd" clip-rule="evenodd" fill="#A4C2F4" d="M55.015 77.975a1.984 1.984 0 1 0 0 3.969 1.984 1.984 0 0 0 0-3.969z"/><path fill="none" stroke="#A4C2F4" stroke-width=".283" stroke-linecap="round" stroke-miterlimit="10" d="M55.015 77.975a1.984 1.984 0 1 0 0 3.969 1.984 1.984 0 0 0 0-3.969z"/><path fill-rule="evenodd" clip-rule="evenodd" fill="#A4C2F4" d="M47.814 77.975a1.984 1.984 0 1 0 0 3.969 1.984 1.984 0 0 0 0-3.969z"/><path fill="none" stroke="#A4C2F4" stroke-width=".283" stroke-linecap="round" stroke-miterlimit="10" d="M47.814 77.975a1.984 1.984 0 1 0 0 3.969 1.984 1.984 0 0 0 0-3.969z"/><path fill-rule="evenodd" clip-rule="evenodd" fill="#A4C2F4" d="M40.615 77.975a1.984 1.984 0 1 0 0 3.969 1.984 1.984 0 0 0 0-3.969z"/><path fill="none" stroke="#A4C2F4" stroke-width=".283" stroke-linecap="round" stroke-miterlimit="10" d="M40.615 77.975a1.984 1.984 0 1 0 0 3.969 1.984 1.984 0 0 0 0-3.969z"/><path fill-rule="evenodd" clip-rule="evenodd" fill="#FFF" d="M4.558 79.959h5.669v5.669H4.558z"/><path fill-rule="evenodd" clip-rule="evenodd" fill="#D9EAD3" d="M5.977 84.211h2.832l.001-.002v-2.831l-.001-.002H5.977l-.001.002v2.831z"/><path fill="none" stroke="#D9EAD3" stroke-width=".283" stroke-linecap="round" stroke-miterlimit="10" d="M5.977 84.211h2.832l.001-.002v-2.831l-.001-.002H5.977l-.001.002v2.831z"/><path fill="none" stroke="#000" stroke-width=".283" stroke-linecap="round" stroke-miterlimit="10" d="M4.558 79.959h5.669v5.669H4.558z"/><path fill-rule="evenodd" clip-rule="evenodd" fill="#FFF" d="M100.369 79.959h5.669v5.669h-5.669z"/><path fill-rule="evenodd" clip-rule="evenodd" fill="#D9EAD3" d="M103.204 84.07a1.275 1.275 0 1 0 0-2.55 1.275 1.275 0 0 0 0 2.55z"/><path fill="none" stroke="#D9EAD3" stroke-width=".283" stroke-linecap="round" stroke-miterlimit="10" d="M103.204 84.07a1.275 1.275 0 1 0 0-2.55 1.275 1.275 0 0 0 0 2.55z"/><path fill="none" stroke="#000" stroke-width=".283" stroke-linecap="round" stroke-miterlimit="10" d="M100.369 79.959h5.669v5.669h-5.669z"/><path fill-rule="evenodd" clip-rule="evenodd" fill="#FFF" d="M100.086 20.148h5.669v5.669h-5.669z"/><path fill-rule="evenodd" clip-rule="evenodd" fill="#D9EAD3" d="M102.92 24.259a1.276 1.276 0 1 0 0-2.551 1.276 1.276 0 0 0 0 2.551z"/><path fill="none" stroke="#D9EAD3" stroke-width=".283" stroke-linecap="round" stroke-miterlimit="10" d="M102.92 24.259a1.276 1.276 0 1 0 0-2.551 1.276 1.276 0 0 0 0 2.551z"/><path fill="none" stroke="#000" stroke-width=".283" stroke-linecap="round" stroke-miterlimit="10" d="M100.086 20.148h5.669v5.669h-5.669z"/><path fill-rule="evenodd" clip-rule="evenodd" fill="#FFF" d="M41.607 40.629h-2.693v4.96h2.693v-3.968zM41.607 41.621v2.976M41.607 41.621h-2.693M38.914 41.621v2.976M41.607 44.597h-2.693M41.607 40.629v.992M41.607 41.621h-2.693M38.914 40.629v.992M41.607 40.629h-2.693M41.607 44.597v.992M41.607 44.597h-2.693M38.914 44.597v.992M41.607 45.589h-2.693"/><path fill-rule="evenodd" clip-rule="evenodd" fill="#D9EAD3" d="M38.844 42.117H41.677l.001-.001v-2.549l-.001-.001H38.843V42.117z"/><path fill="none" stroke="#D9EAD3" stroke-width=".283" stroke-linecap="round" stroke-miterlimit="10" d="M38.844 42.117H41.677l.001-.001v-2.549l-.001-.001H38.843V42.117z"/><path fill-rule="evenodd" clip-rule="evenodd" fill="#D9EAD3" d="M38.844 46.653h2.832l.001-.001.001-.001v-2.549h-.001l-.001-.001h-2.832l-.001.001v2.55z"/><path fill="none" stroke="#D9EAD3" stroke-width=".283" stroke-linecap="round" stroke-miterlimit="10" d="M38.844 46.653h2.832l.001-.001.001-.001v-2.549h-.001l-.001-.001h-2.832l-.001.001v2.55z"/><path fill="none" stroke="#000" stroke-width=".283" stroke-linecap="round" stroke-miterlimit="10" d="M41.607 40.629h-2.693v4.96h2.693v-3.968zM41.607 41.621v2.976M41.607 41.621h-2.693M38.914 41.621v2.976M41.607 44.597h-2.693M41.607 40.629v.992M41.607 41.621h-2.693M38.914 40.629v.992M41.607 40.629h-2.693M41.607 44.597v.992M41.607 44.597h-2.693M38.914 44.597v.992M41.607 45.589h-2.693"/><path fill-rule="evenodd" clip-rule="evenodd" fill="#FFF" d="M71.371 35.526h-2.693v4.961h2.693v-3.968zM71.371 36.519v2.976M71.371 36.519h-2.693M68.678 36.519v2.976M71.371 39.495h-2.693M71.371 35.526v.993M71.371 36.519h-2.693M68.678 35.526v.993M71.371 35.526h-2.693M71.371 39.495v.992M71.371 39.495h-2.693M68.678 39.495v.992M71.371 40.487h-2.693"/><path fill-rule="evenodd" clip-rule="evenodd" fill="#D9EAD3" d="M68.608 37.015h2.832l.001-.001v-2.55l-.001-.001h-2.832l-.001.001-.001.001v2.548l.001.001z"/><path fill="none" stroke="#D9EAD3" stroke-width=".283" stroke-linecap="round" stroke-miterlimit="10" d="M68.608 37.015h2.832l.001-.001v-2.55l-.001-.001h-2.832l-.001.001-.001.001v2.548l.001.001z"/><path fill-rule="evenodd" clip-rule="evenodd" fill="#D9EAD3" d="M68.608 41.549H71.441v-2.55H68.607l-.001.001v2.549h.001z"/><path fill="none" stroke="#D9EAD3" stroke-width=".283" stroke-linecap="round" stroke-miterlimit="10" d="M68.608 41.549H71.441v-2.55H68.607l-.001.001v2.549h.001z"/><path fill="none" stroke="#000" stroke-width=".283" stroke-linecap="round" stroke-miterlimit="10" d="M71.371 35.526h-2.693v4.961h2.693v-3.968zM71.371 36.519v2.976M71.371 36.519h-2.693M68.678 36.519v2.976M71.371 39.495h-2.693M71.371 35.526v.993M71.371 36.519h-2.693M68.678 35.526v.993M71.371 35.526h-2.693M71.371 39.495v.992M71.371 39.495h-2.693M68.678 39.495v.992M71.371 40.487h-2.693"/><path fill-rule="evenodd" clip-rule="evenodd" fill="#FFF" d="M76.189 38.078h-2.693v4.96h2.693V39.07zM76.189 39.07v2.975M76.189 39.07h-2.693M73.496 39.07v2.975M76.189 42.045h-2.693M76.189 38.078v.992M76.189 39.07h-2.693M73.496 38.078v.992M76.189 38.078h-2.693M76.189 42.045v.993M76.189 42.045h-2.693M73.496 42.045v.993M76.189 43.038h-2.693"/><path fill-rule="evenodd" clip-rule="evenodd" fill="#D9EAD3" d="M73.427 39.566h2.832l.001-.001.001-.001v-2.548l-.001-.001H73.426v2.55z"/><path fill="none" stroke="#D9EAD3" stroke-width=".283" stroke-linecap="round" stroke-miterlimit="10" d="M73.427 39.566h2.832l.001-.001.001-.001v-2.548l-.001-.001H73.426v2.55z"/><path fill-rule="evenodd" clip-rule="evenodd" fill="#D9EAD3" d="M73.427 44.101h2.832l.001-.001h.001v-2.549l-.001-.001-.001-.001h-2.832l-.001.001v2.55z"/><path fill="none" stroke="#D9EAD3" stroke-width=".283" stroke-linecap="round" stroke-miterlimit="10" d="M73.427 44.101h2.832l.001-.001h.001v-2.549l-.001-.001-.001-.001h-2.832l-.001.001v2.55z"/><path fill="none" stroke="#000" stroke-width=".283" stroke-linecap="round" stroke-miterlimit="10" d="M76.189 38.078h-2.693v4.96h2.693V39.07zM76.189 39.07v2.975M76.189 39.07h-2.693M73.496 39.07v2.975M76.189 42.045h-2.693M76.189 38.078v.992M76.189 39.07h-2.693M73.496 38.078v.992M76.189 38.078h-2.693M76.189 42.045v.993M76.189 42.045h-2.693M73.496 42.045v.993M76.189 43.038h-2.693"/><path fill-rule="evenodd" clip-rule="evenodd" fill="#FFF" d="M71.371 27.022h-2.693v4.961h2.693v-3.968zM71.371 28.015v2.976M71.371 28.015h-2.693M68.678 28.015v2.976M71.371 30.991h-2.693M71.371 27.022v.993M71.371 28.015h-2.693M68.678 27.022v.993M71.371 27.022h-2.693M71.371 30.991v.992M71.371 30.991h-2.693M68.678 30.991v.992M71.371 31.983h-2.693"/><path fill-rule="evenodd" clip-rule="evenodd" fill="#D9EAD3" d="M68.608 28.511h2.832l.001-.001v-2.55l-.001-.001h-2.832l-.001.001h-.001v2.549l.001.001z"/><path fill="none" stroke="#D9EAD3" stroke-width=".283" stroke-linecap="round" stroke-miterlimit="10" d="M68.608 28.511h2.832l.001-.001v-2.55l-.001-.001h-2.832l-.001.001h-.001v2.549l.001.001z"/><path fill-rule="evenodd" clip-rule="evenodd" fill="#D9EAD3" d="M68.608 33.046h2.832l.001-.001v-2.55H68.607l-.001.001v2.549h.001z"/><path fill="none" stroke="#D9EAD3" stroke-width=".283" stroke-linecap="round" stroke-miterlimit="10" d="M68.608 33.046h2.832l.001-.001v-2.55H68.607l-.001.001v2.549h.001z"/><path fill="none" stroke="#000" stroke-width=".283" stroke-linecap="round" stroke-miterlimit="10" d="M71.371 27.022h-2.693v4.961h2.693v-3.968zM71.371 28.015v2.976M71.371 28.015h-2.693M68.678 28.015v2.976M71.371 30.991h-2.693M71.371 27.022v.993M71.371 28.015h-2.693M68.678 27.022v.993M71.371 27.022h-2.693M71.371 30.991v.992M71.371 30.991h-2.693M68.678 30.991v.992M71.371 31.983h-2.693"/><path fill-rule="evenodd" clip-rule="evenodd" fill="#FFF" d="M81.022 38.078H78.33v4.96h2.692V39.07zM81.022 39.07v2.975M81.022 39.07H78.33M78.33 39.07v2.975M81.022 42.045H78.33M81.022 38.078v.992M81.022 39.07H78.33M78.33 38.078v.992M81.022 38.078H78.33M81.022 42.045v.993M81.022 42.045H78.33M78.33 42.045v.993M81.022 43.038H78.33"/><path fill-rule="evenodd" clip-rule="evenodd" fill="#D9EAD3" d="M78.26 39.566h2.832l.001-.001.001-.001v-2.548l-.001-.001H78.259v2.55z"/><path fill="none" stroke="#D9EAD3" stroke-width=".283" stroke-linecap="round" stroke-miterlimit="10" d="M78.26 39.566h2.832l.001-.001.001-.001v-2.548l-.001-.001H78.259v2.55z"/><path fill-rule="evenodd" clip-rule="evenodd" fill="#D9EAD3" d="M78.26 44.101h2.832l.001-.001h.001v-2.549l-.001-.001-.001-.001H78.26l-.001.001v2.55z"/><path fill="none" stroke="#D9EAD3" stroke-width=".283" stroke-linecap="round" stroke-miterlimit="10" d="M78.26 44.101h2.832l.001-.001h.001v-2.549l-.001-.001-.001-.001H78.26l-.001.001v2.55z"/><path fill="none" stroke="#000" stroke-width=".283" stroke-linecap="round" stroke-miterlimit="10" d="M81.022 38.078H78.33v4.96h2.692V39.07zM81.022 39.07v2.975M81.022 39.07H78.33M78.33 39.07v2.975M81.022 42.045H78.33M81.022 38.078v.992M81.022 39.07H78.33M78.33 38.078v.992M81.022 38.078H78.33M81.022 42.045v.993M81.022 42.045H78.33M78.33 42.045v.993M81.022 43.038H78.33"/><path fill-rule="evenodd" clip-rule="evenodd" fill="#FFF" d="M89.3 28.652v-3.968h-.921V23.125h-1.276V24.684h-4.111V23.125h-1.275V24.684h-.921v3.968h3.614V30.211h1.276V28.652zM82.992 24.522v-.161M82.992 24.361v-.148M82.992 24.213v-.122M82.992 24.091v-.088M82.992 24.003v-.042M82.992 23.898v-.011M82.992 23.887v-.022M82.992 23.865v-.029M82.992 23.836v-.04M82.992 23.796v-.039M81.717 23.796v-.039M81.717 23.836v-.04M81.717 23.865v-.029M81.717 23.887v-.022M81.717 23.898v-.011M81.717 24.003v-.042M81.717 24.091v-.088M81.717 24.213v-.122M81.717 24.361v-.148M81.717 24.522v-.161M82.992 23.125h-1.275M82.992 23.757v-.632M81.717 23.757v-.632M82.992 23.961v-.063M81.717 23.961v-.063M81.717 24.684v-.162M82.992 24.684v-.162M87.103 23.796v-.039M87.103 23.836v-.04M87.103 23.865v-.029M87.103 23.887v-.022M87.103 23.898v-.011M87.103 24.003v-.042M87.103 24.091v-.088M87.103 24.213v-.122M87.103 24.361v-.148M87.103 24.522v-.161M88.379 24.522v-.161M88.379 24.361v-.148M88.379 24.213v-.122M88.379 24.091v-.088M88.379 24.003v-.042M88.379 23.898v-.011M88.379 23.887v-.022M88.379 23.865v-.029M88.379 23.836v-.04M88.379 23.796v-.039M88.379 23.961v-.063M87.103 23.961v-.063M88.379 23.757v-.632M87.103 23.757v-.632M88.379 23.125h-1.276M87.103 24.684v-.162M88.379 24.684v-.162M84.41 29.449v-.011M84.41 29.472v-.023M84.41 29.502v-.03M84.41 29.54v-.038M84.41 29.579v-.039M84.41 28.976v-.162M84.41 29.123v-.147M84.41 29.245v-.122M84.41 29.333v-.088M84.41 29.375v-.042M85.686 29.579v-.039M85.686 29.54v-.038M85.686 29.502v-.03M85.686 29.472v-.023M85.686 29.449v-.011M85.686 29.375v-.042M85.686 29.333v-.088M85.686 29.245v-.122M85.686 29.123v-.147M85.686 28.976v-.162M85.686 30.211H84.41M84.41 30.211v-.632M85.686 30.211v-.632M84.41 29.438v-.063M85.686 29.438v-.063M85.686 28.814v-.162M84.41 28.814v-.162M89.164 24.82h-8.232M81.717 24.684h-.921M82.992 24.684h-1.275M87.103 24.684h-4.111M88.379 24.684h-1.276M89.3 24.684h-.921M89.164 28.516V24.82M89.3 24.684l-.136.136M89.3 28.652v-3.968M89.164 28.516h-8.232M89.3 28.652l-.136-.136M89.3 28.652h-3.614M85.686 28.652H84.41M84.41 28.652h-3.614M80.932 24.82l-.136-.136M80.932 28.516V24.82M80.932 28.516l-.136.136M80.796 28.652v-3.968M82.992 23.757h-1.275M82.992 23.898h-1.275M82.992 23.961h-1.275M82.992 24.522h-1.275M88.379 23.898h-1.276M88.379 23.961h-1.276M88.379 23.757h-1.276M88.379 24.522h-1.276M85.686 29.579H84.41M85.686 29.438H84.41M85.686 29.375H84.41M85.686 28.814H84.41"/><path fill-rule="evenodd" clip-rule="evenodd" fill="#D9EAD3" d="M85.968 28.44h-1.841v2.976H85.969V28.44z"/><path fill="none" stroke="#D9EAD3" stroke-width=".283" stroke-linecap="round" stroke-miterlimit="10" d="M85.968 28.44h-1.841v2.976H85.969V28.44z"/><path fill-rule="evenodd" clip-rule="evenodd" fill="#D9EAD3" d="M83.275 21.92h-1.841v2.976H83.276v-2.975l-.001-.001z"/><path fill="none" stroke="#D9EAD3" stroke-width=".283" stroke-linecap="round" stroke-miterlimit="10" d="M83.275 21.92h-1.841v2.976H83.276v-2.975l-.001-.001z"/><path fill-rule="evenodd" clip-rule="evenodd" fill="#D9EAD3" d="M88.661 21.92H86.819v2.976H88.662V21.92z"/><path fill="none" stroke="#D9EAD3" stroke-width=".283" stroke-linecap="round" stroke-miterlimit="10" d="M88.661 21.92H86.819v2.976H88.662V21.92z"/><path fill="none" stroke="#000" stroke-width=".283" stroke-linecap="round" stroke-miterlimit="10" d="M89.3 28.652v-3.968h-.921V23.125h-1.276V24.684h-4.111V23.125h-1.275V24.684h-.921v3.968h3.614V30.211h1.276V28.652zM82.992 24.522v-.161M82.992 24.361v-.148M82.992 24.213v-.122M82.992 24.091v-.088M82.992 24.003v-.042M82.992 23.898v-.011M82.992 23.887v-.022M82.992 23.865v-.029M82.992 23.836v-.04M82.992 23.796v-.039M81.717 23.796v-.039M81.717 23.836v-.04M81.717 23.865v-.029M81.717 23.887v-.022M81.717 23.898v-.011M81.717 24.003v-.042M81.717 24.091v-.088M81.717 24.213v-.122M81.717 24.361v-.148M81.717 24.522v-.161M82.992 23.125h-1.275M82.992 23.757v-.632M81.717 23.757v-.632M82.992 23.961v-.063M81.717 23.961v-.063M81.717 24.684v-.162M82.992 24.684v-.162M87.103 23.796v-.039M87.103 23.836v-.04M87.103 23.865v-.029M87.103 23.887v-.022M87.103 23.898v-.011M87.103 24.003v-.042M87.103 24.091v-.088M87.103 24.213v-.122M87.103 24.361v-.148M87.103 24.522v-.161M88.379 24.522v-.161M88.379 24.361v-.148M88.379 24.213v-.122M88.379 24.091v-.088M88.379 24.003v-.042M88.379 23.898v-.011M88.379 23.887v-.022M88.379 23.865v-.029M88.379 23.836v-.04M88.379 23.796v-.039M88.379 23.961v-.063M87.103 23.961v-.063M88.379 23.757v-.632M87.103 23.757v-.632M88.379 23.125h-1.276M87.103 24.684v-.162M88.379 24.684v-.162M84.41 29.449v-.011M84.41 29.472v-.023M84.41 29.502v-.03M84.41 29.54v-.038M84.41 29.579v-.039M84.41 28.976v-.162M84.41 29.123v-.147M84.41 29.245v-.122M84.41 29.333v-.088M84.41 29.375v-.042M85.686 29.579v-.039M85.686 29.54v-.038M85.686 29.502v-.03M85.686 29.472v-.023M85.686 29.449v-.011M85.686 29.375v-.042M85.686 29.333v-.088M85.686 29.245v-.122M85.686 29.123v-.147M85.686 28.976v-.162M85.686 30.211H84.41M84.41 30.211v-.632M85.686 30.211v-.632M84.41 29.438v-.063M85.686 29.438v-.063M85.686 28.814v-.162M84.41 28.814v-.162M89.164 24.82h-8.232M81.717 24.684h-.921M82.992 24.684h-1.275M87.103 24.684h-4.111M88.379 24.684h-1.276M89.3 24.684h-.921M89.164 28.516V24.82M89.3 24.684l-.136.136M89.3 28.652v-3.968M89.164 28.516h-8.232M89.3 28.652l-.136-.136M89.3 28.652h-3.614M85.686 28.652H84.41M84.41 28.652h-3.614M80.932 24.82l-.136-.136M80.932 28.516V24.82M80.932 28.516l-.136.136M80.796 28.652v-3.968M82.992 23.757h-1.275M82.992 23.898h-1.275M82.992 23.961h-1.275M82.992 24.522h-1.275M88.379 23.898h-1.276M88.379 23.961h-1.276M88.379 23.757h-1.276M88.379 24.522h-1.276M85.686 29.579H84.41M85.686 29.438H84.41M85.686 29.375H84.41M85.686 28.814H84.41"/><path fill-rule="evenodd" clip-rule="evenodd" fill="#FFF" d="M49.898 30.07h-2.835v.708h2.835v1.134h-2.835v.709h2.835v1.134h-2.835v.708h2.835v1.134h-2.835v.709h2.835v1.133h-2.835v.709h2.835v1.134h-2.835v.709h2.835v1.134h-2.835v.708h2.835v1.134h-2.835v.709h2.835v.425H62.37v-.425h2.835v-.709H62.37v-1.134h2.835v-.708H62.37v-1.134h2.835v-.709H62.37v-1.134h2.835v-.709H62.37v-1.133h2.835v-.709H62.37v-1.134h2.835v-.708H62.37v-1.134h2.835v-.709H62.37v-1.134h2.835v-.708H62.37v-.425H49.898zM63.904 30.07h-.079M63.904 30.778h-.079M63.264 30.07h-.224M63.468 30.07h-.204M63.638 30.07h-.17M63.76 30.07h-.122M63.825 30.07h-.065M63.264 30.778h-.224M63.468 30.778h-.204M63.638 30.778h-.17M63.76 30.778h-.122M63.825 30.778h-.065M65.205 30.07h-1.02M65.205 30.778v-.708M65.205 30.778h-1.02M63.927 30.778h-.023M63.973 30.778h-.046M64.031 30.778h-.058M64.105 30.778h-.074M64.185 30.778h-.08M63.927 30.07h-.023M63.973 30.07h-.046M64.031 30.07h-.058M64.105 30.07h-.074M64.185 30.07h-.08M63.04 30.07h-.695M63.04 30.778h-.695M48.51 30.07h-.067M48.631 30.07h-.121M48.801 30.07h-.17M49.006 30.07h-.205M49.227 30.07h-.221M48.51 30.778h-.067M48.631 30.778h-.121M48.801 30.778h-.17M49.006 30.778h-.205M49.227 30.778h-.221M48.443 30.07h-.078M48.443 30.778h-.078M48.164 30.778h-.08M48.234 30.778h-.07M48.297 30.778h-.063M48.339 30.778h-.042M48.365 30.778h-.026M48.164 30.07h-.08M48.234 30.07h-.07M48.297 30.07h-.063M48.339 30.07h-.042M48.365 30.07h-.026M48.084 30.07h-1.021M48.084 30.778h-1.021M47.063 30.778v-.708M49.924 30.778h-.697M49.924 30.07h-.697M63.904 31.912h-.079M63.904 32.621h-.079M63.264 31.912h-.224M63.468 31.912h-.204M63.638 31.912h-.17M63.76 31.912h-.122M63.825 31.912h-.065M63.264 32.621h-.224M63.468 32.621h-.204M63.638 32.621h-.17M63.76 32.621h-.122M63.825 32.621h-.065M65.205 31.912h-1.02M65.205 32.621v-.709M65.205 32.621h-1.02M63.927 32.621h-.023M63.973 32.621h-.046M64.031 32.621h-.058M64.105 32.621h-.074M64.185 32.621h-.08M63.927 31.912h-.023M63.973 31.912h-.046M64.031 31.912h-.058M64.105 31.912h-.074M64.185 31.912h-.08M63.04 31.912h-.695M63.04 32.621h-.695M48.51 31.912h-.067M48.631 31.912h-.121M48.801 31.912h-.17M49.006 31.912h-.205M49.227 31.912h-.221M48.51 32.621h-.067M48.631 32.621h-.121M48.801 32.621h-.17M49.006 32.621h-.205M49.227 32.621h-.221M48.443 31.912h-.078M48.443 32.621h-.078M48.164 32.621h-.08M48.234 32.621h-.07M48.297 32.621h-.063M48.339 32.621h-.042M48.365 32.621h-.026M48.164 31.912h-.08M48.234 31.912h-.07M48.297 31.912h-.063M48.339 31.912h-.042M48.365 31.912h-.026M48.084 31.912h-1.021M48.084 32.621h-1.021M47.063 32.621v-.709M49.924 32.621h-.697M49.924 31.912h-.697M63.904 33.755h-.079M63.904 34.463h-.079M63.264 33.755h-.224M63.468 33.755h-.204M63.638 33.755h-.17M63.76 33.755h-.122M63.825 33.755h-.065M63.264 34.463h-.224M63.468 34.463h-.204M63.638 34.463h-.17M63.76 34.463h-.122M63.825 34.463h-.065M65.205 33.755h-1.02M65.205 34.463v-.708M65.205 34.463h-1.02M63.927 34.463h-.023M63.973 34.463h-.046M64.031 34.463h-.058M64.105 34.463h-.074M64.185 34.463h-.08M63.927 33.755h-.023M63.973 33.755h-.046M64.031 33.755h-.058M64.105 33.755h-.074M64.185 33.755h-.08M63.04 33.755h-.695M63.04 34.463h-.695M48.51 33.755h-.067M48.631 33.755h-.121M48.801 33.755h-.17M49.006 33.755h-.205M49.227 33.755h-.221M48.51 34.463h-.067M48.631 34.463h-.121M48.801 34.463h-.17M49.006 34.463h-.205M49.227 34.463h-.221M48.443 33.755h-.078M48.443 34.463h-.078M48.164 34.463h-.08M48.234 34.463h-.07M48.297 34.463h-.063M48.339 34.463h-.042M48.365 34.463h-.026M48.164 33.755h-.08M48.234 33.755h-.07M48.297 33.755h-.063M48.339 33.755h-.042M48.365 33.755h-.026M48.084 33.755h-1.021M48.084 34.463h-1.021M47.063 34.463v-.708M49.924 34.463h-.697M49.924 33.755h-.697M63.904 35.597h-.079M63.904 36.306h-.079M63.264 35.597h-.224M63.468 35.597h-.204M63.638 35.597h-.17M63.76 35.597h-.122M63.825 35.597h-.065M63.264 36.306h-.224M63.468 36.306h-.204M63.638 36.306h-.17M63.76 36.306h-.122M63.825 36.306h-.065M65.205 35.597h-1.02M65.205 36.306v-.709M65.205 36.306h-1.02M63.927 36.306h-.023M63.973 36.306h-.046M64.031 36.306h-.058M64.105 36.306h-.074M64.185 36.306h-.08M63.927 35.597h-.023M63.973 35.597h-.046M64.031 35.597h-.058M64.105 35.597h-.074M64.185 35.597h-.08M63.04 35.597h-.695M63.04 36.306h-.695M48.51 35.597h-.067M48.631 35.597h-.121M48.801 35.597h-.17M49.006 35.597h-.205M49.227 35.597h-.221M48.51 36.306h-.067M48.631 36.306h-.121M48.801 36.306h-.17M49.006 36.306h-.205M49.227 36.306h-.221M48.443 35.597h-.078M48.443 36.306h-.078M48.164 36.306h-.08M48.234 36.306h-.07M48.297 36.306h-.063M48.339 36.306h-.042M48.365 36.306h-.026M48.164 35.597h-.08M48.234 35.597h-.07M48.297 35.597h-.063M48.339 35.597h-.042M48.365 35.597h-.026M48.084 35.597h-1.021M48.084 36.306h-1.021M47.063 36.306v-.709M49.924 36.306h-.697M49.924 35.597h-.697M63.904 37.439h-.079M63.904 38.148h-.079M63.264 37.439h-.224M63.468 37.439h-.204M63.638 37.439h-.17M63.76 37.439h-.122M63.825 37.439h-.065M63.264 38.148h-.224M63.468 38.148h-.204M63.638 38.148h-.17M63.76 38.148h-.122M63.825 38.148h-.065M65.205 37.439h-1.02M65.205 38.148v-.709M65.205 38.148h-1.02M63.927 38.148h-.023M63.973 38.148h-.046M64.031 38.148h-.058M64.105 38.148h-.074M64.185 38.148h-.08M63.927 37.439h-.023M63.973 37.439h-.046M64.031 37.439h-.058M64.105 37.439h-.074M64.185 37.439h-.08M63.04 37.439h-.695M63.04 38.148h-.695M48.51 37.439h-.067M48.631 37.439h-.121M48.801 37.439h-.17M49.006 37.439h-.205M49.227 37.439h-.221M48.51 38.148h-.067M48.631 38.148h-.121M48.801 38.148h-.17M49.006 38.148h-.205M49.227 38.148h-.221M48.443 37.439h-.078M48.443 38.148h-.078M48.164 38.148h-.08M48.234 38.148h-.07M48.297 38.148h-.063M48.339 38.148h-.042M48.365 38.148h-.026M48.164 37.439h-.08M48.234 37.439h-.07M48.297 37.439h-.063M48.339 37.439h-.042M48.365 37.439h-.026M48.084 37.439h-1.021M48.084 38.148h-1.021M47.063 38.148v-.709M49.924 38.148h-.697M49.924 37.439h-.697M63.904 39.282h-.079M63.904 39.991h-.079M63.264 39.282h-.224M63.468 39.282h-.204M63.638 39.282h-.17M63.76 39.282h-.122M63.825 39.282h-.065M63.264 39.991h-.224M63.468 39.991h-.204M63.638 39.991h-.17M63.76 39.991h-.122M63.825 39.991h-.065M65.205 39.282h-1.02M65.205 39.991v-.709M65.205 39.991h-1.02M63.927 39.991h-.023M63.973 39.991h-.046M64.031 39.991h-.058M64.105 39.991h-.074M64.185 39.991h-.08M63.927 39.282h-.023M63.973 39.282h-.046M64.031 39.282h-.058M64.105 39.282h-.074M64.185 39.282h-.08M63.04 39.282h-.695M63.04 39.991h-.695M48.51 39.282h-.067M48.631 39.282h-.121M48.801 39.282h-.17M49.006 39.282h-.205M49.227 39.282h-.221M48.51 39.991h-.067M48.631 39.991h-.121M48.801 39.991h-.17M49.006 39.991h-.205M49.227 39.991h-.221M48.443 39.282h-.078M48.443 39.991h-.078M48.164 39.991h-.08M48.234 39.991h-.07M48.297 39.991h-.063M48.339 39.991h-.042M48.365 39.991h-.026M48.164 39.282h-.08M48.234 39.282h-.07M48.297 39.282h-.063M48.339 39.282h-.042M48.365 39.282h-.026M48.084 39.282h-1.021M48.084 39.991h-1.021M47.063 39.991v-.709M49.924 39.991h-.697M49.924 39.282h-.697M63.904 41.125h-.079M63.904 41.833h-.079M63.264 41.125h-.224M63.468 41.125h-.204M63.638 41.125h-.17M63.76 41.125h-.122M63.825 41.125h-.065M63.264 41.833h-.224M63.468 41.833h-.204M63.638 41.833h-.17M63.76 41.833h-.122M63.825 41.833h-.065M65.205 41.125h-1.02M65.205 41.833v-.708M65.205 41.833h-1.02M63.927 41.833h-.023M63.973 41.833h-.046M64.031 41.833h-.058M64.105 41.833h-.074M64.185 41.833h-.08M63.927 41.125h-.023M63.973 41.125h-.046M64.031 41.125h-.058M64.105 41.125h-.074M64.185 41.125h-.08M63.04 41.125h-.695M63.04 41.833h-.695M48.51 41.125h-.067M48.631 41.125h-.121M48.801 41.125h-.17M49.006 41.125h-.205M49.227 41.125h-.221M48.51 41.833h-.067M48.631 41.833h-.121M48.801 41.833h-.17M49.006 41.833h-.205M49.227 41.833h-.221M48.443 41.125h-.078M48.443 41.833h-.078M48.164 41.833h-.08M48.234 41.833h-.07M48.297 41.833h-.063M48.339 41.833h-.042M48.365 41.833h-.026M48.164 41.125h-.08M48.234 41.125h-.07M48.297 41.125h-.063M48.339 41.125h-.042M48.365 41.125h-.026M48.084 41.125h-1.021M48.084 41.833h-1.021M47.063 41.833v-.708M49.924 41.833h-.697M49.924 41.125h-.697M60.786 41.975l-.017.142M60.769 42.117l-.054.13M60.715 42.247l-.088.111M60.627 42.358l-.11.088M60.517 42.446l-.133.054M60.384 42.5l-.14.016M60.244 42.516l-.141-.016M60.103 42.5l-.13-.054M59.973 42.446l-.111-.088M59.862 42.358l-.088-.111M59.774 42.247l-.054-.13M59.72 42.117l-.017-.142M60.953 41.975l-.025.184M60.928 42.159l-.072.171M60.856 42.33l-.11.147M60.746 42.477l-.147.113M60.599 42.59l-.17.071M60.429 42.661l-.185.023M60.244 42.684l-.183-.023M60.061 42.661l-.17-.071M59.891 42.59l-.148-.113M59.743 42.477l-.113-.147M59.63 42.33l-.071-.171M59.559 42.159l-.023-.184M61.954 43.684h-11.64M50.314 43.684V30.061M50.314 43.684l-.416.417M49.924 41.833v-.708M49.924 39.991v-.709M49.924 38.148v-.709M49.924 36.306v-.709M49.924 34.463v-.708M49.924 32.621v-.709M49.924 30.778v-.708M61.954 30.061h-11.64M50.314 30.061l-.416-.416M62.37 29.645H49.898M49.898 31.912v-1.134M49.898 33.755v-1.134M49.898 35.597v-1.134M49.898 37.439v-1.133M49.898 39.282v-1.134M49.898 41.125v-1.134M49.898 42.967v-1.134M49.898 44.101v-.425M49.898 30.07v-.425M62.37 44.101H49.898M62.345 30.778v-.708M62.345 32.621v-.709M62.345 34.463v-.708M62.345 36.306v-.709M62.345 38.148v-.709M62.345 39.991v-.709M62.345 41.833v-.708M62.37 44.101l-.416-.417M61.954 43.684V30.061M62.37 29.645l-.416.416M62.37 44.101v-.425M62.37 42.967v-1.134M62.37 41.125v-1.134M62.37 39.282v-1.134M62.37 37.439v-1.133M62.37 35.597v-1.134M62.37 33.755v-1.134M62.37 31.912v-1.134M62.37 30.07v-.425M59.72 41.836l-.017.139M59.774 41.704l-.054.132M59.862 41.592l-.088.112M59.973 41.504l-.111.088M60.103 41.451l-.13.053M60.244 41.434l-.141.017M60.384 41.451l-.14-.017M60.517 41.504l-.133-.053M60.627 41.592l-.11-.088M60.715 41.704l-.088-.112M60.769 41.836l-.054-.132M60.786 41.975l-.017-.139M59.559 41.792l-.023.183M59.63 41.621l-.071.171M59.743 41.473l-.113.148M59.891 41.363l-.148.11M60.061 41.292l-.17.071M60.244 41.266l-.183.026M60.429 41.292l-.185-.026M60.599 41.363l-.17-.071M60.746 41.473l-.147-.11M60.856 41.621l-.11-.148M60.928 41.792l-.072-.171M60.953 41.975l-.025-.183M49.924 42.967h-.697M49.924 43.676h-.697M48.51 42.967h-.067M48.631 42.967h-.121M48.801 42.967h-.17M49.006 42.967h-.205M49.227 42.967h-.221M48.51 43.676h-.067M48.631 43.676h-.121M48.801 43.676h-.17M49.006 43.676h-.205M49.227 43.676h-.221M48.443 42.967h-.078M48.443 43.676h-.078M48.164 43.676h-.08M48.234 43.676h-.07M48.297 43.676h-.063M48.339 43.676h-.042M48.365 43.676h-.026M48.164 42.967h-.08M48.234 42.967h-.07M48.297 42.967h-.063M48.339 42.967h-.042M48.365 42.967h-.026M48.084 42.967h-1.021M48.084 43.676h-1.021M47.063 43.676v-.709M63.904 42.967h-.079M63.904 43.676h-.079M63.264 42.967h-.224M63.468 42.967h-.204M63.638 42.967h-.17M63.76 42.967h-.122M63.825 42.967h-.065M63.264 43.676h-.224M63.468 43.676h-.204M63.638 43.676h-.17M63.76 43.676h-.122M63.825 43.676h-.065M63.04 42.967h-.695M63.04 43.676h-.695M65.205 42.967h-1.02M65.205 43.676v-.709M65.205 43.676h-1.02M63.927 43.676h-.023M63.973 43.676h-.046M64.031 43.676h-.058M64.105 43.676h-.074M64.185 43.676h-.08M63.927 42.967h-.023M63.973 42.967h-.046M64.031 42.967h-.058M64.105 42.967h-.074M64.185 42.967h-.08M63.825 30.778v-.708M64.185 30.778v-.708M63.904 30.778v-.708M63.04 30.778v-.708M48.443 30.778v-.708M48.365 30.778v-.708M48.084 30.778v-.708M49.227 30.778v-.708M63.825 32.621v-.709M64.185 32.621v-.709M63.904 32.621v-.709M63.04 32.621v-.709M48.443 32.621v-.709M48.365 32.621v-.709M48.084 32.621v-.709M49.227 32.621v-.709M63.825 34.463v-.708M64.185 34.463v-.708M63.904 34.463v-.708M63.04 34.463v-.708M48.443 34.463v-.708M48.365 34.463v-.708M48.084 34.463v-.708M49.227 34.463v-.708M63.825 36.306v-.709M64.185 36.306v-.709M63.904 36.306v-.709M63.04 36.306v-.709M48.443 36.306v-.709M48.365 36.306v-.709M48.084 36.306v-.709M49.227 36.306v-.709M63.825 38.148v-.709M64.185 38.148v-.709M63.904 38.148v-.709M63.04 38.148v-.709M48.443 38.148v-.709M48.365 38.148v-.709M48.084 38.148v-.709M49.227 38.148v-.709M63.825 39.991v-.709M64.185 39.991v-.709M63.904 39.991v-.709M63.04 39.991v-.709M48.443 39.991v-.709M48.365 39.991v-.709M48.084 39.991v-.709M49.227 39.991v-.709M63.825 41.833v-.708M64.185 41.833v-.708M63.904 41.833v-.708M63.04 41.833v-.708M48.443 41.833v-.708M48.365 41.833v-.708M48.084 41.833v-.708M49.227 41.833v-.708M60.953 41.975h-.167M59.703 41.975h-.167M49.227 43.676v-.709M48.443 43.676v-.709M48.365 43.676v-.709M48.084 43.676v-.709M63.825 43.676v-.709M63.04 43.676v-.709M64.185 43.676v-.709M63.904 43.676v-.709"/><path fill-rule="evenodd" clip-rule="evenodd" fill="#D9EAD3" d="M49.33 29.971h-2.975v.906h2.976v-.906z"/><path fill="none" stroke="#D9EAD3" stroke-width=".283" stroke-linecap="round" stroke-miterlimit="10" d="M49.33 29.971h-2.975v.906h2.976v-.906z"/><path fill-rule="evenodd" clip-rule="evenodd" fill="#D9EAD3" d="M49.33 31.813h-2.975v.907h2.976v-.907z"/><path fill="none" stroke="#D9EAD3" stroke-width=".283" stroke-linecap="round" stroke-miterlimit="10" d="M49.33 31.813h-2.975v.907h2.976v-.907z"/><path fill-rule="evenodd" clip-rule="evenodd" fill="#D9EAD3" d="M49.33 33.655h-2.975v.908h2.975l.001-.001v-.906z"/><path fill="none" stroke="#D9EAD3" stroke-width=".283" stroke-linecap="round" stroke-miterlimit="10" d="M49.33 33.655h-2.975v.908h2.975l.001-.001v-.906z"/><path fill-rule="evenodd" clip-rule="evenodd" fill="#D9EAD3" d="M49.33 35.498h-2.975v.907h2.976v-.906z"/><path fill="none" stroke="#D9EAD3" stroke-width=".283" stroke-linecap="round" stroke-miterlimit="10" d="M49.33 35.498h-2.975v.907h2.976v-.906z"/><path fill-rule="evenodd" clip-rule="evenodd" fill="#D9EAD3" d="M49.33 37.34h-2.975v.908h2.975l.001-.001v-.906z"/><path fill="none" stroke="#D9EAD3" stroke-width=".283" stroke-linecap="round" stroke-miterlimit="10" d="M49.33 37.34h-2.975v.908h2.975l.001-.001v-.906z"/><path fill-rule="evenodd" clip-rule="evenodd" fill="#D9EAD3" d="M49.33 39.183h-2.975v.907h2.976v-.906z"/><path fill="none" stroke="#D9EAD3" stroke-width=".283" stroke-linecap="round" stroke-miterlimit="10" d="M49.33 39.183h-2.975v.907h2.976v-.906z"/><path fill-rule="evenodd" clip-rule="evenodd" fill="#D9EAD3" d="M49.33 41.026h-2.975v.906h2.976v-.906z"/><path fill="none" stroke="#D9EAD3" stroke-width=".283" stroke-linecap="round" stroke-miterlimit="10" d="M49.33 41.026h-2.975v.906h2.976v-.906z"/><path fill-rule="evenodd" clip-rule="evenodd" fill="#D9EAD3" d="M49.33 42.868h-2.975v.907h2.976v-.906z"/><path fill="none" stroke="#D9EAD3" stroke-width=".283" stroke-linecap="round" stroke-miterlimit="10" d="M49.33 42.868h-2.975v.907h2.976v-.906z"/><path fill-rule="evenodd" clip-rule="evenodd" fill="#D9EAD3" d="M65.913 29.97h-2.975v.907h2.976v-.906z"/><path fill="none" stroke="#D9EAD3" stroke-width=".283" stroke-linecap="round" stroke-miterlimit="10" d="M65.913 29.97h-2.975v.907h2.976v-.906z"/><path fill-rule="evenodd" clip-rule="evenodd" fill="#D9EAD3" d="M65.913 31.813h-2.975v.907h2.976v-.907z"/><path fill="none" stroke="#D9EAD3" stroke-width=".283" stroke-linecap="round" stroke-miterlimit="10" d="M65.913 31.813h-2.975v.907h2.976v-.907z"/><path fill-rule="evenodd" clip-rule="evenodd" fill="#D9EAD3" d="M65.913 33.655h-2.975v.908h2.975l.001-.001v-.906z"/><path fill="none" stroke="#D9EAD3" stroke-width=".283" stroke-linecap="round" stroke-miterlimit="10" d="M65.913 33.655h-2.975v.908h2.975l.001-.001v-.906z"/><path fill-rule="evenodd" clip-rule="evenodd" fill="#D9EAD3" d="M65.913 35.498h-2.975v.907h2.976v-.906z"/><path fill="none" stroke="#D9EAD3" stroke-width=".283" stroke-linecap="round" stroke-miterlimit="10" d="M65.913 35.498h-2.975v.907h2.976v-.906z"/><path fill-rule="evenodd" clip-rule="evenodd" fill="#D9EAD3" d="M65.913 37.34h-2.975v.908h2.975l.001-.001v-.906z"/><path fill="none" stroke="#D9EAD3" stroke-width=".283" stroke-linecap="round" stroke-miterlimit="10" d="M65.913 37.34h-2.975v.908h2.975l.001-.001v-.906z"/><path fill-rule="evenodd" clip-rule="evenodd" fill="#D9EAD3" d="M65.913 39.183h-2.975v.907h2.976v-.906z"/><path fill="none" stroke="#D9EAD3" stroke-width=".283" stroke-linecap="round" stroke-miterlimit="10" d="M65.913 39.183h-2.975v.907h2.976v-.906z"/><path fill-rule="evenodd" clip-rule="evenodd" fill="#D9EAD3" d="M65.913 41.026h-2.975v.906h2.976v-.906z"/><path fill="none" stroke="#D9EAD3" stroke-width=".283" stroke-linecap="round" stroke-miterlimit="10" d="M65.913 41.026h-2.975v.906h2.976v-.906z"/><path fill-rule="evenodd" clip-rule="evenodd" fill="#D9EAD3" d="M65.913 42.868h-2.975v.907h2.976v-.906z"/><path fill="none" stroke="#D9EAD3" stroke-width=".283" stroke-linecap="round" stroke-miterlimit="10" d="M65.913 42.868h-2.975v.907h2.976v-.906z"/><path fill="none" stroke="#000" stroke-width=".283" stroke-linecap="round" stroke-miterlimit="10" d="M49.898 30.069h-2.835v.709h2.835v1.134h-2.835v.709h2.835v1.134h-2.835v.708h2.835v1.134h-2.835v.709h2.835v1.133h-2.835v.709h2.835v1.134h-2.835v.709h2.835v1.134h-2.835v.708h2.835v1.134h-2.835v.709h2.835v.425H62.37v-.425h2.835v-.709H62.37v-1.134h2.835v-.708H62.37v-1.134h2.835v-.709H62.37v-1.134h2.835v-.709H62.37v-1.133h2.835v-.709H62.37v-1.134h2.835v-.708H62.37v-1.134h2.835v-.709H62.37v-1.134h2.835v-.709H62.37v-.424H49.898zM63.904 30.07h-.079M63.904 30.778h-.079M63.264 30.07h-.224M63.468 30.07h-.204M63.638 30.07h-.17M63.76 30.07h-.122M63.825 30.07h-.065M63.264 30.778h-.224M63.468 30.778h-.204M63.638 30.778h-.17M63.76 30.778h-.122M63.825 30.778h-.065M65.205 30.07h-1.02M65.205 30.778v-.708M65.205 30.778h-1.02M63.927 30.778h-.023M63.973 30.778h-.046M64.031 30.778h-.058M64.105 30.778h-.074M64.185 30.778h-.08M63.927 30.07h-.023M63.973 30.07h-.046M64.031 30.07h-.058M64.105 30.07h-.074M64.185 30.07h-.08M63.04 30.07h-.695M63.04 30.778h-.695M48.51 30.07h-.067M48.631 30.07h-.121M48.801 30.07h-.17M49.006 30.07h-.205M49.227 30.07h-.221M48.51 30.778h-.067M48.631 30.778h-.121M48.801 30.778h-.17M49.006 30.778h-.205M49.227 30.778h-.221M48.443 30.07h-.078M48.443 30.778h-.078M48.164 30.778h-.08M48.234 30.778h-.07M48.297 30.778h-.063M48.339 30.778h-.042M48.365 30.778h-.026M48.164 30.07h-.08M48.234 30.07h-.07M48.297 30.07h-.063M48.339 30.07h-.042M48.365 30.07h-.026M48.084 30.07h-1.021M48.084 30.778h-1.021M47.063 30.778v-.708M49.924 30.778h-.697M49.924 30.07h-.697M63.904 31.912h-.079M63.904 32.621h-.079M63.264 31.912h-.224M63.468 31.912h-.204M63.638 31.912h-.17M63.76 31.912h-.122M63.825 31.912h-.065M63.264 32.621h-.224M63.468 32.621h-.204M63.638 32.621h-.17M63.76 32.621h-.122M63.825 32.621h-.065M65.205 31.912h-1.02M65.205 32.621v-.709M65.205 32.621h-1.02M63.927 32.621h-.023M63.973 32.621h-.046M64.031 32.621h-.058M64.105 32.621h-.074M64.185 32.621h-.08M63.927 31.912h-.023M63.973 31.912h-.046M64.031 31.912h-.058M64.105 31.912h-.074M64.185 31.912h-.08M63.04 31.912h-.695M63.04 32.621h-.695M48.51 31.912h-.067M48.631 31.912h-.121M48.801 31.912h-.17M49.006 31.912h-.205M49.227 31.912h-.221M48.51 32.621h-.067M48.631 32.621h-.121M48.801 32.621h-.17M49.006 32.621h-.205M49.227 32.621h-.221M48.443 31.912h-.078M48.443 32.621h-.078M48.164 32.621h-.08M48.234 32.621h-.07M48.297 32.621h-.063M48.339 32.621h-.042M48.365 32.621h-.026M48.164 31.912h-.08M48.234 31.912h-.07M48.297 31.912h-.063M48.339 31.912h-.042M48.365 31.912h-.026M48.084 31.912h-1.021M48.084 32.621h-1.021M47.063 32.621v-.709M49.924 32.621h-.697M49.924 31.912h-.697M63.904 33.755h-.079M63.904 34.463h-.079M63.264 33.755h-.224M63.468 33.755h-.204M63.638 33.755h-.17M63.76 33.755h-.122M63.825 33.755h-.065M63.264 34.463h-.224M63.468 34.463h-.204M63.638 34.463h-.17M63.76 34.463h-.122M63.825 34.463h-.065M65.205 33.755h-1.02M65.205 34.463v-.708M65.205 34.463h-1.02M63.927 34.463h-.023M63.973 34.463h-.046M64.031 34.463h-.058M64.105 34.463h-.074M64.185 34.463h-.08M63.927 33.755h-.023M63.973 33.755h-.046M64.031 33.755h-.058M64.105 33.755h-.074M64.185 33.755h-.08M63.04 33.755h-.695M63.04 34.463h-.695M48.51 33.755h-.067M48.631 33.755h-.121M48.801 33.755h-.17M49.006 33.755h-.205M49.227 33.755h-.221M48.51 34.463h-.067M48.631 34.463h-.121M48.801 34.463h-.17M49.006 34.463h-.205M49.227 34.463h-.221M48.443 33.755h-.078M48.443 34.463h-.078M48.164 34.463h-.08M48.234 34.463h-.07M48.297 34.463h-.063M48.339 34.463h-.042M48.365 34.463h-.026M48.164 33.755h-.08M48.234 33.755h-.07M48.297 33.755h-.063M48.339 33.755h-.042M48.365 33.755h-.026M48.084 33.755h-1.021M48.084 34.463h-1.021M47.063 34.463v-.708M49.924 34.463h-.697M49.924 33.755h-.697M63.904 35.597h-.079M63.904 36.306h-.079M63.264 35.597h-.224M63.468 35.597h-.204M63.638 35.597h-.17M63.76 35.597h-.122M63.825 35.597h-.065M63.264 36.306h-.224M63.468 36.306h-.204M63.638 36.306h-.17M63.76 36.306h-.122M63.825 36.306h-.065M65.205 35.597h-1.02M65.205 36.306v-.709M65.205 36.306h-1.02M63.927 36.306h-.023M63.973 36.306h-.046M64.031 36.306h-.058M64.105 36.306h-.074M64.185 36.306h-.08M63.927 35.597h-.023M63.973 35.597h-.046M64.031 35.597h-.058M64.105 35.597h-.074M64.185 35.597h-.08M63.04 35.597h-.695M63.04 36.306h-.695M48.51 35.597h-.067M48.631 35.597h-.121M48.801 35.597h-.17M49.006 35.597h-.205M49.227 35.597h-.221M48.51 36.306h-.067M48.631 36.306h-.121M48.801 36.306h-.17M49.006 36.306h-.205M49.227 36.306h-.221M48.443 35.597h-.078M48.443 36.306h-.078M48.164 36.306h-.08M48.234 36.306h-.07M48.297 36.306h-.063M48.339 36.306h-.042M48.365 36.306h-.026M48.164 35.597h-.08M48.234 35.597h-.07M48.297 35.597h-.063M48.339 35.597h-.042M48.365 35.597h-.026M48.084 35.597h-1.021M48.084 36.306h-1.021M47.063 36.306v-.709M49.924 36.306h-.697M49.924 35.597h-.697M63.904 37.439h-.079M63.904 38.148h-.079M63.264 37.439h-.224M63.468 37.439h-.204M63.638 37.439h-.17M63.76 37.439h-.122M63.825 37.439h-.065M63.264 38.148h-.224M63.468 38.148h-.204M63.638 38.148h-.17M63.76 38.148h-.122M63.825 38.148h-.065M65.205 37.439h-1.02M65.205 38.148v-.709M65.205 38.148h-1.02M63.927 38.148h-.023M63.973 38.148h-.046M64.031 38.148h-.058M64.105 38.148h-.074M64.185 38.148h-.08M63.927 37.439h-.023M63.973 37.439h-.046M64.031 37.439h-.058M64.105 37.439h-.074M64.185 37.439h-.08M63.04 37.439h-.695M63.04 38.148h-.695M48.51 37.439h-.067M48.631 37.439h-.121M48.801 37.439h-.17M49.006 37.439h-.205M49.227 37.439h-.221M48.51 38.148h-.067M48.631 38.148h-.121M48.801 38.148h-.17M49.006 38.148h-.205M49.227 38.148h-.221M48.443 37.439h-.078M48.443 38.148h-.078M48.164 38.148h-.08M48.234 38.148h-.07M48.297 38.148h-.063M48.339 38.148h-.042M48.365 38.148h-.026M48.164 37.439h-.08M48.234 37.439h-.07M48.297 37.439h-.063M48.339 37.439h-.042M48.365 37.439h-.026M48.084 37.439h-1.021M48.084 38.148h-1.021M47.063 38.148v-.709M49.924 38.148h-.697M49.924 37.439h-.697M63.904 39.282h-.079M63.904 39.991h-.079M63.264 39.282h-.224M63.468 39.282h-.204M63.638 39.282h-.17M63.76 39.282h-.122M63.825 39.282h-.065M63.264 39.991h-.224M63.468 39.991h-.204M63.638 39.991h-.17M63.76 39.991h-.122M63.825 39.991h-.065M65.205 39.282h-1.02M65.205 39.991v-.709M65.205 39.991h-1.02M63.927 39.991h-.023M63.973 39.991h-.046M64.031 39.991h-.058M64.105 39.991h-.074M64.185 39.991h-.08M63.927 39.282h-.023M63.973 39.282h-.046M64.031 39.282h-.058M64.105 39.282h-.074M64.185 39.282h-.08M63.04 39.282h-.695M63.04 39.991h-.695M48.51 39.282h-.067M48.631 39.282h-.121M48.801 39.282h-.17M49.006 39.282h-.205M49.227 39.282h-.221M48.51 39.991h-.067M48.631 39.991h-.121M48.801 39.991h-.17M49.006 39.991h-.205M49.227 39.991h-.221M48.443 39.282h-.078M48.443 39.991h-.078M48.164 39.991h-.08M48.234 39.991h-.07M48.297 39.991h-.063M48.339 39.991h-.042M48.365 39.991h-.026M48.164 39.282h-.08M48.234 39.282h-.07M48.297 39.282h-.063M48.339 39.282h-.042M48.365 39.282h-.026M48.084 39.282h-1.021M48.084 39.991h-1.021M47.063 39.991v-.709M49.924 39.991h-.697M49.924 39.282h-.697M63.904 41.125h-.079M63.904 41.833h-.079M63.264 41.125h-.224M63.468 41.125h-.204M63.638 41.125h-.17M63.76 41.125h-.122M63.825 41.125h-.065M63.264 41.833h-.224M63.468 41.833h-.204M63.638 41.833h-.17M63.76 41.833h-.122M63.825 41.833h-.065M65.205 41.125h-1.02M65.205 41.833v-.708M65.205 41.833h-1.02M63.927 41.833h-.023M63.973 41.833h-.046M64.031 41.833h-.058M64.105 41.833h-.074M64.185 41.833h-.08M63.927 41.125h-.023M63.973 41.125h-.046M64.031 41.125h-.058M64.105 41.125h-.074M64.185 41.125h-.08M63.04 41.125h-.695M63.04 41.833h-.695M48.51 41.125h-.067M48.631 41.125h-.121M48.801 41.125h-.17M49.006 41.125h-.205M49.227 41.125h-.221M48.51 41.833h-.067M48.631 41.833h-.121M48.801 41.833h-.17M49.006 41.833h-.205M49.227 41.833h-.221M48.443 41.125h-.078M48.443 41.833h-.078M48.164 41.833h-.08M48.234 41.833h-.07M48.297 41.833h-.063M48.339 41.833h-.042M48.365 41.833h-.026M48.164 41.125h-.08M48.234 41.125h-.07M48.297 41.125h-.063M48.339 41.125h-.042M48.365 41.125h-.026M48.084 41.125h-1.021M48.084 41.833h-1.021M47.063 41.833v-.708M49.924 41.833h-.697M49.924 41.125h-.697M60.786 41.975l-.017.142M60.769 42.117l-.054.13M60.715 42.247l-.088.111M60.627 42.358l-.11.088M60.517 42.446l-.133.054M60.384 42.5l-.14.016M60.244 42.516l-.141-.016M60.103 42.5l-.13-.054M59.973 42.446l-.111-.088M59.862 42.358l-.088-.111M59.774 42.247l-.054-.13M59.72 42.117l-.017-.142M60.953 41.975l-.025.184M60.928 42.159l-.072.171M60.856 42.33l-.11.147M60.746 42.477l-.147.113M60.599 42.59l-.17.071M60.429 42.661l-.185.023M60.244 42.684l-.183-.023M60.061 42.661l-.17-.071M59.891 42.59l-.148-.113M59.743 42.477l-.113-.147M59.63 42.33l-.071-.171M59.559 42.159l-.023-.184M61.954 43.684h-11.64M50.314 43.684V30.061M50.314 43.684l-.416.417M49.924 41.833v-.708M49.924 39.991v-.709M49.924 38.148v-.709M49.924 36.306v-.709M49.924 34.463v-.708M49.924 32.621v-.709M49.924 30.778v-.708M61.954 30.061h-11.64M50.314 30.061l-.416-.416M62.37 29.645H49.898M49.898 31.912v-1.134M49.898 33.755v-1.134M49.898 35.597v-1.134M49.898 37.439v-1.133M49.898 39.282v-1.134M49.898 41.125v-1.134M49.898 42.967v-1.134M49.898 44.101v-.425M49.898 30.07v-.425M62.37 44.101H49.898M62.345 30.778v-.708M62.345 32.621v-.709M62.345 34.463v-.708M62.345 36.306v-.709M62.345 38.148v-.709M62.345 39.991v-.709M62.345 41.833v-.708M62.37 44.101l-.416-.417M61.954 43.684V30.061M62.37 29.645l-.416.416M62.37 44.101v-.425M62.37 42.967v-1.134M62.37 41.125v-1.134M62.37 39.282v-1.134M62.37 37.439v-1.133M62.37 35.597v-1.134M62.37 33.755v-1.134M62.37 31.912v-1.134M62.37 30.07v-.425M59.72 41.836l-.017.139M59.774 41.704l-.054.132M59.862 41.592l-.088.112M59.973 41.504l-.111.088M60.103 41.451l-.13.053M60.244 41.434l-.141.017M60.384 41.451l-.14-.017M60.517 41.504l-.133-.053M60.627 41.592l-.11-.088M60.715 41.704l-.088-.112M60.769 41.836l-.054-.132M60.786 41.975l-.017-.139M59.559 41.792l-.023.183M59.63 41.621l-.071.171M59.743 41.473l-.113.148M59.891 41.363l-.148.11M60.061 41.292l-.17.071M60.244 41.266l-.183.026M60.429 41.292l-.185-.026M60.599 41.363l-.17-.071M60.746 41.473l-.147-.11M60.856 41.621l-.11-.148M60.928 41.792l-.072-.171M60.953 41.975l-.025-.183M49.924 42.967h-.697M49.924 43.676h-.697M48.51 42.967h-.067M48.631 42.967h-.121M48.801 42.967h-.17M49.006 42.967h-.205M49.227 42.967h-.221M48.51 43.676h-.067M48.631 43.676h-.121M48.801 43.676h-.17M49.006 43.676h-.205M49.227 43.676h-.221M48.443 42.967h-.078M48.443 43.676h-.078M48.164 43.676h-.08M48.234 43.676h-.07M48.297 43.676h-.063M48.339 43.676h-.042M48.365 43.676h-.026M48.164 42.967h-.08M48.234 42.967h-.07M48.297 42.967h-.063M48.339 42.967h-.042M48.365 42.967h-.026M48.084 42.967h-1.021M48.084 43.676h-1.021M47.063 43.676v-.709M63.904 42.967h-.079M63.904 43.676h-.079M63.264 42.967h-.224M63.468 42.967h-.204M63.638 42.967h-.17M63.76 42.967h-.122M63.825 42.967h-.065M63.264 43.676h-.224M63.468 43.676h-.204M63.638 43.676h-.17M63.76 43.676h-.122M63.825 43.676h-.065M63.04 42.967h-.695M63.04 43.676h-.695M65.205 42.967h-1.02M65.205 43.676v-.709M65.205 43.676h-1.02M63.927 43.676h-.023M63.973 43.676h-.046M64.031 43.676h-.058M64.105 43.676h-.074M64.185 43.676h-.08M63.927 42.967h-.023M63.973 42.967h-.046M64.031 42.967h-.058M64.105 42.967h-.074M64.185 42.967h-.08M63.825 30.778v-.708M64.185 30.778v-.708M63.904 30.778v-.708M63.04 30.778v-.708M48.443 30.778v-.708M48.365 30.778v-.708M48.084 30.778v-.708M49.227 30.778v-.708M63.825 32.621v-.709M64.185 32.621v-.709M63.904 32.621v-.709M63.04 32.621v-.709M48.443 32.621v-.709M48.365 32.621v-.709M48.084 32.621v-.709M49.227 32.621v-.709M63.825 34.463v-.708M64.185 34.463v-.708M63.904 34.463v-.708M63.04 34.463v-.708M48.443 34.463v-.708M48.365 34.463v-.708M48.084 34.463v-.708M49.227 34.463v-.708M63.825 36.306v-.709M64.185 36.306v-.709M63.904 36.306v-.709M63.04 36.306v-.709M48.443 36.306v-.709M48.365 36.306v-.709M48.084 36.306v-.709M49.227 36.306v-.709M63.825 38.148v-.709M64.185 38.148v-.709M63.904 38.148v-.709M63.04 38.148v-.709M48.443 38.148v-.709M48.365 38.148v-.709M48.084 38.148v-.709M49.227 38.148v-.709M63.825 39.991v-.709M64.185 39.991v-.709M63.904 39.991v-.709M63.04 39.991v-.709M48.443 39.991v-.709M48.365 39.991v-.709M48.084 39.991v-.709M49.227 39.991v-.709M63.825 41.833v-.708M64.185 41.833v-.708M63.904 41.833v-.708M63.04 41.833v-.708M48.443 41.833v-.708M48.365 41.833v-.708M48.084 41.833v-.708M49.227 41.833v-.708M60.953 41.975h-.167M59.703 41.975h-.167M49.227 43.676v-.709M48.443 43.676v-.709M48.365 43.676v-.709M48.084 43.676v-.709M63.825 43.676v-.709M63.04 43.676v-.709M64.185 43.676v-.709M63.904 43.676v-.709"/><path fill-rule="evenodd" clip-rule="evenodd" fill="#A4C2F4" d="M19.582 67.204a7.654 7.654 0 1 0 0-15.308 7.654 7.654 0 0 0 0 15.308z"/><path fill="none" stroke="#A4C2F4" stroke-width=".283" stroke-linecap="round" stroke-miterlimit="10" d="M19.582 67.204a7.654 7.654 0 1 0 0-15.308 7.654 7.654 0 0 0 0 15.308z"/><path fill-rule="evenodd" clip-rule="evenodd" fill="#A4C2F4" d="M90.42 67.204a7.653 7.653 0 0 0 0-15.306 7.653 7.653 0 1 0 0 15.306z"/><path fill="none" stroke="#A4C2F4" stroke-width=".283" stroke-linecap="round" stroke-miterlimit="10" d="M90.42 67.204a7.653 7.653 0 0 0 0-15.306 7.653 7.653 0 1 0 0 15.306z"/><path fill-rule="evenodd" clip-rule="evenodd" fill="#A4C2F4" d="M39.368 58.217a2.693 2.693 0 1 0 0-5.385 2.693 2.693 0 0 0 0 5.385z"/><path fill="none" stroke="#A4C2F4" stroke-width=".283" stroke-linecap="round" stroke-miterlimit="10" d="M39.368 58.217a2.693 2.693 0 1 0 0-5.385 2.693 2.693 0 0 0 0 5.385z"/><path fill-rule="evenodd" clip-rule="evenodd" fill="#A4C2F4" d="M47.219 58.217a2.692 2.692 0 1 0 .002-5.384 2.692 2.692 0 0 0-.002 5.384z"/><path fill="none" stroke="#A4C2F4" stroke-width=".283" stroke-linecap="round" stroke-miterlimit="10" d="M47.219 58.217a2.692 2.692 0 1 0 .002-5.384 2.692 2.692 0 0 0-.002 5.384z"/><path fill-rule="evenodd" clip-rule="evenodd" fill="#A4C2F4" d="M55.071 58.217a2.693 2.693 0 1 0 0-5.385 2.693 2.693 0 0 0 0 5.385z"/><path fill="none" stroke="#A4C2F4" stroke-width=".283" stroke-linecap="round" stroke-miterlimit="10" d="M55.071 58.217a2.693 2.693 0 1 0 0-5.385 2.693 2.693 0 0 0 0 5.385z"/><path fill-rule="evenodd" clip-rule="evenodd" fill="#A4C2F4" d="M62.924 58.217a2.692 2.692 0 1 0 0-5.383 2.692 2.692 0 0 0 0 5.383z"/><path fill="none" stroke="#A4C2F4" stroke-width=".283" stroke-linecap="round" stroke-miterlimit="10" d="M62.924 58.217a2.692 2.692 0 1 0 0-5.383 2.692 2.692 0 0 0 0 5.383z"/><path fill-rule="evenodd" clip-rule="evenodd" fill="#A4C2F4" d="M70.775 58.217a2.692 2.692 0 1 0 0-5.383 2.692 2.692 0 0 0 0 5.383z"/><path fill="none" stroke="#A4C2F4" stroke-width=".283" stroke-linecap="round" stroke-miterlimit="10" d="M70.775 58.217a2.692 2.692 0 1 0 0-5.383 2.692 2.692 0 0 0 0 5.383z"/><path fill-rule="evenodd" clip-rule="evenodd" fill="#A4C2F4" d="M43.293 66.268a2.693 2.693 0 1 0 0-5.387 2.693 2.693 0 0 0 0 5.387z"/><path fill="none" stroke="#A4C2F4" stroke-width=".283" stroke-linecap="round" stroke-miterlimit="10" d="M43.293 66.268a2.693 2.693 0 1 0 0-5.387 2.693 2.693 0 0 0 0 5.387z"/><path fill-rule="evenodd" clip-rule="evenodd" fill="#A4C2F4" d="M51.146 66.268a2.693 2.693 0 1 0-.001-5.385 2.693 2.693 0 0 0 .001 5.385z"/><path fill="none" stroke="#A4C2F4" stroke-width=".283" stroke-linecap="round" stroke-miterlimit="10" d="M51.146 66.268a2.693 2.693 0 1 0-.001-5.385 2.693 2.693 0 0 0 .001 5.385z"/><path fill-rule="evenodd" clip-rule="evenodd" fill="#A4C2F4" d="M58.997 66.268a2.693 2.693 0 1 0 0-5.387 2.693 2.693 0 0 0 0 5.387z"/><path fill="none" stroke="#A4C2F4" stroke-width=".283" stroke-linecap="round" stroke-miterlimit="10" d="M58.997 66.268a2.693 2.693 0 1 0 0-5.387 2.693 2.693 0 0 0 0 5.387z"/><path fill-rule="evenodd" clip-rule="evenodd" fill="#A4C2F4" d="M66.85 66.268a2.693 2.693 0 1 0-.001-5.385 2.693 2.693 0 0 0 .001 5.385z"/><path fill="none" stroke="#A4C2F4" stroke-width=".283" stroke-linecap="round" stroke-miterlimit="10" d="M66.85 66.268a2.693 2.693 0 1 0-.001-5.385 2.693 2.693 0 0 0 .001 5.385z"/></svg>