<svg xmlns="http://www.w3.org/2000/svg" xmlns:xlink="http://www.w3.org/1999/xlink" viewBox="0 0 109.417 113.386"><path fill-rule="evenodd" clip-rule="evenodd" fill="#FFF" d="M3.125 87.046h103.748V18.873H36.007a1.416 1.416 0 0 1-1.417-1.417V2.574H8.511v14.882a1.416 1.416 0 0 1-1.417 1.417H3.125v68.173z"/><path fill-rule="evenodd" clip-rule="evenodd" fill="#B6D7A8" d="M60.5 76.203h3.399l.001-.002v-5.836h-.001l-.001-.002H60.5l-.001.002v5.838z"/><path fill="none" stroke="#B6D7A8" stroke-width=".283" stroke-linecap="round" stroke-miterlimit="10" d="M60.5 76.203h3.399l.001-.002v-5.836h-.001l-.001-.002H60.5l-.001.002v5.838z"/><path fill-rule="evenodd" clip-rule="evenodd" fill="#B6D7A8" d="M67.7 76.203h3.4l.001-.002v-5.836H71.1l-.001-.002H67.7l-.001.002v5.838z"/><path fill="none" stroke="#B6D7A8" stroke-width=".283" stroke-linecap="round" stroke-miterlimit="10" d="M67.7 76.203h3.4l.001-.002v-5.836H71.1l-.001-.002H67.7l-.001.002v5.838z"/><path fill-rule="evenodd" clip-rule="evenodd" fill="#B6D7A8" d="M53.301 76.203H56.7v-5.838l-.002-.002h-3.397l-.002.002v5.838z"/><path fill="none" stroke="#B6D7A8" stroke-width=".283" stroke-linecap="round" stroke-miterlimit="10" d="M53.301 76.203H56.7v-5.838l-.002-.002h-3.397l-.002.002v5.838z"/><path fill-rule="evenodd" clip-rule="evenodd" fill="#B6D7A8" d="M46.101 76.203H49.5l.001-.002v-5.836H49.5l-.001-.002h-3.398l-.002.002v5.838z"/><path fill="none" stroke="#B6D7A8" stroke-width=".283" stroke-linecap="round" stroke-miterlimit="10" d="M46.101 76.203H49.5l.001-.002v-5.836H49.5l-.001-.002h-3.398l-.002.002v5.838z"/><path fill-rule="evenodd" clip-rule="evenodd" fill="#B6D7A8" d="M38.9 76.203h3.4v-5.838l-.001-.002H38.9l-.001.002v5.838z"/><path fill="none" stroke="#B6D7A8" stroke-width=".283" stroke-linecap="round" stroke-miterlimit="10" d="M38.9 76.203h3.4v-5.838l-.001-.002H38.9l-.001.002v5.838z"/><path fill-rule="evenodd" clip-rule="evenodd" fill="#FFF" d="M3.125 87.046h103.748V18.873H36.007a1.416 1.416 0 0 1-1.417-1.417V2.574H8.511v14.882a1.416 1.416 0 0 1-1.417 1.417H3.125v68.173z"/><path fill="none" stroke="#000" stroke-width=".567" stroke-linecap="round" stroke-miterlimit="10" d="M3.125 87.046h103.748V18.873H36.007a1.416 1.416 0 0 1-1.417-1.417V2.574H8.511v14.882a1.416 1.416 0 0 1-1.417 1.417H3.125v68.173z"/><path fill-rule="evenodd" clip-rule="evenodd" fill="#FFF" d="M12.196 45.802a4.11 4.11 0 1 0-.001-8.221 4.11 4.11 0 0 0 .001 8.221z"/><path fill="none" stroke="#000" stroke-width=".283" stroke-linecap="round" stroke-miterlimit="10" d="M12.196 45.802a4.11 4.11 0 1 0-.001-8.221 4.11 4.11 0 0 0 .001 8.221z"/><path fill-rule="evenodd" clip-rule="evenodd" fill="#FFF" d="M97.803 45.802a4.11 4.11 0 1 0-.001-8.221 4.11 4.11 0 0 0 .001 8.221z"/><path fill="none" stroke="#000" stroke-width=".283" stroke-linecap="round" stroke-miterlimit="10" d="M97.803 45.802a4.11 4.11 0 1 0-.001-8.221 4.11 4.11 0 0 0 .001 8.221z"/><defs><path id="S" d="M3.125 87.046h103.748V18.873H36.007a1.416 1.416 0 0 1-1.418-1.417V2.574H8.511v14.882a1.416 1.416 0 0 1-1.417 1.417H3.125v68.173z"/></defs><clipPath id="T"><use xlink:href="#S" overflow="visible"/></clipPath><path clip-path="url(#T)" fill="none" stroke="#000" stroke-width=".283" stroke-linecap="round" stroke-miterlimit="10" d="M41.691 55.298h-2.267M39.424 55.298v-1.133M39.424 54.165l.378-.378M39.802 53.787h.756M40.558 53.787l.377.378M40.935 54.165v1.133M40.935 54.542l.756-.755M39.424 53.031l2.267-1.511M39.424 51.52l2.267 1.511M46.794 55.298v-1.511M46.794 53.787v.755M46.794 54.542h2.268M46.794 53.031l2.268-1.511M46.794 51.52l2.268 1.511M54.259 56.054l-.378.378M53.881 56.432v.756M53.881 57.188l.378.378M54.259 57.566h1.511M55.77 57.566l.377-.378M56.147 57.188v-.756M56.147 56.432l-.377-.378M53.881 55.298v-1.51M53.881 53.788v.755M53.881 54.543h2.266M54.259 51.52l-.378.378M53.881 51.898v.756M53.881 52.654l.378.378M54.259 53.032h.377M54.636 53.032l.378-.378M55.014 52.654v-.756M55.014 51.898l.378-.378M55.392 51.52h.378M55.77 51.52l.377.378M56.147 51.898v.756M56.147 52.654l-.377.378M68.715 56.054l-.378.378M68.337 56.432v.756M68.337 57.188l.378.378M68.715 57.566h1.512M70.227 57.566l.377-.378M70.604 57.188v-.756M70.604 56.432l-.377-.378M70.227 56.054h-.756M69.471 56.054v.757M70.604 55.298h-2.267M68.337 55.298l2.267-1.51M70.604 53.788h-2.267M68.337 53.032h2.267M70.604 53.032v-1.134M70.604 51.898l-.377-.378M70.227 51.52h-1.512M68.715 51.52l-.378.378M68.337 51.898v1.134"/><path clip-path="url(#T)" fill="none" stroke="#000" stroke-width=".425" stroke-linecap="round" stroke-miterlimit="10" d="M5.11 23.833V21M5.11 21h1.416M6.526 21l.473.472M6.999 21.472v.945M6.999 22.417l-.473.472M6.526 22.889H5.11M6.054 22.889l.945.944M9.833 21.472L9.36 21M9.36 21h-.944M8.416 21l-.473.472M7.943 21.472v.472M7.943 21.944l.473.473M8.416 22.417h.944M9.36 22.417l.473.472M9.833 22.889v.472M9.833 23.361l-.473.472M9.36 23.833h-.944M8.416 23.833l-.473-.472M10.777 22.417h1.89M15.5 23.833h-1.889M13.611 23.833l1.889-1.889M15.5 21.944v-.472M15.5 21.472L15.028 21M15.028 21h-.945M14.083 21l-.472.472M16.445 21.472l.472-.472M16.917 21h.944M17.861 21l.473.472M18.334 21.472v.472M18.334 21.944l-.473.473M17.862 22.417h-.473M17.389 22.417h.473M17.861 22.417l.473.472M18.334 22.889v.472M18.334 23.361l-.473.472M17.861 23.833h-.944M16.917 23.833l-.472-.472M21.167 23.833h-1.889M19.278 23.833l1.889-1.889M21.167 21.944v-.472M21.167 21.472L20.695 21M20.695 21h-.945M19.75 21l-.472.472"/><path clip-path="url(#T)" fill="none" stroke="#000" stroke-width=".283" stroke-linecap="round" stroke-miterlimit="10" d="M63.234 57.566h-2.267M60.967 57.566v-1.134M60.967 56.432l.378-.378M61.345 56.054h.756M62.101 56.054l.378.378M62.479 56.432v1.134M62.479 56.811l.755-.757M60.967 55.298v-1.51M60.967 53.788v.755M60.967 54.543h2.267M61.345 51.52l-.378.378M60.967 51.898v.756M60.967 52.654l.378.378M61.345 53.032h.378M61.723 53.032l.378-.378M62.101 52.654v-.756M62.101 51.898l.378-.378M62.479 51.52h.377M62.856 51.52l.378.378M63.234 51.898v.756M63.234 52.654l-.378.378"/><path fill-rule="evenodd" clip-rule="evenodd" fill="#FFF" d="M9.844 3.906h22.28v8.674H9.844z"/><path fill-rule="evenodd" clip-rule="evenodd" fill="#B6D7A8" d="M32.039 12.494V6.259H30.338v6.235l.001.001h1.699z"/><path fill="none" stroke="#B6D7A8" stroke-width=".283" stroke-linecap="round" stroke-miterlimit="10" d="M32.039 12.494V6.259H30.338v6.235l.001.001h1.699z"/><path fill-rule="evenodd" clip-rule="evenodd" fill="#B6D7A8" d="M29.771 12.494V6.259H28.07v6.235l.001.001h1.7z"/><path fill="none" stroke="#B6D7A8" stroke-width=".283" stroke-linecap="round" stroke-miterlimit="10" d="M29.771 12.494V6.259H28.07v6.235l.001.001h1.7z"/><path fill-rule="evenodd" clip-rule="evenodd" fill="#B6D7A8" d="M27.503 12.494V6.259H25.803v6.235l.001.001h1.698z"/><path fill="none" stroke="#B6D7A8" stroke-width=".283" stroke-linecap="round" stroke-miterlimit="10" d="M27.503 12.494V6.259H25.803v6.235l.001.001h1.698z"/><path fill-rule="evenodd" clip-rule="evenodd" fill="#B6D7A8" d="M25.236 12.494V6.259H23.535v6.235l.001.001h1.699z"/><path fill="none" stroke="#B6D7A8" stroke-width=".283" stroke-linecap="round" stroke-miterlimit="10" d="M25.236 12.494V6.259H23.535v6.235l.001.001h1.699z"/><path fill-rule="evenodd" clip-rule="evenodd" fill="#B6D7A8" d="M22.968 12.494V6.259H21.267v6.235l.001.001h1.699z"/><path fill="none" stroke="#B6D7A8" stroke-width=".283" stroke-linecap="round" stroke-miterlimit="10" d="M22.968 12.494V6.259H21.267v6.235l.001.001h1.699z"/><path fill-rule="evenodd" clip-rule="evenodd" fill="#B6D7A8" d="M20.7 12.494V6.259H19V12.495h1.699z"/><path fill="none" stroke="#B6D7A8" stroke-width=".283" stroke-linecap="round" stroke-miterlimit="10" d="M20.7 12.494V6.259H19V12.495h1.699z"/><path fill-rule="evenodd" clip-rule="evenodd" fill="#B6D7A8" d="M18.433 12.494V6.259H16.732v6.235l.001.001h1.699z"/><path fill="none" stroke="#B6D7A8" stroke-width=".283" stroke-linecap="round" stroke-miterlimit="10" d="M18.433 12.494V6.259H16.732v6.235l.001.001h1.699z"/><path fill-rule="evenodd" clip-rule="evenodd" fill="#B6D7A8" d="M16.165 12.494V6.259H14.464v6.235l.001.001h1.699z"/><path fill="none" stroke="#B6D7A8" stroke-width=".283" stroke-linecap="round" stroke-miterlimit="10" d="M16.165 12.494V6.259H14.464v6.235l.001.001h1.699z"/><path fill-rule="evenodd" clip-rule="evenodd" fill="#B6D7A8" d="M13.897 12.494V6.259H12.196v6.235l.001.001h1.699z"/><path fill="none" stroke="#B6D7A8" stroke-width=".283" stroke-linecap="round" stroke-miterlimit="10" d="M13.897 12.494V6.259H12.196v6.235l.001.001h1.699z"/><path fill-rule="evenodd" clip-rule="evenodd" fill="#B6D7A8" d="M11.629 12.494V3.991H9.929v8.504H11.629z"/><path fill="none" stroke="#B6D7A8" stroke-width=".283" stroke-linecap="round" stroke-miterlimit="10" d="M11.629 12.494V3.991H9.929v8.504H11.629z"/><path fill="none" stroke="#000" stroke-width=".283" stroke-linecap="round" stroke-miterlimit="10" d="M9.844 3.906h22.28v8.674H9.844z"/><path fill-rule="evenodd" clip-rule="evenodd" fill="#FFF" d="M4.534 79.937h5.715v5.713H4.534z"/><path fill-rule="evenodd" clip-rule="evenodd" fill="#B6D7A8" d="M5.976 84.21h2.832l.001-.002v-2.83l-.001-.002H5.976l-.002.002v2.83z"/><path fill="none" stroke="#B6D7A8" stroke-width=".283" stroke-linecap="round" stroke-miterlimit="10" d="M5.976 84.21h2.832l.001-.002v-2.83l-.001-.002H5.976l-.002.002v2.83z"/><path fill="none" stroke="#000" stroke-width=".283" stroke-linecap="round" stroke-miterlimit="10" d="M4.534 79.937h5.715v5.713H4.534z"/><path fill-rule="evenodd" clip-rule="evenodd" fill="#FFF" d="M100.346 79.937h5.714v5.713h-5.714z"/><path fill-rule="evenodd" clip-rule="evenodd" fill="#B6D7A8" d="M103.203 84.07a1.276 1.276 0 1 0-.002-2.552 1.276 1.276 0 0 0 .002 2.552z"/><path fill="none" stroke="#B6D7A8" stroke-width=".283" stroke-linecap="round" stroke-miterlimit="10" d="M103.203 84.07a1.276 1.276 0 1 0-.002-2.552 1.276 1.276 0 0 0 .002 2.552z"/><path fill="none" stroke="#000" stroke-width=".283" stroke-linecap="round" stroke-miterlimit="10" d="M100.346 79.937h5.714v5.713h-5.714z"/><path fill-rule="evenodd" clip-rule="evenodd" fill="#FFF" d="M100.062 20.125h5.715v5.715h-5.715z"/><path fill-rule="evenodd" clip-rule="evenodd" fill="#B6D7A8" d="M102.919 24.259a1.275 1.275 0 1 0 0-2.55 1.275 1.275 0 0 0 0 2.55z"/><path fill="none" stroke="#B6D7A8" stroke-width=".283" stroke-linecap="round" stroke-miterlimit="10" d="M102.919 24.259a1.275 1.275 0 1 0 0-2.55 1.275 1.275 0 0 0 0 2.55z"/><path fill="none" stroke="#000" stroke-width=".283" stroke-linecap="round" stroke-miterlimit="10" d="M100.062 20.125h5.715v5.715h-5.715z"/><path fill-rule="evenodd" clip-rule="evenodd" fill="#FFF" d="M41.606 40.628h-2.693v4.961h2.693v-3.968zM41.606 41.621v2.976M41.606 41.621h-2.693M38.913 41.621v2.976M41.606 44.597h-2.693M41.606 40.628v.993M41.606 41.621h-2.693M38.913 40.628v.993M41.606 40.628h-2.693M41.606 44.597v.992M41.606 44.597h-2.693M38.913 44.597v.992M41.606 45.589h-2.693"/><path fill-rule="evenodd" clip-rule="evenodd" fill="#B6D7A8" d="M38.843 42.117H41.676l.001-.001v-2.549l-.001-.001-.001-.001h-2.832l-.001.001V42.117z"/><path fill="none" stroke="#B6D7A8" stroke-width=".283" stroke-linecap="round" stroke-miterlimit="10" d="M38.843 42.117H41.676l.001-.001v-2.549l-.001-.001-.001-.001h-2.832l-.001.001V42.117z"/><path fill-rule="evenodd" clip-rule="evenodd" fill="#B6D7A8" d="M38.843 46.652H41.676l.001-.001v-2.548l-.001-.002H38.842V46.652z"/><path fill="none" stroke="#B6D7A8" stroke-width=".283" stroke-linecap="round" stroke-miterlimit="10" d="M38.843 46.652H41.676l.001-.001v-2.548l-.001-.002H38.842V46.652z"/><path fill="none" stroke="#000" stroke-width=".283" stroke-linecap="round" stroke-miterlimit="10" d="M41.606 40.628h-2.693v4.961h2.693v-3.968zM41.606 41.621v2.976M41.606 41.621h-2.693M38.913 41.621v2.976M41.606 44.597h-2.693M41.606 40.628v.993M41.606 41.621h-2.693M38.913 40.628v.993M41.606 40.628h-2.693M41.606 44.597v.992M41.606 44.597h-2.693M38.913 44.597v.992M41.606 45.589h-2.693"/><path fill-rule="evenodd" clip-rule="evenodd" fill="#FFF" d="M71.37 35.526h-2.693v4.961h2.693v-3.968zM71.37 36.519v2.976M71.37 36.519h-2.693M68.677 36.519v2.976M71.37 39.495h-2.693M71.37 35.526v.993M71.37 36.519h-2.693M68.677 35.526v.993M71.37 35.526h-2.693M71.37 39.495v.992M71.37 39.495h-2.693M68.677 39.495v.992M71.37 40.487h-2.693"/><path fill-rule="evenodd" clip-rule="evenodd" fill="#B6D7A8" d="M68.607 37.015h2.832l.001-.001v-2.55l-.001-.001h-2.832l-.001.001h-.001v2.549l.001.001z"/><path fill="none" stroke="#B6D7A8" stroke-width=".283" stroke-linecap="round" stroke-miterlimit="10" d="M68.607 37.015h2.832l.001-.001v-2.55l-.001-.001h-2.832l-.001.001h-.001v2.549l.001.001z"/><path fill-rule="evenodd" clip-rule="evenodd" fill="#B6D7A8" d="M68.607 41.55h2.832l.001-.001v-2.55H68.606l-.001.001v2.548l.001.001z"/><path fill="none" stroke="#B6D7A8" stroke-width=".283" stroke-linecap="round" stroke-miterlimit="10" d="M68.607 41.55h2.832l.001-.001v-2.55H68.606l-.001.001v2.548l.001.001z"/><path fill="none" stroke="#000" stroke-width=".283" stroke-linecap="round" stroke-miterlimit="10" d="M71.37 35.526h-2.693v4.961h2.693v-3.968zM71.37 36.519v2.976M71.37 36.519h-2.693M68.677 36.519v2.976M71.37 39.495h-2.693M71.37 35.526v.993M71.37 36.519h-2.693M68.677 35.526v.993M71.37 35.526h-2.693M71.37 39.495v.992M71.37 39.495h-2.693M68.677 39.495v.992M71.37 40.487h-2.693"/><path fill-rule="evenodd" clip-rule="evenodd" fill="#FFF" d="M76.188 38.078h-2.693v4.961h2.693V39.07zM76.188 39.07v2.976M76.188 39.07h-2.693M73.495 39.07v2.976M76.188 42.046h-2.693M76.188 38.078v.992M76.188 39.07h-2.693M73.495 38.078v.992M76.188 38.078h-2.693M76.188 42.046v.993M76.188 42.046h-2.693M73.495 42.046v.993M76.188 43.039h-2.693"/><path fill-rule="evenodd" clip-rule="evenodd" fill="#B6D7A8" d="M73.426 39.565H76.259l.001-.001v-2.548l-.001-.001H73.425v2.55z"/><path fill="none" stroke="#B6D7A8" stroke-width=".283" stroke-linecap="round" stroke-miterlimit="10" d="M73.426 39.565H76.259l.001-.001v-2.548l-.001-.001H73.425v2.55z"/><path fill-rule="evenodd" clip-rule="evenodd" fill="#B6D7A8" d="M73.426 44.101H76.259l.001-.002v-2.548l-.001-.001H73.425V44.101z"/><path fill="none" stroke="#B6D7A8" stroke-width=".283" stroke-linecap="round" stroke-miterlimit="10" d="M73.426 44.101H76.259l.001-.002v-2.548l-.001-.001H73.425V44.101z"/><path fill="none" stroke="#000" stroke-width=".283" stroke-linecap="round" stroke-miterlimit="10" d="M76.188 38.078h-2.693v4.961h2.693V39.07zM76.188 39.07v2.976M76.188 39.07h-2.693M73.495 39.07v2.976M76.188 42.046h-2.693M76.188 38.078v.992M76.188 39.07h-2.693M73.495 38.078v.992M76.188 38.078h-2.693M76.188 42.046v.993M76.188 42.046h-2.693M73.495 42.046v.993M76.188 43.039h-2.693"/><path fill-rule="evenodd" clip-rule="evenodd" fill="#FFF" d="M71.37 27.022h-2.693v4.961h2.693v-3.968zM71.37 28.015v2.976M71.37 28.015h-2.693M68.677 28.015v2.976M71.37 30.991h-2.693M71.37 27.022v.993M71.37 28.015h-2.693M68.677 27.022v.993M71.37 27.022h-2.693M71.37 30.991v.992M71.37 30.991h-2.693M68.677 30.991v.992M71.37 31.983h-2.693"/><path fill-rule="evenodd" clip-rule="evenodd" fill="#B6D7A8" d="M68.607 28.511h2.832l.001-.001v-2.55l-.001-.001h-2.832l-.001.001h-.001v2.549l.001.001z"/><path fill="none" stroke="#B6D7A8" stroke-width=".283" stroke-linecap="round" stroke-miterlimit="10" d="M68.607 28.511h2.832l.001-.001v-2.55l-.001-.001h-2.832l-.001.001h-.001v2.549l.001.001z"/><path fill-rule="evenodd" clip-rule="evenodd" fill="#B6D7A8" d="M68.607 33.046h2.832l.001-.001v-2.55H68.606l-.001.001v2.549h.001z"/><path fill="none" stroke="#B6D7A8" stroke-width=".283" stroke-linecap="round" stroke-miterlimit="10" d="M68.607 33.046h2.832l.001-.001v-2.55H68.606l-.001.001v2.549h.001z"/><path fill="none" stroke="#000" stroke-width=".283" stroke-linecap="round" stroke-miterlimit="10" d="M71.37 27.022h-2.693v4.961h2.693v-3.968zM71.37 28.015v2.976M71.37 28.015h-2.693M68.677 28.015v2.976M71.37 30.991h-2.693M71.37 27.022v.993M71.37 28.015h-2.693M68.677 27.022v.993M71.37 27.022h-2.693M71.37 30.991v.992M71.37 30.991h-2.693M68.677 30.991v.992M71.37 31.983h-2.693"/><path fill-rule="evenodd" clip-rule="evenodd" fill="#FFF" d="M81.021 38.078h-2.692v4.961h2.692V39.069zM81.021 39.069v2.977M81.021 39.069h-2.692M78.329 39.069v2.977M81.021 42.046h-2.692M81.021 38.078v.991M81.021 39.069h-2.692M78.329 38.078v.991M81.021 38.078h-2.692M81.021 42.046v.993M81.021 42.046h-2.692M78.329 42.046v.993M81.021 43.039h-2.692"/><path fill-rule="evenodd" clip-rule="evenodd" fill="#B6D7A8" d="M78.259 39.565H81.092l.001-.001v-2.548l-.001-.001H78.258v2.55z"/><path fill="none" stroke="#B6D7A8" stroke-width=".283" stroke-linecap="round" stroke-miterlimit="10" d="M78.259 39.565H81.092l.001-.001v-2.548l-.001-.001H78.258v2.55z"/><path fill-rule="evenodd" clip-rule="evenodd" fill="#B6D7A8" d="M78.259 44.101H81.092l.001-.002v-2.548l-.001-.001H78.258V44.101z"/><path fill="none" stroke="#B6D7A8" stroke-width=".283" stroke-linecap="round" stroke-miterlimit="10" d="M78.259 44.101H81.092l.001-.002v-2.548l-.001-.001H78.258V44.101z"/><path fill="none" stroke="#000" stroke-width=".283" stroke-linecap="round" stroke-miterlimit="10" d="M81.021 38.078h-2.692v4.961h2.692V39.069zM81.021 39.069v2.977M81.021 39.069h-2.692M78.329 39.069v2.977M81.021 42.046h-2.692M81.021 38.078v.991M81.021 39.069h-2.692M78.329 38.078v.991M81.021 38.078h-2.692M81.021 42.046v.993M81.021 42.046h-2.692M78.329 42.046v.993M81.021 43.039h-2.692"/><path fill-rule="evenodd" clip-rule="evenodd" fill="#FFF" d="M91.566 29.219V25.25h-.92V23.692h-1.277V25.25H85.26V23.692h-1.277V25.25h-.92v3.969h3.614V30.778h1.275V29.219zM85.26 25.089v-.161M85.26 24.928v-.148M85.26 24.78v-.122M85.26 24.658v-.088M85.26 24.57v-.042M85.26 24.465v-.011M85.26 24.454v-.022M85.26 24.432v-.029M85.26 24.403v-.04M85.26 24.363v-.039M83.983 24.363v-.039M83.983 24.403v-.04M83.983 24.432v-.029M83.983 24.454v-.022M83.983 24.465v-.011M83.983 24.57v-.042M83.983 24.658v-.088M83.983 24.78v-.122M83.983 24.928v-.148M83.983 25.089v-.161M85.26 23.692h-1.277M85.26 24.324v-.632M83.983 24.324v-.632M85.26 24.528v-.063M83.983 24.528v-.063M83.983 25.25v-.161M85.26 25.25v-.161M89.369 24.363v-.039M89.369 24.403v-.04M89.369 24.432v-.029M89.369 24.454v-.022M89.369 24.465v-.011M89.369 24.57v-.042M89.369 24.658v-.088M89.369 24.78v-.122M89.369 24.928v-.148M89.369 25.089v-.161M90.646 25.089v-.161M90.646 24.928v-.148M90.646 24.78v-.122M90.646 24.658v-.088M90.646 24.57v-.042M90.646 24.465v-.011M90.646 24.454v-.022M90.646 24.432v-.029M90.646 24.403v-.04M90.646 24.363v-.039M90.646 24.528v-.063M89.369 24.528v-.063M90.646 24.324v-.632M89.369 24.324v-.632M90.646 23.692h-1.277M89.369 25.25v-.161M90.646 25.25v-.161M86.677 30.016v-.012M86.677 30.039v-.023M86.677 30.069v-.03M86.677 30.106v-.037M86.677 30.146v-.04M86.677 29.542v-.161M86.677 29.69v-.148M86.677 29.812v-.122M86.677 29.899v-.087M86.677 29.942v-.043M87.952 30.146v-.04M87.952 30.106v-.037M87.952 30.069v-.03M87.952 30.039v-.023M87.952 30.016v-.012M87.952 29.942v-.043M87.952 29.899v-.087M87.952 29.812v-.122M87.952 29.69v-.148M87.952 29.542v-.161M87.952 30.778h-1.275M86.677 30.778v-.632M87.952 30.778v-.632M86.677 30.004v-.062M87.952 30.004v-.062M87.952 29.381v-.162M86.677 29.381v-.162M91.431 25.387h-8.233M83.983 25.25h-.92M85.26 25.25h-1.277M89.369 25.25H85.26M90.646 25.25h-1.277M91.566 25.25h-.92M91.431 29.083v-3.696M91.566 25.25l-.135.137M91.566 29.219V25.25M91.431 29.083h-8.233M91.566 29.219l-.135-.136M91.566 29.219h-3.614M87.952 29.219h-1.275M86.677 29.219h-3.614M83.198 25.387l-.135-.137M83.198 29.083v-3.696M83.198 29.083l-.135.136M83.063 29.219V25.25M85.26 24.324h-1.277M85.26 24.465h-1.277M85.26 24.528h-1.277M85.26 25.089h-1.277M90.646 24.465h-1.277M90.646 24.528h-1.277M90.646 24.324h-1.277M90.646 25.089h-1.277M87.952 30.146h-1.275M87.952 30.004h-1.275M87.952 29.942h-1.275M87.952 29.381h-1.275"/><path fill-rule="evenodd" clip-rule="evenodd" fill="#B6D7A8" d="M88.234 29.006h-1.839l-.001.001v2.976H88.235v-2.976z"/><path fill="none" stroke="#B6D7A8" stroke-width=".283" stroke-linecap="round" stroke-miterlimit="10" d="M88.234 29.006h-1.839l-.001.001v2.976H88.235v-2.976z"/><path fill-rule="evenodd" clip-rule="evenodd" fill="#B6D7A8" d="M85.542 22.487H83.7v2.976H85.543v-2.976z"/><path fill="none" stroke="#B6D7A8" stroke-width=".283" stroke-linecap="round" stroke-miterlimit="10" d="M85.542 22.487H83.7v2.976H85.543v-2.976z"/><path fill-rule="evenodd" clip-rule="evenodd" fill="#B6D7A8" d="M90.928 22.487H89.086v2.976H90.929v-2.976z"/><path fill="none" stroke="#B6D7A8" stroke-width=".283" stroke-linecap="round" stroke-miterlimit="10" d="M90.928 22.487H89.086v2.976H90.929v-2.976z"/><path fill="none" stroke="#000" stroke-width=".283" stroke-linecap="round" stroke-miterlimit="10" d="M91.566 29.219V25.25h-.92V23.692h-1.277V25.25H85.26V23.692h-1.277V25.25h-.92v3.969h3.614V30.778h1.275V29.219zM85.26 25.089v-.161M85.26 24.928v-.148M85.26 24.78v-.122M85.26 24.658v-.088M85.26 24.57v-.042M85.26 24.465v-.011M85.26 24.454v-.022M85.26 24.432v-.029M85.26 24.403v-.04M85.26 24.363v-.039M83.983 24.363v-.039M83.983 24.403v-.04M83.983 24.432v-.029M83.983 24.454v-.022M83.983 24.465v-.011M83.983 24.57v-.042M83.983 24.658v-.088M83.983 24.78v-.122M83.983 24.928v-.148M83.983 25.089v-.161M85.26 23.692h-1.277M85.26 24.324v-.632M83.983 24.324v-.632M85.26 24.528v-.063M83.983 24.528v-.063M83.983 25.25v-.161M85.26 25.25v-.161M89.369 24.363v-.039M89.369 24.403v-.04M89.369 24.432v-.029M89.369 24.454v-.022M89.369 24.465v-.011M89.369 24.57v-.042M89.369 24.658v-.088M89.369 24.78v-.122M89.369 24.928v-.148M89.369 25.089v-.161M90.646 25.089v-.161M90.646 24.928v-.148M90.646 24.78v-.122M90.646 24.658v-.088M90.646 24.57v-.042M90.646 24.465v-.011M90.646 24.454v-.022M90.646 24.432v-.029M90.646 24.403v-.04M90.646 24.363v-.039M90.646 24.528v-.063M89.369 24.528v-.063M90.646 24.324v-.632M89.369 24.324v-.632M90.646 23.692h-1.277M89.369 25.25v-.161M90.646 25.25v-.161M86.677 30.016v-.012M86.677 30.039v-.023M86.677 30.069v-.03M86.677 30.106v-.037M86.677 30.146v-.04M86.677 29.542v-.161M86.677 29.69v-.148M86.677 29.812v-.122M86.677 29.899v-.087M86.677 29.942v-.043M87.952 30.146v-.04M87.952 30.106v-.037M87.952 30.069v-.03M87.952 30.039v-.023M87.952 30.016v-.012M87.952 29.942v-.043M87.952 29.899v-.087M87.952 29.812v-.122M87.952 29.69v-.148M87.952 29.542v-.161M87.952 30.778h-1.275M86.677 30.778v-.632M87.952 30.778v-.632M86.677 30.004v-.062M87.952 30.004v-.062M87.952 29.381v-.162M86.677 29.381v-.162M91.431 25.387h-8.233M83.983 25.25h-.92M85.26 25.25h-1.277M89.369 25.25H85.26M90.646 25.25h-1.277M91.566 25.25h-.92M91.431 29.083v-3.696M91.566 25.25l-.135.137M91.566 29.219V25.25M91.431 29.083h-8.233M91.566 29.219l-.135-.136M91.566 29.219h-3.614M87.952 29.219h-1.275M86.677 29.219h-3.614M83.198 25.387l-.135-.137M83.198 29.083v-3.696M83.198 29.083l-.135.136M83.063 29.219V25.25M85.26 24.324h-1.277M85.26 24.465h-1.277M85.26 24.528h-1.277M85.26 25.089h-1.277M90.646 24.465h-1.277M90.646 24.528h-1.277M90.646 24.324h-1.277M90.646 25.089h-1.277M87.952 30.146h-1.275M87.952 30.004h-1.275M87.952 29.942h-1.275M87.952 29.381h-1.275"/><path fill-rule="evenodd" clip-rule="evenodd" fill="#FFF" d="M49.897 30.069h-2.834v.709h2.834v1.134h-2.834v.709h2.834v1.134h-2.834v.708h2.834v1.134h-2.834v.709h2.834v1.133h-2.834v.709h2.834v1.134h-2.834v.709h2.834v1.134h-2.834v.708h2.834v1.134h-2.834v.708h2.834v.426h12.472v-.426h2.835v-.708h-2.835v-1.134h2.835v-.708h-2.835v-1.134h2.835v-.709h-2.835v-1.134h2.835v-.709h-2.835v-1.133h2.835v-.709h-2.835v-1.134h2.835v-.708h-2.835v-1.134h2.835v-.709h-2.835v-1.134h2.835v-.709h-2.835v-.424H49.897zM63.903 30.07h-.079M63.903 30.778h-.079M63.263 30.07h-.224M63.467 30.07h-.204M63.637 30.07h-.17M63.759 30.07h-.122M63.824 30.07h-.065M63.263 30.778h-.224M63.467 30.778h-.204M63.637 30.778h-.17M63.759 30.778h-.122M63.824 30.778h-.065M65.204 30.07h-1.02M65.204 30.778v-.708M65.204 30.778h-1.02M63.926 30.778h-.023M63.971 30.778h-.045M64.03 30.778h-.059M64.104 30.778h-.074M64.184 30.778h-.08M63.926 30.07h-.023M63.971 30.07h-.045M64.03 30.07h-.059M64.104 30.07h-.074M64.184 30.07h-.08M63.039 30.07h-.695M63.039 30.778h-.695M48.509 30.07h-.067M48.63 30.07h-.121M48.8 30.07h-.17M49.005 30.07H48.8M49.226 30.07h-.221M48.509 30.778h-.067M48.63 30.778h-.121M48.8 30.778h-.17M49.005 30.778H48.8M49.226 30.778h-.221M48.442 30.07h-.078M48.442 30.778h-.078M48.163 30.778h-.08M48.233 30.778h-.07M48.296 30.778h-.063M48.338 30.778h-.042M48.364 30.778h-.026M48.163 30.07h-.08M48.233 30.07h-.07M48.296 30.07h-.063M48.338 30.07h-.042M48.364 30.07h-.026M48.083 30.07h-1.02M48.083 30.778h-1.02M47.063 30.778v-.708M49.923 30.778h-.697M49.923 30.07h-.697M63.903 31.912h-.079M63.903 32.621h-.079M63.263 31.912h-.224M63.467 31.912h-.204M63.637 31.912h-.17M63.759 31.912h-.122M63.824 31.912h-.065M63.263 32.621h-.224M63.467 32.621h-.204M63.637 32.621h-.17M63.759 32.621h-.122M63.824 32.621h-.065M65.204 31.912h-1.02M65.204 32.621v-.709M65.204 32.621h-1.02M63.926 32.621h-.023M63.971 32.621h-.045M64.03 32.621h-.059M64.104 32.621h-.074M64.184 32.621h-.08M63.926 31.912h-.023M63.971 31.912h-.045M64.03 31.912h-.059M64.104 31.912h-.074M64.184 31.912h-.08M63.039 31.912h-.695M63.039 32.621h-.695M48.509 31.912h-.067M48.63 31.912h-.121M48.8 31.912h-.17M49.005 31.912H48.8M49.226 31.912h-.221M48.509 32.621h-.067M48.63 32.621h-.121M48.8 32.621h-.17M49.005 32.621H48.8M49.226 32.621h-.221M48.442 31.912h-.078M48.442 32.621h-.078M48.163 32.621h-.08M48.233 32.621h-.07M48.296 32.621h-.063M48.338 32.621h-.042M48.364 32.621h-.026M48.163 31.912h-.08M48.233 31.912h-.07M48.296 31.912h-.063M48.338 31.912h-.042M48.364 31.912h-.026M48.083 31.912h-1.02M48.083 32.621h-1.02M47.063 32.621v-.709M49.923 32.621h-.697M49.923 31.912h-.697M63.903 33.755h-.079M63.903 34.463h-.079M63.263 33.755h-.224M63.467 33.755h-.204M63.637 33.755h-.17M63.759 33.755h-.122M63.824 33.755h-.065M63.263 34.463h-.224M63.467 34.463h-.204M63.637 34.463h-.17M63.759 34.463h-.122M63.824 34.463h-.065M65.204 33.755h-1.02M65.204 34.463v-.708M65.204 34.463h-1.02M63.926 34.463h-.023M63.971 34.463h-.045M64.03 34.463h-.059M64.104 34.463h-.074M64.184 34.463h-.08M63.926 33.755h-.023M63.971 33.755h-.045M64.03 33.755h-.059M64.104 33.755h-.074M64.184 33.755h-.08M63.039 33.755h-.695M63.039 34.463h-.695M48.509 33.755h-.067M48.63 33.755h-.121M48.8 33.755h-.17M49.005 33.755H48.8M49.226 33.755h-.221M48.509 34.463h-.067M48.63 34.463h-.121M48.8 34.463h-.17M49.005 34.463H48.8M49.226 34.463h-.221M48.442 33.755h-.078M48.442 34.463h-.078M48.163 34.463h-.08M48.233 34.463h-.07M48.296 34.463h-.063M48.338 34.463h-.042M48.364 34.463h-.026M48.163 33.755h-.08M48.233 33.755h-.07M48.296 33.755h-.063M48.338 33.755h-.042M48.364 33.755h-.026M48.083 33.755h-1.02M48.083 34.463h-1.02M47.063 34.463v-.708M49.923 34.463h-.697M49.923 33.755h-.697M63.903 35.597h-.079M63.903 36.306h-.079M63.263 35.597h-.224M63.467 35.597h-.204M63.637 35.597h-.17M63.759 35.597h-.122M63.824 35.597h-.065M63.263 36.306h-.224M63.467 36.306h-.204M63.637 36.306h-.17M63.759 36.306h-.122M63.824 36.306h-.065M65.204 35.597h-1.02M65.204 36.306v-.709M65.204 36.306h-1.02M63.926 36.306h-.023M63.971 36.306h-.045M64.03 36.306h-.059M64.104 36.306h-.074M64.184 36.306h-.08M63.926 35.597h-.023M63.971 35.597h-.045M64.03 35.597h-.059M64.104 35.597h-.074M64.184 35.597h-.08M63.039 35.597h-.695M63.039 36.306h-.695M48.509 35.597h-.067M48.63 35.597h-.121M48.8 35.597h-.17M49.005 35.597H48.8M49.226 35.597h-.221M48.509 36.306h-.067M48.63 36.306h-.121M48.8 36.306h-.17M49.005 36.306H48.8M49.226 36.306h-.221M48.442 35.597h-.078M48.442 36.306h-.078M48.163 36.306h-.08M48.233 36.306h-.07M48.296 36.306h-.063M48.338 36.306h-.042M48.364 36.306h-.026M48.163 35.597h-.08M48.233 35.597h-.07M48.296 35.597h-.063M48.338 35.597h-.042M48.364 35.597h-.026M48.083 35.597h-1.02M48.083 36.306h-1.02M47.063 36.306v-.709M49.923 36.306h-.697M49.923 35.597h-.697M63.903 37.439h-.079M63.903 38.148h-.079M63.263 37.439h-.224M63.467 37.439h-.204M63.637 37.439h-.17M63.759 37.439h-.122M63.824 37.439h-.065M63.263 38.148h-.224M63.467 38.148h-.204M63.637 38.148h-.17M63.759 38.148h-.122M63.824 38.148h-.065M65.204 37.439h-1.02M65.204 38.148v-.709M65.204 38.148h-1.02M63.926 38.148h-.023M63.971 38.148h-.045M64.03 38.148h-.059M64.104 38.148h-.074M64.184 38.148h-.08M63.926 37.439h-.023M63.971 37.439h-.045M64.03 37.439h-.059M64.104 37.439h-.074M64.184 37.439h-.08M63.039 37.439h-.695M63.039 38.148h-.695M48.509 37.439h-.067M48.63 37.439h-.121M48.8 37.439h-.17M49.005 37.439H48.8M49.226 37.439h-.221M48.509 38.148h-.067M48.63 38.148h-.121M48.8 38.148h-.17M49.005 38.148H48.8M49.226 38.148h-.221M48.442 37.439h-.078M48.442 38.148h-.078M48.163 38.148h-.08M48.233 38.148h-.07M48.296 38.148h-.063M48.338 38.148h-.042M48.364 38.148h-.026M48.163 37.439h-.08M48.233 37.439h-.07M48.296 37.439h-.063M48.338 37.439h-.042M48.364 37.439h-.026M48.083 37.439h-1.02M48.083 38.148h-1.02M47.063 38.148v-.709M49.923 38.148h-.697M49.923 37.439h-.697M63.903 39.282h-.079M63.903 39.991h-.079M63.263 39.282h-.224M63.467 39.282h-.204M63.637 39.282h-.17M63.759 39.282h-.122M63.824 39.282h-.065M63.263 39.991h-.224M63.467 39.991h-.204M63.637 39.991h-.17M63.759 39.991h-.122M63.824 39.991h-.065M65.204 39.282h-1.02M65.204 39.991v-.709M65.204 39.991h-1.02M63.926 39.991h-.023M63.971 39.991h-.045M64.03 39.991h-.059M64.104 39.991h-.074M64.184 39.991h-.08M63.926 39.282h-.023M63.971 39.282h-.045M64.03 39.282h-.059M64.104 39.282h-.074M64.184 39.282h-.08M63.039 39.282h-.695M63.039 39.991h-.695M48.509 39.282h-.067M48.63 39.282h-.121M48.8 39.282h-.17M49.005 39.282H48.8M49.226 39.282h-.221M48.509 39.991h-.067M48.63 39.991h-.121M48.8 39.991h-.17M49.005 39.991H48.8M49.226 39.991h-.221M48.442 39.282h-.078M48.442 39.991h-.078M48.163 39.991h-.08M48.233 39.991h-.07M48.296 39.991h-.063M48.338 39.991h-.042M48.364 39.991h-.026M48.163 39.282h-.08M48.233 39.282h-.07M48.296 39.282h-.063M48.338 39.282h-.042M48.364 39.282h-.026M48.083 39.282h-1.02M48.083 39.991h-1.02M47.063 39.991v-.709M49.923 39.991h-.697M49.923 39.282h-.697M63.903 41.125h-.079M63.903 41.833h-.079M63.263 41.125h-.224M63.467 41.125h-.204M63.637 41.125h-.17M63.759 41.125h-.122M63.824 41.125h-.065M63.263 41.833h-.224M63.467 41.833h-.204M63.637 41.833h-.17M63.759 41.833h-.122M63.824 41.833h-.065M65.204 41.125h-1.02M65.204 41.833v-.708M65.204 41.833h-1.02M63.926 41.833h-.023M63.971 41.833h-.045M64.03 41.833h-.059M64.104 41.833h-.074M64.184 41.833h-.08M63.926 41.125h-.023M63.971 41.125h-.045M64.03 41.125h-.059M64.104 41.125h-.074M64.184 41.125h-.08M63.039 41.125h-.695M63.039 41.833h-.695M48.509 41.125h-.067M48.63 41.125h-.121M48.8 41.125h-.17M49.005 41.125H48.8M49.226 41.125h-.221M48.509 41.833h-.067M48.63 41.833h-.121M48.8 41.833h-.17M49.005 41.833H48.8M49.226 41.833h-.221M48.442 41.125h-.078M48.442 41.833h-.078M48.163 41.833h-.08M48.233 41.833h-.07M48.296 41.833h-.063M48.338 41.833h-.042M48.364 41.833h-.026M48.163 41.125h-.08M48.233 41.125h-.07M48.296 41.125h-.063M48.338 41.125h-.042M48.364 41.125h-.026M48.083 41.125h-1.02M48.083 41.833h-1.02M47.063 41.833v-.708M49.923 41.833h-.697M49.923 41.125h-.697M60.785 41.975l-.017.142M60.768 42.117l-.054.131M60.714 42.248l-.088.11M60.626 42.358l-.11.088M60.516 42.446l-.133.054M60.383 42.5l-.14.017M60.243 42.517l-.141-.017M60.102 42.5l-.13-.054M59.972 42.446l-.111-.088M59.861 42.358l-.088-.11M59.773 42.248l-.054-.131M59.719 42.117l-.017-.142M60.952 41.975l-.025.185M60.927 42.16l-.072.17M60.855 42.33l-.11.147M60.745 42.477l-.147.113M60.598 42.59l-.17.072M60.428 42.662l-.185.021M60.243 42.683l-.183-.021M60.06 42.662l-.17-.072M59.89 42.59l-.148-.113M59.742 42.477l-.113-.147M59.629 42.33l-.071-.17M59.558 42.16l-.023-.185M61.953 43.685h-11.64M50.313 43.685V30.061M50.313 43.685l-.416.416M49.923 41.833v-.708M49.923 39.991v-.709M49.923 38.148v-.709M49.923 36.306v-.709M49.923 34.463v-.708M49.923 32.621v-.709M49.923 30.778v-.708M61.953 30.061h-11.64M50.313 30.061l-.416-.416M62.369 29.645H49.897M49.897 31.912v-1.134M49.897 33.755v-1.134M49.897 35.597v-1.134M49.897 37.439v-1.133M49.897 39.282v-1.134M49.897 41.125v-1.134M49.897 42.967v-1.134M49.897 44.101v-.426M49.897 30.07v-.425M62.369 44.101H49.897M62.344 30.778v-.708M62.344 32.621v-.709M62.344 34.463v-.708M62.344 36.306v-.709M62.344 38.148v-.709M62.344 39.991v-.709M62.344 41.833v-.708M62.369 44.101l-.416-.416M61.953 43.685V30.061M62.369 29.645l-.416.416M62.369 44.101v-.426M62.369 42.967v-1.134M62.369 41.125v-1.134M62.369 39.282v-1.134M62.369 37.439v-1.133M62.369 35.597v-1.134M62.369 33.755v-1.134M62.369 31.912v-1.134M62.369 30.07v-.425M59.719 41.836l-.017.139M59.773 41.703l-.054.133M59.861 41.592l-.088.111M59.972 41.504l-.111.088M60.102 41.451l-.13.053M60.243 41.433l-.141.018M60.383 41.451l-.14-.018M60.516 41.504l-.133-.053M60.626 41.592l-.11-.088M60.714 41.703l-.088-.111M60.768 41.836l-.054-.133M60.785 41.975l-.017-.139M59.558 41.791l-.023.184M59.629 41.621l-.071.17M59.742 41.473l-.113.148M59.89 41.363l-.148.11M60.06 41.292l-.17.071M60.243 41.267l-.183.025M60.428 41.292l-.185-.025M60.598 41.363l-.17-.071M60.745 41.473l-.147-.11M60.855 41.621l-.11-.148M60.927 41.791l-.072-.17M60.952 41.975l-.025-.184M49.923 42.967h-.697M49.923 43.675h-.697M48.509 42.967h-.067M48.63 42.967h-.121M48.8 42.967h-.17M49.005 42.967H48.8M49.226 42.967h-.221M48.509 43.675h-.067M48.63 43.675h-.121M48.8 43.675h-.17M49.005 43.675H48.8M49.226 43.675h-.221M48.442 42.967h-.078M48.442 43.675h-.078M48.163 43.675h-.08M48.233 43.675h-.07M48.296 43.675h-.063M48.338 43.675h-.042M48.364 43.675h-.026M48.163 42.967h-.08M48.233 42.967h-.07M48.296 42.967h-.063M48.338 42.967h-.042M48.364 42.967h-.026M48.083 42.967h-1.02M48.083 43.675h-1.02M47.063 43.675v-.708M63.903 42.967h-.079M63.903 43.675h-.079M63.263 42.967h-.224M63.467 42.967h-.204M63.637 42.967h-.17M63.759 42.967h-.122M63.824 42.967h-.065M63.263 43.675h-.224M63.467 43.675h-.204M63.637 43.675h-.17M63.759 43.675h-.122M63.824 43.675h-.065M63.039 42.967h-.695M63.039 43.675h-.695M65.204 42.967h-1.02M65.204 43.675v-.708M65.204 43.675h-1.02M63.926 43.675h-.023M63.971 43.675h-.045M64.03 43.675h-.059M64.104 43.675h-.074M64.184 43.675h-.08M63.926 42.967h-.023M63.971 42.967h-.045M64.03 42.967h-.059M64.104 42.967h-.074M64.184 42.967h-.08M63.824 30.778v-.708M64.184 30.778v-.708M63.903 30.778v-.708M63.039 30.778v-.708M48.442 30.778v-.708M48.364 30.778v-.708M48.083 30.778v-.708M49.226 30.778v-.708M63.824 32.621v-.709M64.184 32.621v-.709M63.903 32.621v-.709M63.039 32.621v-.709M48.442 32.621v-.709M48.364 32.621v-.709M48.083 32.621v-.709M49.226 32.621v-.709M63.824 34.463v-.708M64.184 34.463v-.708M63.903 34.463v-.708M63.039 34.463v-.708M48.442 34.463v-.708M48.364 34.463v-.708M48.083 34.463v-.708M49.226 34.463v-.708M63.824 36.306v-.709M64.184 36.306v-.709M63.903 36.306v-.709M63.039 36.306v-.709M48.442 36.306v-.709M48.364 36.306v-.709M48.083 36.306v-.709M49.226 36.306v-.709M63.824 38.148v-.709M64.184 38.148v-.709M63.903 38.148v-.709M63.039 38.148v-.709M48.442 38.148v-.709M48.364 38.148v-.709M48.083 38.148v-.709M49.226 38.148v-.709M63.824 39.991v-.709M64.184 39.991v-.709M63.903 39.991v-.709M63.039 39.991v-.709M48.442 39.991v-.709M48.364 39.991v-.709M48.083 39.991v-.709M49.226 39.991v-.709M63.824 41.833v-.708M64.184 41.833v-.708M63.903 41.833v-.708M63.039 41.833v-.708M48.442 41.833v-.708M48.364 41.833v-.708M48.083 41.833v-.708M49.226 41.833v-.708M60.952 41.975h-.167M59.702 41.975h-.167M49.226 43.675v-.708M48.442 43.675v-.708M48.364 43.675v-.708M48.083 43.675v-.708M63.824 43.675v-.708M63.039 43.675v-.708M64.184 43.675v-.708M63.903 43.675v-.708"/><path fill-rule="evenodd" clip-rule="evenodd" fill="#B6D7A8" d="M49.329 29.97h-2.975v.907h2.976v-.906z"/><path fill="none" stroke="#B6D7A8" stroke-width=".283" stroke-linecap="round" stroke-miterlimit="10" d="M49.329 29.97h-2.975v.907h2.976v-.906z"/><path fill-rule="evenodd" clip-rule="evenodd" fill="#B6D7A8" d="M49.329 31.813h-2.975v.907h2.976v-.907z"/><path fill="none" stroke="#B6D7A8" stroke-width=".283" stroke-linecap="round" stroke-miterlimit="10" d="M49.329 31.813h-2.975v.907h2.976v-.907z"/><path fill-rule="evenodd" clip-rule="evenodd" fill="#B6D7A8" d="M49.329 33.655h-2.975v.908h2.975l.001-.001v-.906z"/><path fill="none" stroke="#B6D7A8" stroke-width=".283" stroke-linecap="round" stroke-miterlimit="10" d="M49.329 33.655h-2.975v.908h2.975l.001-.001v-.906z"/><path fill-rule="evenodd" clip-rule="evenodd" fill="#B6D7A8" d="M49.329 35.498h-2.975v.907h2.976v-.906z"/><path fill="none" stroke="#B6D7A8" stroke-width=".283" stroke-linecap="round" stroke-miterlimit="10" d="M49.329 35.498h-2.975v.907h2.976v-.906z"/><path fill-rule="evenodd" clip-rule="evenodd" fill="#B6D7A8" d="M49.329 37.34h-2.975v.908h2.975l.001-.001v-.906z"/><path fill="none" stroke="#B6D7A8" stroke-width=".283" stroke-linecap="round" stroke-miterlimit="10" d="M49.329 37.34h-2.975v.908h2.975l.001-.001v-.906z"/><path fill-rule="evenodd" clip-rule="evenodd" fill="#B6D7A8" d="M49.329 39.183h-2.975v.907h2.976v-.906z"/><path fill="none" stroke="#B6D7A8" stroke-width=".283" stroke-linecap="round" stroke-miterlimit="10" d="M49.329 39.183h-2.975v.907h2.976v-.906z"/><path fill-rule="evenodd" clip-rule="evenodd" fill="#B6D7A8" d="M49.329 41.025h-2.975v.908h2.975l.001-.001v-.906z"/><path fill="none" stroke="#B6D7A8" stroke-width=".283" stroke-linecap="round" stroke-miterlimit="10" d="M49.329 41.025h-2.975v.908h2.975l.001-.001v-.906z"/><path fill-rule="evenodd" clip-rule="evenodd" fill="#B6D7A8" d="M49.329 42.869h-2.975v.906h2.976v-.906z"/><path fill="none" stroke="#B6D7A8" stroke-width=".283" stroke-linecap="round" stroke-miterlimit="10" d="M49.329 42.869h-2.975v.906h2.976v-.906z"/><path fill-rule="evenodd" clip-rule="evenodd" fill="#B6D7A8" d="M65.912 29.97h-2.974l-.001.001v.906h2.976v-.906z"/><path fill="none" stroke="#B6D7A8" stroke-width=".283" stroke-linecap="round" stroke-miterlimit="10" d="M65.912 29.97h-2.974l-.001.001v.906h2.976v-.906z"/><path fill-rule="evenodd" clip-rule="evenodd" fill="#B6D7A8" d="M65.912 31.813h-2.975v.907h2.976v-.907z"/><path fill="none" stroke="#B6D7A8" stroke-width=".283" stroke-linecap="round" stroke-miterlimit="10" d="M65.912 31.813h-2.975v.907h2.976v-.907z"/><path fill-rule="evenodd" clip-rule="evenodd" fill="#B6D7A8" d="M65.912 33.655h-2.974l-.001.001v.906l.001.001h2.974l.001-.001v-.906z"/><path fill="none" stroke="#B6D7A8" stroke-width=".283" stroke-linecap="round" stroke-miterlimit="10" d="M65.912 33.655h-2.974l-.001.001v.906l.001.001h2.974l.001-.001v-.906z"/><path fill-rule="evenodd" clip-rule="evenodd" fill="#B6D7A8" d="M65.912 35.498h-2.974l-.001.001v.906h2.976v-.906z"/><path fill="none" stroke="#B6D7A8" stroke-width=".283" stroke-linecap="round" stroke-miterlimit="10" d="M65.912 35.498h-2.974l-.001.001v.906h2.976v-.906z"/><path fill-rule="evenodd" clip-rule="evenodd" fill="#B6D7A8" d="M65.912 37.34h-2.974l-.001.001v.906l.001.001h2.974l.001-.001v-.906z"/><path fill="none" stroke="#B6D7A8" stroke-width=".283" stroke-linecap="round" stroke-miterlimit="10" d="M65.912 37.34h-2.974l-.001.001v.906l.001.001h2.974l.001-.001v-.906z"/><path fill-rule="evenodd" clip-rule="evenodd" fill="#B6D7A8" d="M65.912 39.183h-2.974l-.001.001v.906h2.976v-.906z"/><path fill="none" stroke="#B6D7A8" stroke-width=".283" stroke-linecap="round" stroke-miterlimit="10" d="M65.912 39.183h-2.974l-.001.001v.906h2.976v-.906z"/><path fill-rule="evenodd" clip-rule="evenodd" fill="#B6D7A8" d="M65.912 41.025h-2.974l-.001.001v.906l.001.001h2.974l.001-.001v-.906z"/><path fill="none" stroke="#B6D7A8" stroke-width=".283" stroke-linecap="round" stroke-miterlimit="10" d="M65.912 41.025h-2.974l-.001.001v.906l.001.001h2.974l.001-.001v-.906z"/><path fill-rule="evenodd" clip-rule="evenodd" fill="#B6D7A8" d="M65.912 42.869h-2.975v.906h2.976v-.906z"/><path fill="none" stroke="#B6D7A8" stroke-width=".283" stroke-linecap="round" stroke-miterlimit="10" d="M65.912 42.869h-2.975v.906h2.976v-.906z"/><path fill="none" stroke="#000" stroke-width=".283" stroke-linecap="round" stroke-miterlimit="10" d="M49.897 30.069h-2.834v.709h2.834v1.134h-2.834v.709h2.834v1.133h-2.834v.709h2.834v1.134h-2.834v.709h2.834v1.133h-2.834v.709h2.834v1.134h-2.834v.709h2.834v1.134h-2.834v.708h2.834v1.134h-2.834v.708h2.834v.426h12.472v-.426h2.835v-.708h-2.835v-1.134h2.835v-.708h-2.835v-1.134h2.835v-.709h-2.835v-1.134h2.835v-.709h-2.835v-1.133h2.835v-.709h-2.835v-1.134h2.835v-.709h-2.835v-1.133h2.835v-.709h-2.835v-1.134h2.835v-.709h-2.835v-.424H49.897zM63.903 30.07h-.079M63.903 30.778h-.079M63.263 30.07h-.224M63.467 30.07h-.204M63.637 30.07h-.17M63.759 30.07h-.122M63.824 30.07h-.065M63.263 30.778h-.224M63.467 30.778h-.204M63.637 30.778h-.17M63.759 30.778h-.122M63.824 30.778h-.065M65.204 30.07h-1.02M65.204 30.778v-.708M65.204 30.778h-1.02M63.926 30.778h-.023M63.971 30.778h-.045M64.03 30.778h-.059M64.104 30.778h-.074M64.184 30.778h-.08M63.926 30.07h-.023M63.971 30.07h-.045M64.03 30.07h-.059M64.104 30.07h-.074M64.184 30.07h-.08M63.039 30.07h-.695M63.039 30.778h-.695M48.509 30.07h-.067M48.63 30.07h-.121M48.8 30.07h-.17M49.005 30.07H48.8M49.226 30.07h-.221M48.509 30.778h-.067M48.63 30.778h-.121M48.8 30.778h-.17M49.005 30.778H48.8M49.226 30.778h-.221M48.442 30.07h-.078M48.442 30.778h-.078M48.163 30.778h-.08M48.233 30.778h-.07M48.296 30.778h-.063M48.338 30.778h-.042M48.364 30.778h-.026M48.163 30.07h-.08M48.233 30.07h-.07M48.296 30.07h-.063M48.338 30.07h-.042M48.364 30.07h-.026M48.083 30.07h-1.02M48.083 30.778h-1.02M47.063 30.778v-.708M49.923 30.778h-.697M49.923 30.07h-.697M63.903 31.912h-.079M63.903 32.621h-.079M63.263 31.912h-.224M63.467 31.912h-.204M63.637 31.912h-.17M63.759 31.912h-.122M63.824 31.912h-.065M63.263 32.621h-.224M63.467 32.621h-.204M63.637 32.621h-.17M63.759 32.621h-.122M63.824 32.621h-.065M65.204 31.912h-1.02M65.204 32.621v-.709M65.204 32.621h-1.02M63.926 32.621h-.023M63.971 32.621h-.045M64.03 32.621h-.059M64.104 32.621h-.074M64.184 32.621h-.08M63.926 31.912h-.023M63.971 31.912h-.045M64.03 31.912h-.059M64.104 31.912h-.074M64.184 31.912h-.08M63.039 31.912h-.695M63.039 32.621h-.695M48.509 31.912h-.067M48.63 31.912h-.121M48.8 31.912h-.17M49.005 31.912H48.8M49.226 31.912h-.221M48.509 32.621h-.067M48.63 32.621h-.121M48.8 32.621h-.17M49.005 32.621H48.8M49.226 32.621h-.221M48.442 31.912h-.078M48.442 32.621h-.078M48.163 32.621h-.08M48.233 32.621h-.07M48.296 32.621h-.063M48.338 32.621h-.042M48.364 32.621h-.026M48.163 31.912h-.08M48.233 31.912h-.07M48.296 31.912h-.063M48.338 31.912h-.042M48.364 31.912h-.026M48.083 31.912h-1.02M48.083 32.621h-1.02M47.063 32.621v-.709M49.923 32.621h-.697M49.923 31.912h-.697M63.903 33.754h-.079M63.903 34.463h-.079M63.263 33.754h-.224M63.467 33.754h-.204M63.637 33.754h-.17M63.759 33.754h-.122M63.824 33.754h-.065M63.263 34.463h-.224M63.467 34.463h-.204M63.637 34.463h-.17M63.759 34.463h-.122M63.824 34.463h-.065M65.204 33.754h-1.02M65.204 34.463v-.709M65.204 34.463h-1.02M63.926 34.463h-.023M63.971 34.463h-.045M64.03 34.463h-.059M64.104 34.463h-.074M64.184 34.463h-.08M63.926 33.754h-.023M63.971 33.754h-.045M64.03 33.754h-.059M64.104 33.754h-.074M64.184 33.754h-.08M63.039 33.754h-.695M63.039 34.463h-.695M48.509 33.754h-.067M48.63 33.754h-.121M48.8 33.754h-.17M49.005 33.754H48.8M49.226 33.754h-.221M48.509 34.463h-.067M48.63 34.463h-.121M48.8 34.463h-.17M49.005 34.463H48.8M49.226 34.463h-.221M48.442 33.754h-.078M48.442 34.463h-.078M48.163 34.463h-.08M48.233 34.463h-.07M48.296 34.463h-.063M48.338 34.463h-.042M48.364 34.463h-.026M48.163 33.754h-.08M48.233 33.754h-.07M48.296 33.754h-.063M48.338 33.754h-.042M48.364 33.754h-.026M48.083 33.754h-1.02M48.083 34.463h-1.02M47.063 34.463v-.709M49.923 34.463h-.697M49.923 33.754h-.697M63.903 35.597h-.079M63.903 36.306h-.079M63.263 35.597h-.224M63.467 35.597h-.204M63.637 35.597h-.17M63.759 35.597h-.122M63.824 35.597h-.065M63.263 36.306h-.224M63.467 36.306h-.204M63.637 36.306h-.17M63.759 36.306h-.122M63.824 36.306h-.065M65.204 35.597h-1.02M65.204 36.306v-.709M65.204 36.306h-1.02M63.926 36.306h-.023M63.971 36.306h-.045M64.03 36.306h-.059M64.104 36.306h-.074M64.184 36.306h-.08M63.926 35.597h-.023M63.971 35.597h-.045M64.03 35.597h-.059M64.104 35.597h-.074M64.184 35.597h-.08M63.039 35.597h-.695M63.039 36.306h-.695M48.509 35.597h-.067M48.63 35.597h-.121M48.8 35.597h-.17M49.005 35.597H48.8M49.226 35.597h-.221M48.509 36.306h-.067M48.63 36.306h-.121M48.8 36.306h-.17M49.005 36.306H48.8M49.226 36.306h-.221M48.442 35.597h-.078M48.442 36.306h-.078M48.163 36.306h-.08M48.233 36.306h-.07M48.296 36.306h-.063M48.338 36.306h-.042M48.364 36.306h-.026M48.163 35.597h-.08M48.233 35.597h-.07M48.296 35.597h-.063M48.338 35.597h-.042M48.364 35.597h-.026M48.083 35.597h-1.02M48.083 36.306h-1.02M47.063 36.306v-.709M49.923 36.306h-.697M49.923 35.597h-.697M63.903 37.439h-.079M63.903 38.148h-.079M63.263 37.439h-.224M63.467 37.439h-.204M63.637 37.439h-.17M63.759 37.439h-.122M63.824 37.439h-.065M63.263 38.148h-.224M63.467 38.148h-.204M63.637 38.148h-.17M63.759 38.148h-.122M63.824 38.148h-.065M65.204 37.439h-1.02M65.204 38.148v-.709M65.204 38.148h-1.02M63.926 38.148h-.023M63.971 38.148h-.045M64.03 38.148h-.059M64.104 38.148h-.074M64.184 38.148h-.08M63.926 37.439h-.023M63.971 37.439h-.045M64.03 37.439h-.059M64.104 37.439h-.074M64.184 37.439h-.08M63.039 37.439h-.695M63.039 38.148h-.695M48.509 37.439h-.067M48.63 37.439h-.121M48.8 37.439h-.17M49.005 37.439H48.8M49.226 37.439h-.221M48.509 38.148h-.067M48.63 38.148h-.121M48.8 38.148h-.17M49.005 38.148H48.8M49.226 38.148h-.221M48.442 37.439h-.078M48.442 38.148h-.078M48.163 38.148h-.08M48.233 38.148h-.07M48.296 38.148h-.063M48.338 38.148h-.042M48.364 38.148h-.026M48.163 37.439h-.08M48.233 37.439h-.07M48.296 37.439h-.063M48.338 37.439h-.042M48.364 37.439h-.026M48.083 37.439h-1.02M48.083 38.148h-1.02M47.063 38.148v-.709M49.923 38.148h-.697M49.923 37.439h-.697M63.903 39.282h-.079M63.903 39.991h-.079M63.263 39.282h-.224M63.467 39.282h-.204M63.637 39.282h-.17M63.759 39.282h-.122M63.824 39.282h-.065M63.263 39.991h-.224M63.467 39.991h-.204M63.637 39.991h-.17M63.759 39.991h-.122M63.824 39.991h-.065M65.204 39.282h-1.02M65.204 39.991v-.709M65.204 39.991h-1.02M63.926 39.991h-.023M63.971 39.991h-.045M64.03 39.991h-.059M64.104 39.991h-.074M64.184 39.991h-.08M63.926 39.282h-.023M63.971 39.282h-.045M64.03 39.282h-.059M64.104 39.282h-.074M64.184 39.282h-.08M63.039 39.282h-.695M63.039 39.991h-.695M48.509 39.282h-.067M48.63 39.282h-.121M48.8 39.282h-.17M49.005 39.282H48.8M49.226 39.282h-.221M48.509 39.991h-.067M48.63 39.991h-.121M48.8 39.991h-.17M49.005 39.991H48.8M49.226 39.991h-.221M48.442 39.282h-.078M48.442 39.991h-.078M48.163 39.991h-.08M48.233 39.991h-.07M48.296 39.991h-.063M48.338 39.991h-.042M48.364 39.991h-.026M48.163 39.282h-.08M48.233 39.282h-.07M48.296 39.282h-.063M48.338 39.282h-.042M48.364 39.282h-.026M48.083 39.282h-1.02M48.083 39.991h-1.02M47.063 39.991v-.709M49.923 39.991h-.697M49.923 39.282h-.697M63.903 41.125h-.079M63.903 41.833h-.079M63.263 41.125h-.224M63.467 41.125h-.204M63.637 41.125h-.17M63.759 41.125h-.122M63.824 41.125h-.065M63.263 41.833h-.224M63.467 41.833h-.204M63.637 41.833h-.17M63.759 41.833h-.122M63.824 41.833h-.065M65.204 41.125h-1.02M65.204 41.833v-.708M65.204 41.833h-1.02M63.926 41.833h-.023M63.971 41.833h-.045M64.03 41.833h-.059M64.104 41.833h-.074M64.184 41.833h-.08M63.926 41.125h-.023M63.971 41.125h-.045M64.03 41.125h-.059M64.104 41.125h-.074M64.184 41.125h-.08M63.039 41.125h-.695M63.039 41.833h-.695M48.509 41.125h-.067M48.63 41.125h-.121M48.8 41.125h-.17M49.005 41.125H48.8M49.226 41.125h-.221M48.509 41.833h-.067M48.63 41.833h-.121M48.8 41.833h-.17M49.005 41.833H48.8M49.226 41.833h-.221M48.442 41.125h-.078M48.442 41.833h-.078M48.163 41.833h-.08M48.233 41.833h-.07M48.296 41.833h-.063M48.338 41.833h-.042M48.364 41.833h-.026M48.163 41.125h-.08M48.233 41.125h-.07M48.296 41.125h-.063M48.338 41.125h-.042M48.364 41.125h-.026M48.083 41.125h-1.02M48.083 41.833h-1.02M47.063 41.833v-.708M49.923 41.833h-.697M49.923 41.125h-.697M60.785 41.975l-.017.142M60.768 42.117l-.054.131M60.714 42.248l-.088.11M60.626 42.358l-.11.088M60.516 42.446l-.133.054M60.383 42.5l-.14.017M60.243 42.517l-.141-.017M60.102 42.5l-.13-.054M59.972 42.446l-.111-.088M59.861 42.358l-.088-.11M59.773 42.248l-.054-.131M59.719 42.117l-.017-.142M60.952 41.975l-.025.185M60.927 42.16l-.072.17M60.855 42.33l-.11.147M60.745 42.477l-.147.113M60.598 42.59l-.17.072M60.428 42.662l-.185.021M60.243 42.683l-.183-.021M60.06 42.662l-.17-.072M59.89 42.59l-.148-.113M59.742 42.477l-.113-.147M59.629 42.33l-.071-.17M59.558 42.16l-.023-.185M61.953 43.685h-11.64M50.313 43.685V30.061M50.313 43.685l-.416.416M49.923 41.833v-.708M49.923 39.991v-.709M49.923 38.148v-.709M49.923 36.306v-.709M49.923 34.463v-.709M49.923 32.621v-.709M49.923 30.778v-.708M61.953 30.061h-11.64M50.313 30.061l-.416-.416M62.369 29.645H49.897M49.897 31.912v-1.134M49.897 33.754v-1.133M49.897 35.597v-1.134M49.897 37.439v-1.133M49.897 39.282v-1.134M49.897 41.125v-1.134M49.897 42.967v-1.134M49.897 44.101v-.426M49.897 30.07v-.425M62.369 44.101H49.897M62.344 30.778v-.708M62.344 32.621v-.709M62.344 34.463v-.709M62.344 36.306v-.709M62.344 38.148v-.709M62.344 39.991v-.709M62.344 41.833v-.708M62.369 44.101l-.416-.416M61.953 43.685V30.061M62.369 29.645l-.416.416M62.369 44.101v-.426M62.369 42.967v-1.134M62.369 41.125v-1.134M62.369 39.282v-1.134M62.369 37.439v-1.133M62.369 35.597v-1.134M62.369 33.754v-1.133M62.369 31.912v-1.134M62.369 30.07v-.425M59.719 41.836l-.017.139M59.773 41.703l-.054.133M59.861 41.592l-.088.111M59.972 41.504l-.111.088M60.102 41.451l-.13.053M60.243 41.433l-.141.018M60.383 41.451l-.14-.018M60.516 41.504l-.133-.053M60.626 41.592l-.11-.088M60.714 41.703l-.088-.111M60.768 41.836l-.054-.133M60.785 41.975l-.017-.139M59.558 41.791l-.023.184M59.629 41.621l-.071.17M59.742 41.473l-.113.148M59.89 41.363l-.148.11M60.06 41.292l-.17.071M60.243 41.267l-.183.025M60.428 41.292l-.185-.025M60.598 41.363l-.17-.071M60.745 41.473l-.147-.11M60.855 41.621l-.11-.148M60.927 41.791l-.072-.17M60.952 41.975l-.025-.184M49.923 42.967h-.697M49.923 43.675h-.697M48.509 42.967h-.067M48.63 42.967h-.121M48.8 42.967h-.17M49.005 42.967H48.8M49.226 42.967h-.221M48.509 43.675h-.067M48.63 43.675h-.121M48.8 43.675h-.17M49.005 43.675H48.8M49.226 43.675h-.221M48.442 42.967h-.078M48.442 43.675h-.078M48.163 43.675h-.08M48.233 43.675h-.07M48.296 43.675h-.063M48.338 43.675h-.042M48.364 43.675h-.026M48.163 42.967h-.08M48.233 42.967h-.07M48.296 42.967h-.063M48.338 42.967h-.042M48.364 42.967h-.026M48.083 42.967h-1.02M48.083 43.675h-1.02M47.063 43.675v-.708M63.903 42.967h-.079M63.903 43.675h-.079M63.263 42.967h-.224M63.467 42.967h-.204M63.637 42.967h-.17M63.759 42.967h-.122M63.824 42.967h-.065M63.263 43.675h-.224M63.467 43.675h-.204M63.637 43.675h-.17M63.759 43.675h-.122M63.824 43.675h-.065M63.039 42.967h-.695M63.039 43.675h-.695M65.204 42.967h-1.02M65.204 43.675v-.708M65.204 43.675h-1.02M63.926 43.675h-.023M63.971 43.675h-.045M64.03 43.675h-.059M64.104 43.675h-.074M64.184 43.675h-.08M63.926 42.967h-.023M63.971 42.967h-.045M64.03 42.967h-.059M64.104 42.967h-.074M64.184 42.967h-.08M63.824 30.778v-.708M64.184 30.778v-.708M63.903 30.778v-.708M63.039 30.778v-.708M48.442 30.778v-.708M48.364 30.778v-.708M48.083 30.778v-.708M49.226 30.778v-.708M63.824 32.621v-.709M64.184 32.621v-.709M63.903 32.621v-.709M63.039 32.621v-.709M48.442 32.621v-.709M48.364 32.621v-.709M48.083 32.621v-.709M49.226 32.621v-.709M63.824 34.463v-.709M64.184 34.463v-.709M63.903 34.463v-.709M63.039 34.463v-.709M48.442 34.463v-.709M48.364 34.463v-.709M48.083 34.463v-.709M49.226 34.463v-.709M63.824 36.306v-.709M64.184 36.306v-.709M63.903 36.306v-.709M63.039 36.306v-.709M48.442 36.306v-.709M48.364 36.306v-.709M48.083 36.306v-.709M49.226 36.306v-.709M63.824 38.148v-.709M64.184 38.148v-.709M63.903 38.148v-.709M63.039 38.148v-.709M48.442 38.148v-.709M48.364 38.148v-.709M48.083 38.148v-.709M49.226 38.148v-.709M63.824 39.991v-.709M64.184 39.991v-.709M63.903 39.991v-.709M63.039 39.991v-.709M48.442 39.991v-.709M48.364 39.991v-.709M48.083 39.991v-.709M49.226 39.991v-.709M63.824 41.833v-.708M64.184 41.833v-.708M63.903 41.833v-.708M63.039 41.833v-.708M48.442 41.833v-.708M48.364 41.833v-.708M48.083 41.833v-.708M49.226 41.833v-.708M60.952 41.975h-.167M59.702 41.975h-.167M49.226 43.675v-.708M48.442 43.675v-.708M48.364 43.675v-.708M48.083 43.675v-.708M63.824 43.675v-.708M63.039 43.675v-.708M64.184 43.675v-.708M63.903 43.675v-.708"/><path fill-rule="evenodd" clip-rule="evenodd" fill="#B6D7A8" d="M60.5 76.203h3.399l.001-.002v-5.836h-.001l-.001-.002H60.5l-.001.002v5.838z"/><path fill="none" stroke="#B6D7A8" stroke-width=".283" stroke-linecap="round" stroke-miterlimit="10" d="M60.5 76.203h3.399l.001-.002v-5.836h-.001l-.001-.002H60.5l-.001.002v5.838z"/><path fill-rule="evenodd" clip-rule="evenodd" fill="#B6D7A8" d="M67.7 76.203h3.4l.001-.002v-5.836H71.1l-.001-.002H67.7l-.001.002h-.001v5.836l.001.002z"/><path fill="none" stroke="#B6D7A8" stroke-width=".283" stroke-linecap="round" stroke-miterlimit="10" d="M67.7 76.203h3.4l.001-.002v-5.836H71.1l-.001-.002H67.7l-.001.002h-.001v5.836l.001.002z"/><path fill-rule="evenodd" clip-rule="evenodd" fill="#B6D7A8" d="M53.301 76.203H56.7v-5.838l-.002-.002h-3.397l-.002.002v5.838z"/><path fill="none" stroke="#B6D7A8" stroke-width=".283" stroke-linecap="round" stroke-miterlimit="10" d="M53.301 76.203H56.7v-5.838l-.002-.002h-3.397l-.002.002v5.838z"/><path fill-rule="evenodd" clip-rule="evenodd" fill="#B6D7A8" d="M46.101 76.203H49.5l.001-.002v-5.836H49.5l-.001-.002h-3.398l-.002.002v5.838z"/><path fill="none" stroke="#B6D7A8" stroke-width=".283" stroke-linecap="round" stroke-miterlimit="10" d="M46.101 76.203H49.5l.001-.002v-5.836H49.5l-.001-.002h-3.398l-.002.002v5.838z"/><path fill-rule="evenodd" clip-rule="evenodd" fill="#B6D7A8" d="M38.9 76.203h3.4v-5.838l-.001-.002H38.9l-.001.002v5.838z"/><path fill="none" stroke="#B6D7A8" stroke-width=".283" stroke-linecap="round" stroke-miterlimit="10" d="M38.9 76.203h3.4v-5.838l-.001-.002H38.9l-.001.002v5.838z"/><path fill-rule="evenodd" clip-rule="evenodd" fill="#A4C2F4" d="M40.6 81.037a1.984 1.984 0 1 0 0-3.969 1.984 1.984 0 0 0 0 3.969z"/><path fill="none" stroke="#A4C2F4" stroke-width=".283" stroke-linecap="round" stroke-miterlimit="10" d="M40.6 81.037a1.984 1.984 0 1 0 0-3.969 1.984 1.984 0 0 0 0 3.969z"/><path fill-rule="evenodd" clip-rule="evenodd" fill="#A4C2F4" d="M47.8 81.037a1.984 1.984 0 1 0 0-3.969 1.984 1.984 0 0 0 0 3.969z"/><path fill="none" stroke="#A4C2F4" stroke-width=".283" stroke-linecap="round" stroke-miterlimit="10" d="M47.8 81.037a1.984 1.984 0 1 0 0-3.969 1.984 1.984 0 0 0 0 3.969z"/><path fill-rule="evenodd" clip-rule="evenodd" fill="#A4C2F4" d="M55 81.037a1.983 1.983 0 1 0 0-3.967 1.983 1.983 0 0 0 0 3.967z"/><path fill="none" stroke="#A4C2F4" stroke-width=".283" stroke-linecap="round" stroke-miterlimit="10" d="M55 81.037a1.983 1.983 0 1 0 0-3.967 1.983 1.983 0 0 0 0 3.967z"/><path fill-rule="evenodd" clip-rule="evenodd" fill="#A4C2F4" d="M62.199 81.037a1.984 1.984 0 1 0 0-3.967 1.984 1.984 0 0 0 0 3.967z"/><path fill="none" stroke="#A4C2F4" stroke-width=".283" stroke-linecap="round" stroke-miterlimit="10" d="M62.199 81.037a1.984 1.984 0 1 0 0-3.967 1.984 1.984 0 0 0 0 3.967z"/><path fill-rule="evenodd" clip-rule="evenodd" fill="#A4C2F4" d="M69.399 81.037a1.984 1.984 0 1 0 0-3.969 1.984 1.984 0 0 0 0 3.969z"/><path fill="none" stroke="#A4C2F4" stroke-width=".283" stroke-linecap="round" stroke-miterlimit="10" d="M69.399 81.037a1.984 1.984 0 1 0 0-3.969 1.984 1.984 0 0 0 0 3.969z"/></svg>