<svg xmlns="http://www.w3.org/2000/svg" xmlns:xlink="http://www.w3.org/1999/xlink" viewBox="0 0 109.417 113.386"><path fill-rule="evenodd" clip-rule="evenodd" fill="#FFF" d="M3.113 87.046h103.749V18.873H35.995a1.416 1.416 0 0 1-1.417-1.417V2.574H8.499v14.882a1.414 1.414 0 0 1-1.417 1.417H3.113v68.173z"/><path fill-rule="evenodd" clip-rule="evenodd" fill="#D9EAD3" d="M60.488 80.456h3.399v-5.839h-3.401v5.839z"/><path fill="none" stroke="#D9EAD3" stroke-width=".283" stroke-linecap="round" stroke-miterlimit="10" d="M60.488 80.456h3.399v-5.839h-3.401v5.839z"/><path fill-rule="evenodd" clip-rule="evenodd" fill="#D9EAD3" d="M67.688 80.456h3.4v-5.839H67.686v5.839z"/><path fill="none" stroke="#D9EAD3" stroke-width=".283" stroke-linecap="round" stroke-miterlimit="10" d="M67.688 80.456h3.4v-5.839H67.686v5.839z"/><path fill-rule="evenodd" clip-rule="evenodd" fill="#D9EAD3" d="M53.287 80.456h3.401v-5.839h-3.401l-.002.001v5.836l.002.002z"/><path fill="none" stroke="#D9EAD3" stroke-width=".283" stroke-linecap="round" stroke-miterlimit="10" d="M53.287 80.456h3.401v-5.839h-3.401l-.002.001v5.836l.002.002z"/><path fill-rule="evenodd" clip-rule="evenodd" fill="#D9EAD3" d="M46.087 80.456h3.4v-5.839h-3.401v5.839z"/><path fill="none" stroke="#D9EAD3" stroke-width=".283" stroke-linecap="round" stroke-miterlimit="10" d="M46.087 80.456h3.4v-5.839h-3.401v5.839z"/><path fill-rule="evenodd" clip-rule="evenodd" fill="#D9EAD3" d="M38.888 80.456h3.4v-5.839H38.886v5.839z"/><path fill="none" stroke="#D9EAD3" stroke-width=".283" stroke-linecap="round" stroke-miterlimit="10" d="M38.888 80.456h3.4v-5.839H38.886v5.839z"/><path fill-rule="evenodd" clip-rule="evenodd" fill="#FFF" d="M3.113 87.046h103.749V18.873H35.995a1.416 1.416 0 0 1-1.417-1.417V2.574H8.499v14.882a1.414 1.414 0 0 1-1.417 1.417H3.113v68.173z"/><path fill="none" stroke="#000" stroke-width=".567" stroke-linecap="round" stroke-miterlimit="10" d="M3.113 87.046h103.749V18.873H35.995a1.416 1.416 0 0 1-1.417-1.417V2.574H8.499v14.882a1.414 1.414 0 0 1-1.417 1.417H3.113v68.173z"/><path fill-rule="evenodd" clip-rule="evenodd" fill="#FFF" d="M98.924 44.526a2.835 2.835 0 1 0-.002-5.67 2.835 2.835 0 0 0 .002 5.67z"/><path fill="none" stroke="#000" stroke-width=".283" stroke-linecap="round" stroke-miterlimit="10" d="M98.924 44.526a2.835 2.835 0 1 0-.002-5.67 2.835 2.835 0 0 0 .002 5.67z"/><path fill-rule="evenodd" clip-rule="evenodd" fill="#FFF" d="M11.05 44.526a2.834 2.834 0 1 0 0-5.668 2.834 2.834 0 0 0 0 5.668z"/><path fill="none" stroke="#000" stroke-width=".283" stroke-linecap="round" stroke-miterlimit="10" d="M11.05 44.526a2.834 2.834 0 1 0 0-5.668 2.834 2.834 0 0 0 0 5.668z"/><defs><path id="W" d="M3.113 87.046h103.749V18.873H35.995a1.416 1.416 0 0 1-1.417-1.417V2.574H8.499v14.882a1.414 1.414 0 0 1-1.417 1.417H3.113v68.173z"/></defs><clipPath id="X"><use xlink:href="#W" overflow="visible"/></clipPath><path clip-path="url(#X)" fill="none" stroke="#000" stroke-width=".425" stroke-linecap="round" stroke-miterlimit="10" d="M9.987 32.196H7.72M7.72 32.196l1.133 1.134M8.853 33.33v-1.512M8.853 31.063v-1.512M8.476 28.796h1.133M9.609 28.796l.378-.378M9.987 28.418l-.378-.378M9.609 28.04l.378-.378M9.987 27.662l-.378-.377M9.609 27.285H8.476M9.987 26.529v-.756M9.987 25.773v.378M9.987 26.151H8.476M8.476 26.151v.378M8.476 24.64h1.511M9.987 24.64h-.756M9.231 24.64l-.378-.378M8.853 24.262l-.377-.378M8.476 23.884v-.378M9.987 21.239v.756M9.987 21.995l-.378.378M9.609 22.373h-.756M8.853 22.373l-.377-.378M8.476 21.995v-.756M8.476 21.239l.377-.378M8.853 20.861h.378M9.231 20.861v1.512M6.514 35.456H3.681M3.681 35.456v-1.417M3.681 34.039l.472-.473M4.153 33.566h.944M5.097 33.566l.473.473M5.57 34.039v1.417M5.57 34.511l.944-.945M4.153 30.733l-.472.472M3.681 31.205v.945M3.681 32.15l.472.472M4.153 32.622h.472M4.625 32.622l.472-.472M5.097 32.15v-.945M5.097 31.205l.473-.472M5.57 30.733h.472M6.042 30.733l.472.472M6.514 31.205v.945M6.514 32.15l-.472.472M5.097 29.788v-1.889M6.514 25.538H3.681M3.681 25.538l1.416 1.417M5.097 26.955v-1.89M4.153 24.121l-.472-.473M3.681 23.648v-.944M3.681 22.704l.472-.473M4.153 22.231h.472M4.625 22.231l.472.473M5.097 22.704l.473-.473M5.57 22.231h.472M6.042 22.231l.472.473M6.514 22.704v.944M6.514 23.648l-.472.473M6.042 24.121H5.57M5.57 24.121l-.473-.473M5.097 23.648l-.472.473M4.625 24.121h-.472M5.097 23.648v-.944M3.681 19.398v1.889M3.681 21.287h1.416M5.097 21.287l-.472-.944M4.625 20.343v-.473M4.625 19.87l.472-.472M5.097 19.398h.945M6.042 19.398l.472.472M6.514 19.87v.945M6.514 20.815l-.472.472M47.049 32.905h1.89M48.939 32.905h-.944M47.995 32.905v2.834M51.772 32.905h-1.889M49.883 32.905v2.834M49.883 35.739h1.889M49.883 34.322h.946M52.717 35.739v-2.834M52.717 32.905h1.416M54.133 32.905l.472.473M54.605 33.378v.944M54.605 34.322l-.472.472M54.133 34.794h-1.416M53.662 34.794l.943.945M55.551 35.739v-2.834M55.551 32.905l.945.945M56.496 33.85l.943-.945M57.439 32.905v2.834M58.385 35.739h.945M59.33 35.739h-.473M58.857 35.739v-2.834M58.857 32.905l-.472.473M69.443 32.905h1.889M71.332 32.905h-.943M70.389 32.905v2.834M74.166 32.905h-1.889M72.277 32.905v2.834M72.277 35.739h1.889M72.277 34.322h.946M75.111 35.739v-2.834M75.111 32.905h1.416M76.527 32.905l.473.473M77 33.378v.944M77 34.322l-.473.472M76.527 34.794h-1.416M76.055 34.794l.945.945M77.945 35.739v-2.834M77.945 32.905l.944.945M78.889 33.85l.945-.945M79.834 32.905v2.834M82.668 35.739h-1.891M80.777 35.739l1.891-1.889M82.668 33.85v-.472M82.668 33.378l-.473-.473M82.195 32.905h-.945M81.25 32.905l-.471.473"/><path clip-path="url(#X)" fill="none" stroke="#000" stroke-width=".567" stroke-linecap="round" stroke-miterlimit="10" d="M45.845 69.685v2.834M45.845 72.519h1.417M47.262 72.519l.472-.473M47.734 72.046v-.472M47.734 71.574l-.472-.472M47.262 71.102h-1.417M45.845 71.102h1.417M47.262 71.102l.472-.473M47.734 70.629v-.471M47.734 70.158l-.472-.473M47.262 69.685h-1.417M48.678 72.519h.946M49.624 72.519h-.473M49.151 72.519v-2.834M49.151 69.685l-.473.473M38.758 72.519v-1.89M38.758 70.629l.945-.944M39.703 69.685l.944.944M40.647 70.629v1.89M40.647 72.519v-1.417M40.647 71.102h-1.889M41.592 72.519h.945M42.537 72.519h-.472M42.065 72.519v-2.834M42.065 69.685l-.473.473M69.277 70.299l-.472-.472M68.805 69.827h-.944M67.861 69.827l-.472.472M67.389 70.299v1.889M67.389 72.188l.472.473M67.861 72.661h.944M68.805 72.661l.472-.473M69.277 72.188v-.944M69.277 71.244h-.945M70.223 72.661v-2.834M70.223 69.827l1.888 2.834M72.111 72.661v-2.834M73.057 69.827v2.834M73.057 72.661h1.416M74.473 72.661l.472-.473M74.945 72.188v-1.889M74.945 70.299l-.472-.472M74.473 69.827h-1.416M88.623 61.441l-.471-.473M88.152 60.968h-.945M87.207 60.968l-.473.473M86.734 61.441v1.889M86.734 63.33l.473.472M87.207 63.802h.945M88.152 63.802l.471-.472M88.623 63.33v-.945M88.623 62.385h-.943M89.568 63.802v-2.834M89.568 60.968l1.889 2.834M91.457 63.802v-2.834M92.402 60.968v2.834M92.402 63.802h1.416M93.818 63.802l.473-.472M94.291 63.33v-1.889M94.291 61.441l-.473-.473M93.818 60.968h-1.416M52.932 72.519v-1.89M52.932 70.629l.943-.944M53.875 69.685l.945.944M54.82 70.629v1.89M54.82 72.519v-1.417M54.82 71.102h-1.888M57.654 72.519h-1.888M55.766 72.519l1.888-1.89M57.654 70.629v-.471M57.654 70.158l-.472-.473M57.182 69.685h-.944M56.238 69.685l-.472.473M60.018 69.756v2.833M60.018 72.589h1.418M61.436 72.589l.472-.471M61.908 72.118v-.473M61.908 71.645l-.472-.473M61.436 71.172h-1.418M60.018 71.172h1.418M61.436 71.172l.472-.471M61.908 70.701v-.473M61.908 70.228l-.472-.472M61.436 69.756h-1.418M64.74 72.589h-1.888M62.852 72.589l1.888-1.888M64.74 70.701v-.473M64.74 70.228l-.47-.472M64.27 69.756h-.946M63.324 69.756l-.472.472"/><path fill-rule="evenodd" clip-rule="evenodd" fill="#FFF" d="M9.831 3.906h22.28v8.674H9.831z"/><path fill-rule="evenodd" clip-rule="evenodd" fill="#D9EAD3" d="M32.026 12.494V6.26l-.001-.001h-1.699l-.001.001v6.234l.001.001h1.699z"/><path fill="none" stroke="#D9EAD3" stroke-width=".283" stroke-linecap="round" stroke-miterlimit="10" d="M32.026 12.494V6.26l-.001-.001h-1.699l-.001.001v6.234l.001.001h1.699z"/><path fill-rule="evenodd" clip-rule="evenodd" fill="#D9EAD3" d="M29.758 12.494V6.26l-.001-.001h-1.698l-.001.001v6.234l.001.001h1.698z"/><path fill="none" stroke="#D9EAD3" stroke-width=".283" stroke-linecap="round" stroke-miterlimit="10" d="M29.758 12.494V6.26l-.001-.001h-1.698l-.001.001v6.234l.001.001h1.698z"/><path fill-rule="evenodd" clip-rule="evenodd" fill="#D9EAD3" d="M27.491 12.494V6.26l-.001-.001h-1.699l-.001.001v6.234l.001.001h1.699z"/><path fill="none" stroke="#D9EAD3" stroke-width=".283" stroke-linecap="round" stroke-miterlimit="10" d="M27.491 12.494V6.26l-.001-.001h-1.699l-.001.001v6.234l.001.001h1.699z"/><path fill-rule="evenodd" clip-rule="evenodd" fill="#D9EAD3" d="M25.223 12.494V6.26l-.001-.001h-1.699l-.001.001v6.234l.001.001h1.699z"/><path fill="none" stroke="#D9EAD3" stroke-width=".283" stroke-linecap="round" stroke-miterlimit="10" d="M25.223 12.494V6.26l-.001-.001h-1.699l-.001.001v6.234l.001.001h1.699z"/><path fill-rule="evenodd" clip-rule="evenodd" fill="#D9EAD3" d="M22.955 12.494V6.26l-.001-.001h-1.699l-.001.001v6.234l.001.001h1.699z"/><path fill="none" stroke="#D9EAD3" stroke-width=".283" stroke-linecap="round" stroke-miterlimit="10" d="M22.955 12.494V6.26l-.001-.001h-1.699l-.001.001v6.234l.001.001h1.699z"/><path fill-rule="evenodd" clip-rule="evenodd" fill="#D9EAD3" d="M20.688 12.494V6.26l-.001-.001h-1.699l-.001.001v6.234l.001.001h1.699z"/><path fill="none" stroke="#D9EAD3" stroke-width=".283" stroke-linecap="round" stroke-miterlimit="10" d="M20.688 12.494V6.26l-.001-.001h-1.699l-.001.001v6.234l.001.001h1.699z"/><path fill-rule="evenodd" clip-rule="evenodd" fill="#D9EAD3" d="M18.42 12.494V6.26l-.001-.001H16.72l-.001.001v6.234l.001.001h1.699z"/><path fill="none" stroke="#D9EAD3" stroke-width=".283" stroke-linecap="round" stroke-miterlimit="10" d="M18.42 12.494V6.26l-.001-.001H16.72l-.001.001v6.234l.001.001h1.699z"/><path fill-rule="evenodd" clip-rule="evenodd" fill="#D9EAD3" d="M16.152 12.494V6.26l-.001-.001h-1.699l-.001.001v6.234l.001.001h1.699z"/><path fill="none" stroke="#D9EAD3" stroke-width=".283" stroke-linecap="round" stroke-miterlimit="10" d="M16.152 12.494V6.26l-.001-.001h-1.699l-.001.001v6.234l.001.001h1.699z"/><path fill-rule="evenodd" clip-rule="evenodd" fill="#D9EAD3" d="M13.884 12.494V6.26l-.001-.001h-1.698l-.001.001v6.234l.001.001h1.698z"/><path fill="none" stroke="#D9EAD3" stroke-width=".283" stroke-linecap="round" stroke-miterlimit="10" d="M13.884 12.494V6.26l-.001-.001h-1.698l-.001.001v6.234l.001.001h1.698z"/><path fill-rule="evenodd" clip-rule="evenodd" fill="#D9EAD3" d="M11.617 12.494V3.992h-.001v-.001H9.917l-.001.001v8.503h1.7z"/><path fill="none" stroke="#D9EAD3" stroke-width=".283" stroke-linecap="round" stroke-miterlimit="10" d="M11.617 12.494V3.992h-.001v-.001H9.917l-.001.001v8.503h1.7z"/><path fill="none" stroke="#000" stroke-width=".283" stroke-linecap="round" stroke-miterlimit="10" d="M9.831 3.906h22.28v8.674H9.831z"/><path fill-rule="evenodd" clip-rule="evenodd" fill="#FFF" d="M4.034 80.527h5.669v5.669H4.034z"/><path fill-rule="evenodd" clip-rule="evenodd" fill="#D9EAD3" d="M6.869 84.637a1.275 1.275 0 1 0 0-2.55 1.275 1.275 0 0 0 0 2.55z"/><path fill="none" stroke="#D9EAD3" stroke-width=".283" stroke-linecap="round" stroke-miterlimit="10" d="M6.869 84.637a1.275 1.275 0 1 0 0-2.55 1.275 1.275 0 0 0 0 2.55z"/><path fill="none" stroke="#000" stroke-width=".283" stroke-linecap="round" stroke-miterlimit="10" d="M4.034 80.527h5.669v5.669H4.034z"/><path fill-rule="evenodd" clip-rule="evenodd" fill="#FFF" d="M100.342 19.865h5.668v5.669h-5.668z"/><path fill-rule="evenodd" clip-rule="evenodd" fill="#D9EAD3" d="M103.176 23.976a1.275 1.275 0 1 0 0-2.55 1.275 1.275 0 0 0 0 2.55z"/><path fill="none" stroke="#D9EAD3" stroke-width=".283" stroke-linecap="round" stroke-miterlimit="10" d="M103.176 23.976a1.275 1.275 0 1 0 0-2.55 1.275 1.275 0 0 0 0 2.55z"/><path fill="none" stroke="#000" stroke-width=".283" stroke-linecap="round" stroke-miterlimit="10" d="M100.342 19.865h5.668v5.669h-5.668z"/><path fill-rule="evenodd" clip-rule="evenodd" fill="#FFF" d="M74.686 57.779v-2.691h-4.817v2.691h4.053zM74.686 55.088h-.764M73.922 57.779v-2.691M74.686 57.779h-.764M74.686 57.779v-2.691M73.922 57.779h-3.291M70.631 57.779v-2.691M73.922 55.088h-3.291M73.922 57.779v-2.691M70.631 57.779h-.762M69.869 57.779v-2.691M70.631 55.088h-.762M70.631 57.779v-2.691"/><path fill-rule="evenodd" clip-rule="evenodd" fill="#D9EAD3" d="M69.301 55.158v2.549l.002.001h1.982V55.157h-1.982z"/><path fill="none" stroke="#D9EAD3" stroke-width=".283" stroke-linecap="round" stroke-miterlimit="10" d="M69.301 55.158v2.549l.002.001h1.982V55.157h-1.982z"/><path fill-rule="evenodd" clip-rule="evenodd" fill="#D9EAD3" d="M73.27 55.158v2.549l.001.001h1.983V55.157h-1.983z"/><path fill="none" stroke="#D9EAD3" stroke-width=".283" stroke-linecap="round" stroke-miterlimit="10" d="M73.27 55.158v2.549l.001.001h1.983V55.157h-1.983z"/><path fill="none" stroke="#000" stroke-width=".283" stroke-linecap="round" stroke-miterlimit="10" d="M74.686 57.779v-2.691h-4.817v2.691h4.053zM74.686 55.088h-.764M73.922 57.779v-2.691M74.686 57.779h-.764M74.686 57.779v-2.691M73.922 57.779h-3.291M70.631 57.779v-2.691M73.922 55.088h-3.291M73.922 57.779v-2.691M70.631 57.779h-.762M69.869 57.779v-2.691M70.631 55.088h-.762M70.631 57.779v-2.691"/><path fill-rule="evenodd" clip-rule="evenodd" fill="#FFF" d="M34.574 57.849V55.16h-4.816v2.689h4.054zM34.574 55.16h-.762M33.812 57.849V55.16M34.574 57.849h-.762M34.574 57.849V55.16M33.812 57.849h-3.291M30.521 57.849V55.16M33.812 55.16h-3.291M33.812 57.849V55.16M30.521 57.849h-.763M29.758 57.849V55.16M30.521 55.16h-.763M30.521 57.849V55.16"/><path fill-rule="evenodd" clip-rule="evenodd" fill="#D9EAD3" d="M29.191 55.228v2.55l.001.001h1.983l.001-.001v-2.55l-.001-.001h-1.983z"/><path fill="none" stroke="#D9EAD3" stroke-width=".283" stroke-linecap="round" stroke-miterlimit="10" d="M29.191 55.228v2.55l.001.001h1.983l.001-.001v-2.55l-.001-.001h-1.983z"/><path fill-rule="evenodd" clip-rule="evenodd" fill="#D9EAD3" d="M33.16 55.228v2.55l.001.001h1.982l.001-.001v-2.55l-.001-.001h-1.982z"/><path fill="none" stroke="#D9EAD3" stroke-width=".283" stroke-linecap="round" stroke-miterlimit="10" d="M33.16 55.228v2.55l.001.001h1.982l.001-.001v-2.55l-.001-.001h-1.982z"/><path fill="none" stroke="#000" stroke-width=".283" stroke-linecap="round" stroke-miterlimit="10" d="M34.574 57.849V55.16h-4.816v2.689h4.054zM34.574 55.16h-.762M33.812 57.849V55.16M34.574 57.849h-.762M34.574 57.849V55.16M33.812 57.849h-3.291M30.521 57.849V55.16M33.812 55.16h-3.291M33.812 57.849V55.16M30.521 57.849h-.763M29.758 57.849V55.16M30.521 55.16h-.763M30.521 57.849V55.16"/><path fill-rule="evenodd" clip-rule="evenodd" fill="#FFF" d="M86.873 57.779v-2.691h-4.814v2.691h4.052zM86.873 55.088h-.762M86.111 57.779v-2.691M86.873 57.779h-.762M86.873 57.779v-2.691M86.111 57.779H82.82M82.82 57.779v-2.691M86.111 55.088H82.82M86.111 57.779v-2.691M82.82 57.779h-.761M82.059 57.779v-2.691M82.82 55.088h-.761M82.82 57.779v-2.691"/><path fill-rule="evenodd" clip-rule="evenodd" fill="#D9EAD3" d="M81.49 55.158v2.549l.002.001h1.983V55.157h-1.983z"/><path fill="none" stroke="#D9EAD3" stroke-width=".283" stroke-linecap="round" stroke-miterlimit="10" d="M81.49 55.158v2.549l.002.001h1.983V55.157h-1.983z"/><path fill-rule="evenodd" clip-rule="evenodd" fill="#D9EAD3" d="M85.459 55.158v2.549l.002.001h1.982V55.157h-1.982z"/><path fill="none" stroke="#D9EAD3" stroke-width=".283" stroke-linecap="round" stroke-miterlimit="10" d="M85.459 55.158v2.549l.002.001h1.982V55.157h-1.982z"/><path fill="none" stroke="#000" stroke-width=".283" stroke-linecap="round" stroke-miterlimit="10" d="M86.873 57.779v-2.691h-4.814v2.691h4.052zM86.873 55.088h-.762M86.111 57.779v-2.691M86.873 57.779h-.762M86.873 57.779v-2.691M86.111 57.779H82.82M82.82 57.779v-2.691M86.111 55.088H82.82M86.111 57.779v-2.691M82.82 57.779h-.761M82.059 57.779v-2.691M82.82 55.088h-.761M82.82 57.779v-2.691"/><path fill-rule="evenodd" clip-rule="evenodd" fill="#FFF" d="M49.385 57.992v-2.691h-4.816v2.691h4.055zM49.385 55.301h-.761M48.624 57.992v-2.691M49.385 57.992h-.761M49.385 57.992v-2.691M48.624 57.992h-3.291M45.333 57.992v-2.691M48.624 55.301h-3.291M48.624 57.992v-2.691M45.333 57.992h-.764M44.569 57.992v-2.691M45.333 55.301h-.764M45.333 57.992v-2.691"/><path fill-rule="evenodd" clip-rule="evenodd" fill="#D9EAD3" d="M44.002 55.371v2.548l.001.001h1.983l.001-.001v-2.548l-.001-.002h-1.983z"/><path fill="none" stroke="#D9EAD3" stroke-width=".283" stroke-linecap="round" stroke-miterlimit="10" d="M44.002 55.371v2.548l.001.001h1.983l.001-.001v-2.548l-.001-.002h-1.983z"/><path fill-rule="evenodd" clip-rule="evenodd" fill="#D9EAD3" d="M47.971 55.371v2.548l.001.001h1.982l.002-.001v-2.548l-.002-.002h-1.982z"/><path fill="none" stroke="#D9EAD3" stroke-width=".283" stroke-linecap="round" stroke-miterlimit="10" d="M47.971 55.371v2.548l.001.001h1.982l.002-.001v-2.548l-.002-.002h-1.982z"/><path fill="none" stroke="#000" stroke-width=".283" stroke-linecap="round" stroke-miterlimit="10" d="M49.385 57.992v-2.691h-4.816v2.691h4.055zM49.385 55.301h-.761M48.624 57.992v-2.691M49.385 57.992h-.761M49.385 57.992v-2.691M48.624 57.992h-3.291M45.333 57.992v-2.691M48.624 55.301h-3.291M48.624 57.992v-2.691M45.333 57.992h-.764M44.569 57.992v-2.691M45.333 55.301h-.764M45.333 57.992v-2.691"/><path fill-rule="evenodd" clip-rule="evenodd" fill="#FFF" d="M88.863 51.401v2.689h4.817v-2.689h-4.053zM88.863 54.09h.764M89.627 51.401v2.689M88.863 51.401h.764M88.863 51.401v2.689M89.627 51.401h3.291M92.918 51.401v2.689M89.627 54.09h3.291M89.627 51.401v2.689M92.918 51.401h.762M93.68 51.401v2.689M92.918 54.09h.762M92.918 51.401v2.689"/><path fill-rule="evenodd" clip-rule="evenodd" fill="#D9EAD3" d="M94.246 54.022V51.471h-1.982l-.002.002v2.549l.002.001h1.982z"/><path fill="none" stroke="#D9EAD3" stroke-width=".283" stroke-linecap="round" stroke-miterlimit="10" d="M94.246 54.022V51.471h-1.982l-.002.002v2.549l.002.001h1.982z"/><path fill-rule="evenodd" clip-rule="evenodd" fill="#D9EAD3" d="M90.277 54.022V51.471h-1.982l-.002.002v2.549l.002.001h1.982z"/><path fill="none" stroke="#D9EAD3" stroke-width=".283" stroke-linecap="round" stroke-miterlimit="10" d="M90.277 54.022V51.471h-1.982l-.002.002v2.549l.002.001h1.982z"/><path fill="none" stroke="#000" stroke-width=".283" stroke-linecap="round" stroke-miterlimit="10" d="M88.863 51.401v2.689h4.817v-2.689h-4.053zM88.863 54.09h.764M89.627 51.401v2.689M88.863 51.401h.764M88.863 51.401v2.689M89.627 51.401h3.291M92.918 51.401v2.689M89.627 54.09h3.291M89.627 51.401v2.689M92.918 51.401h.762M93.68 51.401v2.689M92.918 54.09h.762M92.918 51.401v2.689"/><path fill-rule="evenodd" clip-rule="evenodd" fill="#FFF" d="M46.836 29.925h2.692v-4.816h-2.692v4.054zM49.528 29.925v-.762M46.836 29.163h2.692M46.836 29.925v-.762M46.836 29.925h2.692M46.836 29.163v-3.291M46.836 25.872h2.692M49.528 29.163v-3.291M46.836 29.163h2.692M46.836 25.872v-.763M46.836 25.109h2.692M49.528 25.872v-.763M46.836 25.872h2.692"/><path fill-rule="evenodd" clip-rule="evenodd" fill="#D9EAD3" d="M49.458 24.542h-2.549l-.001.001v1.982l.001.001h2.549l.001-.001v-1.982z"/><path fill="none" stroke="#D9EAD3" stroke-width=".283" stroke-linecap="round" stroke-miterlimit="10" d="M49.458 24.542h-2.549l-.001.001v1.982l.001.001h2.549l.001-.001v-1.982z"/><path fill-rule="evenodd" clip-rule="evenodd" fill="#D9EAD3" d="M49.458 28.511h-2.549l-.001.001v1.982l.001.001h2.549l.001-.001v-1.982z"/><path fill="none" stroke="#D9EAD3" stroke-width=".283" stroke-linecap="round" stroke-miterlimit="10" d="M49.458 28.511h-2.549l-.001.001v1.982l.001.001h2.549l.001-.001v-1.982z"/><path fill="none" stroke="#000" stroke-width=".283" stroke-linecap="round" stroke-miterlimit="10" d="M46.836 29.925h2.692v-4.816h-2.692v4.054zM49.528 29.925v-.762M46.836 29.163h2.692M46.836 29.925v-.762M46.836 29.925h2.692M46.836 29.163v-3.291M46.836 25.872h2.692M49.528 29.163v-3.291M46.836 29.163h2.692M46.836 25.872v-.763M46.836 25.109h2.692M49.528 25.872v-.763M46.836 25.872h2.692"/><path fill-rule="evenodd" clip-rule="evenodd" fill="#FFF" d="M38.974 21.637v2.69H43.79v-2.69h-4.054zM38.974 24.327h.762M39.736 21.637v2.69M38.974 21.637h.762M38.974 21.637v2.69M39.736 21.637h3.292M43.028 21.637v2.69M39.736 24.327h3.292M39.736 21.637v2.69M43.028 21.637h.762M43.79 21.637v2.69M43.028 24.327h.762M43.028 21.637v2.69"/><path fill-rule="evenodd" clip-rule="evenodd" fill="#D9EAD3" d="M44.357 24.258v-2.55H42.373v2.55l.001.001h1.982z"/><path fill="none" stroke="#D9EAD3" stroke-width=".283" stroke-linecap="round" stroke-miterlimit="10" d="M44.357 24.258v-2.55H42.373v2.55l.001.001h1.982z"/><path fill-rule="evenodd" clip-rule="evenodd" fill="#D9EAD3" d="M40.388 24.258v-2.55H38.404v2.55l.001.001h1.982z"/><path fill="none" stroke="#D9EAD3" stroke-width=".283" stroke-linecap="round" stroke-miterlimit="10" d="M40.388 24.258v-2.55H38.404v2.55l.001.001h1.982z"/><path fill="none" stroke="#000" stroke-width=".283" stroke-linecap="round" stroke-miterlimit="10" d="M38.974 21.637v2.69H43.79v-2.69h-4.054zM38.974 24.327h.762M39.736 21.637v2.69M38.974 21.637h.762M38.974 21.637v2.69M39.736 21.637h3.292M43.028 21.637v2.69M39.736 24.327h3.292M39.736 21.637v2.69M43.028 21.637h.762M43.79 21.637v2.69M43.028 24.327h.762M43.028 21.637v2.69"/><path fill-rule="evenodd" clip-rule="evenodd" fill="#FFF" d="M32.171 30.141v2.69h4.816v-2.69h-4.054zM32.171 32.831h.762M32.933 30.141v2.69M32.171 30.141h.762M32.171 30.141v2.69M32.933 30.141h3.291M36.224 30.141v2.69M32.933 32.831h3.291M32.933 30.141v2.69M36.224 30.141h.763M36.987 30.141v2.69M36.224 32.831h.763M36.224 30.141v2.69"/><path fill-rule="evenodd" clip-rule="evenodd" fill="#D9EAD3" d="M37.554 32.762v-2.549l-.001-.002H35.57l-.001.002v2.549l.001.001h1.983z"/><path fill="none" stroke="#D9EAD3" stroke-width=".283" stroke-linecap="round" stroke-miterlimit="10" d="M37.554 32.762v-2.549l-.001-.002H35.57l-.001.002v2.549l.001.001h1.983z"/><path fill-rule="evenodd" clip-rule="evenodd" fill="#D9EAD3" d="M33.585 32.762v-2.549l-.001-.002h-1.982l-.001.002v2.549l.001.001h1.982z"/><path fill="none" stroke="#D9EAD3" stroke-width=".283" stroke-linecap="round" stroke-miterlimit="10" d="M33.585 32.762v-2.549l-.001-.002h-1.982l-.001.002v2.549l.001.001h1.982z"/><path fill="none" stroke="#000" stroke-width=".283" stroke-linecap="round" stroke-miterlimit="10" d="M32.171 30.141v2.69h4.816v-2.69h-4.054zM32.171 32.831h.762M32.933 30.141v2.69M32.171 30.141h.762M32.171 30.141v2.69M32.933 30.141h3.291M36.224 30.141v2.69M32.933 32.831h3.291M32.933 30.141v2.69M36.224 30.141h.763M36.987 30.141v2.69M36.224 32.831h.763M36.224 30.141v2.69"/><path fill-rule="evenodd" clip-rule="evenodd" fill="#FFF" d="M31.887 21.637v2.69H36.703v-2.69H32.65zM31.887 24.327h.763M32.65 21.637v2.69M31.887 21.637h.763M31.887 21.637v2.69M32.65 21.637h3.291M35.941 21.637v2.69M32.65 24.327h3.291M32.65 21.637v2.69M35.941 21.637h.762M36.703 21.637v2.69M35.941 24.327h.762M35.941 21.637v2.69"/><path fill-rule="evenodd" clip-rule="evenodd" fill="#D9EAD3" d="M37.27 24.258v-2.55H35.286v2.55l.001.001h1.982z"/><path fill="none" stroke="#D9EAD3" stroke-width=".283" stroke-linecap="round" stroke-miterlimit="10" d="M37.27 24.258v-2.55H35.286v2.55l.001.001h1.982z"/><path fill-rule="evenodd" clip-rule="evenodd" fill="#D9EAD3" d="M33.302 24.258v-2.55H31.317v2.55l.001.001h1.983z"/><path fill="none" stroke="#D9EAD3" stroke-width=".283" stroke-linecap="round" stroke-miterlimit="10" d="M33.302 24.258v-2.55H31.317v2.55l.001.001h1.983z"/><path fill="none" stroke="#000" stroke-width=".283" stroke-linecap="round" stroke-miterlimit="10" d="M31.887 21.637v2.69H36.703v-2.69H32.65zM31.887 24.327h.763M32.65 21.637v2.69M31.887 21.637h.763M31.887 21.637v2.69M32.65 21.637h3.291M35.941 21.637v2.69M32.65 24.327h3.291M32.65 21.637v2.69M35.941 21.637h.762M36.703 21.637v2.69M35.941 24.327h.762M35.941 21.637v2.69"/><path fill-rule="evenodd" clip-rule="evenodd" fill="#FFF" d="M25.084 30.141v2.69H29.9v-2.69h-4.053zM25.084 32.831h.763M25.847 30.141v2.69M25.084 30.141h.763M25.084 30.141v2.69M25.847 30.141h3.291M29.138 30.141v2.69M25.847 32.831h3.291M25.847 30.141v2.69M29.138 30.141h.762M29.9 30.141v2.69M29.138 32.831h.762M29.138 30.141v2.69"/><path fill-rule="evenodd" clip-rule="evenodd" fill="#D9EAD3" d="M30.467 32.762v-2.549l-.001-.002h-1.982l-.001.002v2.549l.001.001h1.982z"/><path fill="none" stroke="#D9EAD3" stroke-width=".283" stroke-linecap="round" stroke-miterlimit="10" d="M30.467 32.762v-2.549l-.001-.002h-1.982l-.001.002v2.549l.001.001h1.982z"/><path fill-rule="evenodd" clip-rule="evenodd" fill="#D9EAD3" d="M26.499 32.762v-2.549l-.001-.002h-1.983l-.001.002v2.549l.001.001h1.983z"/><path fill="none" stroke="#D9EAD3" stroke-width=".283" stroke-linecap="round" stroke-miterlimit="10" d="M26.499 32.762v-2.549l-.001-.002h-1.983l-.001.002v2.549l.001.001h1.983z"/><path fill="none" stroke="#000" stroke-width=".283" stroke-linecap="round" stroke-miterlimit="10" d="M25.084 30.141v2.69H29.9v-2.69h-4.053zM25.084 32.831h.763M25.847 30.141v2.69M25.084 30.141h.763M25.084 30.141v2.69M25.847 30.141h3.291M29.138 30.141v2.69M25.847 32.831h3.291M25.847 30.141v2.69M29.138 30.141h.762M29.9 30.141v2.69M29.138 32.831h.762M29.138 30.141v2.69"/><path fill-rule="evenodd" clip-rule="evenodd" fill="#FFF" d="M56.475 50.334h2.689V45.519h-2.689v4.054zM56.475 46.281v-.762M56.475 45.519h2.689M59.164 46.281v-.762M56.475 46.281h2.689M56.475 49.573v-3.292M56.475 46.281h2.689M59.164 49.573v-3.292M56.475 49.573h2.689M59.164 50.334v-.761M56.475 49.573h2.689M56.475 50.334v-.761M56.475 50.334h2.689"/><path fill-rule="evenodd" clip-rule="evenodd" fill="#D9EAD3" d="M59.238 48.92H56.404V51.471H59.238V48.92z"/><path fill="none" stroke="#D9EAD3" stroke-width=".283" stroke-linecap="round" stroke-miterlimit="10" d="M59.238 48.92H56.404V51.471H59.238V48.92z"/><path fill-rule="evenodd" clip-rule="evenodd" fill="#D9EAD3" d="M59.238 44.385H56.404V46.936H59.238V44.385z"/><path fill="none" stroke="#D9EAD3" stroke-width=".283" stroke-linecap="round" stroke-miterlimit="10" d="M59.238 44.385H56.404V46.936H59.238V44.385z"/><path fill="none" stroke="#000" stroke-width=".283" stroke-linecap="round" stroke-miterlimit="10" d="M56.475 50.334h2.689V45.519h-2.689v4.054zM56.475 46.281v-.762M56.475 45.519h2.689M59.164 46.281v-.762M56.475 46.281h2.689M56.475 49.573v-3.292M56.475 46.281h2.689M59.164 49.573v-3.292M56.475 49.573h2.689M59.164 50.334v-.761M56.475 49.573h2.689M56.475 50.334v-.761M56.475 50.334h2.689"/><path fill-rule="evenodd" clip-rule="evenodd" fill="#FFF" d="M23.593 50.051h2.69v-4.816h-2.69v4.055zM23.593 45.998v-.763M23.593 45.235h2.69M26.283 45.998v-.763M23.593 45.998h2.69M23.593 49.29v-3.292M23.593 45.998h2.69M26.283 49.29v-3.292M23.593 49.29h2.69M26.283 50.051v-.761M23.593 49.29h2.69M23.593 50.051v-.761M23.593 50.051h2.69"/><path fill-rule="evenodd" clip-rule="evenodd" fill="#D9EAD3" d="M26.355 48.637H23.522V51.188H26.356l.001-.002v-2.548l-.001-.001z"/><path fill="none" stroke="#D9EAD3" stroke-width=".283" stroke-linecap="round" stroke-miterlimit="10" d="M26.355 48.637H23.522V51.188H26.356l.001-.002v-2.548l-.001-.001z"/><path fill-rule="evenodd" clip-rule="evenodd" fill="#D9EAD3" d="M26.355 44.102H23.522v2.55l.001.001h2.832l.001-.001.001-.001v-2.548l-.001-.001z"/><path fill="none" stroke="#D9EAD3" stroke-width=".283" stroke-linecap="round" stroke-miterlimit="10" d="M26.355 44.102H23.522v2.55l.001.001h2.832l.001-.001.001-.001v-2.548l-.001-.001z"/><path fill="none" stroke="#000" stroke-width=".283" stroke-linecap="round" stroke-miterlimit="10" d="M23.593 50.051h2.69v-4.816h-2.69v4.055zM23.593 45.998v-.763M23.593 45.235h2.69M26.283 45.998v-.763M23.593 45.998h2.69M23.593 49.29v-3.292M23.593 45.998h2.69M26.283 49.29v-3.292M23.593 49.29h2.69M26.283 50.051v-.761M23.593 49.29h2.69M23.593 50.051v-.761M23.593 50.051h2.69"/><path fill-rule="evenodd" clip-rule="evenodd" fill="#FFF" d="M83.971 50.409h2.693v-4.961h-2.693v3.969zM83.971 46.44v-.992M83.971 46.44h2.693M86.664 46.44v-.992M83.971 45.448h2.693M83.971 50.409v-.992M83.971 49.417h2.693M86.664 50.409v-.992M83.971 50.409h2.693M83.971 49.417V46.44M83.971 49.417h2.693M86.664 49.417V46.44M83.971 46.44h2.693"/><path fill-rule="evenodd" clip-rule="evenodd" fill="#D9EAD3" d="M86.734 44.385H83.9V46.936H86.734V44.385z"/><path fill="none" stroke="#D9EAD3" stroke-width=".283" stroke-linecap="round" stroke-miterlimit="10" d="M86.734 44.385H83.9V46.936H86.734V44.385z"/><path fill-rule="evenodd" clip-rule="evenodd" fill="#D9EAD3" d="M86.734 48.92H83.9V51.471H86.734V48.92z"/><path fill="none" stroke="#D9EAD3" stroke-width=".283" stroke-linecap="round" stroke-miterlimit="10" d="M86.734 48.92H83.9V51.471H86.734V48.92z"/><path fill="none" stroke="#000" stroke-width=".283" stroke-linecap="round" stroke-miterlimit="10" d="M83.971 50.409h2.693v-4.961h-2.693v3.969zM83.971 46.44v-.992M83.971 46.44h2.693M86.664 46.44v-.992M83.971 45.448h2.693M83.971 50.409v-.992M83.971 49.417h2.693M86.664 50.409v-.992M83.971 50.409h2.693M83.971 49.417V46.44M83.971 49.417h2.693M86.664 49.417V46.44M83.971 46.44h2.693"/><path fill-rule="evenodd" clip-rule="evenodd" fill="#FFF" d="M50.805 50.409h2.693v-4.961h-2.693v3.969zM50.805 46.44v-.992M50.805 46.44h2.693M53.498 46.44v-.992M50.805 45.448h2.693M50.805 50.409v-.992M50.805 49.417h2.693M53.498 50.409v-.992M50.805 50.409h2.693M50.805 49.417V46.44M50.805 49.417h2.693M53.498 49.417V46.44M50.805 46.44h2.693"/><path fill-rule="evenodd" clip-rule="evenodd" fill="#D9EAD3" d="M53.568 44.385H50.735V46.936H53.568V44.385z"/><path fill="none" stroke="#D9EAD3" stroke-width=".283" stroke-linecap="round" stroke-miterlimit="10" d="M53.568 44.385H50.735V46.936H53.568V44.385z"/><path fill-rule="evenodd" clip-rule="evenodd" fill="#D9EAD3" d="M53.568 48.92H50.735V51.471H53.568V48.92z"/><path fill="none" stroke="#D9EAD3" stroke-width=".283" stroke-linecap="round" stroke-miterlimit="10" d="M53.568 48.92H50.735V51.471H53.568V48.92z"/><path fill="none" stroke="#000" stroke-width=".283" stroke-linecap="round" stroke-miterlimit="10" d="M50.805 50.409h2.693v-4.961h-2.693v3.969zM50.805 46.44v-.992M50.805 46.44h2.693M53.498 46.44v-.992M50.805 45.448h2.693M50.805 50.409v-.992M50.805 49.417h2.693M53.498 50.409v-.992M50.805 50.409h2.693M50.805 49.417V46.44M50.805 49.417h2.693M53.498 49.417V46.44M50.805 46.44h2.693"/><path fill-rule="evenodd" clip-rule="evenodd" fill="#FFF" d="M98.357 23.905h-3.968v.921H92.83v1.276H94.389v4.109H92.83v1.276H94.389v.922h3.968v-3.615H99.916v-1.275H98.357zM94.227 30.211h-.163M94.064 30.211h-.146M93.918 30.211h-.123M93.795 30.211h-.088M93.707 30.211h-.041M93.604 30.211h-.012M93.592 30.211h-.024M93.568 30.211h-.027M93.541 30.211h-.039M93.502 30.211h-.041M93.502 31.487h-.041M93.541 31.487h-.039M93.568 31.487h-.027M93.592 31.487h-.024M93.604 31.487h-.012M93.707 31.487h-.041M93.795 31.487h-.088M93.918 31.487h-.123M94.064 31.487h-.146M94.227 31.487h-.163M92.83 30.211v1.276M93.461 30.211h-.631M93.461 31.487h-.631M93.666 30.211h-.062M93.666 31.487h-.062M94.389 31.487h-.162M94.389 30.211h-.162M93.502 26.102h-.041M93.541 26.102h-.039M93.568 26.102h-.027M93.592 26.102h-.024M93.604 26.102h-.012M93.707 26.102h-.041M93.795 26.102h-.088M93.918 26.102h-.123M94.064 26.102h-.146M94.227 26.102h-.163M94.227 24.826h-.163M94.064 24.826h-.146M93.918 24.826h-.123M93.795 24.826h-.088M93.707 24.826h-.041M93.604 24.826h-.012M93.592 24.826h-.024M93.568 24.826h-.027M93.541 24.826h-.039M93.502 24.826h-.041M93.666 24.826h-.062M93.666 26.102h-.062M93.461 24.826h-.631M93.461 26.102h-.631M92.83 24.826v1.276M94.389 26.102h-.162M94.389 24.826h-.162M99.154 28.794h-.011M99.176 28.794h-.022M99.207 28.794h-.031M99.244 28.794h-.037M99.283 28.794h-.039M98.68 28.794h-.162M98.828 28.794h-.148M98.949 28.794h-.121M99.037 28.794h-.088M99.08 28.794h-.043M99.283 27.519h-.039M99.244 27.519h-.037M99.207 27.519h-.031M99.176 27.519h-.022M99.154 27.519h-.011M99.08 27.519h-.043M99.037 27.519h-.088M98.949 27.519h-.121M98.828 27.519h-.148M98.68 27.519h-.162M99.916 27.519v1.275M99.916 28.794h-.633M99.916 27.519h-.633M99.143 28.794h-.063M99.143 27.519h-.063M98.518 27.519h-.161M98.518 28.794h-.161M94.523 24.041v8.231M94.389 31.487v.922M94.389 30.211v1.276M94.389 26.102v4.109M94.389 24.826v1.276M94.389 23.905v.921M98.221 24.041h-3.698M94.389 23.905l.134.136M98.357 23.905h-3.968M98.221 24.041v8.231M98.357 23.905l-.136.136M98.357 23.905v3.614M98.357 27.519v1.275M98.357 28.794v3.615M94.523 32.272l-.134.137M98.221 32.272h-3.698M98.221 32.272l.136.137M98.357 32.409h-3.968M93.461 30.211v1.276M93.604 30.211v1.276M93.666 30.211v1.276M94.227 30.211v1.276M93.604 24.826v1.276M93.666 24.826v1.276M93.461 24.826v1.276M94.227 24.826v1.276M99.283 27.519v1.275M99.143 27.519v1.275M99.08 27.519v1.275M98.518 27.519v1.275"/><path fill-rule="evenodd" clip-rule="evenodd" fill="#D9EAD3" d="M91.625 24.543V26.385h2.977V24.542h-2.977z"/><path fill="none" stroke="#D9EAD3" stroke-width=".283" stroke-linecap="round" stroke-miterlimit="10" d="M91.625 24.543V26.385h2.977V24.542h-2.977z"/><path fill-rule="evenodd" clip-rule="evenodd" fill="#D9EAD3" d="M91.625 29.929V31.771h2.977V29.928h-2.977z"/><path fill="none" stroke="#D9EAD3" stroke-width=".283" stroke-linecap="round" stroke-miterlimit="10" d="M91.625 29.929V31.771h2.977V29.928h-2.977z"/><path fill-rule="evenodd" clip-rule="evenodd" fill="#D9EAD3" d="M98.145 27.236V29.078h2.976V27.235h-2.976z"/><path fill="none" stroke="#D9EAD3" stroke-width=".283" stroke-linecap="round" stroke-miterlimit="10" d="M98.145 27.236V29.078h2.976V27.235h-2.976z"/><path fill="none" stroke="#000" stroke-width=".283" stroke-linecap="round" stroke-miterlimit="10" d="M98.357 23.905h-3.968v.921H92.83v1.276H94.389v4.109H92.83v1.276H94.389v.922h3.968v-3.615H99.916v-1.275H98.357zM94.227 30.211h-.163M94.064 30.211h-.146M93.918 30.211h-.123M93.795 30.211h-.088M93.707 30.211h-.041M93.604 30.211h-.012M93.592 30.211h-.024M93.568 30.211h-.027M93.541 30.211h-.039M93.502 30.211h-.041M93.502 31.487h-.041M93.541 31.487h-.039M93.568 31.487h-.027M93.592 31.487h-.024M93.604 31.487h-.012M93.707 31.487h-.041M93.795 31.487h-.088M93.918 31.487h-.123M94.064 31.487h-.146M94.227 31.487h-.163M92.83 30.211v1.276M93.461 30.211h-.631M93.461 31.487h-.631M93.666 30.211h-.062M93.666 31.487h-.062M94.389 31.487h-.162M94.389 30.211h-.162M93.502 26.102h-.041M93.541 26.102h-.039M93.568 26.102h-.027M93.592 26.102h-.024M93.604 26.102h-.012M93.707 26.102h-.041M93.795 26.102h-.088M93.918 26.102h-.123M94.064 26.102h-.146M94.227 26.102h-.163M94.227 24.826h-.163M94.064 24.826h-.146M93.918 24.826h-.123M93.795 24.826h-.088M93.707 24.826h-.041M93.604 24.826h-.012M93.592 24.826h-.024M93.568 24.826h-.027M93.541 24.826h-.039M93.502 24.826h-.041M93.666 24.826h-.062M93.666 26.102h-.062M93.461 24.826h-.631M93.461 26.102h-.631M92.83 24.826v1.276M94.389 26.102h-.162M94.389 24.826h-.162M99.154 28.794h-.011M99.176 28.794h-.022M99.207 28.794h-.031M99.244 28.794h-.037M99.283 28.794h-.039M98.68 28.794h-.162M98.828 28.794h-.148M98.949 28.794h-.121M99.037 28.794h-.088M99.08 28.794h-.043M99.283 27.519h-.039M99.244 27.519h-.037M99.207 27.519h-.031M99.176 27.519h-.022M99.154 27.519h-.011M99.08 27.519h-.043M99.037 27.519h-.088M98.949 27.519h-.121M98.828 27.519h-.148M98.68 27.519h-.162M99.916 27.519v1.275M99.916 28.794h-.633M99.916 27.519h-.633M99.143 28.794h-.063M99.143 27.519h-.063M98.518 27.519h-.161M98.518 28.794h-.161M94.523 24.041v8.231M94.389 31.487v.922M94.389 30.211v1.276M94.389 26.102v4.109M94.389 24.826v1.276M94.389 23.905v.921M98.221 24.041h-3.698M94.389 23.905l.134.136M98.357 23.905h-3.968M98.221 24.041v8.231M98.357 23.905l-.136.136M98.357 23.905v3.614M98.357 27.519v1.275M98.357 28.794v3.615M94.523 32.272l-.134.137M98.221 32.272h-3.698M98.221 32.272l.136.137M98.357 32.409h-3.968M93.461 30.211v1.276M93.604 30.211v1.276M93.666 30.211v1.276M94.227 30.211v1.276M93.604 24.826v1.276M93.666 24.826v1.276M93.461 24.826v1.276M94.227 24.826v1.276M99.283 27.519v1.275M99.143 27.519v1.275M99.08 27.519v1.275M98.518 27.519v1.275"/><path fill-rule="evenodd" clip-rule="evenodd" fill="#FFF" d="M77.238 51.94h2.977v-1.191h-2.977v-2.41h2.977v-1.191h-2.977v-2.409h2.977v-1.19h-2.977v-2.41h2.977v-1.19h-2.977v-.95H66.184v.95h-2.977v1.19h2.977v2.41h-2.977v1.19h2.977v2.409h-2.977v1.191h2.977v2.41h-2.977v1.191h2.977v.949h11.054zM63.207 50.749v1.191M64.9 50.749h.084M64.984 50.749h.137M65.121 50.749h.176M65.297 50.749h.203M65.5 50.749h.221M64.502 50.749h.398M64.254 50.749h.084M64.338 50.749h.074M64.412 50.749h.057M64.469 50.749h.033M63.207 50.749h1.047M65.721 50.749h.463M63.207 51.94h1.047M64.254 51.94h.084M64.338 51.94h.074M64.412 51.94h.057M64.469 51.94h.033M64.502 51.94h.398M64.9 51.94h.084M64.984 51.94h.137M65.121 51.94h.176M65.297 51.94h.203M65.5 51.94h.221M65.721 51.94h.463M77.238 50.749h.465M77.238 51.94h.465M77.703 51.94h.219M77.922 51.94h.207M78.129 51.94h.176M78.305 51.94h.133M78.438 51.94h.085M77.703 50.749h.219M77.922 50.749h.207M78.129 50.749h.176M78.305 50.749h.133M78.438 50.749h.085M78.523 51.94h.397M78.523 50.749h.397M78.92 50.749h.037M78.957 50.749h.057M79.014 50.749h.072M79.086 50.749h.084M78.92 51.94h.037M78.957 51.94h.057M79.014 51.94h.072M79.086 51.94h.084M79.17 51.94h1.045M79.17 50.749h1.045M80.215 50.749v1.191M63.207 47.148v1.191M64.9 47.148h.084M64.984 47.148h.137M65.121 47.148h.176M65.297 47.148h.203M65.5 47.148h.221M64.502 47.148h.398M64.254 47.148h.084M64.338 47.148h.074M64.412 47.148h.057M64.469 47.148h.033M63.207 47.148h1.047M65.721 47.148h.463M63.207 48.339h1.047M64.254 48.339h.084M64.338 48.339h.074M64.412 48.339h.057M64.469 48.339h.033M64.502 48.339h.398M64.9 48.339h.084M64.984 48.339h.137M65.121 48.339h.176M65.297 48.339h.203M65.5 48.339h.221M65.721 48.339h.463M77.238 47.148h.465M77.238 48.339h.465M77.703 48.339h.219M77.922 48.339h.207M78.129 48.339h.176M78.305 48.339h.133M78.438 48.339h.085M77.703 47.148h.219M77.922 47.148h.207M78.129 47.148h.176M78.305 47.148h.133M78.438 47.148h.085M78.523 48.339h.397M78.523 47.148h.397M78.92 47.148h.037M78.957 47.148h.057M79.014 47.148h.072M79.086 47.148h.084M78.92 48.339h.037M78.957 48.339h.057M79.014 48.339h.072M79.086 48.339h.084M79.17 48.339h1.045M79.17 47.148h1.045M80.215 47.148v1.191M63.207 43.549v1.19M64.9 43.549h.084M64.984 43.549h.137M65.121 43.549h.176M65.297 43.549h.203M65.5 43.549h.221M64.502 43.549h.398M64.254 43.549h.084M64.338 43.549h.074M64.412 43.549h.057M64.469 43.549h.033M63.207 43.549h1.047M65.721 43.549h.463M63.207 44.739h1.047M64.254 44.739h.084M64.338 44.739h.074M64.412 44.739h.057M64.469 44.739h.033M64.502 44.739h.398M64.9 44.739h.084M64.984 44.739h.137M65.121 44.739h.176M65.297 44.739h.203M65.5 44.739h.221M65.721 44.739h.463M77.238 43.549h.465M77.238 44.739h.465M77.703 44.739h.219M77.922 44.739h.207M78.129 44.739h.176M78.305 44.739h.133M78.438 44.739h.085M77.703 43.549h.219M77.922 43.549h.207M78.129 43.549h.176M78.305 43.549h.133M78.438 43.549h.085M78.523 44.739h.397M78.523 43.549h.397M78.92 43.549h.037M78.957 43.549h.057M79.014 43.549h.072M79.086 43.549h.084M78.92 44.739h.037M78.957 44.739h.057M79.014 44.739h.072M79.086 44.739h.084M79.17 44.739h1.045M79.17 43.549h1.045M80.215 43.549v1.19M63.207 39.949v1.19M64.9 39.949h.084M64.984 39.949h.137M65.121 39.949h.176M65.297 39.949h.203M65.5 39.949h.221M64.502 39.949h.398M64.254 39.949h.084M64.338 39.949h.074M64.412 39.949h.057M64.469 39.949h.033M63.207 39.949h1.047M65.721 39.949h.463M63.207 41.139h1.047M64.254 41.139h.084M64.338 41.139h.074M64.412 41.139h.057M64.469 41.139h.033M64.502 41.139h.398M64.9 41.139h.084M64.984 41.139h.137M65.121 41.139h.176M65.297 41.139h.203M65.5 41.139h.221M65.721 41.139h.463M77.238 39.949h.465M77.238 41.139h.465M77.703 41.139h.219M77.922 41.139h.207M78.129 41.139h.176M78.305 41.139h.133M78.438 41.139h.085M77.703 39.949h.219M77.922 39.949h.207M78.129 39.949h.176M78.305 39.949h.133M78.438 39.949h.085M78.523 41.139h.397M78.523 39.949h.397M78.92 39.949h.037M78.957 39.949h.057M79.014 39.949h.072M79.086 39.949h.084M78.92 41.139h.037M78.957 41.139h.057M79.014 41.139h.072M79.086 41.139h.084M79.17 41.139h1.045M79.17 39.949h1.045M80.215 39.949v1.19M77.238 39.949v1.19M77.238 43.549v1.19M77.238 47.148v1.191M77.238 50.749v1.191M76.816 39.421l.422-.422M76.816 52.466l.422.423M66.184 52.889l.421-.423M66.184 50.749v1.191M66.184 47.148v1.191M66.184 43.549v1.19M66.184 39.949v1.19M66.184 38.999l.421.422M66.184 38.999h11.054M66.184 52.889h11.054M77.238 51.94v.949M66.184 51.94v.949M77.238 38.999v.95M66.184 38.999v.95M77.238 41.139v2.41M66.184 41.139v2.41M77.238 44.739v2.409M66.184 44.739v2.409M77.238 48.339v2.41M66.184 48.339v2.41M66.605 39.421v13.045M66.605 39.421h10.211M76.816 39.421v13.045M66.605 52.466h10.211M69.322 41.448l.032-.238M69.234 41.672l.088-.224M69.092 41.865l.142-.193M68.908 42.018l.184-.153M68.691 42.12l.217-.102M68.455 42.166l.236-.046M68.217 42.151l.238.015M67.986 42.075l.231.076M67.785 41.947l.201.128M67.621 41.771l.164.176M67.504 41.562l.117.209M67.445 41.329l.059.233M67.445 41.091v.238M67.445 41.091l.059-.233M67.504 40.858l.117-.212M67.621 40.646l.164-.173M67.785 40.473l.201-.13M67.986 40.343l.231-.074M68.217 40.269l.238-.014M68.455 40.255l.236.045M68.691 40.3l.217.102M68.908 40.402l.184.153M69.092 40.555l.142.193M69.234 40.748l.088.224M69.322 40.972l.032.238M64.254 50.749v1.191M64.502 50.749v1.191M64.9 50.749v1.191M65.721 50.749v1.191M77.703 50.749v1.191M78.523 50.749v1.191M78.92 50.749v1.191M79.17 50.749v1.191M64.254 47.148v1.191M64.502 47.148v1.191M64.9 47.148v1.191M65.721 47.148v1.191M77.703 47.148v1.191M78.523 47.148v1.191M78.92 47.148v1.191M79.17 47.148v1.191M64.254 43.549v1.19M64.502 43.549v1.19M64.9 43.549v1.19M65.721 43.549v1.19M77.703 43.549v1.19M78.523 43.549v1.19M78.92 43.549v1.19M79.17 43.549v1.19M64.254 39.949v1.19M64.502 39.949v1.19M64.9 39.949v1.19M65.721 39.949v1.19M77.703 39.949v1.19M78.523 39.949v1.19M78.92 39.949v1.19M79.17 39.949v1.19"/><path fill-rule="evenodd" clip-rule="evenodd" fill="#D9EAD3" d="M61.861 41.395h5.526l.002-.001v-1.7l-.002-.001h-5.526V41.394z"/><path fill="none" stroke="#D9EAD3" stroke-width=".283" stroke-linecap="round" stroke-miterlimit="10" d="M61.861 41.395h5.526l.002-.001v-1.7l-.002-.001h-5.526V41.394z"/><path fill-rule="evenodd" clip-rule="evenodd" fill="#D9EAD3" d="M61.861 44.994h5.528v-1.7l-.002-.001h-5.526V44.994z"/><path fill="none" stroke="#D9EAD3" stroke-width=".283" stroke-linecap="round" stroke-miterlimit="10" d="M61.861 44.994h5.528v-1.7l-.002-.001h-5.526V44.994z"/><path fill-rule="evenodd" clip-rule="evenodd" fill="#D9EAD3" d="M61.861 48.594h5.526l.002-.001v-1.698l-.002-.001h-5.526V48.593z"/><path fill="none" stroke="#D9EAD3" stroke-width=".283" stroke-linecap="round" stroke-miterlimit="10" d="M61.861 48.594h5.526l.002-.001v-1.698l-.002-.001h-5.526V48.593z"/><path fill-rule="evenodd" clip-rule="evenodd" fill="#D9EAD3" d="M61.861 52.194h5.528v-1.699l-.002-.001h-5.526v1.7z"/><path fill="none" stroke="#D9EAD3" stroke-width=".283" stroke-linecap="round" stroke-miterlimit="10" d="M61.861 52.194h5.528v-1.699l-.002-.001h-5.526v1.7z"/><path fill-rule="evenodd" clip-rule="evenodd" fill="#D9EAD3" d="M76.035 52.194h5.528v-1.699l-.002-.001h-5.526l-.002.001v1.699z"/><path fill="none" stroke="#D9EAD3" stroke-width=".283" stroke-linecap="round" stroke-miterlimit="10" d="M76.035 52.194h5.528v-1.699l-.002-.001h-5.526l-.002.001v1.699z"/><path fill-rule="evenodd" clip-rule="evenodd" fill="#D9EAD3" d="M76.035 48.594h5.526l.002-.001v-1.698l-.002-.001h-5.526l-.002.001v1.698z"/><path fill="none" stroke="#D9EAD3" stroke-width=".283" stroke-linecap="round" stroke-miterlimit="10" d="M76.035 48.594h5.526l.002-.001v-1.698l-.002-.001h-5.526l-.002.001v1.698z"/><path fill-rule="evenodd" clip-rule="evenodd" fill="#D9EAD3" d="M76.035 44.994h5.528v-1.7l-.002-.001h-5.526l-.002.001v1.7z"/><path fill="none" stroke="#D9EAD3" stroke-width=".283" stroke-linecap="round" stroke-miterlimit="10" d="M76.035 44.994h5.528v-1.7l-.002-.001h-5.526l-.002.001v1.7z"/><path fill-rule="evenodd" clip-rule="evenodd" fill="#D9EAD3" d="M76.035 41.395h5.526l.002-.001v-1.7l-.002-.001h-5.526l-.002.001v1.7z"/><path fill="none" stroke="#D9EAD3" stroke-width=".283" stroke-linecap="round" stroke-miterlimit="10" d="M76.035 41.395h5.526l.002-.001v-1.7l-.002-.001h-5.526l-.002.001v1.7z"/><path fill="none" stroke="#000" stroke-width=".283" stroke-linecap="round" stroke-miterlimit="10" d="M77.238 51.94h2.977v-1.191h-2.977v-2.41h2.977v-1.191h-2.977v-2.409h2.977v-1.19h-2.977v-2.41h2.977v-1.19h-2.977v-.95H66.184v.95h-2.977v1.19h2.977v2.41h-2.977v1.19h2.977v2.409h-2.977v1.191h2.977v2.41h-2.977v1.191h2.977v.949h11.054zM63.207 50.749v1.191M64.9 50.749h.084M64.984 50.749h.137M65.121 50.749h.176M65.297 50.749h.203M65.5 50.749h.221M64.502 50.749h.398M64.254 50.749h.084M64.338 50.749h.074M64.412 50.749h.057M64.469 50.749h.033M63.207 50.749h1.047M65.721 50.749h.463M63.207 51.94h1.047M64.254 51.94h.084M64.338 51.94h.074M64.412 51.94h.057M64.469 51.94h.033M64.502 51.94h.398M64.9 51.94h.084M64.984 51.94h.137M65.121 51.94h.176M65.297 51.94h.203M65.5 51.94h.221M65.721 51.94h.463M77.238 50.749h.465M77.238 51.94h.465M77.703 51.94h.219M77.922 51.94h.207M78.129 51.94h.176M78.305 51.94h.133M78.438 51.94h.085M77.703 50.749h.219M77.922 50.749h.207M78.129 50.749h.176M78.305 50.749h.133M78.438 50.749h.085M78.523 51.94h.397M78.523 50.749h.397M78.92 50.749h.037M78.957 50.749h.057M79.014 50.749h.072M79.086 50.749h.084M78.92 51.94h.037M78.957 51.94h.057M79.014 51.94h.072M79.086 51.94h.084M79.17 51.94h1.045M79.17 50.749h1.045M80.215 50.749v1.191M63.207 47.148v1.191M64.9 47.148h.084M64.984 47.148h.137M65.121 47.148h.176M65.297 47.148h.203M65.5 47.148h.221M64.502 47.148h.398M64.254 47.148h.084M64.338 47.148h.074M64.412 47.148h.057M64.469 47.148h.033M63.207 47.148h1.047M65.721 47.148h.463M63.207 48.339h1.047M64.254 48.339h.084M64.338 48.339h.074M64.412 48.339h.057M64.469 48.339h.033M64.502 48.339h.398M64.9 48.339h.084M64.984 48.339h.137M65.121 48.339h.176M65.297 48.339h.203M65.5 48.339h.221M65.721 48.339h.463M77.238 47.148h.465M77.238 48.339h.465M77.703 48.339h.219M77.922 48.339h.207M78.129 48.339h.176M78.305 48.339h.133M78.438 48.339h.085M77.703 47.148h.219M77.922 47.148h.207M78.129 47.148h.176M78.305 47.148h.133M78.438 47.148h.085M78.523 48.339h.397M78.523 47.148h.397M78.92 47.148h.037M78.957 47.148h.057M79.014 47.148h.072M79.086 47.148h.084M78.92 48.339h.037M78.957 48.339h.057M79.014 48.339h.072M79.086 48.339h.084M79.17 48.339h1.045M79.17 47.148h1.045M80.215 47.148v1.191M63.207 43.549v1.19M64.9 43.549h.084M64.984 43.549h.137M65.121 43.549h.176M65.297 43.549h.203M65.5 43.549h.221M64.502 43.549h.398M64.254 43.549h.084M64.338 43.549h.074M64.412 43.549h.057M64.469 43.549h.033M63.207 43.549h1.047M65.721 43.549h.463M63.207 44.739h1.047M64.254 44.739h.084M64.338 44.739h.074M64.412 44.739h.057M64.469 44.739h.033M64.502 44.739h.398M64.9 44.739h.084M64.984 44.739h.137M65.121 44.739h.176M65.297 44.739h.203M65.5 44.739h.221M65.721 44.739h.463M77.238 43.549h.465M77.238 44.739h.465M77.703 44.739h.219M77.922 44.739h.207M78.129 44.739h.176M78.305 44.739h.133M78.438 44.739h.085M77.703 43.549h.219M77.922 43.549h.207M78.129 43.549h.176M78.305 43.549h.133M78.438 43.549h.085M78.523 44.739h.397M78.523 43.549h.397M78.92 43.549h.037M78.957 43.549h.057M79.014 43.549h.072M79.086 43.549h.084M78.92 44.739h.037M78.957 44.739h.057M79.014 44.739h.072M79.086 44.739h.084M79.17 44.739h1.045M79.17 43.549h1.045M80.215 43.549v1.19M63.207 39.949v1.19M64.9 39.949h.084M64.984 39.949h.137M65.121 39.949h.176M65.297 39.949h.203M65.5 39.949h.221M64.502 39.949h.398M64.254 39.949h.084M64.338 39.949h.074M64.412 39.949h.057M64.469 39.949h.033M63.207 39.949h1.047M65.721 39.949h.463M63.207 41.139h1.047M64.254 41.139h.084M64.338 41.139h.074M64.412 41.139h.057M64.469 41.139h.033M64.502 41.139h.398M64.9 41.139h.084M64.984 41.139h.137M65.121 41.139h.176M65.297 41.139h.203M65.5 41.139h.221M65.721 41.139h.463M77.238 39.949h.465M77.238 41.139h.465M77.703 41.139h.219M77.922 41.139h.207M78.129 41.139h.176M78.305 41.139h.133M78.438 41.139h.085M77.703 39.949h.219M77.922 39.949h.207M78.129 39.949h.176M78.305 39.949h.133M78.438 39.949h.085M78.523 41.139h.397M78.523 39.949h.397M78.92 39.949h.037M78.957 39.949h.057M79.014 39.949h.072M79.086 39.949h.084M78.92 41.139h.037M78.957 41.139h.057M79.014 41.139h.072M79.086 41.139h.084M79.17 41.139h1.045M79.17 39.949h1.045M80.215 39.949v1.19M77.238 39.949v1.19M77.238 43.549v1.19M77.238 47.148v1.191M77.238 50.749v1.191M76.816 39.421l.422-.422M76.816 52.466l.422.423M66.184 52.889l.421-.423M66.184 50.749v1.191M66.184 47.148v1.191M66.184 43.549v1.19M66.184 39.949v1.19M66.184 38.999l.421.422M66.184 38.999h11.054M66.184 52.889h11.054M77.238 51.94v.949M66.184 51.94v.949M77.238 38.999v.95M66.184 38.999v.95M77.238 41.139v2.41M66.184 41.139v2.41M77.238 44.739v2.409M66.184 44.739v2.409M77.238 48.339v2.41M66.184 48.339v2.41M66.605 39.421v13.045M66.605 39.421h10.211M76.816 39.421v13.045M66.605 52.466h10.211M69.322 41.448l.032-.238M69.234 41.672l.088-.224M69.092 41.865l.142-.193M68.908 42.018l.184-.153M68.691 42.12l.217-.102M68.455 42.166l.236-.046M68.217 42.151l.238.015M67.986 42.075l.231.076M67.785 41.947l.201.128M67.621 41.771l.164.176M67.504 41.562l.117.209M67.445 41.329l.059.233M67.445 41.091v.238M67.445 41.091l.059-.233M67.504 40.858l.117-.212M67.621 40.646l.164-.173M67.785 40.473l.201-.13M67.986 40.343l.231-.074M68.217 40.269l.238-.014M68.455 40.255l.236.045M68.691 40.3l.217.102M68.908 40.402l.184.153M69.092 40.555l.142.193M69.234 40.748l.088.224M69.322 40.972l.032.238M64.254 50.749v1.191M64.502 50.749v1.191M64.9 50.749v1.191M65.721 50.749v1.191M77.703 50.749v1.191M78.523 50.749v1.191M78.92 50.749v1.191M79.17 50.749v1.191M64.254 47.148v1.191M64.502 47.148v1.191M64.9 47.148v1.191M65.721 47.148v1.191M77.703 47.148v1.191M78.523 47.148v1.191M78.92 47.148v1.191M79.17 47.148v1.191M64.254 43.549v1.19M64.502 43.549v1.19M64.9 43.549v1.19M65.721 43.549v1.19M77.703 43.549v1.19M78.523 43.549v1.19M78.92 43.549v1.19M79.17 43.549v1.19M64.254 39.949v1.19M64.502 39.949v1.19M64.9 39.949v1.19M65.721 39.949v1.19M77.703 39.949v1.19M78.523 39.949v1.19M78.92 39.949v1.19M79.17 39.949v1.19"/><path fill-rule="evenodd" clip-rule="evenodd" fill="#FFF" d="M44.073 51.94h2.976v-1.191h-2.976v-2.41h2.976v-1.191h-2.976v-2.409h2.976v-1.19h-2.976v-2.41h2.976v-1.19h-2.976v-.95H33.018v.95h-2.976v1.19h2.976v2.41h-2.976v1.19h2.976v2.409h-2.976v1.191h2.976v2.41h-2.976v1.191h2.976v.949h11.055zM30.042 50.749v1.191M31.734 50.749h.085M31.819 50.749h.136M31.955 50.749h.176M32.131 50.749h.204M32.335 50.749h.221M31.337 50.749h.397M31.088 50.749h.085M31.173 50.749h.074M31.247 50.749h.056M31.303 50.749h.034M30.042 50.749h1.046M32.556 50.749h.462M30.042 51.94h1.046M31.088 51.94h.085M31.173 51.94h.074M31.247 51.94h.056M31.303 51.94h.034M31.337 51.94h.397M31.734 51.94h.085M31.819 51.94h.136M31.955 51.94h.176M32.131 51.94h.204M32.335 51.94h.221M32.556 51.94h.462M44.073 50.749h.465M44.073 51.94h.465M44.538 51.94h.218M44.756 51.94h.207M44.963 51.94h.176M45.139 51.94h.133M45.272 51.94h.086M44.538 50.749h.218M44.756 50.749h.207M44.963 50.749h.176M45.139 50.749h.133M45.272 50.749h.086M45.358 51.94h.396M45.358 50.749h.396M45.754 50.749h.038M45.792 50.749h.056M45.848 50.749h.073M45.921 50.749h.083M45.754 51.94h.038M45.792 51.94h.056M45.848 51.94h.073M45.921 51.94h.083M46.004 51.94h1.045M46.004 50.749h1.045M47.049 50.749v1.191M30.042 47.148v1.191M31.734 47.148h.085M31.819 47.148h.136M31.955 47.148h.176M32.131 47.148h.204M32.335 47.148h.221M31.337 47.148h.397M31.088 47.148h.085M31.173 47.148h.074M31.247 47.148h.056M31.303 47.148h.034M30.042 47.148h1.046M32.556 47.148h.462M30.042 48.339h1.046M31.088 48.339h.085M31.173 48.339h.074M31.247 48.339h.056M31.303 48.339h.034M31.337 48.339h.397M31.734 48.339h.085M31.819 48.339h.136M31.955 48.339h.176M32.131 48.339h.204M32.335 48.339h.221M32.556 48.339h.462M44.073 47.148h.465M44.073 48.339h.465M44.538 48.339h.218M44.756 48.339h.207M44.963 48.339h.176M45.139 48.339h.133M45.272 48.339h.086M44.538 47.148h.218M44.756 47.148h.207M44.963 47.148h.176M45.139 47.148h.133M45.272 47.148h.086M45.358 48.339h.396M45.358 47.148h.396M45.754 47.148h.038M45.792 47.148h.056M45.848 47.148h.073M45.921 47.148h.083M45.754 48.339h.038M45.792 48.339h.056M45.848 48.339h.073M45.921 48.339h.083M46.004 48.339h1.045M46.004 47.148h1.045M47.049 47.148v1.191M30.042 43.549v1.19M31.734 43.549h.085M31.819 43.549h.136M31.955 43.549h.176M32.131 43.549h.204M32.335 43.549h.221M31.337 43.549h.397M31.088 43.549h.085M31.173 43.549h.074M31.247 43.549h.056M31.303 43.549h.034M30.042 43.549h1.046M32.556 43.549h.462M30.042 44.739h1.046M31.088 44.739h.085M31.173 44.739h.074M31.247 44.739h.056M31.303 44.739h.034M31.337 44.739h.397M31.734 44.739h.085M31.819 44.739h.136M31.955 44.739h.176M32.131 44.739h.204M32.335 44.739h.221M32.556 44.739h.462M44.073 43.549h.465M44.073 44.739h.465M44.538 44.739h.218M44.756 44.739h.207M44.963 44.739h.176M45.139 44.739h.133M45.272 44.739h.086M44.538 43.549h.218M44.756 43.549h.207M44.963 43.549h.176M45.139 43.549h.133M45.272 43.549h.086M45.358 44.739h.396M45.358 43.549h.396M45.754 43.549h.038M45.792 43.549h.056M45.848 43.549h.073M45.921 43.549h.083M45.754 44.739h.038M45.792 44.739h.056M45.848 44.739h.073M45.921 44.739h.083M46.004 44.739h1.045M46.004 43.549h1.045M47.049 43.549v1.19M30.042 39.949v1.19M31.734 39.949h.085M31.819 39.949h.136M31.955 39.949h.176M32.131 39.949h.204M32.335 39.949h.221M31.337 39.949h.397M31.088 39.949h.085M31.173 39.949h.074M31.247 39.949h.056M31.303 39.949h.034M30.042 39.949h1.046M32.556 39.949h.462M30.042 41.139h1.046M31.088 41.139h.085M31.173 41.139h.074M31.247 41.139h.056M31.303 41.139h.034M31.337 41.139h.397M31.734 41.139h.085M31.819 41.139h.136M31.955 41.139h.176M32.131 41.139h.204M32.335 41.139h.221M32.556 41.139h.462M44.073 39.949h.465M44.073 41.139h.465M44.538 41.139h.218M44.756 41.139h.207M44.963 41.139h.176M45.139 41.139h.133M45.272 41.139h.086M44.538 39.949h.218M44.756 39.949h.207M44.963 39.949h.176M45.139 39.949h.133M45.272 39.949h.086M45.358 41.139h.396M45.358 39.949h.396M45.754 39.949h.038M45.792 39.949h.056M45.848 39.949h.073M45.921 39.949h.083M45.754 41.139h.038M45.792 41.139h.056M45.848 41.139h.073M45.921 41.139h.083M46.004 41.139h1.045M46.004 39.949h1.045M47.049 39.949v1.19M44.073 39.949v1.19M44.073 43.549v1.19M44.073 47.148v1.191M44.073 50.749v1.191M43.651 39.421l.422-.422M43.651 52.466l.422.423M33.018 52.889l.422-.423M33.018 50.749v1.191M33.018 47.148v1.191M33.018 43.549v1.19M33.018 39.949v1.19M33.018 38.999l.422.422M33.018 38.999h11.055M33.018 52.889h11.055M44.073 51.94v.949M33.018 51.94v.949M44.073 38.999v.95M33.018 38.999v.95M44.073 41.139v2.41M33.018 41.139v2.41M44.073 44.739v2.409M33.018 44.739v2.409M44.073 48.339v2.41M33.018 48.339v2.41M33.44 39.421v13.045M33.44 39.421h10.211M43.651 39.421v13.045M33.44 52.466h10.211M36.156 41.448l.032-.238M36.068 41.672l.088-.224M35.927 41.865l.141-.193M35.742 42.018l.185-.153M35.527 42.12l.215-.102M35.289 42.166l.238-.046M35.051 42.151l.238.015M34.821 42.075l.23.076M34.62 41.947l.201.128M34.456 41.771l.164.176M34.339 41.562l.117.209M34.28 41.329l.059.233M34.28 41.091v.238M34.28 41.091l.059-.233M34.339 40.858l.117-.212M34.456 40.646l.164-.173M34.62 40.473l.201-.13M34.821 40.343l.23-.074M35.051 40.269l.238-.014M35.289 40.255l.238.045M35.527 40.3l.215.102M35.742 40.402l.185.153M35.927 40.555l.141.193M36.068 40.748l.088.224M36.156 40.972l.032.238M31.088 50.749v1.191M31.337 50.749v1.191M31.734 50.749v1.191M32.556 50.749v1.191M44.538 50.749v1.191M45.358 50.749v1.191M45.754 50.749v1.191M46.004 50.749v1.191M31.088 47.148v1.191M31.337 47.148v1.191M31.734 47.148v1.191M32.556 47.148v1.191M44.538 47.148v1.191M45.358 47.148v1.191M45.754 47.148v1.191M46.004 47.148v1.191M31.088 43.549v1.19M31.337 43.549v1.19M31.734 43.549v1.19M32.556 43.549v1.19M44.538 43.549v1.19M45.358 43.549v1.19M45.754 43.549v1.19M46.004 43.549v1.19M31.088 39.949v1.19M31.337 39.949v1.19M31.734 39.949v1.19M32.556 39.949v1.19M44.538 39.949v1.19M45.358 39.949v1.19M45.754 39.949v1.19M46.004 39.949v1.19"/><path fill-rule="evenodd" clip-rule="evenodd" fill="#D9EAD3" d="M28.696 41.395h5.526l.001-.001v-1.7l-.001-.001h-5.526l-.001.001v1.7z"/><path fill="none" stroke="#D9EAD3" stroke-width=".283" stroke-linecap="round" stroke-miterlimit="10" d="M28.696 41.395h5.526l.001-.001v-1.7l-.001-.001h-5.526l-.001.001v1.7z"/><path fill-rule="evenodd" clip-rule="evenodd" fill="#D9EAD3" d="M28.696 44.994h5.527v-1.7l-.001-.001h-5.526l-.001.001v1.7z"/><path fill="none" stroke="#D9EAD3" stroke-width=".283" stroke-linecap="round" stroke-miterlimit="10" d="M28.696 44.994h5.527v-1.7l-.001-.001h-5.526l-.001.001v1.7z"/><path fill-rule="evenodd" clip-rule="evenodd" fill="#D9EAD3" d="M28.696 48.594h5.526l.001-.001v-1.698l-.001-.001h-5.526l-.001.001v1.698z"/><path fill="none" stroke="#D9EAD3" stroke-width=".283" stroke-linecap="round" stroke-miterlimit="10" d="M28.696 48.594h5.526l.001-.001v-1.698l-.001-.001h-5.526l-.001.001v1.698z"/><path fill-rule="evenodd" clip-rule="evenodd" fill="#D9EAD3" d="M28.696 52.194h5.527v-1.699l-.001-.001h-5.526l-.001.001v1.699z"/><path fill="none" stroke="#D9EAD3" stroke-width=".283" stroke-linecap="round" stroke-miterlimit="10" d="M28.696 52.194h5.527v-1.699l-.001-.001h-5.526l-.001.001v1.699z"/><path fill-rule="evenodd" clip-rule="evenodd" fill="#D9EAD3" d="M42.87 52.194H48.396v-1.699l-.001-.001H42.87l-.001.001v1.699z"/><path fill="none" stroke="#D9EAD3" stroke-width=".283" stroke-linecap="round" stroke-miterlimit="10" d="M42.87 52.194H48.396v-1.699l-.001-.001H42.87l-.001.001v1.699z"/><path fill-rule="evenodd" clip-rule="evenodd" fill="#D9EAD3" d="M42.87 48.594h5.525l.001-.001v-1.698l-.001-.001H42.87l-.001.001v1.698z"/><path fill="none" stroke="#D9EAD3" stroke-width=".283" stroke-linecap="round" stroke-miterlimit="10" d="M42.87 48.594h5.525l.001-.001v-1.698l-.001-.001H42.87l-.001.001v1.698z"/><path fill-rule="evenodd" clip-rule="evenodd" fill="#D9EAD3" d="M42.87 44.994H48.396v-1.7l-.001-.001H42.87l-.001.001v1.7z"/><path fill="none" stroke="#D9EAD3" stroke-width=".283" stroke-linecap="round" stroke-miterlimit="10" d="M42.87 44.994H48.396v-1.7l-.001-.001H42.87l-.001.001v1.7z"/><path fill-rule="evenodd" clip-rule="evenodd" fill="#D9EAD3" d="M42.87 41.395h5.525l.001-.001v-1.7l-.001-.001H42.87l-.001.001v1.7z"/><path fill="none" stroke="#D9EAD3" stroke-width=".283" stroke-linecap="round" stroke-miterlimit="10" d="M42.87 41.395h5.525l.001-.001v-1.7l-.001-.001H42.87l-.001.001v1.7z"/><path fill="none" stroke="#000" stroke-width=".283" stroke-linecap="round" stroke-miterlimit="10" d="M44.073 51.94h2.976v-1.191h-2.976v-2.41h2.976v-1.191h-2.976v-2.409h2.976v-1.19h-2.976v-2.41h2.976v-1.19h-2.976v-.95H33.018v.95h-2.976v1.19h2.976v2.41h-2.976v1.19h2.976v2.409h-2.976v1.191h2.976v2.41h-2.976v1.191h2.976v.949h11.055zM30.042 50.749v1.191M31.734 50.749h.085M31.819 50.749h.136M31.955 50.749h.176M32.131 50.749h.204M32.335 50.749h.221M31.337 50.749h.397M31.088 50.749h.085M31.173 50.749h.074M31.247 50.749h.056M31.303 50.749h.034M30.042 50.749h1.046M32.556 50.749h.462M30.042 51.94h1.046M31.088 51.94h.085M31.173 51.94h.074M31.247 51.94h.056M31.303 51.94h.034M31.337 51.94h.397M31.734 51.94h.085M31.819 51.94h.136M31.955 51.94h.176M32.131 51.94h.204M32.335 51.94h.221M32.556 51.94h.462M44.073 50.749h.465M44.073 51.94h.465M44.538 51.94h.218M44.756 51.94h.207M44.963 51.94h.176M45.139 51.94h.133M45.272 51.94h.086M44.538 50.749h.218M44.756 50.749h.207M44.963 50.749h.176M45.139 50.749h.133M45.272 50.749h.086M45.358 51.94h.396M45.358 50.749h.396M45.754 50.749h.038M45.792 50.749h.056M45.848 50.749h.073M45.921 50.749h.083M45.754 51.94h.038M45.792 51.94h.056M45.848 51.94h.073M45.921 51.94h.083M46.004 51.94h1.045M46.004 50.749h1.045M47.049 50.749v1.191M30.042 47.148v1.191M31.734 47.148h.085M31.819 47.148h.136M31.955 47.148h.176M32.131 47.148h.204M32.335 47.148h.221M31.337 47.148h.397M31.088 47.148h.085M31.173 47.148h.074M31.247 47.148h.056M31.303 47.148h.034M30.042 47.148h1.046M32.556 47.148h.462M30.042 48.339h1.046M31.088 48.339h.085M31.173 48.339h.074M31.247 48.339h.056M31.303 48.339h.034M31.337 48.339h.397M31.734 48.339h.085M31.819 48.339h.136M31.955 48.339h.176M32.131 48.339h.204M32.335 48.339h.221M32.556 48.339h.462M44.073 47.148h.465M44.073 48.339h.465M44.538 48.339h.218M44.756 48.339h.207M44.963 48.339h.176M45.139 48.339h.133M45.272 48.339h.086M44.538 47.148h.218M44.756 47.148h.207M44.963 47.148h.176M45.139 47.148h.133M45.272 47.148h.086M45.358 48.339h.396M45.358 47.148h.396M45.754 47.148h.038M45.792 47.148h.056M45.848 47.148h.073M45.921 47.148h.083M45.754 48.339h.038M45.792 48.339h.056M45.848 48.339h.073M45.921 48.339h.083M46.004 48.339h1.045M46.004 47.148h1.045M47.049 47.148v1.191M30.042 43.549v1.19M31.734 43.549h.085M31.819 43.549h.136M31.955 43.549h.176M32.131 43.549h.204M32.335 43.549h.221M31.337 43.549h.397M31.088 43.549h.085M31.173 43.549h.074M31.247 43.549h.056M31.303 43.549h.034M30.042 43.549h1.046M32.556 43.549h.462M30.042 44.739h1.046M31.088 44.739h.085M31.173 44.739h.074M31.247 44.739h.056M31.303 44.739h.034M31.337 44.739h.397M31.734 44.739h.085M31.819 44.739h.136M31.955 44.739h.176M32.131 44.739h.204M32.335 44.739h.221M32.556 44.739h.462M44.073 43.549h.465M44.073 44.739h.465M44.538 44.739h.218M44.756 44.739h.207M44.963 44.739h.176M45.139 44.739h.133M45.272 44.739h.086M44.538 43.549h.218M44.756 43.549h.207M44.963 43.549h.176M45.139 43.549h.133M45.272 43.549h.086M45.358 44.739h.396M45.358 43.549h.396M45.754 43.549h.038M45.792 43.549h.056M45.848 43.549h.073M45.921 43.549h.083M45.754 44.739h.038M45.792 44.739h.056M45.848 44.739h.073M45.921 44.739h.083M46.004 44.739h1.045M46.004 43.549h1.045M47.049 43.549v1.19M30.042 39.949v1.19M31.734 39.949h.085M31.819 39.949h.136M31.955 39.949h.176M32.131 39.949h.204M32.335 39.949h.221M31.337 39.949h.397M31.088 39.949h.085M31.173 39.949h.074M31.247 39.949h.056M31.303 39.949h.034M30.042 39.949h1.046M32.556 39.949h.462M30.042 41.139h1.046M31.088 41.139h.085M31.173 41.139h.074M31.247 41.139h.056M31.303 41.139h.034M31.337 41.139h.397M31.734 41.139h.085M31.819 41.139h.136M31.955 41.139h.176M32.131 41.139h.204M32.335 41.139h.221M32.556 41.139h.462M44.073 39.949h.465M44.073 41.139h.465M44.538 41.139h.218M44.756 41.139h.207M44.963 41.139h.176M45.139 41.139h.133M45.272 41.139h.086M44.538 39.949h.218M44.756 39.949h.207M44.963 39.949h.176M45.139 39.949h.133M45.272 39.949h.086M45.358 41.139h.396M45.358 39.949h.396M45.754 39.949h.038M45.792 39.949h.056M45.848 39.949h.073M45.921 39.949h.083M45.754 41.139h.038M45.792 41.139h.056M45.848 41.139h.073M45.921 41.139h.083M46.004 41.139h1.045M46.004 39.949h1.045M47.049 39.949v1.19M44.073 39.949v1.19M44.073 43.549v1.19M44.073 47.148v1.191M44.073 50.749v1.191M43.651 39.421l.422-.422M43.651 52.466l.422.423M33.018 52.889l.422-.423M33.018 50.749v1.191M33.018 47.148v1.191M33.018 43.549v1.19M33.018 39.949v1.19M33.018 38.999l.422.422M33.018 38.999h11.055M33.018 52.889h11.055M44.073 51.94v.949M33.018 51.94v.949M44.073 38.999v.95M33.018 38.999v.95M44.073 41.139v2.41M33.018 41.139v2.41M44.073 44.739v2.409M33.018 44.739v2.409M44.073 48.339v2.41M33.018 48.339v2.41M33.44 39.421v13.045M33.44 39.421h10.211M43.651 39.421v13.045M33.44 52.466h10.211M36.156 41.448l.032-.238M36.068 41.672l.088-.224M35.927 41.865l.141-.193M35.742 42.018l.185-.153M35.527 42.12l.215-.102M35.289 42.166l.238-.046M35.051 42.151l.238.015M34.821 42.075l.23.076M34.62 41.947l.201.128M34.456 41.771l.164.176M34.339 41.562l.117.209M34.28 41.329l.059.233M34.28 41.091v.238M34.28 41.091l.059-.233M34.339 40.858l.117-.212M34.456 40.646l.164-.173M34.62 40.473l.201-.13M34.821 40.343l.23-.074M35.051 40.269l.238-.014M35.289 40.255l.238.045M35.527 40.3l.215.102M35.742 40.402l.185.153M35.927 40.555l.141.193M36.068 40.748l.088.224M36.156 40.972l.032.238M31.088 50.749v1.191M31.337 50.749v1.191M31.734 50.749v1.191M32.556 50.749v1.191M44.538 50.749v1.191M45.358 50.749v1.191M45.754 50.749v1.191M46.004 50.749v1.191M31.088 47.148v1.191M31.337 47.148v1.191M31.734 47.148v1.191M32.556 47.148v1.191M44.538 47.148v1.191M45.358 47.148v1.191M45.754 47.148v1.191M46.004 47.148v1.191M31.088 43.549v1.19M31.337 43.549v1.19M31.734 43.549v1.19M32.556 43.549v1.19M44.538 43.549v1.19M45.358 43.549v1.19M45.754 43.549v1.19M46.004 43.549v1.19M31.088 39.949v1.19M31.337 39.949v1.19M31.734 39.949v1.19M32.556 39.949v1.19M44.538 39.949v1.19M45.358 39.949v1.19M45.754 39.949v1.19M46.004 39.949v1.19"/><path fill-rule="evenodd" clip-rule="evenodd" fill="#D9EAD3" d="M60.488 80.456h3.399v-5.839h-3.401v5.839z"/><path fill="none" stroke="#D9EAD3" stroke-width=".283" stroke-linecap="round" stroke-miterlimit="10" d="M60.488 80.456h3.399v-5.839h-3.401v5.839z"/><path fill-rule="evenodd" clip-rule="evenodd" fill="#D9EAD3" d="M67.688 80.456h3.4v-5.839H67.686v5.839z"/><path fill="none" stroke="#D9EAD3" stroke-width=".283" stroke-linecap="round" stroke-miterlimit="10" d="M67.688 80.456h3.4v-5.839H67.686v5.839z"/><path fill-rule="evenodd" clip-rule="evenodd" fill="#D9EAD3" d="M53.287 80.456h3.401v-5.839h-3.401l-.002.001v5.836l.002.002z"/><path fill="none" stroke="#D9EAD3" stroke-width=".283" stroke-linecap="round" stroke-miterlimit="10" d="M53.287 80.456h3.401v-5.839h-3.401l-.002.001v5.836l.002.002z"/><path fill-rule="evenodd" clip-rule="evenodd" fill="#D9EAD3" d="M46.087 80.456h3.4v-5.839h-3.401v5.839z"/><path fill="none" stroke="#D9EAD3" stroke-width=".283" stroke-linecap="round" stroke-miterlimit="10" d="M46.087 80.456h3.4v-5.839h-3.401v5.839z"/><path fill-rule="evenodd" clip-rule="evenodd" fill="#D9EAD3" d="M38.888 80.456h3.4v-5.839H38.886v5.839z"/><path fill="none" stroke="#D9EAD3" stroke-width=".283" stroke-linecap="round" stroke-miterlimit="10" d="M38.888 80.456h3.4v-5.839H38.886v5.839z"/><path fill-rule="evenodd" clip-rule="evenodd" fill="#A4C2F4" d="M40.587 85.43a1.984 1.984 0 1 0 0-3.968 1.984 1.984 0 0 0 0 3.968z"/><path fill="none" stroke="#A4C2F4" stroke-width=".283" stroke-linecap="round" stroke-miterlimit="10" d="M40.587 85.43a1.984 1.984 0 1 0 0-3.968 1.984 1.984 0 0 0 0 3.968z"/><path fill-rule="evenodd" clip-rule="evenodd" fill="#A4C2F4" d="M47.787 85.43a1.983 1.983 0 1 0 0-3.967 1.984 1.984 0 1 0 0 3.967z"/><path fill="none" stroke="#A4C2F4" stroke-width=".283" stroke-linecap="round" stroke-miterlimit="10" d="M47.787 85.43a1.983 1.983 0 1 0 0-3.967 1.984 1.984 0 1 0 0 3.967z"/><path fill-rule="evenodd" clip-rule="evenodd" fill="#A4C2F4" d="M54.986 85.43a1.983 1.983 0 1 0 .001-3.967 1.983 1.983 0 0 0-.001 3.967z"/><path fill="none" stroke="#A4C2F4" stroke-width=".283" stroke-linecap="round" stroke-miterlimit="10" d="M54.986 85.43a1.983 1.983 0 1 0 .001-3.967 1.983 1.983 0 0 0-.001 3.967z"/><path fill-rule="evenodd" clip-rule="evenodd" fill="#A4C2F4" d="M62.188 85.43a1.983 1.983 0 1 0 .001-3.967 1.983 1.983 0 0 0-.001 3.967z"/><path fill="none" stroke="#A4C2F4" stroke-width=".283" stroke-linecap="round" stroke-miterlimit="10" d="M62.188 85.43a1.983 1.983 0 1 0 .001-3.967 1.983 1.983 0 0 0-.001 3.967z"/><path fill-rule="evenodd" clip-rule="evenodd" fill="#A4C2F4" d="M69.387 85.43a1.983 1.983 0 1 0 .001-3.967 1.983 1.983 0 0 0-.001 3.967z"/><path fill="none" stroke="#A4C2F4" stroke-width=".283" stroke-linecap="round" stroke-miterlimit="10" d="M69.387 85.43a1.983 1.983 0 1 0 .001-3.967 1.983 1.983 0 0 0-.001 3.967z"/><path fill-rule="evenodd" clip-rule="evenodd" fill="#FFF" d="M86.953 33.775v-2.656h1.283l1.418-1.417v-4.366l-1.418-1.417h-4.365l-1.416 1.417-1.418-1.417h-1.283v-2.653l-.545-.947H78.5l-.547.947v2.653h-1.281l-1.418 1.417v4.366l1.418 1.417h4.365l1.418-1.417 1.416 1.417h1.281v2.656l.547.944h.709zM75.254 25.336v4.366M75.254 29.702l.709.708M75.254 25.336l.709-.709M88.945 30.41l.709-.708M89.654 25.336v4.366M88.945 24.627l.709.709M85.146 26.612h1.725M88.236 23.919l.709.708M83.871 23.919h4.365M83.162 24.627l.709-.708M83.162 30.41l.709.709M83.871 31.119h4.365M88.236 31.119l.709-.709M88.945 24.627v5.783M82.455 25.336l.707-.709M82.455 29.702l.707.708M83.162 24.627v5.783M81.746 24.627l.709.709M81.746 30.41l.709-.708M82.455 25.336v4.366M77.947 26.612h1.723M81.037 23.919l.709.708M76.672 23.919h4.365M75.963 24.627l.709-.708M75.963 24.627v5.783M75.963 30.41l.709.709M76.672 31.119h4.365M81.037 31.119l.709-.709M81.746 24.627v5.783M79.754 21.266v.011M79.209 20.319l.545.947M78.5 20.319h.709M77.953 21.266l.547-.947M79.754 21.277v2.5M77.953 21.277h1.801M79.754 23.777v.142M77.953 21.277v2.5M77.953 21.266v.011M77.953 23.777v.142M79.762 26.612v1.814M77.947 28.426h1.815M79.209 27.873l.553.553M77.947 26.612v1.814M77.947 28.426l.553-.553M79.209 27.165l.553-.553M77.947 26.612h1.815M77.947 26.612l.553.553M78.5 27.165v.708M78.5 27.873h.709M79.209 27.165v.708M78.5 27.165h.709M85.152 33.761v.014M85.152 33.775l.547.944M85.699 34.719h.709M86.408 34.719l.545-.944M85.152 31.26v2.501M85.152 33.761h1.801M85.152 31.119v.141M86.953 31.26v2.501M86.953 33.761v.014M86.953 31.119v.141M85.146 26.612v1.814M85.146 26.612h1.815M85.146 26.612l.553.553M86.961 26.612v1.814M86.408 27.165l.553-.553M85.146 28.426l.553-.553M85.146 28.426h1.815M86.408 27.873l.553.553M86.408 27.165v.708M85.699 27.165h.709M85.699 27.165v.708M85.699 27.873h.709M77.953 23.777h1.801M85.152 31.26h1.801"/><path fill-rule="evenodd" clip-rule="evenodd" fill="#D9EAD3" d="M87.881 29.078h-3.596l-.002.002v6.232l.002.002h3.596l.002-.002V29.08z"/><path fill="none" stroke="#D9EAD3" stroke-width=".283" stroke-linecap="round" stroke-miterlimit="10" d="M87.881 29.078h-3.596l-.002.002v6.232l.002.002h3.596l.002-.002V29.08z"/><path fill-rule="evenodd" clip-rule="evenodd" fill="#D9EAD3" d="M80.682 19.724h-3.598l-.002.001v6.233l.002.001h3.598l.002-.001v-6.233z"/><path fill="none" stroke="#D9EAD3" stroke-width=".283" stroke-linecap="round" stroke-miterlimit="10" d="M80.682 19.724h-3.598l-.002.001v6.233l.002.001h3.598l.002-.001v-6.233z"/><path fill="none" stroke="#000" stroke-width=".283" stroke-linecap="round" stroke-miterlimit="10" d="M86.953 33.775v-2.656h1.283l1.418-1.417v-4.366l-1.418-1.417h-4.365l-1.416 1.417-1.418-1.417h-1.283v-2.653l-.545-.947H78.5l-.547.947v2.653h-1.281l-1.418 1.417v4.366l1.418 1.417h4.365l1.418-1.417 1.416 1.417h1.281v2.656l.547.944h.709zM75.254 25.336v4.366M75.254 29.702l.709.708M75.254 25.336l.709-.709M88.945 30.41l.709-.708M89.654 25.336v4.366M88.945 24.627l.709.709M85.146 26.612h1.725M88.236 23.919l.709.708M83.871 23.919h4.365M83.162 24.627l.709-.708M83.162 30.41l.709.709M83.871 31.119h4.365M88.236 31.119l.709-.709M88.945 24.627v5.783M82.455 25.336l.707-.709M82.455 29.702l.707.708M83.162 24.627v5.783M81.746 24.627l.709.709M81.746 30.41l.709-.708M82.455 25.336v4.366M77.947 26.612h1.723M81.037 23.919l.709.708M76.672 23.919h4.365M75.963 24.627l.709-.708M75.963 24.627v5.783M75.963 30.41l.709.709M76.672 31.119h4.365M81.037 31.119l.709-.709M81.746 24.627v5.783M79.754 21.266v.011M79.209 20.319l.545.947M78.5 20.319h.709M77.953 21.266l.547-.947M79.754 21.277v2.5M77.953 21.277h1.801M79.754 23.777v.142M77.953 21.277v2.5M77.953 21.266v.011M77.953 23.777v.142M79.762 26.612v1.814M77.947 28.426h1.815M79.209 27.873l.553.553M77.947 26.612v1.814M77.947 28.426l.553-.553M79.209 27.165l.553-.553M77.947 26.612h1.815M77.947 26.612l.553.553M78.5 27.165v.708M78.5 27.873h.709M79.209 27.165v.708M78.5 27.165h.709M85.152 33.761v.014M85.152 33.775l.547.944M85.699 34.719h.709M86.408 34.719l.545-.944M85.152 31.26v2.501M85.152 33.761h1.801M85.152 31.119v.141M86.953 31.26v2.501M86.953 33.761v.014M86.953 31.119v.141M85.146 26.612v1.814M85.146 26.612h1.815M85.146 26.612l.553.553M86.961 26.612v1.814M86.408 27.165l.553-.553M85.146 28.426l.553-.553M85.146 28.426h1.815M86.408 27.873l.553.553M86.408 27.165v.708M85.699 27.165h.709M85.699 27.165v.708M85.699 27.873h.709M77.953 23.777h1.801M85.152 31.26h1.801"/><g><path fill-rule="evenodd" clip-rule="evenodd" fill="#FFF" d="M63.426 33.775v-2.656h1.283l1.418-1.417v-4.366l-1.418-1.417h-4.365l-1.416 1.417-1.418-1.417h-1.285v-2.653l-.543-.947h-.709l-.547.947v2.653h-1.281l-1.418 1.417v4.366l1.418 1.417h4.365l1.418-1.417 1.416 1.417h1.281v2.656l.547.944h.709z"/></g><g><path fill-rule="evenodd" clip-rule="evenodd" fill="#FFF" d="M51.727 25.336v4.366"/></g><g><path fill-rule="evenodd" clip-rule="evenodd" fill="#FFF" d="M51.727 29.702l.709.708"/></g><g><path fill-rule="evenodd" clip-rule="evenodd" fill="#FFF" d="M51.727 25.336l.709-.709"/></g><g><path fill-rule="evenodd" clip-rule="evenodd" fill="#FFF" d="M65.418 30.41l.709-.708"/></g><g><path fill-rule="evenodd" clip-rule="evenodd" fill="#FFF" d="M66.127 25.336v4.366"/></g><g><path fill-rule="evenodd" clip-rule="evenodd" fill="#FFF" d="M65.418 24.627l.709.709"/></g><g><path fill-rule="evenodd" clip-rule="evenodd" fill="#FFF" d="M61.619 26.612"/></g><g><path fill-rule="evenodd" clip-rule="evenodd" fill="#FFF" d="M61.619 26.612h1.725"/></g><g><path fill-rule="evenodd" clip-rule="evenodd" fill="#FFF" d="M63.344 26.612"/></g><g><path fill-rule="evenodd" clip-rule="evenodd" fill="#FFF" d="M64.709 23.919l.709.708"/></g><g><path fill-rule="evenodd" clip-rule="evenodd" fill="#FFF" d="M60.344 23.919h4.365"/></g><g><path fill-rule="evenodd" clip-rule="evenodd" fill="#FFF" d="M59.635 24.627l.709-.708"/></g><g><path fill-rule="evenodd" clip-rule="evenodd" fill="#FFF" d="M59.635 30.41l.709.709"/></g><g><path fill-rule="evenodd" clip-rule="evenodd" fill="#FFF" d="M60.344 31.119h4.365"/></g><g><path fill-rule="evenodd" clip-rule="evenodd" fill="#FFF" d="M64.709 31.119l.709-.709"/></g><g><path fill-rule="evenodd" clip-rule="evenodd" fill="#FFF" d="M65.418 24.627v5.783"/></g><g><path fill-rule="evenodd" clip-rule="evenodd" fill="#FFF" d="M58.928 25.336l.707-.709"/></g><g><path fill-rule="evenodd" clip-rule="evenodd" fill="#FFF" d="M58.928 29.702l.707.708"/></g><g><path fill-rule="evenodd" clip-rule="evenodd" fill="#FFF" d="M59.635 24.627v5.783"/></g><g><path fill-rule="evenodd" clip-rule="evenodd" fill="#FFF" d="M58.219 24.627l.709.709"/></g><g><path fill-rule="evenodd" clip-rule="evenodd" fill="#FFF" d="M58.219 30.41l.709-.708"/></g><g><path fill-rule="evenodd" clip-rule="evenodd" fill="#FFF" d="M58.928 25.336v4.366"/></g><g><path fill-rule="evenodd" clip-rule="evenodd" fill="#FFF" d="M54.42 26.612"/></g><g><path fill-rule="evenodd" clip-rule="evenodd" fill="#FFF" d="M54.42 26.612h1.723"/></g><g><path fill-rule="evenodd" clip-rule="evenodd" fill="#FFF" d="M56.143 26.612"/></g><g><path fill-rule="evenodd" clip-rule="evenodd" fill="#FFF" d="M57.51 23.919l.709.708"/></g><g><path fill-rule="evenodd" clip-rule="evenodd" fill="#FFF" d="M53.145 23.919h4.365"/></g><g><path fill-rule="evenodd" clip-rule="evenodd" fill="#FFF" d="M52.436 24.627l.709-.708"/></g><g><path fill-rule="evenodd" clip-rule="evenodd" fill="#FFF" d="M52.436 24.627v5.783"/></g><g><path fill-rule="evenodd" clip-rule="evenodd" fill="#FFF" d="M52.436 30.41l.709.709"/></g><g><path fill-rule="evenodd" clip-rule="evenodd" fill="#FFF" d="M53.145 31.119h4.365"/></g><g><path fill-rule="evenodd" clip-rule="evenodd" fill="#FFF" d="M57.51 31.119l.709-.709"/></g><g><path fill-rule="evenodd" clip-rule="evenodd" fill="#FFF" d="M58.219 24.627v5.783"/></g><g><path fill-rule="evenodd" clip-rule="evenodd" fill="#FFF" d="M56.225 21.266v.011"/></g><g><path fill-rule="evenodd" clip-rule="evenodd" fill="#FFF" d="M55.682 20.319l.543.947"/></g><g><path fill-rule="evenodd" clip-rule="evenodd" fill="#FFF" d="M54.973 20.319h.709"/></g><g><path fill-rule="evenodd" clip-rule="evenodd" fill="#FFF" d="M54.426 21.266l.547-.947"/></g><g><path fill-rule="evenodd" clip-rule="evenodd" fill="#FFF" d="M56.225 21.277v2.5"/></g><g><path fill-rule="evenodd" clip-rule="evenodd" fill="#FFF" d="M54.426 21.277h1.799"/></g><g><path fill-rule="evenodd" clip-rule="evenodd" fill="#FFF" d="M56.225 23.777v.142"/></g><g><path fill-rule="evenodd" clip-rule="evenodd" fill="#FFF" d="M54.426 21.277v2.5"/></g><g><path fill-rule="evenodd" clip-rule="evenodd" fill="#FFF" d="M54.426 21.266v.011"/></g><g><path fill-rule="evenodd" clip-rule="evenodd" fill="#FFF" d="M54.426 23.777v.142"/></g><g><path fill-rule="evenodd" clip-rule="evenodd" fill="#FFF" d="M56.234 26.612v1.814"/></g><g><path fill-rule="evenodd" clip-rule="evenodd" fill="#FFF" d="M54.42 28.426h1.814"/></g><g><path fill-rule="evenodd" clip-rule="evenodd" fill="#FFF" d="M55.682 27.873l.552.553"/></g><g><path fill-rule="evenodd" clip-rule="evenodd" fill="#FFF" d="M54.42 26.612v1.814"/></g><g><path fill-rule="evenodd" clip-rule="evenodd" fill="#FFF" d="M54.42 28.426l.553-.553"/></g><g><path fill-rule="evenodd" clip-rule="evenodd" fill="#FFF" d="M55.682 27.165l.552-.553"/></g><g><path fill-rule="evenodd" clip-rule="evenodd" fill="#FFF" d="M54.42 26.612h1.814"/></g><g><path fill-rule="evenodd" clip-rule="evenodd" fill="#FFF" d="M54.42 26.612l.553.553"/></g><g><path fill-rule="evenodd" clip-rule="evenodd" fill="#FFF" d="M54.973 27.165v.708"/></g><g><path fill-rule="evenodd" clip-rule="evenodd" fill="#FFF" d="M54.973 27.873h.709"/></g><g><path fill-rule="evenodd" clip-rule="evenodd" fill="#FFF" d="M55.682 27.165v.708"/></g><g><path fill-rule="evenodd" clip-rule="evenodd" fill="#FFF" d="M54.973 27.165h.709"/></g><g><path fill-rule="evenodd" clip-rule="evenodd" fill="#FFF" d="M61.625 33.761v.014"/></g><g><path fill-rule="evenodd" clip-rule="evenodd" fill="#FFF" d="M61.625 33.775l.547.944"/></g><g><path fill-rule="evenodd" clip-rule="evenodd" fill="#FFF" d="M62.172 34.719h.709"/></g><g><path fill-rule="evenodd" clip-rule="evenodd" fill="#FFF" d="M62.881 34.719l.545-.944"/></g><g><path fill-rule="evenodd" clip-rule="evenodd" fill="#FFF" d="M61.625 31.26v2.501"/></g><g><path fill-rule="evenodd" clip-rule="evenodd" fill="#FFF" d="M61.625 33.761h1.801"/></g><g><path fill-rule="evenodd" clip-rule="evenodd" fill="#FFF" d="M61.625 31.119v.141"/></g><g><path fill-rule="evenodd" clip-rule="evenodd" fill="#FFF" d="M63.426 31.26v2.501"/></g><g><path fill-rule="evenodd" clip-rule="evenodd" fill="#FFF" d="M63.426 33.761v.014"/></g><g><path fill-rule="evenodd" clip-rule="evenodd" fill="#FFF" d="M63.426 31.119v.141"/></g><g><path fill-rule="evenodd" clip-rule="evenodd" fill="#FFF" d="M61.619 26.612v1.814"/></g><g><path fill-rule="evenodd" clip-rule="evenodd" fill="#FFF" d="M61.619 26.612h1.815"/></g><g><path fill-rule="evenodd" clip-rule="evenodd" fill="#FFF" d="M61.619 26.612l.553.553"/></g><g><path fill-rule="evenodd" clip-rule="evenodd" fill="#FFF" d="M63.434 26.612v1.814"/></g><g><path fill-rule="evenodd" clip-rule="evenodd" fill="#FFF" d="M62.881 27.165l.553-.553"/></g><g><path fill-rule="evenodd" clip-rule="evenodd" fill="#FFF" d="M61.619 28.426l.553-.553"/></g><g><path fill-rule="evenodd" clip-rule="evenodd" fill="#FFF" d="M61.619 28.426h1.815"/></g><g><path fill-rule="evenodd" clip-rule="evenodd" fill="#FFF" d="M62.881 27.873l.553.553"/></g><g><path fill-rule="evenodd" clip-rule="evenodd" fill="#FFF" d="M62.881 27.165v.708"/></g><g><path fill-rule="evenodd" clip-rule="evenodd" fill="#FFF" d="M62.172 27.165h.709"/></g><g><path fill-rule="evenodd" clip-rule="evenodd" fill="#FFF" d="M62.172 27.165v.708"/></g><g><path fill-rule="evenodd" clip-rule="evenodd" fill="#FFF" d="M62.172 27.873h.709"/></g><g><path fill-rule="evenodd" clip-rule="evenodd" fill="#FFF" d="M54.426 23.777h1.799"/></g><g><path fill-rule="evenodd" clip-rule="evenodd" fill="#FFF" d="M61.625 31.26h1.801"/></g><path fill-rule="evenodd" clip-rule="evenodd" fill="#D9EAD3" d="M64.354 29.078h-3.596l-.002.002v6.232l.002.002h3.596l.001-.002V29.08z"/><path fill="none" stroke="#D9EAD3" stroke-width=".283" stroke-linecap="round" stroke-miterlimit="10" d="M64.354 29.078h-3.596l-.002.002v6.232l.002.002h3.596l.001-.002V29.08z"/><path fill-rule="evenodd" clip-rule="evenodd" fill="#D9EAD3" d="M57.154 19.724h-3.597l-.002.001v6.233l.002.001h3.597v-6.234z"/><path fill="none" stroke="#D9EAD3" stroke-width=".283" stroke-linecap="round" stroke-miterlimit="10" d="M57.154 19.724h-3.597l-.002.001v6.233l.002.001h3.597v-6.234z"/><path fill="none" stroke="#000" stroke-width=".283" stroke-linecap="round" stroke-miterlimit="10" d="M63.426 33.775v-2.656h1.283l1.418-1.417v-4.366l-1.418-1.417h-4.365l-1.416 1.417-1.418-1.417h-1.285v-2.653l-.543-.947h-.709l-.547.947v2.653h-1.281l-1.418 1.417v4.366l1.418 1.417h4.365l1.418-1.417 1.416 1.417h1.281v2.656l.547.944h.709zM51.727 25.336v4.366M51.727 29.702l.709.708M51.727 25.336l.709-.709M65.418 30.41l.709-.708M66.127 25.336v4.366M65.418 24.627l.709.709M61.619 26.612h1.725M64.709 23.919l.709.708M60.344 23.919h4.365M59.635 24.627l.709-.708M59.635 30.41l.709.709M60.344 31.119h4.365M64.709 31.119l.709-.709M65.418 24.627v5.783M58.928 25.336l.707-.709M58.928 29.702l.707.708M59.635 24.627v5.783M58.219 24.627l.709.709M58.219 30.41l.709-.708M58.928 25.336v4.366M54.42 26.612h1.723M57.51 23.919l.709.708M53.145 23.919h4.365M52.436 24.627l.709-.708M52.436 24.627v5.783M52.436 30.41l.709.709M53.145 31.119h4.365M57.51 31.119l.709-.709M58.219 24.627v5.783M56.225 21.266v.011M55.682 20.319l.543.947M54.973 20.319h.709M54.426 21.266l.547-.947M56.225 21.277v2.5M54.426 21.277h1.799M56.225 23.777v.142M54.426 21.277v2.5M54.426 21.266v.011M54.426 23.777v.142M56.234 26.612v1.814M54.42 28.426h1.814M55.682 27.873l.552.553M54.42 26.612v1.814M54.42 28.426l.553-.553M55.682 27.165l.552-.553M54.42 26.612h1.814M54.42 26.612l.553.553M54.973 27.165v.708M54.973 27.873h.709M55.682 27.165v.708M54.973 27.165h.709M61.625 33.761v.014M61.625 33.775l.547.944M62.172 34.719h.709M62.881 34.719l.545-.944M61.625 31.26v2.501M61.625 33.761h1.801M61.625 31.119v.141M63.426 31.26v2.501M63.426 33.761v.014M63.426 31.119v.141M61.619 26.612v1.814M61.619 26.612h1.815M61.619 26.612l.553.553M63.434 26.612v1.814M62.881 27.165l.553-.553M61.619 28.426l.553-.553M61.619 28.426h1.815M62.881 27.873l.553.553M62.881 27.165v.708M62.172 27.165h.709M62.172 27.165v.708M62.172 27.873h.709M54.426 23.777h1.799M61.625 31.26h1.801"/></svg>