<svg xmlns="http://www.w3.org/2000/svg" xmlns:xlink="http://www.w3.org/1999/xlink" viewBox="0 0 109.417 113.386"><path fill="#FFF" d="M95.141-8.527v84.472H-8.607"/><path fill-rule="evenodd" clip-rule="evenodd" fill="#FFF" d="M3.123 87.046h103.748V18.873H36.005a1.416 1.416 0 0 1-1.417-1.417V2.574H8.509v14.882a1.416 1.416 0 0 1-1.417 1.417H3.123v68.173z"/><path fill-rule="evenodd" clip-rule="evenodd" fill="#A4C2F4" d="M66.846 66.269a2.693 2.693 0 1 0 0-5.387 2.693 2.693 0 0 0 0 5.387z"/><path fill="none" stroke="#A4C2F4" stroke-width=".283" stroke-linecap="round" stroke-miterlimit="10" d="M66.846 66.269a2.693 2.693 0 1 0 0-5.387 2.693 2.693 0 0 0 0 5.387z"/><path fill-rule="evenodd" clip-rule="evenodd" fill="#A4C2F4" d="M58.994 66.269a2.693 2.693 0 1 0 0-5.385 2.693 2.693 0 0 0 0 5.385z"/><path fill="none" stroke="#A4C2F4" stroke-width=".283" stroke-linecap="round" stroke-miterlimit="10" d="M58.994 66.269a2.693 2.693 0 1 0 0-5.385 2.693 2.693 0 0 0 0 5.385z"/><path fill-rule="evenodd" clip-rule="evenodd" fill="#A4C2F4" d="M51.142 66.269a2.694 2.694 0 1 0 0-5.385 2.694 2.694 0 0 0 0 5.385z"/><path fill="none" stroke="#A4C2F4" stroke-width=".283" stroke-linecap="round" stroke-miterlimit="10" d="M51.142 66.269a2.694 2.694 0 1 0 0-5.385 2.694 2.694 0 0 0 0 5.385z"/><path fill-rule="evenodd" clip-rule="evenodd" fill="#A4C2F4" d="M43.29 66.269a2.694 2.694 0 1 0-.002-5.388 2.694 2.694 0 0 0 .002 5.388z"/><path fill="none" stroke="#A4C2F4" stroke-width=".283" stroke-linecap="round" stroke-miterlimit="10" d="M43.29 66.269a2.694 2.694 0 1 0-.002-5.388 2.694 2.694 0 0 0 .002 5.388z"/><path fill-rule="evenodd" clip-rule="evenodd" fill="#A4C2F4" d="M70.771 58.218a2.693 2.693 0 1 0 0-5.387 2.693 2.693 0 0 0 0 5.387z"/><path fill="none" stroke="#A4C2F4" stroke-width=".283" stroke-linecap="round" stroke-miterlimit="10" d="M70.771 58.218a2.693 2.693 0 1 0 0-5.387 2.693 2.693 0 0 0 0 5.387z"/><path fill-rule="evenodd" clip-rule="evenodd" fill="#A4C2F4" d="M62.92 58.218a2.694 2.694 0 1 0-2.693-2.693 2.695 2.695 0 0 0 2.693 2.693z"/><path fill="none" stroke="#A4C2F4" stroke-width=".283" stroke-linecap="round" stroke-miterlimit="10" d="M62.92 58.218a2.694 2.694 0 1 0-2.693-2.693 2.695 2.695 0 0 0 2.693 2.693z"/><path fill-rule="evenodd" clip-rule="evenodd" fill="#A4C2F4" d="M55.068 58.218a2.694 2.694 0 1 0-2.694-2.693 2.695 2.695 0 0 0 2.694 2.693z"/><path fill="none" stroke="#A4C2F4" stroke-width=".283" stroke-linecap="round" stroke-miterlimit="10" d="M55.068 58.218a2.694 2.694 0 1 0-2.694-2.693 2.695 2.695 0 0 0 2.694 2.693z"/><path fill-rule="evenodd" clip-rule="evenodd" fill="#A4C2F4" d="M47.216 58.218a2.694 2.694 0 0 0 0-5.386 2.693 2.693 0 0 0 0 5.386z"/><path fill="none" stroke="#A4C2F4" stroke-width=".283" stroke-linecap="round" stroke-miterlimit="10" d="M47.216 58.218a2.694 2.694 0 0 0 0-5.386 2.693 2.693 0 0 0 0 5.386z"/><path fill-rule="evenodd" clip-rule="evenodd" fill="#A4C2F4" d="M39.364 58.218a2.694 2.694 0 0 0 0-5.386 2.693 2.693 0 0 0 0 5.386z"/><path fill="none" stroke="#A4C2F4" stroke-width=".283" stroke-linecap="round" stroke-miterlimit="10" d="M39.364 58.218a2.694 2.694 0 0 0 0-5.386 2.693 2.693 0 0 0 0 5.386z"/><path fill-rule="evenodd" clip-rule="evenodd" fill="#A4C2F4" d="M90.416 67.203a7.653 7.653 0 1 0 0-15.306 7.653 7.653 0 0 0 0 15.306z"/><path fill="none" stroke="#A4C2F4" stroke-width=".283" stroke-linecap="round" stroke-miterlimit="10" d="M90.416 67.203a7.653 7.653 0 1 0 0-15.306 7.653 7.653 0 0 0 0 15.306z"/><path fill-rule="evenodd" clip-rule="evenodd" fill="#A4C2F4" d="M19.578 67.203a7.653 7.653 0 1 0-7.653-7.652 7.652 7.652 0 0 0 7.653 7.652z"/><path fill="none" stroke="#A4C2F4" stroke-width=".283" stroke-linecap="round" stroke-miterlimit="10" d="M19.578 67.203a7.653 7.653 0 1 0-7.653-7.652 7.652 7.652 0 0 0 7.653 7.652z"/><path fill-rule="evenodd" clip-rule="evenodd" fill="#FFF" d="M3.123 87.046h103.748V18.873H36.005a1.416 1.416 0 0 1-1.417-1.417V2.574H8.509v14.882a1.416 1.416 0 0 1-1.417 1.417H3.123v68.173z"/><path fill="none" stroke="#000" stroke-width=".567" stroke-linecap="round" stroke-miterlimit="10" d="M3.123 87.046h103.748V18.873H36.005a1.416 1.416 0 0 1-1.417-1.417V2.574H8.509v14.882a1.416 1.416 0 0 1-1.417 1.417H3.123v68.173z"/><path fill-rule="evenodd" clip-rule="evenodd" fill="#FFF" d="M90.416 63.916a4.366 4.366 0 0 0 0-8.73 4.366 4.366 0 0 0 0 8.73z"/><path fill="none" stroke="#000" stroke-width=".283" stroke-linecap="round" stroke-miterlimit="10" d="M90.416 63.916a4.366 4.366 0 0 0 0-8.73 4.366 4.366 0 0 0 0 8.73z"/><path fill-rule="evenodd" clip-rule="evenodd" fill="#FFF" d="M19.578 63.916a4.366 4.366 0 1 0 0-8.732 4.366 4.366 0 0 0 0 8.732z"/><path fill="none" stroke="#000" stroke-width=".283" stroke-linecap="round" stroke-miterlimit="10" d="M19.578 63.916a4.366 4.366 0 1 0 0-8.732 4.366 4.366 0 0 0 0 8.732z"/><path fill-rule="evenodd" clip-rule="evenodd" fill="#FFF" d="M98.934 44.526c1.566 0 2.836-1.269 2.836-2.834a2.835 2.835 0 0 0-5.67 0 2.834 2.834 0 0 0 2.834 2.834z"/><path fill="none" stroke="#000" stroke-width=".283" stroke-linecap="round" stroke-miterlimit="10" d="M98.934 44.526c1.566 0 2.836-1.269 2.836-2.834a2.835 2.835 0 0 0-5.67 0 2.834 2.834 0 0 0 2.834 2.834z"/><path fill-rule="evenodd" clip-rule="evenodd" fill="#FFF" d="M11.06 44.526a2.834 2.834 0 1 0 0-5.668 2.834 2.834 0 0 0 0 5.668z"/><path fill="none" stroke="#000" stroke-width=".283" stroke-linecap="round" stroke-miterlimit="10" d="M11.06 44.526a2.834 2.834 0 1 0 0-5.668 2.834 2.834 0 0 0 0 5.668z"/><defs><path id="U" d="M3.123 87.046h103.748V18.873H36.005a1.416 1.416 0 0 1-1.417-1.417V2.574H8.509v14.882a1.416 1.416 0 0 1-1.417 1.417H3.123v68.173z"/></defs><clipPath id="V"><use xlink:href="#U" overflow="visible"/></clipPath><path clip-path="url(#V)" fill="none" stroke="#000" stroke-width=".72" stroke-linecap="round" stroke-miterlimit="10" d="M81.898 33.216v-5.641M81.785 33.33l.113-.114M71.58 33.33h10.205M71.098 32.848l.482.482M71.098 32.848v-5.273M81.785 33.33h10.488M92.273 33.33l.424-.426M92.697 32.904v-5.329M68.461 32.763v-5.329M68.037 33.188l.424-.425M57.549 33.188h10.488M46.862 32.706v-5.272M46.862 32.706l.482.482M47.344 33.188h10.205M57.549 33.188l.113-.113M57.662 33.075v-5.641"/><path clip-path="url(#V)" fill="none" stroke="#000" stroke-width=".425" stroke-linecap="round" stroke-miterlimit="10" d="M6.808 35.172H3.975M3.975 35.172v-1.417M3.975 33.755l.472-.472M4.447 33.283h.944M5.391 33.283l.473.472M5.864 33.755v1.417M5.864 34.228l.944-.945M4.447 30.449l-.472.472M3.975 30.921v.945M3.975 31.866l.472.472M4.447 32.338h.472M4.919 32.338l.472-.472M5.391 31.866v-.945M5.391 30.921l.473-.472M5.864 30.449h.472M6.336 30.449l.472.472M6.808 30.921v.945M6.808 31.866l-.472.472M5.391 29.504v-1.888M6.808 25.254H3.975M3.975 25.254l1.416 1.417M5.391 26.671v-1.889M4.447 23.837l-.472-.472M3.975 23.365v-.945M3.975 22.42l.472-.472M4.447 21.948h.472M4.919 21.948l.472.472M5.391 22.42l.473-.472M5.864 21.948h.472M6.336 21.948l.472.472M6.808 22.42v.945M6.808 23.365l-.472.472M6.336 23.837h-.472M5.864 23.837l-.473-.472M5.391 23.365l-.472.472M4.919 23.837h-.472M5.391 23.365v-.945M3.975 19.114v1.889M3.975 21.003h1.416M5.391 21.003l-.472-.944M4.919 20.059v-.473M4.919 19.586l.472-.472M5.391 19.114h.945M6.336 19.114l.472.472M6.808 19.586v.945M6.808 20.531l-.472.472M74.604 31.912h-1.891M72.713 31.912l1.891-1.889M74.604 30.023v-.472M74.604 29.551l-.473-.472M74.131 29.079h-.945M73.186 29.079l-.473.472M76.965 31.912v-2.833M76.965 29.079l-1.418 1.417M75.547 30.496h1.889M78.381 29.079v1.889M78.381 30.968l.945.944M79.326 31.912l.944-.944M80.27 30.968v-1.889M86.791 29.079h-1.889M84.902 29.079v1.417M84.902 30.496l.946-.473M85.848 30.023h.472M86.32 30.023l.471.473M86.791 30.496v.944M86.791 31.44l-.471.472M86.32 31.912h-.945M85.375 31.912l-.473-.472M87.736 29.079v1.889M87.736 30.968l.946.944M88.682 31.912l.943-.944M89.625 30.968v-1.889M62.555 28.937h-1.889M60.666 28.937v1.417M60.666 30.354l.945-.473M61.611 29.881h.473M62.084 29.881l.471.473M62.555 30.354v.944M62.555 31.298l-.471.473M62.084 31.771h-.945M61.139 31.771l-.473-.473M63.5 28.937v1.889M63.5 30.826l.945.945M64.445 31.771l.944-.945M65.389 30.826v-1.889M50.367 31.771h-1.889M48.478 31.771l1.889-1.89M50.367 29.881v-.472M50.367 29.409l-.473-.472M49.894 28.937h-.944M48.95 28.937l-.472.472M52.728 31.771v-2.834M52.728 28.937l-1.417 1.417M51.311 30.354h1.89M54.145 28.937v1.889M54.145 30.826l.945.945M55.09 31.771l.943-.945M56.033 30.826v-1.889"/><path fill-rule="evenodd" clip-rule="evenodd" fill="#A4C2F4" d="M64.748 77.976a1.983 1.983 0 1 0-.002 3.966 1.983 1.983 0 0 0 .002-3.966z"/><path fill="none" stroke="#A4C2F4" stroke-width=".283" stroke-linecap="round" stroke-miterlimit="10" d="M64.748 77.976a1.983 1.983 0 1 0-.002 3.966 1.983 1.983 0 0 0 .002-3.966z"/><path fill-rule="evenodd" clip-rule="evenodd" fill="#A4C2F4" d="M71.949 77.976a1.982 1.982 0 0 0-1.984 1.984c0 1.096.887 1.982 1.984 1.982a1.98 1.98 0 0 0 1.982-1.982 1.98 1.98 0 0 0-1.982-1.984z"/><path fill="none" stroke="#A4C2F4" stroke-width=".283" stroke-linecap="round" stroke-miterlimit="10" d="M71.949 77.976a1.982 1.982 0 0 0-1.984 1.984c0 1.096.887 1.982 1.984 1.982a1.98 1.98 0 0 0 1.982-1.982 1.98 1.98 0 0 0-1.982-1.984z"/><path fill-rule="evenodd" clip-rule="evenodd" fill="#A4C2F4" d="M79.148 77.976a1.983 1.983 0 1 0 1.984 1.984 1.982 1.982 0 0 0-1.984-1.984z"/><path fill="none" stroke="#A4C2F4" stroke-width=".283" stroke-linecap="round" stroke-miterlimit="10" d="M79.148 77.976a1.983 1.983 0 1 0 1.984 1.984 1.982 1.982 0 0 0-1.984-1.984z"/><path fill-rule="evenodd" clip-rule="evenodd" fill="#A4C2F4" d="M86.348 77.976a1.983 1.983 0 1 0-.002 3.966 1.983 1.983 0 0 0 .002-3.966z"/><path fill="none" stroke="#A4C2F4" stroke-width=".283" stroke-linecap="round" stroke-miterlimit="10" d="M86.348 77.976a1.983 1.983 0 1 0-.002 3.966 1.983 1.983 0 0 0 .002-3.966z"/><path fill-rule="evenodd" clip-rule="evenodd" fill="#A4C2F4" d="M95.672 77.833h-4.248l-.002.002v4.248l.002.002h4.248l.002-.002v-4.248z"/><path fill="none" stroke="#A4C2F4" stroke-width=".283" stroke-linecap="round" stroke-miterlimit="10" d="M95.672 77.833h-4.248l-.002.002v4.248l.002.002h4.248l.002-.002v-4.248z"/><path fill-rule="evenodd" clip-rule="evenodd" fill="#A4C2F4" d="M16.843 77.976a1.983 1.983 0 1 0-.002 3.966 1.983 1.983 0 0 0 .002-3.966z"/><path fill="none" stroke="#A4C2F4" stroke-width=".283" stroke-linecap="round" stroke-miterlimit="10" d="M16.843 77.976a1.983 1.983 0 1 0-.002 3.966 1.983 1.983 0 0 0 .002-3.966z"/><path fill-rule="evenodd" clip-rule="evenodd" fill="#A4C2F4" d="M24.043 77.976a1.983 1.983 0 1 0 0 3.966 1.983 1.983 0 1 0 0-3.966z"/><path fill="none" stroke="#A4C2F4" stroke-width=".283" stroke-linecap="round" stroke-miterlimit="10" d="M24.043 77.976a1.983 1.983 0 1 0 0 3.966 1.983 1.983 0 1 0 0-3.966z"/><path fill-rule="evenodd" clip-rule="evenodd" fill="#A4C2F4" d="M31.243 77.976a1.983 1.983 0 1 0 0 3.966 1.983 1.983 0 1 0 0-3.966z"/><path fill="none" stroke="#A4C2F4" stroke-width=".283" stroke-linecap="round" stroke-miterlimit="10" d="M31.243 77.976a1.983 1.983 0 1 0 0 3.966 1.983 1.983 0 1 0 0-3.966z"/><path fill-rule="evenodd" clip-rule="evenodd" fill="#A4C2F4" d="M38.443 77.976a1.983 1.983 0 1 0 0 3.966 1.983 1.983 0 1 0 0-3.966z"/><path fill="none" stroke="#A4C2F4" stroke-width=".283" stroke-linecap="round" stroke-miterlimit="10" d="M38.443 77.976a1.983 1.983 0 1 0 0 3.966 1.983 1.983 0 1 0 0-3.966z"/><path fill-rule="evenodd" clip-rule="evenodd" fill="#A4C2F4" d="M47.767 77.833h-4.248l-.002.002v4.248l.002.002h4.248l.002-.002v-4.248z"/><path fill="none" stroke="#A4C2F4" stroke-width=".283" stroke-linecap="round" stroke-miterlimit="10" d="M47.767 77.833h-4.248l-.002.002v4.248l.002.002h4.248l.002-.002v-4.248z"/><path fill-rule="evenodd" clip-rule="evenodd" fill="#FFF" d="M9.841 3.906h22.28v8.674H9.841z"/><path fill-rule="evenodd" clip-rule="evenodd" fill="#D9EAD3" d="M11.627 12.494V3.991h-1.7l-.001.001v8.502l.001.001h1.7z"/><path fill="none" stroke="#D9EAD3" stroke-width=".283" stroke-linecap="round" stroke-miterlimit="10" d="M11.627 12.494V3.991h-1.7l-.001.001v8.502l.001.001h1.7z"/><path fill-rule="evenodd" clip-rule="evenodd" fill="#D9EAD3" d="M13.895 12.494V6.26l-.001-.001h-1.699l-.001.001v6.234l.001.001h1.699z"/><path fill="none" stroke="#D9EAD3" stroke-width=".283" stroke-linecap="round" stroke-miterlimit="10" d="M13.895 12.494V6.26l-.001-.001h-1.699l-.001.001v6.234l.001.001h1.699z"/><path fill-rule="evenodd" clip-rule="evenodd" fill="#D9EAD3" d="M16.163 12.494V6.26l-.001-.001h-1.7l-.001.001v6.234l.001.001h1.7z"/><path fill="none" stroke="#D9EAD3" stroke-width=".283" stroke-linecap="round" stroke-miterlimit="10" d="M16.163 12.494V6.26l-.001-.001h-1.7l-.001.001v6.234l.001.001h1.7z"/><path fill-rule="evenodd" clip-rule="evenodd" fill="#D9EAD3" d="M18.43 12.494V6.26l-.001-.001H16.73l-.001.001v6.234l.001.001h1.699z"/><path fill="none" stroke="#D9EAD3" stroke-width=".283" stroke-linecap="round" stroke-miterlimit="10" d="M18.43 12.494V6.26l-.001-.001H16.73l-.001.001v6.234l.001.001h1.699z"/><path fill-rule="evenodd" clip-rule="evenodd" fill="#D9EAD3" d="M20.698 12.494V6.26l-.001-.001h-1.699l-.001.001v6.234l.001.001h1.699z"/><path fill="none" stroke="#D9EAD3" stroke-width=".283" stroke-linecap="round" stroke-miterlimit="10" d="M20.698 12.494V6.26l-.001-.001h-1.699l-.001.001v6.234l.001.001h1.699z"/><path fill-rule="evenodd" clip-rule="evenodd" fill="#D9EAD3" d="M22.966 12.494V6.26l-.001-.001h-1.699l-.001.001v6.234l.001.001h1.699z"/><path fill="none" stroke="#D9EAD3" stroke-width=".283" stroke-linecap="round" stroke-miterlimit="10" d="M22.966 12.494V6.26l-.001-.001h-1.699l-.001.001v6.234l.001.001h1.699z"/><path fill-rule="evenodd" clip-rule="evenodd" fill="#D9EAD3" d="M25.233 12.494V6.26l-.001-.001h-1.699V12.495h1.699z"/><path fill="none" stroke="#D9EAD3" stroke-width=".283" stroke-linecap="round" stroke-miterlimit="10" d="M25.233 12.494V6.26l-.001-.001h-1.699V12.495h1.699z"/><path fill-rule="evenodd" clip-rule="evenodd" fill="#D9EAD3" d="M27.501 12.494V6.26l-.001-.001h-1.699l-.001.001v6.234l.001.001H27.5z"/><path fill="none" stroke="#D9EAD3" stroke-width=".283" stroke-linecap="round" stroke-miterlimit="10" d="M27.501 12.494V6.26l-.001-.001h-1.699l-.001.001v6.234l.001.001H27.5z"/><path fill-rule="evenodd" clip-rule="evenodd" fill="#D9EAD3" d="M29.769 12.494V6.26l-.001-.001h-1.699l-.001.001v6.234l.001.001h1.699z"/><path fill="none" stroke="#D9EAD3" stroke-width=".283" stroke-linecap="round" stroke-miterlimit="10" d="M29.769 12.494V6.26l-.001-.001h-1.699l-.001.001v6.234l.001.001h1.699z"/><path fill-rule="evenodd" clip-rule="evenodd" fill="#D9EAD3" d="M32.037 12.494V6.26l-.001-.001h-1.7l-.001.001v6.234l.001.001h1.7z"/><path fill="none" stroke="#D9EAD3" stroke-width=".283" stroke-linecap="round" stroke-miterlimit="10" d="M32.037 12.494V6.26l-.001-.001h-1.7l-.001.001v6.234l.001.001h1.7z"/><path fill="none" stroke="#000" stroke-width=".283" stroke-linecap="round" stroke-miterlimit="10" d="M9.841 3.906h22.28v8.674H9.841z"/><path fill-rule="evenodd" clip-rule="evenodd" fill="#A4C2F4" d="M72.432 25.959h4.248l.002-.001v-4.249l-.002-.001h-4.248l-.002.001v4.249z"/><path fill="none" stroke="#A4C2F4" stroke-width=".283" stroke-linecap="round" stroke-miterlimit="10" d="M72.432 25.959h4.248l.002-.001v-4.249l-.002-.001h-4.248l-.002.001v4.249z"/><path fill-rule="evenodd" clip-rule="evenodd" fill="#A4C2F4" d="M81.756 25.818a1.984 1.984 0 1 0 0-3.967 1.984 1.984 0 0 0 0 3.967z"/><path fill="none" stroke="#A4C2F4" stroke-width=".283" stroke-linecap="round" stroke-miterlimit="10" d="M81.756 25.818a1.984 1.984 0 1 0 0-3.967 1.984 1.984 0 0 0 0 3.967z"/><path fill-rule="evenodd" clip-rule="evenodd" fill="#A4C2F4" d="M88.957 25.818a1.984 1.984 0 1 0 0-3.967 1.984 1.984 0 0 0 0 3.967z"/><path fill="none" stroke="#A4C2F4" stroke-width=".283" stroke-linecap="round" stroke-miterlimit="10" d="M88.957 25.818a1.984 1.984 0 1 0 0-3.967 1.984 1.984 0 0 0 0 3.967z"/><path fill-rule="evenodd" clip-rule="evenodd" fill="#A4C2F4" d="M48.338 25.959h4.247l.002-.001v-4.249l-.002-.001h-4.247l-.003.001v4.249z"/><path fill="none" stroke="#A4C2F4" stroke-width=".283" stroke-linecap="round" stroke-miterlimit="10" d="M48.338 25.959h4.247l.002-.001v-4.249l-.002-.001h-4.247l-.003.001v4.249z"/><path fill-rule="evenodd" clip-rule="evenodd" fill="#A4C2F4" d="M57.662 25.818a1.984 1.984 0 1 0 0-3.967 1.984 1.984 0 0 0 0 3.967z"/><path fill="none" stroke="#A4C2F4" stroke-width=".283" stroke-linecap="round" stroke-miterlimit="10" d="M57.662 25.818a1.984 1.984 0 1 0 0-3.967 1.984 1.984 0 0 0 0 3.967z"/><path fill-rule="evenodd" clip-rule="evenodd" fill="#A4C2F4" d="M64.861 25.818a1.984 1.984 0 1 0 0-3.967 1.984 1.984 0 0 0 0 3.967z"/><path fill="none" stroke="#A4C2F4" stroke-width=".283" stroke-linecap="round" stroke-miterlimit="10" d="M64.861 25.818a1.984 1.984 0 1 0 0-3.967 1.984 1.984 0 0 0 0 3.967z"/><path fill-rule="evenodd" clip-rule="evenodd" fill="#A4C2F4" d="M105.029 76.697v-4.246l-.002-.004h-4.248l-.002.004v4.246l.002.004h4.248z"/><path fill="none" stroke="#A4C2F4" stroke-width=".283" stroke-linecap="round" stroke-miterlimit="10" d="M105.029 76.697v-4.246l-.002-.004h-4.248l-.002.004v4.246l.002.004h4.248z"/><path fill-rule="evenodd" clip-rule="evenodd" fill="#A4C2F4" d="M104.887 67.375a1.983 1.983 0 1 0-3.968 0 1.984 1.984 0 0 0 3.968 0z"/><path fill="none" stroke="#A4C2F4" stroke-width=".283" stroke-linecap="round" stroke-miterlimit="10" d="M104.887 67.375a1.983 1.983 0 1 0-3.968 0 1.984 1.984 0 0 0 3.968 0z"/><path fill-rule="evenodd" clip-rule="evenodd" fill="#A4C2F4" d="M9.218 76.697v-4.246l-.003-.004H4.968l-.003.004v4.246l.003.004h4.247z"/><path fill="none" stroke="#A4C2F4" stroke-width=".283" stroke-linecap="round" stroke-miterlimit="10" d="M9.218 76.697v-4.246l-.003-.004H4.968l-.003.004v4.246l.003.004h4.247z"/><path fill-rule="evenodd" clip-rule="evenodd" fill="#A4C2F4" d="M9.076 67.375a1.983 1.983 0 1 0-1.984 1.984 1.984 1.984 0 0 0 1.984-1.984z"/><path fill="none" stroke="#A4C2F4" stroke-width=".283" stroke-linecap="round" stroke-miterlimit="10" d="M9.076 67.375a1.983 1.983 0 1 0-1.984 1.984 1.984 1.984 0 0 0 1.984-1.984z"/><path fill-rule="evenodd" clip-rule="evenodd" fill="#FFF" d="M3.951 48.472h5.715v5.715H3.951z"/><path fill-rule="evenodd" clip-rule="evenodd" fill="#D9EAD3" d="M6.808 52.605a1.274 1.274 0 1 0 0-2.55 1.275 1.275 0 1 0 0 2.55z"/><path fill="none" stroke="#D9EAD3" stroke-width=".283" stroke-linecap="round" stroke-miterlimit="10" d="M6.808 52.605a1.274 1.274 0 1 0 0-2.55 1.275 1.275 0 1 0 0 2.55z"/><path fill="none" stroke="#000" stroke-width=".283" stroke-linecap="round" stroke-miterlimit="10" d="M3.951 48.472h5.715v5.715H3.951z"/><path fill-rule="evenodd" clip-rule="evenodd" fill="#FFF" d="M100.328 19.559h5.715v5.714h-5.715z"/><path fill-rule="evenodd" clip-rule="evenodd" fill="#D9EAD3" d="M103.186 23.692a1.275 1.275 0 1 0 0-2.55 1.275 1.275 0 0 0 0 2.55z"/><path fill="none" stroke="#D9EAD3" stroke-width=".283" stroke-linecap="round" stroke-miterlimit="10" d="M103.186 23.692a1.275 1.275 0 1 0 0-2.55 1.275 1.275 0 0 0 0 2.55z"/><path fill="none" stroke="#000" stroke-width=".283" stroke-linecap="round" stroke-miterlimit="10" d="M100.328 19.559h5.715v5.714h-5.715z"/><path fill-rule="evenodd" clip-rule="evenodd" fill="#FFF" d="M103.398 80.388h-2.689V85.203h2.689V81.15zM100.709 80.388v.762M103.398 81.15h-2.689M103.398 80.388v.762M103.398 80.388h-2.689M103.398 81.15v3.291M103.398 84.441h-2.689M100.709 81.15v3.291M103.398 81.15h-2.689M103.398 84.441v.762M103.398 85.203h-2.689M100.709 84.441v.762M103.398 84.441h-2.689"/><path fill-rule="evenodd" clip-rule="evenodd" fill="#D9EAD3" d="M100.777 85.771h2.549l.002-.002v-1.982H100.777v1.982z"/><path fill="none" stroke="#D9EAD3" stroke-width=".283" stroke-linecap="round" stroke-miterlimit="10" d="M100.777 85.771h2.549l.002-.002v-1.982H100.777v1.982z"/><path fill-rule="evenodd" clip-rule="evenodd" fill="#D9EAD3" d="M100.777 81.802h2.549l.002-.002v-1.98l-.002-.002h-2.549V81.8z"/><path fill="none" stroke="#D9EAD3" stroke-width=".283" stroke-linecap="round" stroke-miterlimit="10" d="M100.777 81.802h2.549l.002-.002v-1.98l-.002-.002h-2.549V81.8z"/><path fill="none" stroke="#000" stroke-width=".283" stroke-linecap="round" stroke-miterlimit="10" d="M103.398 80.388h-2.689V85.203h2.689V81.15zM100.709 80.388v.762M103.398 81.15h-2.689M103.398 80.388v.762M103.398 80.388h-2.689M103.398 81.15v3.291M103.398 84.441h-2.689M100.709 81.15v3.291M103.398 81.15h-2.689M103.398 84.441v.762M103.398 85.203h-2.689M100.709 84.441v.762M103.398 84.441h-2.689"/><path fill-rule="evenodd" clip-rule="evenodd" fill="#FFF" d="M9.572 80.388h-2.69V85.203h2.69V81.15zM6.882 80.388v.762M9.572 81.15h-2.69M9.572 80.388v.762M9.572 80.388h-2.69M9.572 81.15v3.291M9.572 84.441h-2.69M6.882 81.15v3.291M9.572 81.15h-2.69M9.572 84.441v.762M9.572 85.203h-2.69M6.882 84.441v.762M9.572 84.441h-2.69"/><path fill-rule="evenodd" clip-rule="evenodd" fill="#D9EAD3" d="M6.951 85.771H9.5l.001-.002v-1.982H6.95v1.982z"/><path fill="none" stroke="#D9EAD3" stroke-width=".283" stroke-linecap="round" stroke-miterlimit="10" d="M6.951 85.771H9.5l.001-.002v-1.982H6.95v1.982z"/><path fill-rule="evenodd" clip-rule="evenodd" fill="#D9EAD3" d="M6.951 81.802H9.5l.001-.002v-1.98l-.001-.002H6.951l-.001.002v1.98z"/><path fill="none" stroke="#D9EAD3" stroke-width=".283" stroke-linecap="round" stroke-miterlimit="10" d="M6.951 81.802H9.5l.001-.002v-1.98l-.001-.002H6.951l-.001.002v1.98z"/><path fill="none" stroke="#000" stroke-width=".283" stroke-linecap="round" stroke-miterlimit="10" d="M9.572 80.388h-2.69V85.203h2.69V81.15zM6.882 80.388v.762M9.572 81.15h-2.69M9.572 80.388v.762M9.572 80.388h-2.69M9.572 81.15v3.291M9.572 84.441h-2.69M6.882 81.15v3.291M9.572 81.15h-2.69M9.572 84.441v.762M9.572 85.203h-2.69M6.882 84.441v.762M9.572 84.441h-2.69"/><path fill-rule="evenodd" clip-rule="evenodd" fill="#FFF" d="M105.309 60.33v-2.69H100.494v2.69h4.053zM105.309 57.64h-.762M104.547 60.33v-2.69M105.309 60.33h-.762M105.309 60.33v-2.69M104.547 60.33h-3.291M101.256 60.33v-2.69M104.547 57.64h-3.291M104.547 60.33v-2.69M101.256 60.33h-.762M100.494 60.33v-2.69M101.256 57.64h-.762M101.256 60.33v-2.69"/><path fill-rule="evenodd" clip-rule="evenodd" fill="#D9EAD3" d="M99.926 57.708v2.549l.002.002h1.982V57.708h-1.982z"/><path fill="none" stroke="#D9EAD3" stroke-width=".283" stroke-linecap="round" stroke-miterlimit="10" d="M99.926 57.708v2.549l.002.002h1.982V57.708h-1.982z"/><path fill-rule="evenodd" clip-rule="evenodd" fill="#D9EAD3" d="M103.895 57.708v2.549l.001.002h1.983V57.708h-1.983z"/><path fill="none" stroke="#D9EAD3" stroke-width=".283" stroke-linecap="round" stroke-miterlimit="10" d="M103.895 57.708v2.549l.001.002h1.983V57.708h-1.983z"/><path fill="none" stroke="#000" stroke-width=".283" stroke-linecap="round" stroke-miterlimit="10" d="M105.309 60.33v-2.69H100.494v2.69h4.053zM105.309 57.64h-.762M104.547 60.33v-2.69M105.309 60.33h-.762M105.309 60.33v-2.69M104.547 60.33h-3.291M101.256 60.33v-2.69M104.547 57.64h-3.291M104.547 60.33v-2.69M101.256 60.33h-.762M100.494 60.33v-2.69M101.256 57.64h-.762M101.256 60.33v-2.69"/><path fill-rule="evenodd" clip-rule="evenodd" fill="#FFF" d="M4.685 59.054v2.69h4.816v-2.69H5.447zM4.685 61.744h.762M5.447 59.054v2.69M4.685 59.054h.762M4.685 59.054v2.69M5.447 59.054h3.291M8.738 59.054v2.69M5.447 61.744h3.291M5.447 59.054v2.69M8.738 59.054h.763M9.501 59.054v2.69M8.738 61.744h.763M8.738 59.054v2.69"/><path fill-rule="evenodd" clip-rule="evenodd" fill="#D9EAD3" d="M10.068 61.675v-2.549l-.001-.001H8.085l-.002.001v2.549h1.984z"/><path fill="none" stroke="#D9EAD3" stroke-width=".283" stroke-linecap="round" stroke-miterlimit="10" d="M10.068 61.675v-2.549l-.001-.001H8.085l-.002.001v2.549h1.984z"/><path fill-rule="evenodd" clip-rule="evenodd" fill="#D9EAD3" d="M6.1 61.675v-2.549l-.001-.001H4.116l-.001.001v2.549h1.984z"/><path fill="none" stroke="#D9EAD3" stroke-width=".283" stroke-linecap="round" stroke-miterlimit="10" d="M6.1 61.675v-2.549l-.001-.001H4.116l-.001.001v2.549h1.984z"/><path fill="none" stroke="#000" stroke-width=".283" stroke-linecap="round" stroke-miterlimit="10" d="M4.685 59.054v2.69h4.816v-2.69H5.447zM4.685 61.744h.762M5.447 59.054v2.69M4.685 59.054h.762M4.685 59.054v2.69M5.447 59.054h3.291M8.738 59.054v2.69M5.447 61.744h3.291M5.447 59.054v2.69M8.738 59.054h.763M9.501 59.054v2.69M8.738 61.744h.763M8.738 59.054v2.69"/><path fill-rule="evenodd" clip-rule="evenodd" fill="#FFF" d="M100.496 53.952v2.69h4.817v-2.69h-4.055zM100.496 56.642h.762M101.258 53.952v2.69M100.496 53.952h.762M100.496 53.952v2.69M101.258 53.952h3.291M104.549 53.952v2.69M101.258 56.642h3.291M101.258 53.952v2.69M104.549 53.952h.764M105.313 53.952v2.69M104.549 56.642h.764M104.549 53.952v2.69"/><path fill-rule="evenodd" clip-rule="evenodd" fill="#D9EAD3" d="M105.879 56.572v-2.549h-1.984v2.549l.001.002h1.983z"/><path fill="none" stroke="#D9EAD3" stroke-width=".283" stroke-linecap="round" stroke-miterlimit="10" d="M105.879 56.572v-2.549h-1.984v2.549l.001.002h1.983z"/><path fill-rule="evenodd" clip-rule="evenodd" fill="#D9EAD3" d="M101.91 56.572v-2.549h-1.984v2.549l.002.002h1.982z"/><path fill="none" stroke="#D9EAD3" stroke-width=".283" stroke-linecap="round" stroke-miterlimit="10" d="M101.91 56.572v-2.549h-1.984v2.549l.002.002h1.982z"/><path fill="none" stroke="#000" stroke-width=".283" stroke-linecap="round" stroke-miterlimit="10" d="M100.496 53.952v2.69h4.817v-2.69h-4.055zM100.496 56.642h.762M101.258 53.952v2.69M100.496 53.952h.762M100.496 53.952v2.69M101.258 53.952h3.291M104.549 53.952v2.69M101.258 56.642h3.291M101.258 53.952v2.69M104.549 53.952h.764M105.313 53.952v2.69M104.549 56.642h.764M104.549 53.952v2.69"/><path fill-rule="evenodd" clip-rule="evenodd" fill="#FFF" d="M9.498 58.062v-2.689H4.682v2.689h4.054zM9.498 55.373h-.762M8.736 58.062v-2.689M9.498 58.062h-.762M9.498 58.062v-2.689M8.736 58.062H5.445M5.445 58.062v-2.689M8.736 55.373H5.445M8.736 58.062v-2.689M5.445 58.062h-.763M4.682 58.062v-2.689M5.445 55.373h-.763M5.445 58.062v-2.689"/><path fill-rule="evenodd" clip-rule="evenodd" fill="#D9EAD3" d="M4.115 55.441v2.549l.001.002h1.983l.001-.002v-2.549l-.001-.001H4.116z"/><path fill="none" stroke="#D9EAD3" stroke-width=".283" stroke-linecap="round" stroke-miterlimit="10" d="M4.115 55.441v2.549l.001.002h1.983l.001-.002v-2.549l-.001-.001H4.116z"/><path fill-rule="evenodd" clip-rule="evenodd" fill="#D9EAD3" d="M8.083 55.441v2.549l.001.002h1.983l.001-.002v-2.549l-.001-.001H8.084z"/><path fill="none" stroke="#D9EAD3" stroke-width=".283" stroke-linecap="round" stroke-miterlimit="10" d="M8.083 55.441v2.549l.001.002h1.983l.001-.002v-2.549l-.001-.001H8.084z"/><path fill="none" stroke="#000" stroke-width=".283" stroke-linecap="round" stroke-miterlimit="10" d="M9.498 58.062v-2.689H4.682v2.689h4.054zM9.498 55.373h-.762M8.736 58.062v-2.689M9.498 58.062h-.762M9.498 58.062v-2.689M8.736 58.062H5.445M5.445 58.062v-2.689M8.736 55.373H5.445M8.736 58.062v-2.689M5.445 58.062h-.763M4.682 58.062v-2.689M5.445 55.373h-.763M5.445 58.062v-2.689"/><path fill-rule="evenodd" clip-rule="evenodd" fill="#FFF" d="M38.984 21.637v2.69H43.8v-2.69h-4.053zM38.984 24.327h.763M39.747 21.637v2.69M38.984 21.637h.763M38.984 21.637v2.69M39.747 21.637h3.291M43.038 21.637v2.69M39.747 24.327h3.291M39.747 21.637v2.69M43.038 21.637h.762M43.8 21.637v2.69M43.038 24.327h.762M43.038 21.637v2.69"/><path fill-rule="evenodd" clip-rule="evenodd" fill="#D9EAD3" d="M44.367 24.258v-2.55H42.383v2.55l.001.001h1.982z"/><path fill="none" stroke="#D9EAD3" stroke-width=".283" stroke-linecap="round" stroke-miterlimit="10" d="M44.367 24.258v-2.55H42.383v2.55l.001.001h1.982z"/><path fill-rule="evenodd" clip-rule="evenodd" fill="#D9EAD3" d="M40.398 24.258v-2.55H38.415v2.55l.001.001h1.981z"/><path fill="none" stroke="#D9EAD3" stroke-width=".283" stroke-linecap="round" stroke-miterlimit="10" d="M40.398 24.258v-2.55H38.415v2.55l.001.001h1.981z"/><path fill="none" stroke="#000" stroke-width=".283" stroke-linecap="round" stroke-miterlimit="10" d="M38.984 21.637v2.69H43.8v-2.69h-4.053zM38.984 24.327h.763M39.747 21.637v2.69M38.984 21.637h.763M38.984 21.637v2.69M39.747 21.637h3.291M43.038 21.637v2.69M39.747 24.327h3.291M39.747 21.637v2.69M43.038 21.637h.762M43.8 21.637v2.69M43.038 24.327h.762M43.038 21.637v2.69"/><path fill-rule="evenodd" clip-rule="evenodd" fill="#FFF" d="M32.181 29.007v2.69h4.816v-2.69h-4.054zM32.181 31.697h.762M32.943 29.007v2.69M32.181 29.007h.762M32.181 29.007v2.69M32.943 29.007h3.291M36.234 29.007v2.69M32.943 31.697h3.291M32.943 29.007v2.69M36.234 29.007h.763M36.997 29.007v2.69M36.234 31.697h.763M36.234 29.007v2.69"/><path fill-rule="evenodd" clip-rule="evenodd" fill="#D9EAD3" d="M37.564 31.628v-2.549l-.001-.001h-1.982l-.001.001v2.549l.001.001h1.982z"/><path fill="none" stroke="#D9EAD3" stroke-width=".283" stroke-linecap="round" stroke-miterlimit="10" d="M37.564 31.628v-2.549l-.001-.001h-1.982l-.001.001v2.549l.001.001h1.982z"/><path fill-rule="evenodd" clip-rule="evenodd" fill="#D9EAD3" d="M33.596 31.628v-2.549l-.001-.001h-1.983l-.001.001v2.549l.001.001h1.983z"/><path fill="none" stroke="#D9EAD3" stroke-width=".283" stroke-linecap="round" stroke-miterlimit="10" d="M33.596 31.628v-2.549l-.001-.001h-1.983l-.001.001v2.549l.001.001h1.983z"/><path fill="none" stroke="#000" stroke-width=".283" stroke-linecap="round" stroke-miterlimit="10" d="M32.181 29.007v2.69h4.816v-2.69h-4.054zM32.181 31.697h.762M32.943 29.007v2.69M32.181 29.007h.762M32.181 29.007v2.69M32.943 29.007h3.291M36.234 29.007v2.69M32.943 31.697h3.291M32.943 29.007v2.69M36.234 29.007h.763M36.997 29.007v2.69M36.234 31.697h.763M36.234 29.007v2.69"/><path fill-rule="evenodd" clip-rule="evenodd" fill="#FFF" d="M31.897 21.637v2.69H36.713v-2.69H32.66zM31.897 24.327h.763M32.66 21.637v2.69M31.897 21.637h.763M31.897 21.637v2.69M32.66 21.637h3.291M35.951 21.637v2.69M32.66 24.327h3.291M32.66 21.637v2.69M35.951 21.637h.762M36.713 21.637v2.69M35.951 24.327h.762M35.951 21.637v2.69"/><path fill-rule="evenodd" clip-rule="evenodd" fill="#D9EAD3" d="M37.281 24.258v-2.55H35.296v2.55l.001.001h1.982z"/><path fill="none" stroke="#D9EAD3" stroke-width=".283" stroke-linecap="round" stroke-miterlimit="10" d="M37.281 24.258v-2.55H35.296v2.55l.001.001h1.982z"/><path fill-rule="evenodd" clip-rule="evenodd" fill="#D9EAD3" d="M33.312 24.258v-2.55H31.328v2.55l.001.001h1.982z"/><path fill="none" stroke="#D9EAD3" stroke-width=".283" stroke-linecap="round" stroke-miterlimit="10" d="M33.312 24.258v-2.55H31.328v2.55l.001.001h1.982z"/><path fill="none" stroke="#000" stroke-width=".283" stroke-linecap="round" stroke-miterlimit="10" d="M31.897 21.637v2.69H36.713v-2.69H32.66zM31.897 24.327h.763M32.66 21.637v2.69M31.897 21.637h.763M31.897 21.637v2.69M32.66 21.637h3.291M35.951 21.637v2.69M32.66 24.327h3.291M32.66 21.637v2.69M35.951 21.637h.762M36.713 21.637v2.69M35.951 24.327h.762M35.951 21.637v2.69"/><path fill-rule="evenodd" clip-rule="evenodd" fill="#FFF" d="M25.094 29.007v2.69h4.817v-2.69h-4.054zM25.094 31.697h.763M25.857 29.007v2.69M25.094 29.007h.763M25.094 29.007v2.69M25.857 29.007h3.291M29.148 29.007v2.69M25.857 31.697h3.291M25.857 29.007v2.69M29.148 29.007h.763M29.911 29.007v2.69M29.148 31.697h.763M29.148 29.007v2.69"/><path fill-rule="evenodd" clip-rule="evenodd" fill="#D9EAD3" d="M30.478 31.628v-2.549l-.001-.001h-1.983l-.001.001v2.549l.001.001h1.983z"/><path fill="none" stroke="#D9EAD3" stroke-width=".283" stroke-linecap="round" stroke-miterlimit="10" d="M30.478 31.628v-2.549l-.001-.001h-1.983l-.001.001v2.549l.001.001h1.983z"/><path fill-rule="evenodd" clip-rule="evenodd" fill="#D9EAD3" d="M26.509 31.628v-2.549l-.001-.001h-1.982l-.001.001v2.549l.001.001h1.982z"/><path fill="none" stroke="#D9EAD3" stroke-width=".283" stroke-linecap="round" stroke-miterlimit="10" d="M26.509 31.628v-2.549l-.001-.001h-1.982l-.001.001v2.549l.001.001h1.982z"/><path fill="none" stroke="#000" stroke-width=".283" stroke-linecap="round" stroke-miterlimit="10" d="M25.094 29.007v2.69h4.817v-2.69h-4.054zM25.094 31.697h.763M25.857 29.007v2.69M25.094 29.007h.763M25.094 29.007v2.69M25.857 29.007h3.291M29.148 29.007v2.69M25.857 31.697h3.291M25.857 29.007v2.69M29.148 29.007h.763M29.911 29.007v2.69M29.148 31.697h.763M29.148 29.007v2.69"/><path fill-rule="evenodd" clip-rule="evenodd" fill="#FFF" d="M56.484 45.799h2.692v-4.816h-2.692v4.054zM56.484 41.746v-.763M56.484 40.983h2.692M59.176 41.746v-.763M56.484 41.746h2.692M56.484 45.037v-3.291M56.484 41.746h2.692M59.176 45.037v-3.291M56.484 45.037h2.692M59.176 45.799v-.762M56.484 45.037h2.692M56.484 45.799v-.762M56.484 45.799h2.692"/><path fill-rule="evenodd" clip-rule="evenodd" fill="#D9EAD3" d="M59.248 44.385H56.414V46.936H59.248l.002-.001v-2.549l-.002-.001z"/><path fill="none" stroke="#D9EAD3" stroke-width=".283" stroke-linecap="round" stroke-miterlimit="10" d="M59.248 44.385H56.414V46.936H59.248l.002-.001v-2.549l-.002-.001z"/><path fill-rule="evenodd" clip-rule="evenodd" fill="#D9EAD3" d="M59.248 39.849h-2.832l-.002.001v2.55H59.248l.002-.001v-2.548l-.002-.001z"/><path fill="none" stroke="#D9EAD3" stroke-width=".283" stroke-linecap="round" stroke-miterlimit="10" d="M59.248 39.849h-2.832l-.002.001v2.55H59.248l.002-.001v-2.548l-.002-.001z"/><path fill="none" stroke="#000" stroke-width=".283" stroke-linecap="round" stroke-miterlimit="10" d="M56.484 45.799h2.692v-4.816h-2.692v4.054zM56.484 41.746v-.763M56.484 40.983h2.692M59.176 41.746v-.763M56.484 41.746h2.692M56.484 45.037v-3.291M56.484 41.746h2.692M59.176 45.037v-3.291M56.484 45.037h2.692M59.176 45.799v-.762M56.484 45.037h2.692M56.484 45.799v-.762M56.484 45.799h2.692"/><path fill-rule="evenodd" clip-rule="evenodd" fill="#FFF" d="M23.32 44.382h2.69v-4.816h-2.69v4.054zM23.32 40.329v-.763M23.32 39.566h2.69M26.01 40.329v-.763M23.32 40.329h2.69M23.32 43.62v-3.291M23.32 40.329h2.69M26.01 43.62v-3.291M23.32 43.62h2.69M26.01 44.382v-.762M23.32 43.62h2.69M23.32 44.382v-.762M23.32 44.382h2.69"/><path fill-rule="evenodd" clip-rule="evenodd" fill="#D9EAD3" d="M26.083 42.967H23.25v.001l-.001.001v2.548l.001.001v.001h2.833V42.968z"/><path fill="none" stroke="#D9EAD3" stroke-width=".283" stroke-linecap="round" stroke-miterlimit="10" d="M26.083 42.967H23.25v.001l-.001.001v2.548l.001.001v.001h2.833V42.968z"/><path fill-rule="evenodd" clip-rule="evenodd" fill="#D9EAD3" d="M26.083 38.432H23.25v.001h-.001v2.549l.001.001h2.833v-2.55z"/><path fill="none" stroke="#D9EAD3" stroke-width=".283" stroke-linecap="round" stroke-miterlimit="10" d="M26.083 38.432H23.25v.001h-.001v2.549l.001.001h2.833v-2.55z"/><path fill="none" stroke="#000" stroke-width=".283" stroke-linecap="round" stroke-miterlimit="10" d="M23.32 44.382h2.69v-4.816h-2.69v4.054zM23.32 40.329v-.763M23.32 39.566h2.69M26.01 40.329v-.763M23.32 40.329h2.69M23.32 43.62v-3.291M23.32 40.329h2.69M26.01 43.62v-3.291M23.32 43.62h2.69M26.01 44.382v-.762M23.32 43.62h2.69M23.32 44.382v-.762M23.32 44.382h2.69"/><path fill-rule="evenodd" clip-rule="evenodd" fill="#FFF" d="M84.266 45.873h2.691v-4.961h-2.691v3.969zM84.266 41.904v-.992M84.266 41.904h2.691M86.957 41.904v-.992M84.266 40.912h2.691M84.266 45.873v-.992M84.266 44.881h2.691M86.957 45.873v-.992M84.266 45.873h2.691M84.266 44.881v-2.977M84.266 44.881h2.691M86.957 44.881v-2.977M84.266 41.904h2.691"/><path fill-rule="evenodd" clip-rule="evenodd" fill="#D9EAD3" d="M87.027 39.849h-2.832v.001l-.002.001v2.548l.002.001h2.832l.002-.001v-2.548l-.002-.001z"/><path fill="none" stroke="#D9EAD3" stroke-width=".283" stroke-linecap="round" stroke-miterlimit="10" d="M87.027 39.849h-2.832v.001l-.002.001v2.548l.002.001h2.832l.002-.001v-2.548l-.002-.001z"/><path fill-rule="evenodd" clip-rule="evenodd" fill="#D9EAD3" d="M87.027 44.385h-2.832l-.002.001v2.549l.002.001h2.832l.002-.001v-2.549l-.002-.001z"/><path fill="none" stroke="#D9EAD3" stroke-width=".283" stroke-linecap="round" stroke-miterlimit="10" d="M87.027 44.385h-2.832l-.002.001v2.549l.002.001h2.832l.002-.001v-2.549l-.002-.001z"/><path fill="none" stroke="#000" stroke-width=".283" stroke-linecap="round" stroke-miterlimit="10" d="M84.266 45.873h2.691v-4.961h-2.691v3.969zM84.266 41.904v-.992M84.266 41.904h2.691M86.957 41.904v-.992M84.266 40.912h2.691M84.266 45.873v-.992M84.266 44.881h2.691M86.957 45.873v-.992M84.266 45.873h2.691M84.266 44.881v-2.977M84.266 44.881h2.691M86.957 44.881v-2.977M84.266 41.904h2.691"/><path fill-rule="evenodd" clip-rule="evenodd" fill="#FFF" d="M51.1 45.873h2.693v-4.961H51.1v3.969zM51.1 41.904v-.992M51.1 41.904h2.693M53.793 41.904v-.992M51.1 40.912h2.693M51.1 45.873v-.992M51.1 44.881h2.693M53.793 45.873v-.992M51.1 45.873h2.693M51.1 44.881v-2.977M51.1 44.881h2.693M53.793 44.881v-2.977M51.1 41.904h2.693"/><path fill-rule="evenodd" clip-rule="evenodd" fill="#D9EAD3" d="M53.861 39.849H51.03l-.001.001v2.55H53.863v-2.55z"/><path fill="none" stroke="#D9EAD3" stroke-width=".283" stroke-linecap="round" stroke-miterlimit="10" d="M53.861 39.849H51.03l-.001.001v2.55H53.863v-2.55z"/><path fill-rule="evenodd" clip-rule="evenodd" fill="#D9EAD3" d="M53.861 44.385h-2.832V46.936H53.863V44.385z"/><path fill="none" stroke="#D9EAD3" stroke-width=".283" stroke-linecap="round" stroke-miterlimit="10" d="M53.861 44.385h-2.832V46.936H53.863V44.385z"/><path fill="none" stroke="#000" stroke-width=".283" stroke-linecap="round" stroke-miterlimit="10" d="M51.1 45.873h2.693v-4.961H51.1v3.969zM51.1 41.904v-.992M51.1 41.904h2.693M53.793 41.904v-.992M51.1 40.912h2.693M51.1 45.873v-.992M51.1 44.881h2.693M53.793 45.873v-.992M51.1 45.873h2.693M51.1 44.881v-2.977M51.1 44.881h2.693M53.793 44.881v-2.977M51.1 41.904h2.693"/><path fill-rule="evenodd" clip-rule="evenodd" fill="#FFF" d="M93.549 26.668v3.969h.92V32.196h1.277V30.637h4.109V32.196h1.276V30.637h.922v-3.969h-3.615V25.109h-1.276V26.668zM99.855 30.798v.162M99.855 30.96v.147M99.855 31.107v.122M99.855 31.229v.088M99.855 31.317v.042M99.855 31.422v.011M99.855 31.433v.023M99.855 31.456v.028M99.855 31.484v.04M99.855 31.524v.039M101.131 31.524v.039M101.131 31.484v.04M101.131 31.456v.028M101.131 31.433v.023M101.131 31.422v.011M101.131 31.317v.042M101.131 31.229v.088M101.131 31.107v.122M101.131 30.96v.147M101.131 30.798v.162M99.855 32.196h1.276M99.855 31.563v.633M101.131 31.563v.633M99.855 31.359v.063M101.131 31.359v.063M101.131 30.637v.161M99.855 30.637v.161M95.746 31.524v.039M95.746 31.484v.04M95.746 31.456v.028M95.746 31.433v.023M95.746 31.422v.011M95.746 31.317v.042M95.746 31.229v.088M95.746 31.107v.122M95.746 30.96v.147M95.746 30.798v.162M94.469 30.798v.162M94.469 30.96v.147M94.469 31.107v.122M94.469 31.229v.088M94.469 31.317v.042M94.469 31.422v.011M94.469 31.433v.023M94.469 31.456v.028M94.469 31.484v.04M94.469 31.524v.039M94.469 31.359v.063M95.746 31.359v.063M94.469 31.563v.633M95.746 31.563v.633M94.469 32.196h1.277M95.746 30.637v.161M94.469 30.637v.161M98.438 25.872v.011M98.438 25.849v.023M98.438 25.818v.031M98.438 25.781v.037M98.438 25.741v.04M98.438 26.345v.162M98.438 26.198v.147M98.438 26.076v.122M98.438 25.988v.088M98.438 25.945v.043M97.162 25.741v.04M97.162 25.781v.037M97.162 25.818v.031M97.162 25.849v.023M97.162 25.872v.011M97.162 25.945v.043M97.162 25.988v.088M97.162 26.076v.122M97.162 26.198v.147M97.162 26.345v.162M97.162 25.109h1.276M98.438 25.109v.632M97.162 25.109v.632M98.438 25.883v.062M97.162 25.883v.062M97.162 26.507v.161M98.438 26.507v.161M93.684 30.5h8.232M101.131 30.637h.922M99.855 30.637h1.276M95.746 30.637h4.109M94.469 30.637h1.277M93.549 30.637h.92M93.684 26.804V30.5M93.549 30.637l.135-.137M93.549 26.668v3.969M93.684 26.804h8.232M93.549 26.668l.135.136M93.549 26.668h3.613M97.162 26.668h1.276M98.438 26.668h3.615M101.916 30.5l.137.137M101.916 26.804V30.5M101.916 26.804l.137-.136M102.053 26.668v3.969M99.855 31.563h1.276M99.855 31.422h1.276M99.855 31.359h1.276M99.855 30.798h1.276M94.469 31.422h1.277M94.469 31.359h1.277M94.469 31.563h1.277M94.469 30.798h1.277M97.162 25.741h1.276M97.162 25.883h1.276M97.162 25.945h1.276M97.162 26.507h1.276"/><path fill-rule="evenodd" clip-rule="evenodd" fill="#D9EAD3" d="M96.881 26.881h1.84v-2.977h-1.84l-.002.001v2.975z"/><path fill="none" stroke="#D9EAD3" stroke-width=".283" stroke-linecap="round" stroke-miterlimit="10" d="M96.881 26.881h1.84v-2.977h-1.84l-.002.001v2.975z"/><path fill-rule="evenodd" clip-rule="evenodd" fill="#D9EAD3" d="M99.572 33.4h1.842v-2.976h-1.842V33.4z"/><path fill="none" stroke="#D9EAD3" stroke-width=".283" stroke-linecap="round" stroke-miterlimit="10" d="M99.572 33.4h1.842v-2.976h-1.842V33.4z"/><path fill-rule="evenodd" clip-rule="evenodd" fill="#D9EAD3" d="M94.188 33.4h1.841v-2.976h-1.843V33.4z"/><path fill="none" stroke="#D9EAD3" stroke-width=".283" stroke-linecap="round" stroke-miterlimit="10" d="M94.188 33.4h1.841v-2.976h-1.843V33.4z"/><path fill="none" stroke="#000" stroke-width=".283" stroke-linecap="round" stroke-miterlimit="10" d="M93.549 26.668v3.969h.92V32.196h1.277V30.637h4.109V32.196h1.276V30.637h.922v-3.969h-3.615V25.109h-1.276V26.668zM99.855 30.798v.162M99.855 30.96v.147M99.855 31.107v.122M99.855 31.229v.088M99.855 31.317v.042M99.855 31.422v.011M99.855 31.433v.023M99.855 31.456v.028M99.855 31.484v.04M99.855 31.524v.039M101.131 31.524v.039M101.131 31.484v.04M101.131 31.456v.028M101.131 31.433v.023M101.131 31.422v.011M101.131 31.317v.042M101.131 31.229v.088M101.131 31.107v.122M101.131 30.96v.147M101.131 30.798v.162M99.855 32.196h1.276M99.855 31.563v.633M101.131 31.563v.633M99.855 31.359v.063M101.131 31.359v.063M101.131 30.637v.161M99.855 30.637v.161M95.746 31.524v.039M95.746 31.484v.04M95.746 31.456v.028M95.746 31.433v.023M95.746 31.422v.011M95.746 31.317v.042M95.746 31.229v.088M95.746 31.107v.122M95.746 30.96v.147M95.746 30.798v.162M94.469 30.798v.162M94.469 30.96v.147M94.469 31.107v.122M94.469 31.229v.088M94.469 31.317v.042M94.469 31.422v.011M94.469 31.433v.023M94.469 31.456v.028M94.469 31.484v.04M94.469 31.524v.039M94.469 31.359v.063M95.746 31.359v.063M94.469 31.563v.633M95.746 31.563v.633M94.469 32.196h1.277M95.746 30.637v.161M94.469 30.637v.161M98.438 25.872v.011M98.438 25.849v.023M98.438 25.818v.031M98.438 25.781v.037M98.438 25.741v.04M98.438 26.345v.162M98.438 26.198v.147M98.438 26.076v.122M98.438 25.988v.088M98.438 25.945v.043M97.162 25.741v.04M97.162 25.781v.037M97.162 25.818v.031M97.162 25.849v.023M97.162 25.872v.011M97.162 25.945v.043M97.162 25.988v.088M97.162 26.076v.122M97.162 26.198v.147M97.162 26.345v.162M97.162 25.109h1.276M98.438 25.109v.632M97.162 25.109v.632M98.438 25.883v.062M97.162 25.883v.062M97.162 26.507v.161M98.438 26.507v.161M93.684 30.5h8.232M101.131 30.637h.922M99.855 30.637h1.276M95.746 30.637h4.109M94.469 30.637h1.277M93.549 30.637h.92M93.684 26.804V30.5M93.549 30.637l.135-.137M93.549 26.668v3.969M93.684 26.804h8.232M93.549 26.668l.135.136M93.549 26.668h3.613M97.162 26.668h1.276M98.438 26.668h3.615M101.916 30.5l.137.137M101.916 26.804V30.5M101.916 26.804l.137-.136M102.053 26.668v3.969M99.855 31.563h1.276M99.855 31.422h1.276M99.855 31.359h1.276M99.855 30.798h1.276M94.469 31.422h1.277M94.469 31.359h1.277M94.469 31.563h1.277M94.469 30.798h1.277M97.162 25.741h1.276M97.162 25.883h1.276M97.162 25.945h1.276M97.162 26.507h1.276"/><path fill-rule="evenodd" clip-rule="evenodd" fill="#FFF" d="M77.25 47.404h2.975v-1.191H77.25v-2.409h2.975v-1.191H77.25v-2.409h2.975v-1.191H77.25v-2.409h2.975v-1.191H77.25v-.95H66.193v.95h-2.976v1.191h2.976v2.409h-2.976v1.191h2.976v2.409h-2.976v1.191h2.976v2.409h-2.976v1.191h2.976v.95H77.25zM63.217 46.213v1.191M64.91 46.213h.084M64.994 46.213h.137M65.131 46.213h.176M65.307 46.213h.205M65.512 46.213h.22M64.514 46.213h.396M64.264 46.213h.084M64.348 46.213h.074M64.422 46.213h.057M64.479 46.213h.035M63.217 46.213h1.047M65.732 46.213h.461M63.217 47.404h1.047M64.264 47.404h.084M64.348 47.404h.074M64.422 47.404h.057M64.479 47.404h.035M64.514 47.404h.396M64.91 47.404h.084M64.994 47.404h.137M65.131 47.404h.176M65.307 47.404h.205M65.512 47.404h.22M65.732 47.404h.461M77.25 46.213h.465M77.25 47.404h.465M77.715 47.404h.217M77.932 47.404h.207M78.139 47.404h.175M78.314 47.404h.133M78.447 47.404h.086M77.715 46.213h.217M77.932 46.213h.207M78.139 46.213h.175M78.314 46.213h.133M78.447 46.213h.086M78.533 47.404h.397M78.533 46.213h.397M78.93 46.213h.037M78.967 46.213h.056M79.023 46.213h.075M79.098 46.213h.082M78.93 47.404h.037M78.967 47.404h.056M79.023 47.404h.075M79.098 47.404h.082M79.18 47.404h1.045M79.18 46.213h1.045M80.225 46.213v1.191M63.217 42.613v1.191M64.91 42.613h.084M64.994 42.613h.137M65.131 42.613h.176M65.307 42.613h.205M65.512 42.613h.22M64.514 42.613h.396M64.264 42.613h.084M64.348 42.613h.074M64.422 42.613h.057M64.479 42.613h.035M63.217 42.613h1.047M65.732 42.613h.461M63.217 43.804h1.047M64.264 43.804h.084M64.348 43.804h.074M64.422 43.804h.057M64.479 43.804h.035M64.514 43.804h.396M64.91 43.804h.084M64.994 43.804h.137M65.131 43.804h.176M65.307 43.804h.205M65.512 43.804h.22M65.732 43.804h.461M77.25 42.613h.465M77.25 43.804h.465M77.715 43.804h.217M77.932 43.804h.207M78.139 43.804h.175M78.314 43.804h.133M78.447 43.804h.086M77.715 42.613h.217M77.932 42.613h.207M78.139 42.613h.175M78.314 42.613h.133M78.447 42.613h.086M78.533 43.804h.397M78.533 42.613h.397M78.93 42.613h.037M78.967 42.613h.056M79.023 42.613h.075M79.098 42.613h.082M78.93 43.804h.037M78.967 43.804h.056M79.023 43.804h.075M79.098 43.804h.082M79.18 43.804h1.045M79.18 42.613h1.045M80.225 42.613v1.191M63.217 39.013v1.191M64.91 39.013h.084M64.994 39.013h.137M65.131 39.013h.176M65.307 39.013h.205M65.512 39.013h.22M64.514 39.013h.396M64.264 39.013h.084M64.348 39.013h.074M64.422 39.013h.057M64.479 39.013h.035M63.217 39.013h1.047M65.732 39.013h.461M63.217 40.204h1.047M64.264 40.204h.084M64.348 40.204h.074M64.422 40.204h.057M64.479 40.204h.035M64.514 40.204h.396M64.91 40.204h.084M64.994 40.204h.137M65.131 40.204h.176M65.307 40.204h.205M65.512 40.204h.22M65.732 40.204h.461M77.25 39.013h.465M77.25 40.204h.465M77.715 40.204h.217M77.932 40.204h.207M78.139 40.204h.175M78.314 40.204h.133M78.447 40.204h.086M77.715 39.013h.217M77.932 39.013h.207M78.139 39.013h.175M78.314 39.013h.133M78.447 39.013h.086M78.533 40.204h.397M78.533 39.013h.397M78.93 39.013h.037M78.967 39.013h.056M79.023 39.013h.075M79.098 39.013h.082M78.93 40.204h.037M78.967 40.204h.056M79.023 40.204h.075M79.098 40.204h.082M79.18 40.204h1.045M79.18 39.013h1.045M80.225 39.013v1.191M63.217 35.413v1.191M64.91 35.413h.084M64.994 35.413h.137M65.131 35.413h.176M65.307 35.413h.205M65.512 35.413h.22M64.514 35.413h.396M64.264 35.413h.084M64.348 35.413h.074M64.422 35.413h.057M64.479 35.413h.035M63.217 35.413h1.047M65.732 35.413h.461M63.217 36.604h1.047M64.264 36.604h.084M64.348 36.604h.074M64.422 36.604h.057M64.479 36.604h.035M64.514 36.604h.396M64.91 36.604h.084M64.994 36.604h.137M65.131 36.604h.176M65.307 36.604h.205M65.512 36.604h.22M65.732 36.604h.461M77.25 35.413h.465M77.25 36.604h.465M77.715 36.604h.217M77.932 36.604h.207M78.139 36.604h.175M78.314 36.604h.133M78.447 36.604h.086M77.715 35.413h.217M77.932 35.413h.207M78.139 35.413h.175M78.314 35.413h.133M78.447 35.413h.086M78.533 36.604h.397M78.533 35.413h.397M78.93 35.413h.037M78.967 35.413h.056M79.023 35.413h.075M79.098 35.413h.082M78.93 36.604h.037M78.967 36.604h.056M79.023 36.604h.075M79.098 36.604h.082M79.18 36.604h1.045M79.18 35.413h1.045M80.225 35.413v1.191M77.25 35.413v1.191M77.25 39.013v1.191M77.25 42.613v1.191M77.25 46.213v1.191M76.826 34.886l.424-.423M76.826 47.931l.424.423M66.193 48.354l.424-.423M66.193 46.213v1.191M66.193 42.613v1.191M66.193 39.013v1.191M66.193 35.413v1.191M66.193 34.463l.424.423M66.193 34.463H77.25M66.193 48.354H77.25M77.25 47.404v.95M66.193 47.404v.95M77.25 34.463v.95M66.193 34.463v.95M77.25 36.604v2.409M66.193 36.604v2.409M77.25 40.204v2.409M66.193 40.204v2.409M77.25 43.804v2.409M66.193 43.804v2.409M66.617 34.886v13.045M66.617 34.886h10.209M76.826 34.886v13.045M66.617 47.931h10.209M69.332 36.913l.031-.239M69.244 37.137l.088-.224M69.102 37.329l.142-.192M68.918 37.482l.184-.153M68.703 37.584l.215-.102M68.465 37.63l.238-.046M68.227 37.616l.238.014M67.996 37.539l.231.077M67.795 37.412l.201.127M67.631 37.236l.164.176M67.516 37.026l.115.21M67.455 36.793l.061.233M67.455 36.556v.237M67.455 36.556l.061-.233M67.516 36.323l.115-.213M67.631 36.11l.164-.172M67.795 35.938l.201-.131M67.996 35.807l.231-.074M68.227 35.733l.238-.014M68.465 35.719l.238.046M68.703 35.765l.215.102M68.918 35.867l.184.153M69.102 36.02l.142.192M69.244 36.212l.088.225M69.332 36.437l.031.237M64.264 46.213v1.191M64.514 46.213v1.191M64.91 46.213v1.191M65.732 46.213v1.191M77.715 46.213v1.191M78.533 46.213v1.191M78.93 46.213v1.191M79.18 46.213v1.191M64.264 42.613v1.191M64.514 42.613v1.191M64.91 42.613v1.191M65.732 42.613v1.191M77.715 42.613v1.191M78.533 42.613v1.191M78.93 42.613v1.191M79.18 42.613v1.191M64.264 39.013v1.191M64.514 39.013v1.191M64.91 39.013v1.191M65.732 39.013v1.191M77.715 39.013v1.191M78.533 39.013v1.191M78.93 39.013v1.191M79.18 39.013v1.191M64.264 35.413v1.191M64.514 35.413v1.191M64.91 35.413v1.191M65.732 35.413v1.191M77.715 35.413v1.191M78.533 35.413v1.191M78.93 35.413v1.191M79.18 35.413v1.191"/><path fill-rule="evenodd" clip-rule="evenodd" fill="#D9EAD3" d="M76.045 36.859h5.525l.002-.001v-1.699l-.002-.001h-5.525v1.7z"/><path fill="none" stroke="#D9EAD3" stroke-width=".283" stroke-linecap="round" stroke-miterlimit="10" d="M76.045 36.859h5.525l.002-.001v-1.699l-.002-.001h-5.525v1.7z"/><path fill-rule="evenodd" clip-rule="evenodd" fill="#D9EAD3" d="M76.045 40.459h5.525l.002-.001v-1.699l-.002-.001h-5.525v1.7z"/><path fill="none" stroke="#D9EAD3" stroke-width=".283" stroke-linecap="round" stroke-miterlimit="10" d="M76.045 40.459h5.525l.002-.001v-1.699l-.002-.001h-5.525v1.7z"/><path fill-rule="evenodd" clip-rule="evenodd" fill="#D9EAD3" d="M76.045 44.059h5.525l.002-.001v-1.699l-.002-.001h-5.525v1.7z"/><path fill="none" stroke="#D9EAD3" stroke-width=".283" stroke-linecap="round" stroke-miterlimit="10" d="M76.045 44.059h5.525l.002-.001v-1.699l-.002-.001h-5.525v1.7z"/><path fill-rule="evenodd" clip-rule="evenodd" fill="#D9EAD3" d="M76.045 47.659h5.525l.002-.001v-1.699l-.002-.001h-5.525v1.7z"/><path fill="none" stroke="#D9EAD3" stroke-width=".283" stroke-linecap="round" stroke-miterlimit="10" d="M76.045 47.659h5.525l.002-.001v-1.699l-.002-.001h-5.525v1.7z"/><path fill-rule="evenodd" clip-rule="evenodd" fill="#D9EAD3" d="M61.871 47.659h5.527V45.958h-5.527v1.7z"/><path fill="none" stroke="#D9EAD3" stroke-width=".283" stroke-linecap="round" stroke-miterlimit="10" d="M61.871 47.659h5.527V45.958h-5.527v1.7z"/><path fill-rule="evenodd" clip-rule="evenodd" fill="#D9EAD3" d="M61.871 44.059h5.527V42.358h-5.527v1.7z"/><path fill="none" stroke="#D9EAD3" stroke-width=".283" stroke-linecap="round" stroke-miterlimit="10" d="M61.871 44.059h5.527V42.358h-5.527v1.7z"/><path fill-rule="evenodd" clip-rule="evenodd" fill="#D9EAD3" d="M61.871 40.459h5.527V38.758h-5.527v1.7z"/><path fill="none" stroke="#D9EAD3" stroke-width=".283" stroke-linecap="round" stroke-miterlimit="10" d="M61.871 40.459h5.527V38.758h-5.527v1.7z"/><path fill-rule="evenodd" clip-rule="evenodd" fill="#D9EAD3" d="M61.871 36.859h5.527V35.158h-5.527v1.7z"/><path fill="none" stroke="#D9EAD3" stroke-width=".283" stroke-linecap="round" stroke-miterlimit="10" d="M61.871 36.859h5.527V35.158h-5.527v1.7z"/><path fill="none" stroke="#000" stroke-width=".283" stroke-linecap="round" stroke-miterlimit="10" d="M77.25 47.404h2.975v-1.191H77.25v-2.409h2.975v-1.191H77.25v-2.409h2.975v-1.191H77.25v-2.409h2.975v-1.191H77.25v-.95H66.193v.95h-2.976v1.191h2.976v2.409h-2.976v1.191h2.976v2.409h-2.976v1.191h2.976v2.409h-2.976v1.191h2.976v.95H77.25zM63.217 46.213v1.191M64.91 46.213h.084M64.994 46.213h.137M65.131 46.213h.176M65.307 46.213h.205M65.512 46.213h.22M64.514 46.213h.396M64.264 46.213h.084M64.348 46.213h.074M64.422 46.213h.057M64.479 46.213h.035M63.217 46.213h1.047M65.732 46.213h.461M63.217 47.404h1.047M64.264 47.404h.084M64.348 47.404h.074M64.422 47.404h.057M64.479 47.404h.035M64.514 47.404h.396M64.91 47.404h.084M64.994 47.404h.137M65.131 47.404h.176M65.307 47.404h.205M65.512 47.404h.22M65.732 47.404h.461M77.25 46.213h.465M77.25 47.404h.465M77.715 47.404h.217M77.932 47.404h.207M78.139 47.404h.175M78.314 47.404h.133M78.447 47.404h.086M77.715 46.213h.217M77.932 46.213h.207M78.139 46.213h.175M78.314 46.213h.133M78.447 46.213h.086M78.533 47.404h.397M78.533 46.213h.397M78.93 46.213h.037M78.967 46.213h.056M79.023 46.213h.075M79.098 46.213h.082M78.93 47.404h.037M78.967 47.404h.056M79.023 47.404h.075M79.098 47.404h.082M79.18 47.404h1.045M79.18 46.213h1.045M80.225 46.213v1.191M63.217 42.613v1.191M64.91 42.613h.084M64.994 42.613h.137M65.131 42.613h.176M65.307 42.613h.205M65.512 42.613h.22M64.514 42.613h.396M64.264 42.613h.084M64.348 42.613h.074M64.422 42.613h.057M64.479 42.613h.035M63.217 42.613h1.047M65.732 42.613h.461M63.217 43.804h1.047M64.264 43.804h.084M64.348 43.804h.074M64.422 43.804h.057M64.479 43.804h.035M64.514 43.804h.396M64.91 43.804h.084M64.994 43.804h.137M65.131 43.804h.176M65.307 43.804h.205M65.512 43.804h.22M65.732 43.804h.461M77.25 42.613h.465M77.25 43.804h.465M77.715 43.804h.217M77.932 43.804h.207M78.139 43.804h.175M78.314 43.804h.133M78.447 43.804h.086M77.715 42.613h.217M77.932 42.613h.207M78.139 42.613h.175M78.314 42.613h.133M78.447 42.613h.086M78.533 43.804h.397M78.533 42.613h.397M78.93 42.613h.037M78.967 42.613h.056M79.023 42.613h.075M79.098 42.613h.082M78.93 43.804h.037M78.967 43.804h.056M79.023 43.804h.075M79.098 43.804h.082M79.18 43.804h1.045M79.18 42.613h1.045M80.225 42.613v1.191M63.217 39.013v1.191M64.91 39.013h.084M64.994 39.013h.137M65.131 39.013h.176M65.307 39.013h.205M65.512 39.013h.22M64.514 39.013h.396M64.264 39.013h.084M64.348 39.013h.074M64.422 39.013h.057M64.479 39.013h.035M63.217 39.013h1.047M65.732 39.013h.461M63.217 40.204h1.047M64.264 40.204h.084M64.348 40.204h.074M64.422 40.204h.057M64.479 40.204h.035M64.514 40.204h.396M64.91 40.204h.084M64.994 40.204h.137M65.131 40.204h.176M65.307 40.204h.205M65.512 40.204h.22M65.732 40.204h.461M77.25 39.013h.465M77.25 40.204h.465M77.715 40.204h.217M77.932 40.204h.207M78.139 40.204h.175M78.314 40.204h.133M78.447 40.204h.086M77.715 39.013h.217M77.932 39.013h.207M78.139 39.013h.175M78.314 39.013h.133M78.447 39.013h.086M78.533 40.204h.397M78.533 39.013h.397M78.93 39.013h.037M78.967 39.013h.056M79.023 39.013h.075M79.098 39.013h.082M78.93 40.204h.037M78.967 40.204h.056M79.023 40.204h.075M79.098 40.204h.082M79.18 40.204h1.045M79.18 39.013h1.045M80.225 39.013v1.191M63.217 35.413v1.191M64.91 35.413h.084M64.994 35.413h.137M65.131 35.413h.176M65.307 35.413h.205M65.512 35.413h.22M64.514 35.413h.396M64.264 35.413h.084M64.348 35.413h.074M64.422 35.413h.057M64.479 35.413h.035M63.217 35.413h1.047M65.732 35.413h.461M63.217 36.604h1.047M64.264 36.604h.084M64.348 36.604h.074M64.422 36.604h.057M64.479 36.604h.035M64.514 36.604h.396M64.91 36.604h.084M64.994 36.604h.137M65.131 36.604h.176M65.307 36.604h.205M65.512 36.604h.22M65.732 36.604h.461M77.25 35.413h.465M77.25 36.604h.465M77.715 36.604h.217M77.932 36.604h.207M78.139 36.604h.175M78.314 36.604h.133M78.447 36.604h.086M77.715 35.413h.217M77.932 35.413h.207M78.139 35.413h.175M78.314 35.413h.133M78.447 35.413h.086M78.533 36.604h.397M78.533 35.413h.397M78.93 35.413h.037M78.967 35.413h.056M79.023 35.413h.075M79.098 35.413h.082M78.93 36.604h.037M78.967 36.604h.056M79.023 36.604h.075M79.098 36.604h.082M79.18 36.604h1.045M79.18 35.413h1.045M80.225 35.413v1.191M77.25 35.413v1.191M77.25 39.013v1.191M77.25 42.613v1.191M77.25 46.213v1.191M76.826 34.886l.424-.423M76.826 47.931l.424.423M66.193 48.354l.424-.423M66.193 46.213v1.191M66.193 42.613v1.191M66.193 39.013v1.191M66.193 35.413v1.191M66.193 34.463l.424.423M66.193 34.463H77.25M66.193 48.354H77.25M77.25 47.404v.95M66.193 47.404v.95M77.25 34.463v.95M66.193 34.463v.95M77.25 36.604v2.409M66.193 36.604v2.409M77.25 40.204v2.409M66.193 40.204v2.409M77.25 43.804v2.409M66.193 43.804v2.409M66.617 34.886v13.045M66.617 34.886h10.209M76.826 34.886v13.045M66.617 47.931h10.209M69.332 36.913l.031-.239M69.244 37.137l.088-.224M69.102 37.329l.142-.192M68.918 37.482l.184-.153M68.703 37.584l.215-.102M68.465 37.63l.238-.046M68.227 37.616l.238.014M67.996 37.539l.231.077M67.795 37.412l.201.127M67.631 37.236l.164.176M67.516 37.026l.115.21M67.455 36.793l.061.233M67.455 36.556v.237M67.455 36.556l.061-.233M67.516 36.323l.115-.213M67.631 36.11l.164-.172M67.795 35.938l.201-.131M67.996 35.807l.231-.074M68.227 35.733l.238-.014M68.465 35.719l.238.046M68.703 35.765l.215.102M68.918 35.867l.184.153M69.102 36.02l.142.192M69.244 36.212l.088.225M69.332 36.437l.031.237M64.264 46.213v1.191M64.514 46.213v1.191M64.91 46.213v1.191M65.732 46.213v1.191M77.715 46.213v1.191M78.533 46.213v1.191M78.93 46.213v1.191M79.18 46.213v1.191M64.264 42.613v1.191M64.514 42.613v1.191M64.91 42.613v1.191M65.732 42.613v1.191M77.715 42.613v1.191M78.533 42.613v1.191M78.93 42.613v1.191M79.18 42.613v1.191M64.264 39.013v1.191M64.514 39.013v1.191M64.91 39.013v1.191M65.732 39.013v1.191M77.715 39.013v1.191M78.533 39.013v1.191M78.93 39.013v1.191M79.18 39.013v1.191M64.264 35.413v1.191M64.514 35.413v1.191M64.91 35.413v1.191M65.732 35.413v1.191M77.715 35.413v1.191M78.533 35.413v1.191M78.93 35.413v1.191M79.18 35.413v1.191"/><path fill-rule="evenodd" clip-rule="evenodd" fill="#FFF" d="M44.084 47.404h2.976v-1.191h-2.976v-2.409h2.976v-1.191h-2.976v-2.409h2.976v-1.191h-2.976v-2.409h2.976v-1.191h-2.976v-.95H33.029v.95h-2.977v1.191h2.977v2.409h-2.977v1.191h2.977v2.409h-2.977v1.191h2.977v2.409h-2.977v1.191h2.977v.95h11.055zM30.052 46.213v1.191M31.745 46.213h.085M31.83 46.213h.135M31.965 46.213h.177M32.142 46.213h.204M32.346 46.213h.22M31.348 46.213h.397M31.098 46.213h.085M31.183 46.213h.074M31.257 46.213h.056M31.313 46.213h.035M30.052 46.213h1.046M32.566 46.213h.463M30.052 47.404h1.046M31.098 47.404h.085M31.183 47.404h.074M31.257 47.404h.056M31.313 47.404h.035M31.348 47.404h.397M31.745 47.404h.085M31.83 47.404h.135M31.965 47.404h.177M32.142 47.404h.204M32.346 47.404h.22M32.566 47.404h.463M44.084 46.213h.464M44.084 47.404h.464M44.548 47.404h.219M44.767 47.404h.207M44.974 47.404h.175M45.149 47.404h.134M45.283 47.404h.085M44.548 46.213h.219M44.767 46.213h.207M44.974 46.213h.175M45.149 46.213h.134M45.283 46.213h.085M45.368 47.404h.397M45.368 46.213h.397M45.765 46.213h.037M45.802 46.213h.056M45.858 46.213h.074M45.932 46.213h.082M45.765 47.404h.037M45.802 47.404h.056M45.858 47.404h.074M45.932 47.404h.082M46.014 47.404h1.046M46.014 46.213h1.046M47.06 46.213v1.191M30.052 42.613v1.191M31.745 42.613h.085M31.83 42.613h.135M31.965 42.613h.177M32.142 42.613h.204M32.346 42.613h.22M31.348 42.613h.397M31.098 42.613h.085M31.183 42.613h.074M31.257 42.613h.056M31.313 42.613h.035M30.052 42.613h1.046M32.566 42.613h.463M30.052 43.804h1.046M31.098 43.804h.085M31.183 43.804h.074M31.257 43.804h.056M31.313 43.804h.035M31.348 43.804h.397M31.745 43.804h.085M31.83 43.804h.135M31.965 43.804h.177M32.142 43.804h.204M32.346 43.804h.22M32.566 43.804h.463M44.084 42.613h.464M44.084 43.804h.464M44.548 43.804h.219M44.767 43.804h.207M44.974 43.804h.175M45.149 43.804h.134M45.283 43.804h.085M44.548 42.613h.219M44.767 42.613h.207M44.974 42.613h.175M45.149 42.613h.134M45.283 42.613h.085M45.368 43.804h.397M45.368 42.613h.397M45.765 42.613h.037M45.802 42.613h.056M45.858 42.613h.074M45.932 42.613h.082M45.765 43.804h.037M45.802 43.804h.056M45.858 43.804h.074M45.932 43.804h.082M46.014 43.804h1.046M46.014 42.613h1.046M47.06 42.613v1.191M30.052 39.013v1.191M31.745 39.013h.085M31.83 39.013h.135M31.965 39.013h.177M32.142 39.013h.204M32.346 39.013h.22M31.348 39.013h.397M31.098 39.013h.085M31.183 39.013h.074M31.257 39.013h.056M31.313 39.013h.035M30.052 39.013h1.046M32.566 39.013h.463M30.052 40.204h1.046M31.098 40.204h.085M31.183 40.204h.074M31.257 40.204h.056M31.313 40.204h.035M31.348 40.204h.397M31.745 40.204h.085M31.83 40.204h.135M31.965 40.204h.177M32.142 40.204h.204M32.346 40.204h.22M32.566 40.204h.463M44.084 39.013h.464M44.084 40.204h.464M44.548 40.204h.219M44.767 40.204h.207M44.974 40.204h.175M45.149 40.204h.134M45.283 40.204h.085M44.548 39.013h.219M44.767 39.013h.207M44.974 39.013h.175M45.149 39.013h.134M45.283 39.013h.085M45.368 40.204h.397M45.368 39.013h.397M45.765 39.013h.037M45.802 39.013h.056M45.858 39.013h.074M45.932 39.013h.082M45.765 40.204h.037M45.802 40.204h.056M45.858 40.204h.074M45.932 40.204h.082M46.014 40.204h1.046M46.014 39.013h1.046M47.06 39.013v1.191M30.052 35.413v1.191M31.745 35.413h.085M31.83 35.413h.135M31.965 35.413h.177M32.142 35.413h.204M32.346 35.413h.22M31.348 35.413h.397M31.098 35.413h.085M31.183 35.413h.074M31.257 35.413h.056M31.313 35.413h.035M30.052 35.413h1.046M32.566 35.413h.463M30.052 36.604h1.046M31.098 36.604h.085M31.183 36.604h.074M31.257 36.604h.056M31.313 36.604h.035M31.348 36.604h.397M31.745 36.604h.085M31.83 36.604h.135M31.965 36.604h.177M32.142 36.604h.204M32.346 36.604h.22M32.566 36.604h.463M44.084 35.413h.464M44.084 36.604h.464M44.548 36.604h.219M44.767 36.604h.207M44.974 36.604h.175M45.149 36.604h.134M45.283 36.604h.085M44.548 35.413h.219M44.767 35.413h.207M44.974 35.413h.175M45.149 35.413h.134M45.283 35.413h.085M45.368 36.604h.397M45.368 35.413h.397M45.765 35.413h.037M45.802 35.413h.056M45.858 35.413h.074M45.932 35.413h.082M45.765 36.604h.037M45.802 36.604h.056M45.858 36.604h.074M45.932 36.604h.082M46.014 36.604h1.046M46.014 35.413h1.046M47.06 35.413v1.191M44.084 35.413v1.191M44.084 39.013v1.191M44.084 42.613v1.191M44.084 46.213v1.191M43.661 34.886l.423-.423M43.661 47.931l.423.423M33.029 48.354l.422-.423M33.029 46.213v1.191M33.029 42.613v1.191M33.029 39.013v1.191M33.029 35.413v1.191M33.029 34.463l.422.423M33.029 34.463h11.055M33.029 48.354h11.055M44.084 47.404v.95M33.029 47.404v.95M44.084 34.463v.95M33.029 34.463v.95M44.084 36.604v2.409M33.029 36.604v2.409M44.084 40.204v2.409M33.029 40.204v2.409M44.084 43.804v2.409M33.029 43.804v2.409M33.451 34.886v13.045M33.451 34.886h10.21M43.661 34.886v13.045M33.451 47.931h10.21M36.167 36.913l.031-.239M36.079 37.137l.088-.224M35.937 37.329l.142-.192M35.752 37.482l.185-.153M35.537 37.584l.215-.102M35.299 37.63l.238-.046M35.061 37.616l.238.014M34.832 37.539l.229.077M34.63 37.412l.202.127M34.466 37.236l.164.176M34.35 37.026l.116.21M34.29 36.793l.06.233M34.29 36.556v.237M34.29 36.556l.06-.233M34.35 36.323l.116-.213M34.466 36.11l.164-.172M34.63 35.938l.202-.131M34.832 35.807l.229-.074M35.061 35.733l.238-.014M35.299 35.719l.238.046M35.537 35.765l.215.102M35.752 35.867l.185.153M35.937 36.02l.142.192M36.079 36.212l.088.225M36.167 36.437l.031.237M31.098 46.213v1.191M31.348 46.213v1.191M31.745 46.213v1.191M32.566 46.213v1.191M44.548 46.213v1.191M45.368 46.213v1.191M45.765 46.213v1.191M46.014 46.213v1.191M31.098 42.613v1.191M31.348 42.613v1.191M31.745 42.613v1.191M32.566 42.613v1.191M44.548 42.613v1.191M45.368 42.613v1.191M45.765 42.613v1.191M46.014 42.613v1.191M31.098 39.013v1.191M31.348 39.013v1.191M31.745 39.013v1.191M32.566 39.013v1.191M44.548 39.013v1.191M45.368 39.013v1.191M45.765 39.013v1.191M46.014 39.013v1.191M31.098 35.413v1.191M31.348 35.413v1.191M31.745 35.413v1.191M32.566 35.413v1.191M44.548 35.413v1.191M45.368 35.413v1.191M45.765 35.413v1.191M46.014 35.413v1.191"/><path fill-rule="evenodd" clip-rule="evenodd" fill="#D9EAD3" d="M42.88 36.859h5.526l.001-.001v-1.699l-.001-.001H42.88l-.001.001v1.699z"/><path fill="none" stroke="#D9EAD3" stroke-width=".283" stroke-linecap="round" stroke-miterlimit="10" d="M42.88 36.859h5.526l.001-.001v-1.699l-.001-.001H42.88l-.001.001v1.699z"/><path fill-rule="evenodd" clip-rule="evenodd" fill="#D9EAD3" d="M42.88 40.459h5.526l.001-.001v-1.699l-.001-.001H42.88l-.001.001v1.699z"/><path fill="none" stroke="#D9EAD3" stroke-width=".283" stroke-linecap="round" stroke-miterlimit="10" d="M42.88 40.459h5.526l.001-.001v-1.699l-.001-.001H42.88l-.001.001v1.699z"/><path fill-rule="evenodd" clip-rule="evenodd" fill="#D9EAD3" d="M42.88 44.059h5.526l.001-.001v-1.699l-.001-.001H42.88l-.001.001v1.699z"/><path fill="none" stroke="#D9EAD3" stroke-width=".283" stroke-linecap="round" stroke-miterlimit="10" d="M42.88 44.059h5.526l.001-.001v-1.699l-.001-.001H42.88l-.001.001v1.699z"/><path fill-rule="evenodd" clip-rule="evenodd" fill="#D9EAD3" d="M42.88 47.659h5.526l.001-.001v-1.699l-.001-.001H42.88l-.001.001v1.699z"/><path fill="none" stroke="#D9EAD3" stroke-width=".283" stroke-linecap="round" stroke-miterlimit="10" d="M42.88 47.659h5.526l.001-.001v-1.699l-.001-.001H42.88l-.001.001v1.699z"/><path fill-rule="evenodd" clip-rule="evenodd" fill="#D9EAD3" d="M28.707 47.659h5.525l.001-.001v-1.699l-.001-.001h-5.525l-.001.001v1.699z"/><path fill="none" stroke="#D9EAD3" stroke-width=".283" stroke-linecap="round" stroke-miterlimit="10" d="M28.707 47.659h5.525l.001-.001v-1.699l-.001-.001h-5.525l-.001.001v1.699z"/><path fill-rule="evenodd" clip-rule="evenodd" fill="#D9EAD3" d="M28.707 44.059h5.525l.001-.001v-1.699l-.001-.001h-5.525l-.001.001v1.699z"/><path fill="none" stroke="#D9EAD3" stroke-width=".283" stroke-linecap="round" stroke-miterlimit="10" d="M28.707 44.059h5.525l.001-.001v-1.699l-.001-.001h-5.525l-.001.001v1.699z"/><path fill-rule="evenodd" clip-rule="evenodd" fill="#D9EAD3" d="M28.707 40.459h5.525l.001-.001v-1.699l-.001-.001h-5.525l-.001.001v1.699z"/><path fill="none" stroke="#D9EAD3" stroke-width=".283" stroke-linecap="round" stroke-miterlimit="10" d="M28.707 40.459h5.525l.001-.001v-1.699l-.001-.001h-5.525l-.001.001v1.699z"/><path fill-rule="evenodd" clip-rule="evenodd" fill="#D9EAD3" d="M28.707 36.859h5.525l.001-.001v-1.699l-.001-.001h-5.525l-.001.001v1.699z"/><path fill="none" stroke="#D9EAD3" stroke-width=".283" stroke-linecap="round" stroke-miterlimit="10" d="M28.707 36.859h5.525l.001-.001v-1.699l-.001-.001h-5.525l-.001.001v1.699z"/><path fill="none" stroke="#000" stroke-width=".283" stroke-linecap="round" stroke-miterlimit="10" d="M44.084 47.404h2.976v-1.191h-2.976v-2.409h2.976v-1.191h-2.976v-2.409h2.976v-1.191h-2.976v-2.409h2.976v-1.191h-2.976v-.95H33.028v.95h-2.976v1.191h2.976v2.409h-2.976v1.191h2.976v2.409h-2.976v1.191h2.976v2.409h-2.976v1.191h2.976v.95h11.056zM30.052 46.213v1.191M31.745 46.213h.085M31.83 46.213h.135M31.965 46.213h.177M32.142 46.213h.204M32.346 46.213h.22M31.348 46.213h.397M31.098 46.213h.085M31.183 46.213h.074M31.257 46.213h.056M31.313 46.213h.035M30.052 46.213h1.046M32.566 46.213h.462M30.052 47.404h1.046M31.098 47.404h.085M31.183 47.404h.074M31.257 47.404h.056M31.313 47.404h.035M31.348 47.404h.397M31.745 47.404h.085M31.83 47.404h.135M31.965 47.404h.177M32.142 47.404h.204M32.346 47.404h.22M32.566 47.404h.462M44.084 46.213h.464M44.084 47.404h.464M44.548 47.404h.219M44.767 47.404h.207M44.974 47.404h.175M45.149 47.404h.134M45.283 47.404h.085M44.548 46.213h.219M44.767 46.213h.207M44.974 46.213h.175M45.149 46.213h.134M45.283 46.213h.085M45.368 47.404h.397M45.368 46.213h.397M45.765 46.213h.037M45.802 46.213h.056M45.858 46.213h.074M45.932 46.213h.082M45.765 47.404h.037M45.802 47.404h.056M45.858 47.404h.074M45.932 47.404h.082M46.014 47.404h1.046M46.014 46.213h1.046M47.06 46.213v1.191M30.052 42.613v1.191M31.745 42.613h.085M31.83 42.613h.135M31.965 42.613h.177M32.142 42.613h.204M32.346 42.613h.22M31.348 42.613h.397M31.098 42.613h.085M31.183 42.613h.074M31.257 42.613h.056M31.313 42.613h.035M30.052 42.613h1.046M32.566 42.613h.462M30.052 43.804h1.046M31.098 43.804h.085M31.183 43.804h.074M31.257 43.804h.056M31.313 43.804h.035M31.348 43.804h.397M31.745 43.804h.085M31.83 43.804h.135M31.965 43.804h.177M32.142 43.804h.204M32.346 43.804h.22M32.566 43.804h.462M44.084 42.613h.464M44.084 43.804h.464M44.548 43.804h.219M44.767 43.804h.207M44.974 43.804h.175M45.149 43.804h.134M45.283 43.804h.085M44.548 42.613h.219M44.767 42.613h.207M44.974 42.613h.175M45.149 42.613h.134M45.283 42.613h.085M45.368 43.804h.397M45.368 42.613h.397M45.765 42.613h.037M45.802 42.613h.056M45.858 42.613h.074M45.932 42.613h.082M45.765 43.804h.037M45.802 43.804h.056M45.858 43.804h.074M45.932 43.804h.082M46.014 43.804h1.046M46.014 42.613h1.046M47.06 42.613v1.191M30.052 39.013v1.191M31.745 39.013h.085M31.83 39.013h.135M31.965 39.013h.177M32.142 39.013h.204M32.346 39.013h.22M31.348 39.013h.397M31.098 39.013h.085M31.183 39.013h.074M31.257 39.013h.056M31.313 39.013h.035M30.052 39.013h1.046M32.566 39.013h.462M30.052 40.204h1.046M31.098 40.204h.085M31.183 40.204h.074M31.257 40.204h.056M31.313 40.204h.035M31.348 40.204h.397M31.745 40.204h.085M31.83 40.204h.135M31.965 40.204h.177M32.142 40.204h.204M32.346 40.204h.22M32.566 40.204h.462M44.084 39.013h.464M44.084 40.204h.464M44.548 40.204h.219M44.767 40.204h.207M44.974 40.204h.175M45.149 40.204h.134M45.283 40.204h.085M44.548 39.013h.219M44.767 39.013h.207M44.974 39.013h.175M45.149 39.013h.134M45.283 39.013h.085M45.368 40.204h.397M45.368 39.013h.397M45.765 39.013h.037M45.802 39.013h.056M45.858 39.013h.074M45.932 39.013h.082M45.765 40.204h.037M45.802 40.204h.056M45.858 40.204h.074M45.932 40.204h.082M46.014 40.204h1.046M46.014 39.013h1.046M47.06 39.013v1.191M30.052 35.413v1.191M31.745 35.413h.085M31.83 35.413h.135M31.965 35.413h.177M32.142 35.413h.204M32.346 35.413h.22M31.348 35.413h.397M31.098 35.413h.085M31.183 35.413h.074M31.257 35.413h.056M31.313 35.413h.035M30.052 35.413h1.046M32.566 35.413h.462M30.052 36.604h1.046M31.098 36.604h.085M31.183 36.604h.074M31.257 36.604h.056M31.313 36.604h.035M31.348 36.604h.397M31.745 36.604h.085M31.83 36.604h.135M31.965 36.604h.177M32.142 36.604h.204M32.346 36.604h.22M32.566 36.604h.462M44.084 35.413h.464M44.084 36.604h.464M44.548 36.604h.219M44.767 36.604h.207M44.974 36.604h.175M45.149 36.604h.134M45.283 36.604h.085M44.548 35.413h.219M44.767 35.413h.207M44.974 35.413h.175M45.149 35.413h.134M45.283 35.413h.085M45.368 36.604h.397M45.368 35.413h.397M45.765 35.413h.037M45.802 35.413h.056M45.858 35.413h.074M45.932 35.413h.082M45.765 36.604h.037M45.802 36.604h.056M45.858 36.604h.074M45.932 36.604h.082M46.014 36.604h1.046M46.014 35.413h1.046M47.06 35.413v1.191M44.084 35.413v1.191M44.084 39.013v1.191M44.084 42.613v1.191M44.084 46.213v1.191M43.661 34.886l.423-.423M43.661 47.931l.423.423M33.028 48.354l.423-.423M33.028 46.213v1.191M33.028 42.613v1.191M33.028 39.013v1.191M33.028 35.413v1.191M33.028 34.463l.423.423M33.028 34.463h11.056M33.028 48.354h11.056M44.084 47.404v.95M33.028 47.404v.95M44.084 34.463v.95M33.028 34.463v.95M44.084 36.604v2.409M33.028 36.604v2.409M44.084 40.204v2.409M33.028 40.204v2.409M44.084 43.804v2.409M33.028 43.804v2.409M33.451 34.886v13.045M33.451 34.886h10.21M43.661 34.886v13.045M33.451 47.931h10.21M36.167 36.913l.031-.239M36.079 37.137l.088-.224M35.937 37.329l.142-.192M35.752 37.482l.185-.153M35.537 37.584l.215-.102M35.299 37.63l.238-.046M35.061 37.616l.238.014M34.832 37.539l.229.077M34.63 37.412l.202.127M34.466 37.236l.164.176M34.35 37.026l.116.21M34.29 36.793l.06.233M34.29 36.556v.237M34.29 36.556l.06-.233M34.35 36.323l.116-.213M34.466 36.11l.164-.172M34.63 35.938l.202-.131M34.832 35.807l.229-.074M35.061 35.733l.238-.014M35.299 35.719l.238.046M35.537 35.765l.215.102M35.752 35.867l.185.153M35.937 36.02l.142.192M36.079 36.212l.088.225M36.167 36.437l.031.237M31.098 46.213v1.191M31.348 46.213v1.191M31.745 46.213v1.191M32.566 46.213v1.191M44.548 46.213v1.191M45.368 46.213v1.191M45.765 46.213v1.191M46.014 46.213v1.191M31.098 42.613v1.191M31.348 42.613v1.191M31.745 42.613v1.191M32.566 42.613v1.191M44.548 42.613v1.191M45.368 42.613v1.191M45.765 42.613v1.191M46.014 42.613v1.191M31.098 39.013v1.191M31.348 39.013v1.191M31.745 39.013v1.191M32.566 39.013v1.191M44.548 39.013v1.191M45.368 39.013v1.191M45.765 39.013v1.191M46.014 39.013v1.191M31.098 35.413v1.191M31.348 35.413v1.191M31.745 35.413v1.191M32.566 35.413v1.191M44.548 35.413v1.191M45.368 35.413v1.191M45.765 35.413v1.191M46.014 35.413v1.191"/><path fill-rule="evenodd" clip-rule="evenodd" fill="#A4C2F4" d="M66.846 66.269a2.693 2.693 0 1 0 0-5.387 2.693 2.693 0 0 0 0 5.387z"/><path fill="none" stroke="#A4C2F4" stroke-width=".283" stroke-linecap="round" stroke-miterlimit="10" d="M66.846 66.269a2.693 2.693 0 1 0 0-5.387 2.693 2.693 0 0 0 0 5.387z"/><path fill-rule="evenodd" clip-rule="evenodd" fill="#A4C2F4" d="M58.994 66.269a2.693 2.693 0 1 0 0-5.385 2.693 2.693 0 0 0 0 5.385z"/><path fill="none" stroke="#A4C2F4" stroke-width=".283" stroke-linecap="round" stroke-miterlimit="10" d="M58.994 66.269a2.693 2.693 0 1 0 0-5.385 2.693 2.693 0 0 0 0 5.385z"/><path fill-rule="evenodd" clip-rule="evenodd" fill="#A4C2F4" d="M51.142 66.269a2.694 2.694 0 1 0 0-5.385 2.694 2.694 0 0 0 0 5.385z"/><path fill="none" stroke="#A4C2F4" stroke-width=".283" stroke-linecap="round" stroke-miterlimit="10" d="M51.142 66.269a2.694 2.694 0 1 0 0-5.385 2.694 2.694 0 0 0 0 5.385z"/><path fill-rule="evenodd" clip-rule="evenodd" fill="#A4C2F4" d="M43.29 66.269a2.694 2.694 0 1 0-.002-5.388 2.694 2.694 0 0 0 .002 5.388z"/><path fill="none" stroke="#A4C2F4" stroke-width=".283" stroke-linecap="round" stroke-miterlimit="10" d="M43.29 66.269a2.694 2.694 0 1 0-.002-5.388 2.694 2.694 0 0 0 .002 5.388z"/><path fill-rule="evenodd" clip-rule="evenodd" fill="#A4C2F4" d="M70.771 58.218a2.693 2.693 0 1 0 0-5.387 2.693 2.693 0 0 0 0 5.387z"/><path fill="none" stroke="#A4C2F4" stroke-width=".283" stroke-linecap="round" stroke-miterlimit="10" d="M70.771 58.218a2.693 2.693 0 1 0 0-5.387 2.693 2.693 0 0 0 0 5.387z"/><path fill-rule="evenodd" clip-rule="evenodd" fill="#A4C2F4" d="M62.92 58.218a2.693 2.693 0 1 0 0-5.387 2.693 2.693 0 0 0 0 5.387z"/><path fill="none" stroke="#A4C2F4" stroke-width=".283" stroke-linecap="round" stroke-miterlimit="10" d="M62.92 58.218a2.693 2.693 0 1 0 0-5.387 2.693 2.693 0 0 0 0 5.387z"/><path fill-rule="evenodd" clip-rule="evenodd" fill="#A4C2F4" d="M55.068 58.218a2.694 2.694 0 1 0-2.694-2.693 2.695 2.695 0 0 0 2.694 2.693z"/><path fill="none" stroke="#A4C2F4" stroke-width=".283" stroke-linecap="round" stroke-miterlimit="10" d="M55.068 58.218a2.694 2.694 0 1 0-2.694-2.693 2.695 2.695 0 0 0 2.694 2.693z"/><path fill-rule="evenodd" clip-rule="evenodd" fill="#A4C2F4" d="M47.216 58.218a2.694 2.694 0 0 0 0-5.386 2.693 2.693 0 0 0 0 5.386z"/><path fill="none" stroke="#A4C2F4" stroke-width=".283" stroke-linecap="round" stroke-miterlimit="10" d="M47.216 58.218a2.694 2.694 0 0 0 0-5.386 2.693 2.693 0 0 0 0 5.386z"/><path fill-rule="evenodd" clip-rule="evenodd" fill="#A4C2F4" d="M39.364 58.218a2.694 2.694 0 0 0 0-5.386 2.693 2.693 0 0 0 0 5.386z"/><path fill="none" stroke="#A4C2F4" stroke-width=".283" stroke-linecap="round" stroke-miterlimit="10" d="M39.364 58.218a2.694 2.694 0 0 0 0-5.386 2.693 2.693 0 0 0 0 5.386z"/><path fill-rule="evenodd" clip-rule="evenodd" fill="#A4C2F4" d="M90.416 67.203a7.653 7.653 0 1 0 0-15.306 7.653 7.653 0 0 0 0 15.306z"/><path fill="none" stroke="#A4C2F4" stroke-width=".283" stroke-linecap="round" stroke-miterlimit="10" d="M90.416 67.203a7.653 7.653 0 1 0 0-15.306 7.653 7.653 0 0 0 0 15.306z"/><path fill-rule="evenodd" clip-rule="evenodd" fill="#A4C2F4" d="M19.578 67.203a7.653 7.653 0 1 0-7.653-7.652 7.652 7.652 0 0 0 7.653 7.652z"/><path fill="none" stroke="#A4C2F4" stroke-width=".283" stroke-linecap="round" stroke-miterlimit="10" d="M19.578 67.203a7.653 7.653 0 1 0-7.653-7.652 7.652 7.652 0 0 0 7.653 7.652z"/></svg>